<?xml version="1.0" encoding="utf-8"?>
<!-- Generator: Adobe Illustrator 23.0.6, SVG Export Plug-In . SVG Version: 6.00 Build 0)  -->
<svg version="1.1" id="Layer_3" xmlns="http://www.w3.org/2000/svg" xmlns:xlink="http://www.w3.org/1999/xlink" x="0px" y="0px"
	 viewBox="0 0 1000 1000" style="enable-background:new 0 0 1000 1000;" xml:space="preserve">
<path d="M500,156.42c-117.18,0-212.52,95.34-212.52,212.52v262.12c0,117.18,95.34,212.52,212.52,212.52l0-6.41v6.41c0,0,0,0,0,0
	c56.76,0,110.14-22.11,150.27-62.25c40.14-40.14,62.24-93.51,62.24-150.27V368.94C712.52,251.75,617.18,156.42,500,156.42z
	 M300.29,368.94c0-107.17,84.86-194.89,190.92-199.5l-0.04,0.04c5.25,5.49,10.25,11.21,14.99,17.12
	c-42.5,15.34-99.85,45.75-147.15,105.33c-30.73,38.7-48.54,78.95-58.72,115.11V368.94z M369.05,299.89
	c46.88-59.05,104.04-88.29,145.25-102.58c4.96,6.87,9.61,13.97,13.87,21.28c2.54,4.35,6.55,11.23,10.92,20.25
	c-58.52,24.33-110.82,61.75-151.54,108.6c-48.87,56.21-74.26,116.98-87.25,168.87v-16.23C300.12,457.88,308.82,375.75,369.05,299.89
	z M598.65,513.7c1.72,9.09,7.14,14.78,11.49,19.36c4.07,4.28,5.7,6.26,5.38,8.67c-0.16,1.2-0.58,1.75-2.29,3.6
	c-2.31,2.48-5.48,5.88-6.66,12.5c-1.17,6.56,0.58,10.94,1.86,14.13c0.99,2.46,1.28,3.31,0.91,4.81c-0.56,2.26-2.11,3.36-6.08,5.74
	c-4.29,2.56-9.62,5.76-12.41,12.79c-2.79,7.02-0.93,12.51,1.05,18.31c0.9,2.64,1.92,5.63,2.67,9.25
	c2.62,12.65,0.96,27.79-4.03,36.81c-6.77,12.23-20.32,19.04-41.42,20.82c-15.34,1.3-29.96-2.54-45.44-6.59
	c-7.72-2.02-15.7-4.11-23.81-5.53c-26.15-4.57-54.09-1.28-78.67,9.25c-27.59,11.82-43.86,33.86-50.81,43.27l-0.76,1.03
	c-5.26,7.09-9.89,14.65-13.88,22.57c-12.98-18.73-22.83-39.78-28.81-62.39c16.28-85.18,52.37-166.24,104.43-234.5
	c41.1-53.89,91.24-99.36,149.1-135.31c0.17,1.5,0.34,2.98,0.5,4.45c1.41,12.87,2.87,26.19,9.91,47.36
	c3.66,11.01,5.87,17.65,10.78,26.05c6.81,11.65,13.81,18.54,39.86,44.15l2.65,2.61c7.4,7.28,15.76,15.5,16.61,18.34
	c-0.47,1.88-3.55,3.64-8.42,6.29c-7.07,3.84-16.75,9.11-24.46,20.51C604.31,487.31,595.98,499.62,598.65,513.7z M401.16,439.83
	c-46.94,61.55-81.19,133.26-100.06,209.06c-0.52-5.87-0.8-11.82-0.8-17.82v-23.7c1.8-54.4,16.78-159.34,96.92-251.52
	c39.51-45.45,90.3-81.75,147.15-105.32c4.14,9.85,8.23,21.4,11.38,34.41c1.2,4.93,2.08,9.38,2.79,13.5
	C497.29,335.66,444.35,383.2,401.16,439.83z M344.39,756.08c4.21-9.4,9.41-18.31,15.51-26.53l0.78-1.05
	c6.87-9.3,21.16-28.65,45.55-39.1c12.02-5.15,24.92-8.37,37.97-9.62c-13.18,10-27.66,24-39.91,43.17
	c-15.61,24.43-22.16,48.64-24.74,67.29C366.47,780.33,354.66,768.85,344.39,756.08z M699.71,631.06
	c0,53.34-20.77,103.5-58.49,141.22C603.5,810,553.34,830.77,500,830.77c-40,0-77.28-11.83-108.55-32.15
	c1.69-17.86,7.27-43.19,23.62-68.77c16.42-25.7,37.18-41.36,52.28-50.18c3.45,0.3,6.89,0.73,10.29,1.33
	c7.59,1.33,15.31,3.35,22.77,5.3c15.85,4.15,32.22,8.44,49.76,6.96c25.33-2.13,42.68-11.35,51.55-27.39
	c6.55-11.83,8.65-29.73,5.37-45.61c-0.91-4.4-2.12-7.94-3.08-10.79c-1.72-5.06-2.27-6.94-1.27-9.45c1.14-2.86,3.43-4.34,7.09-6.53
	c4.47-2.67,10.03-6,11.93-13.63c1.39-5.58-0.25-9.67-1.44-12.66c-1.01-2.51-1.67-4.17-1.14-7.13c0.52-2.9,1.67-4.14,3.42-6.02
	c2.07-2.23,4.92-5.28,5.62-10.66c1.14-8.72-4.14-14.27-8.8-19.17c-3.68-3.87-7.16-7.53-8.18-12.91c-1.68-8.88,4.12-17.46,7.24-22.08
	c5.97-8.82,13.4-12.87,19.97-16.44c6.84-3.72,13.92-7.57,15.05-16.1c1.04-7.86-5.67-14.46-20.37-28.92l-2.65-2.61
	c-25.1-24.67-31.84-31.31-37.79-41.48c-4.07-6.96-5.8-11.97-9.68-23.62c-6.61-19.88-7.93-31.94-9.33-44.71
	c-1.06-9.67-2.15-19.67-5.49-33.43c-8.35-34.49-22.79-59.22-28.95-69.78c-8.85-15.16-19.2-29.48-30.79-42.71
	c106.22,4.44,191.26,92.23,191.26,199.52V631.06z"/>
</svg>
