<?xml version="1.0" encoding="utf-8"?>
<!-- Generator: Adobe Illustrator 23.0.6, SVG Export Plug-In . SVG Version: 6.00 Build 0)  -->
<svg version="1.1" id="Layer_1" xmlns="http://www.w3.org/2000/svg" xmlns:xlink="http://www.w3.org/1999/xlink" x="0px" y="0px"
	 viewBox="0 0 720 720" style="enable-background:new 0 0 720 720;" xml:space="preserve">
<path d="M248.68,368.84l83.42-22.18c3.52-3.11,2.05-8.45,2.42-15.54l14.92-117.45c0.53-10.03-6.14-19.07-15.91-21.42
	c-19.01-4.59-51.41-9.69-82.44-1.71c-31.31,8.05-60.15,28.57-76.4,41.85c-8.08,6.6-10.07,18.15-4.65,27.07l69.72,97.47
	C243.42,362.99,244.43,367.9,248.68,368.84z"/>
<path d="M381.15,533.44l-30.32-113.83l-0.01,0l-16.48-61.86l-5.14,1.37l16.48,61.86l-68.6,18.27l-16.49-61.89l-5.14,1.37l16.49,61.9
	l-0.01,0l30.32,113.83c2.72,10.21,22.7,13.84,44.39,8.06C368.35,556.74,383.87,543.65,381.15,533.44z"/>
<path d="M391.34,309.1v225.94c0,13.78,5.49,25.05,12.21,25.05h17.28c6.71,0,12.21-11.27,12.21-25.05V309.1H391.34z"/>
<polygon points="428.92,254.22 428.92,305.52 395.45,305.52 395.45,254.22 391.96,254.22 391.96,312.68 432.41,312.68 
	432.41,254.22 "/>
<path d="M400.79,251.99h22.88c5.12,0,9.55-4.01,10.69-9.67l13.18-65.38c1.12-5.57-1.24-11.25-5.71-13.87
	c-6.44-3.77-16.73-8.21-29.64-8.33c-12.84-0.12-22.89,4.18-29.16,7.89c-4.4,2.61-6.74,8.22-5.67,13.73l12.71,65.85
	C391.17,247.92,395.63,251.99,400.79,251.99z"/>
<path d="M487.51,338.78c-0.09,0.32-0.19,0.63-0.26,0.96l-44.2,198.55c-2.22,9.98,3.44,19.81,12.57,21.84l15.03,3.35
	c9.14,2.03,18.43-4.47,20.65-14.45l44.2-198.55c0.07-0.33,0.11-0.65,0.17-0.98L487.51,338.78z"/>
<polygon points="537.33,320.96 528.78,359.42 489.69,350.72 498.25,312.26 493.5,311.21 483.79,354.84 532.37,365.66 542.08,322.02 
	"/>
<path d="M501.06,309.15l33.56,7.47c3.72,0.83,7.48-1.8,8.38-5.86l9.81-44.06c1.26-5.66-3.56-10.46-8.68-8.64l-38.18,13.57
	c-2.38,0.85-4.21,2.98-4.8,5.61l-5.19,23.02C495.04,304.33,497.33,308.32,501.06,309.15z"/>
</svg>
