<svg id="Layer_1" data-name="Layer 1" xmlns="http://www.w3.org/2000/svg" xmlns:xlink="http://www.w3.org/1999/xlink" viewBox="0 0 420 420"><defs><style>.cls-1{fill:url(#linear-gradient);}.cls-2{fill:url(#linear-gradient-2);}.cls-3{fill:url(#linear-gradient-3);}.cls-4{fill:url(#linear-gradient-4);}.cls-5{fill:url(#linear-gradient-5);}.cls-6{fill:url(#linear-gradient-6);}.cls-7{fill:url(#linear-gradient-7);}.cls-8{fill:url(#linear-gradient-8);}.cls-9{fill:url(#linear-gradient-9);}.cls-10{fill:url(#linear-gradient-10);}.cls-11{fill:url(#linear-gradient-11);}.cls-12{fill:url(#linear-gradient-12);}.cls-13{fill:url(#linear-gradient-13);}.cls-14{fill:url(#linear-gradient-14);}.cls-15{fill:url(#linear-gradient-15);}</style><linearGradient id="linear-gradient" x1="134.54" y1="406.99" x2="134.54" y2="-202.89" gradientUnits="userSpaceOnUse"><stop offset="0.15" stop-color="#640b8e"/><stop offset="0.32" stop-color="#223cef"/><stop offset="0.35" stop-color="#2e35e0"/><stop offset="0.41" stop-color="#4e24b9"/><stop offset="0.48" stop-color="#7b0b82"/><stop offset="0.62" stop-color="#340daa"/><stop offset="0.7" stop-color="#07002b"/><stop offset="0.78" stop-color="#223cef"/><stop offset="1" stop-color="#7b0b82"/></linearGradient><linearGradient id="linear-gradient-2" x1="586.96" y1="696.99" x2="586.96" y2="87.11" xlink:href="#linear-gradient"/><linearGradient id="linear-gradient-3" x1="209.38" y1="406.99" x2="209.38" y2="-202.89" xlink:href="#linear-gradient"/><linearGradient id="linear-gradient-4" x1="458.43" y1="410.87" x2="458.43" y2="410.87" xlink:href="#linear-gradient"/><linearGradient id="linear-gradient-5" x1="484.84" y1="696.99" x2="484.84" y2="87.11" gradientTransform="translate(466.6 -208.38) rotate(45)" xlink:href="#linear-gradient"/><linearGradient id="linear-gradient-6" x1="209.69" y1="406.99" x2="209.69" y2="-202.89" xlink:href="#linear-gradient"/><linearGradient id="linear-gradient-7" x1="518.62" y1="696.99" x2="518.62" y2="87.11" gradientTransform="translate(482.07 1340.31) rotate(-135)" xlink:href="#linear-gradient"/><linearGradient id="linear-gradient-8" x1="116.29" y1="406.99" x2="116.29" y2="-202.89" xlink:href="#linear-gradient"/><linearGradient id="linear-gradient-9" x1="393.92" y1="557.9" x2="393.92" y2="557.9" xlink:href="#linear-gradient"/><linearGradient id="linear-gradient-10" x1="442.09" y1="696.99" x2="442.09" y2="87.11" gradientTransform="translate(1130.51 594.71) rotate(135)" xlink:href="#linear-gradient"/><linearGradient id="linear-gradient-11" x1="306.92" y1="406.99" x2="306.92" y2="-202.89" xlink:href="#linear-gradient"/><linearGradient id="linear-gradient-12" x1="553.36" y1="696.99" x2="553.36" y2="87.11" gradientTransform="translate(-189.86 537.06) rotate(-45)" xlink:href="#linear-gradient"/><linearGradient id="linear-gradient-13" x1="421.13" y1="696.99" x2="421.13" y2="87.11" xlink:href="#linear-gradient"/><linearGradient id="linear-gradient-14" x1="293.56" y1="406.99" x2="293.56" y2="-202.89" xlink:href="#linear-gradient"/><linearGradient id="linear-gradient-15" x1="500" y1="696.99" x2="500" y2="87.11" xlink:href="#linear-gradient"/></defs><title>Oracle Real Estate</title><polygon class="cls-1" points="210 206.38 106.46 309.92 98.17 301.63 90.22 309.58 82.62 301.98 90.22 294.37 76.6 280.75 44.81 312.53 59.12 326.84 68.88 317.07 75.12 323.32 66.61 331.83 76.37 340.01 59.34 355 73.87 370.44 224.27 220.65 210 206.38"/><path class="cls-2" d="M672,363.66a25.41,25.41,0,0,0-44.66-16.61,31.9,31.9,0,1,0-47.14,43,28.3,28.3,0,0,0-7.29,33.43l-11.1,11.1-1.37-1.36A9.54,9.54,0,1,0,547,446.7l1.36,1.36-46.39,46.39,14.27,14.28,4.38-4.37,42.11-41.93,1,1a9.54,9.54,0,0,0,13.48-13.49l-.93-.93,10.88-10.83v-.67a28.23,28.23,0,0,0,32.52-6.79,31.9,31.9,0,0,0,42.87-47.18A25.41,25.41,0,0,0,672,363.66Zm-73.34,58.58a10.67,10.67,0,1,1,9.55-15.4,32.14,32.14,0,0,0,.89,6.93A10.68,10.68,0,0,1,598.66,422.24Zm5.11-39.51A14.19,14.19,0,1,1,618,368.54,14.2,14.2,0,0,1,603.77,382.73Zm36.33,37.7A14.23,14.23,0,0,1,627,411.77c0-.07,0-.13,0-.2a28.38,28.38,0,0,0-1-7.3,14.18,14.18,0,1,1,14,16.16Zm6.47-49.05a7.72,7.72,0,1,1,7.72-7.72A7.72,7.72,0,0,1,646.57,371.38Z" transform="translate(-290 -290)"/><polygon class="cls-3" points="186.78 121.57 234.18 168.97 225.61 178.06 168.43 120.87 209.38 79.93 250.32 120.87 224.45 146.75 215.99 138.29 233.43 120.85 209.98 97.41 186.78 121.57"/><path class="cls-4" d="M458.43,410.87" transform="translate(-290 -290)"/><rect class="cls-5" x="477.71" y="452.42" width="14.26" height="13.25" transform="translate(-472.59 187.28) rotate(-45)"/><polygon class="cls-6" points="232.96 330.46 179.01 275.52 187.84 266.17 251.87 331.18 209.69 373.36 167.5 331.18 194.16 304.52 202.88 313.23 184.91 331.2 209.06 355.35 232.96 330.46"/><rect class="cls-7" x="507.6" y="563.49" width="22.03" height="13.65" transform="translate(998.62 316.87) rotate(135)"/><polygon class="cls-8" points="104.62 249.55 160.52 194.54 169.6 203.11 103.92 267.9 62.97 226.96 103.92 186.01 129.79 211.88 121.33 220.34 103.9 202.91 80.45 226.35 104.62 249.55"/><path class="cls-9" d="M393.92,557.9" transform="translate(-290 -290)"/><rect class="cls-10" x="434.96" y="524.87" width="14.26" height="13.25" transform="translate(88.87 929.92) rotate(-135)"/><polygon class="cls-11" points="313.5 203.37 266.79 251.25 257.43 242.42 314.22 184.46 356.4 226.64 314.22 268.83 287.56 242.17 296.28 233.46 314.24 251.42 338.39 227.27 313.5 203.37"/><rect class="cls-12" x="542.35" y="490.88" width="22.03" height="13.65" transform="translate(224.01 -535.51) rotate(45)"/><path class="cls-13" d="M359.9,438.14a31.82,31.82,0,0,0,20.5-7.46,28.23,28.23,0,0,0,32.52,6.79v.67L423.8,449l-.93.93a9.54,9.54,0,0,0,13.48,13.49l1-1L500,524.86l14.27-14.21-62.59-62.59L453,446.7a9.54,9.54,0,0,0-13.48-13.49l-1.37,1.36-11.1-11.1A28.3,28.3,0,0,0,419.8,390a31.9,31.9,0,1,0-47.14-43,25.42,25.42,0,1,0-35.13,36.45,31.9,31.9,0,0,0,22.37,54.64Zm41.44-15.9a10.68,10.68,0,0,1-10.44-8.47,32.14,32.14,0,0,0,.89-6.93,10.66,10.66,0,1,1,9.55,15.4Zm-5.11-67.89A14.19,14.19,0,1,1,382,368.54,14.21,14.21,0,0,1,396.23,354.35Zm-42.8,1.59a7.72,7.72,0,1,1-7.72,7.72A7.72,7.72,0,0,1,353.43,355.94ZM359.9,392a14.21,14.21,0,0,1,14,12.23,28.38,28.38,0,0,0-1,7.3c0,.07,0,.13,0,.2A14.19,14.19,0,1,1,359.9,392Z" transform="translate(-290 -290)"/><polygon class="cls-14" points="329.78 294.37 337.38 301.98 329.78 309.58 321.83 301.63 313.54 309.92 226.2 222.58 211.93 236.79 346.13 370.44 360.66 355 343.63 340.01 353.39 331.83 344.88 323.32 351.12 317.07 360.88 326.84 375.19 312.53 343.4 280.75 329.78 294.37"/><path class="cls-15" d="M699.39,300.61V699.39H300.61V300.61H699.39M710,290H290V710H710V290Z" transform="translate(-290 -290)"/><path class="cls-15" d="M691,309V691H309V309H691m2.13-2.13H306.88V693.12H693.12V306.88Z" transform="translate(-290 -290)"/></svg>