<?xml version="1.0" encoding="utf-8"?>
<!-- Generator: Adobe Illustrator 23.0.6, SVG Export Plug-In . SVG Version: 6.00 Build 0)  -->
<svg version="1.1" xmlns="http://www.w3.org/2000/svg" xmlns:xlink="http://www.w3.org/1999/xlink" x="0px" y="0px"
	 viewBox="0 0 566.93 566.93" style="enable-background:new 0 0 566.93 566.93;" xml:space="preserve">
<style type="text/css">
	.st0{fill:#231F20;}
</style>
<g id="BG">
</g>
<g id="graphics">
	<path class="st0" d="M351.07,371.6V202.76l-29.89,11.12v-72.73l-75.42-41.62v126.09l15.64-5.82v-92.54l44.14,24.77v67.69
		l-14.25,5.3v-63.7l-15.64-8.95v78.47l-59.78,22.24v68.21l-29.89-11.12V467.4h105.32v-84.68l-15.64-5.82v73.82h-74.03V332.67
		l44.14,16.43v68.27H231.5v-56.89l-15.64-5.82v79.39h45.53v-79.13l103.93,38.67v57.13h-44.14v-40.2l14.25,5.3v18.22h15.64v-29.08
		l-45.53-16.94v16.68v62.7h75.42v-84.68L351.07,371.6z M335.43,365.77l-44.14-16.42v-74.29l14.25-5.3v68.63l15.64,5.82v-96.95
		l-45.53,16.94v79.33L231.5,327.1v-63.16l14.25-5.3v57.5l15.64,5.82v-69.14l74.03-27.55V365.77z"/>
</g>
</svg>
