<?xml version="1.0" encoding="utf-8"?>
<!-- Generator: Adobe Illustrator 23.0.6, SVG Export Plug-In . SVG Version: 6.00 Build 0)  -->
<svg version="1.1" id="Capa_1" xmlns="http://www.w3.org/2000/svg" xmlns:xlink="http://www.w3.org/1999/xlink" x="0px" y="0px"
	 viewBox="0 0 512 512" style="enable-background:new 0 0 512 512;" xml:space="preserve">
<g>
	<g>
		<path d="M425.39,156.45h36.13v-80.8c0-4.87-2.93-9.26-7.43-11.13c-4.5-1.86-9.68-0.83-13.13,2.61L67.14,440.96
			c-3.44,3.44-4.47,8.63-2.61,13.13c1.86,4.5,6.25,7.43,11.13,7.43h80.79v-32.11c0-6.65,5.39-12.04,12.04-12.04
			s12.04,5.39,12.04,12.04v32.11h32.11v-32.11c0-6.65,5.39-12.04,12.04-12.04c6.65,0,12.04,5.39,12.04,12.04v32.11h32.11v-32.11
			c0-6.65,5.39-12.04,12.04-12.04s12.04,5.39,12.04,12.04v32.11h32.11v-32.11c0-6.65,5.39-12.04,12.04-12.04s12.04,5.39,12.04,12.04
			v32.11h32.11v-32.11c0-6.65,5.39-12.04,12.04-12.04s12.04,5.39,12.04,12.04v32.11h44.15c6.65,0,12.04-5.39,12.04-12.04v-44.15
			h-32.11c-6.65,0-12.04-5.39-12.04-12.04s5.39-12.04,12.04-12.04h32.11v-32.11h-32.11c-6.65,0-12.04-5.39-12.04-12.04
			s5.39-12.04,12.04-12.04h32.11v-32.11h-32.11c-6.65,0-12.04-5.39-12.04-12.04s5.39-12.04,12.04-12.04h32.11v-32.11h-32.11
			c-6.65,0-12.04-5.39-12.04-12.04s5.39-12.04,12.04-12.04h32.11v-32.11h-36.13c-6.65,0-12.04-5.39-12.04-12.04
			S418.75,156.45,425.39,156.45L425.39,156.45z M389.27,377.22c0,6.65-5.39,12.04-12.04,12.04H250.09c-4.87,0-9.26-2.93-11.13-7.43
			c-1.86-4.5-0.83-9.68,2.61-13.13l127.13-127.13c3.44-3.44,8.63-4.47,13.13-2.61c4.5,1.86,7.43,6.25,7.43,11.13L389.27,377.22z"/>
	</g>
	<g>
		<g>
			<path d="M87.64,283.63l51.09,51.09l-33.64,33.63c-4.71,4.71-12.34,4.69-17.03,0l-34.06-34.06c-4.72-4.72-4.68-12.35,0-17.03
				L87.64,283.63z"/>
		</g>
		<g>
			<path d="M330.29,139.85c1.12,0,2.26-0.03,3.41-0.1L155.76,317.7l-51.09-51.09l175.6-175.6c0.26,13.64,5.13,25.71,14.12,34.71
				C303.65,134.98,316.16,139.85,330.29,139.85L330.29,139.85z"/>
		</g>
		<g>
			<path d="M370.72,67.68l-20.58,43.38c-14.72,6.71-29.98,6.36-38.72-2.38c-7.92-7.92-8.95-21.21-4.07-34.59l47.33-22.45
				c4.6-2.18,10.08-1.24,13.68,2.36C371.95,57.61,372.9,63.08,370.72,67.68L370.72,67.68z"/>
		</g>
	</g>
</g>
</svg>
