<?xml version="1.0" encoding="utf-8"?>
<!-- Generator: Adobe Illustrator 23.0.6, SVG Export Plug-In . SVG Version: 6.00 Build 0)  -->
<svg version="1.1" id="Layer_1" xmlns="http://www.w3.org/2000/svg" xmlns:xlink="http://www.w3.org/1999/xlink" x="0px" y="0px"
	 viewBox="0 0 283.46 283.46" style="enable-background:new 0 0 283.46 283.46;" xml:space="preserve">
<path d="M77.52,105.8l1.74-1.05v2.03v45.84l10.11,5.32l0.62,0.32v0.69v15.17h-2.29v-14.48l-8.43-4.44v21.21h3.95h155.45h2.29v1.15
	v1.15h-1.15H78.11h-1.15v-1.15V154l-1.79-0.94v24.51v1.15h-1.15h-4.67h-1.15v-1.15V148.7v-1.9l1.68,0.88l2.99,1.58v-15.23h-7.22
	v43.53v1.15h-1.15H43.65H42.5v-1.15v-1.15h2.29h2.92h15.65v-42.38h-7.89v40.09h-2.29v-41.24v-1.15h1.15h9.04v-16.75v-0.65l0.56-0.34
	L77.52,105.8L77.52,105.8z M65.66,115.63v16.11h8.37h1.15v1.15v17.58l1.79,0.94v-42.6L65.66,115.63L65.66,115.63z M72.88,151.85
	l-2.38-1.25v25.82h2.38V151.85L72.88,151.85z"/>
</svg>
