<?xml version="1.0" encoding="utf-8"?>
<!-- Generator: Adobe Illustrator 23.0.6, SVG Export Plug-In . SVG Version: 6.00 Build 0)  -->
<svg version="1.1" id="Layer_1" xmlns="http://www.w3.org/2000/svg" xmlns:xlink="http://www.w3.org/1999/xlink" x="0px" y="0px"
	 viewBox="0 0 720 720" style="enable-background:new 0 0 720 720;" xml:space="preserve">
<g>
	<g>
		<g>
			<g>
				<path d="M621.47,446.39c0,0-92.78-59.14-261.24-59.26l0,0c-0.08,0-0.16,0-0.23,0c-0.09,0-0.16,0-0.24,0l0,0
					c-168.46,0.11-261.24,59.26-261.24,59.26s110.26-44.42,261.24-43.38v0c0.08,0,0.15,0,0.24,0c0.08,0,0.15,0,0.23,0v0
					C511.21,401.97,621.47,446.39,621.47,446.39z"/>
			</g>
		</g>
	</g>
</g>
<g>
	<path d="M261.19,388.16l98.82-90.4l98.81,90.4c13.87,2.05,26.84,4.44,38.85,7.01l-137.52-125.8v-0.27l-0.14,0.13l-0.15-0.13v0.27
		l-137.52,125.8C234.34,392.6,247.31,390.21,261.19,388.16z"/>
	<g>
		<path d="M558.59,450.9l-25.82-23.62c-11.75-2.55-24.95-5.12-39.38-7.51l19.28,17.64C529.96,441.66,545.3,446.31,558.59,450.9z"/>
	</g>
	<g>
		<path d="M207.34,437.41l19.28-17.64c-14.43,2.38-27.63,4.96-39.38,7.51l-25.82,23.62C174.71,446.31,190.03,441.66,207.34,437.41z"
			/>
	</g>
</g>
<g>
	<g>
		<rect x="340.23" y="331.67" width="16.82" height="16.82"/>
		<rect x="362.95" y="331.67" width="16.82" height="16.82"/>
	</g>
	<g>
		<rect x="340.23" y="354.39" width="16.82" height="16.82"/>
		<rect x="362.95" y="354.39" width="16.82" height="16.82"/>
	</g>
</g>
<polygon points="298.8,284.64 272.07,284.64 272.07,341.34 298.8,316.9 "/>
</svg>
