<?xml version="1.0" encoding="utf-8"?>
<!-- Generator: Adobe Illustrator 23.0.6, SVG Export Plug-In . SVG Version: 6.00 Build 0)  -->
<svg version="1.1" id="Layer_1" xmlns="http://www.w3.org/2000/svg" xmlns:xlink="http://www.w3.org/1999/xlink" x="0px" y="0px"
	 viewBox="0 0 720 720" style="enable-background:new 0 0 720 720;" xml:space="preserve">
<polygon points="305.03,299.27 322.66,281.64 293.98,252.96 120.72,426.23 155.98,426.23 293.98,288.23 "/>
<rect x="331.03" y="315.35" transform="matrix(0.7069 -0.7073 0.7073 0.7069 -125.7362 336.7847)" width="24.93" height="9.5"/>
<polygon points="364.33,358.57 431.99,426.23 467.24,426.23 381.96,340.94 "/>
<polygon points="397.34,325.56 498,426.23 533.27,426.23 414.97,307.93 "/>
<polygon points="371.05,299.27 388.68,281.64 359.99,252.96 186.74,426.23 221.99,426.23 359.99,288.23 "/>
<polygon points="217.8,320.48 217.8,299.44 197.12,299.44 197.12,341.16 "/>
<polygon id="XMLID_1_" points="426.02,288.23 564.02,426.23 599.28,426.23 426.02,252.96 252.76,426.23 288.02,426.23 "/>
<rect x="120.72" y="433.97" width="478.57" height="4.9"/>
<rect x="84.46" y="446.22" width="551.08" height="8.57"/>
<g>
	<g>
		<rect x="120.72" y="462.14" width="478.57" height="4.9"/>
	</g>
</g>
</svg>
