<?xml version="1.0" encoding="utf-8"?>
<!-- Generator: Adobe Illustrator 23.0.6, SVG Export Plug-In . SVG Version: 6.00 Build 0)  -->
<svg version="1.1" id="Layer_1" xmlns="http://www.w3.org/2000/svg" xmlns:xlink="http://www.w3.org/1999/xlink" x="0px" y="0px"
	 viewBox="0 0 512 512" style="enable-background:new 0 0 512 512;" xml:space="preserve">
<path xmlns="http://www.w3.org/2000/svg" d="M68.434,53.934c-0.32-0.258-0.72-0.397-1.131-0.397h-5.746l5.049-5.05c1.322,0.844,2.859,1.296,4.467,1.296  c2.222,0,4.311-0.865,5.883-2.437c3.24-3.243,3.238-8.521-0.003-11.761c-1.505-1.506-3.488-2.363-5.609-2.43  c-0.067-2.082-0.916-4.098-2.429-5.609c-1.571-1.57-3.66-2.436-5.882-2.436s-4.31,0.865-5.88,2.435  c-1.571,1.571-2.438,3.66-2.438,5.882c0,1.605,0.452,3.144,1.297,4.465l-8.771,8.772l-6.168-6.169  c1.671-2.813,1.298-6.513-1.119-8.93c-1.385-1.385-3.226-2.147-5.185-2.147s-3.8,0.763-5.185,2.147  c-1.271,1.272-2.009,2.947-2.126,4.691c-1.773,0.115-3.424,0.861-4.691,2.127c-1.385,1.385-2.148,3.227-2.148,5.186  c0,1.957,0.762,3.799,2.146,5.184c1.385,1.385,3.226,2.146,5.184,2.146c1.34,0,2.626-0.356,3.749-1.026l3.662,3.663h-3.147  c-0.411,0-0.81,0.141-1.13,0.396c-6.059,4.854-9.533,11.834-9.533,19.15c0,0.999,0.81,1.809,1.808,1.809h52.801  c0.999,0,1.809-0.81,1.809-1.809C77.966,65.766,74.491,58.785,68.434,53.934z M59.709,39.308c0.339-0.339,0.529-0.799,0.529-1.278  s-0.19-0.939-0.529-1.279c-0.889-0.888-1.378-2.068-1.378-3.324c0-1.256,0.489-2.437,1.379-3.325  c0.886-0.888,2.065-1.376,3.321-1.376s2.437,0.489,3.324,1.377c1.203,1.202,1.66,2.969,1.196,4.611  c-0.178,0.63-0.001,1.307,0.462,1.77c0.465,0.463,1.142,0.641,1.771,0.461c1.624-0.455,3.416,0.002,4.61,1.197  c1.832,1.832,1.832,4.815,0.002,6.648c-0.889,0.887-2.069,1.376-3.326,1.376c-1.256,0-2.438-0.489-3.325-1.376  c-0.707-0.707-1.853-0.706-2.558,0l-8.744,8.746H45.482L59.709,39.308z M31.854,45.664c-0.479,0-0.939,0.191-1.279,0.53  c-1.403,1.404-3.852,1.405-5.254,0.001c-0.702-0.701-1.088-1.635-1.088-2.627c0-0.992,0.387-1.926,1.089-2.627  c0.943-0.945,2.361-1.309,3.644-0.944c0.63,0.181,1.309,0.003,1.772-0.462c0.463-0.463,0.64-1.141,0.46-1.771  c-0.369-1.297-0.007-2.691,0.943-3.643c1.402-1.404,3.849-1.404,5.254,0c1.448,1.449,1.448,3.807,0,5.255  c-0.706,0.706-0.706,1.851,0,2.557l7.287,7.287l-4.055,4.055l-0.208,0.209l-7.287-7.29C32.794,45.855,32.334,45.664,31.854,45.664z"></path>
</svg>
