<?xml version="1.0" encoding="utf-8"?>
<!-- Generator: Adobe Illustrator 23.0.6, SVG Export Plug-In . SVG Version: 6.00 Build 0)  -->
<svg version="1.1" xmlns="http://www.w3.org/2000/svg" xmlns:xlink="http://www.w3.org/1999/xlink" x="0px" y="0px"
	 viewBox="0 0 1200 1200" style="enable-background:new 0 0 1200 1200;" xml:space="preserve">
<g id="background">
	<g>
		<path d="M480.04,939.38c0,0,12.6,22.69-8.82,37.81c0,0-36.41,30.88-11.2,64.91c0,0,51.62-53.58,49.02-86.34l0.12-23.95
			L480.04,939.38z"/>
		<path d="M928.11,669.02l-4.09-33.2c-9.46-0.83-27.42-6.5-45.7-19.42C878.33,616.4,878.33,642.71,928.11,669.02z"/>
		<path d="M903.31,751.58c4.82,16.39-18.69,37.81-18.69,37.81c-8.82,15.12,19.54,35.29,19.54,35.29l28.36-55.46V710.3l-29.3,23.63
			L903.31,751.58z"/>
		<path d="M1069.28,410.64c0,0-11.99,36.86-57.98,48.53c0,0,16.39,7.56,40.96,7.56C1052.26,466.72,1070.36,436.86,1069.28,410.64z"
			/>
		<path d="M989.24,455.71c-59.24-69.32-118.32-46.54-171.41-52.94c-57.07-6.87-71.16,8.81-94.26,36.71
			c-47.75-146.68-71.52-220.65-298.65-231.93C99.9,191.4,81.31,144.04,81.31,144.04c11.37,89.44,136.23,130.74,250.89,131.13
			c178.09,0.61,181.97,18.4,181.97,18.4c-52.96-16.01-127.8,2.99-242.5,2.37c-109.26-0.59-153.21-32.9-153.21-32.9
			c18.19,29.56,45.35,125.37,212.86,98.84c167.51-26.53,266.93,7.28,266.93,7.28s-85.32-11.29-205.41,6.82
			c-121.17,18.28-156.68,10.08-156.68,10.08c40.17,40.17,81.77,56.18,199.77,42.62c195.36-22.45,222.95,3.39,222.95,3.39
			c-29.56-10.61-110.66-0.76-172.82,10.61c-62.15,11.37-101.82,9.55-101.82,9.55c39.05,59.83,231.06,0.07,288.43,46.9
			c-23.77,30.13-50.48,67.37-68.44,92.92c-14.48,20.61-32.28,38.2-52.99,52.54c-67.77,46.91-72.43,49.69-111.53,109.19
			c-34.45,52.41-127.63,77.79-146.21,0c-16.09-67.37,29.39-102.99,46.26-113.63c0,0,5.71-3.7,10.49-2.4
			c20.8,2.64,83.69-58.61,90.72-80.7c-26.47,26.89-67.22,38.65-112.18,79.62c-30.24,27.56-52.52,54.41-52.94,104.4
			c-0.17,20.02,5.42,44,24.69,63.3c48.83,48.88,142.1-8.68,160.95-34c-2.76,13.28-3.37,23.78-3.37,33.54l9.31,54.59l-48.31,43.79
			c0,0-15.6,7.8-17.83,28.98c-2.23,21.18,4.61,51.42-9.88,63.68l-22.32,8.56c-10.81,4.15-15.08,15.51-20.76,34.23l-6.3,18.22
			c0,0,52.58-9.91,62.61-31.08c10.03-21.18,30.67-78.06,45.16-86.98c14.49-8.92,102.49-20.13,124.78-39.07
			c20.4-17.34,21.42-52.38,37.45-76.7c1.43-1.97,3.06-4.17,4.84-6.51c4.16-4.81,7.7-9.28,10.79-13.5
			c3.61-4.66,6.8-13.48,14.54-16.84c33.37-14.48,20.09-21.42,20.09-21.42c-2.52-12.59,49.28-48.83,76.27-67.04
			c-7.14-18.65-21.42-73.64,25.52-136.91c0,0-42.01,58.4-1.68,121.42c39.07,28.99,89.49,13.86,89.49,13.86l12.6,22.69
			c0,0-23.95,25.21-37.81,15.12c-13.86-10.08-23.95,11.34-23.95,11.34c-37.81-18.91-41.94,26.99-41.94,26.99l-1.67,22.86
			c29.43-23.92,92.77-22.12,92.77-22.12c21.43-41.59,86.97-78.15,86.97-78.15l-54.2-40.73c-54.2-50.81,20.17-97.92,20.17-97.92
			c-17.65,34.03,5.04,48.62,35.29,54.92c30.25,6.3,35.29,42.13,35.29,42.13s57.81,10.42,49.16-15.13
			c-7.61-22.47-10.94-67.93-9.51-95.07l-1.2-36.55c2.74,6.71,7.7,13.25,12.08,18.24c71.59-17,92.79-93.32,92.79-93.32
			C1069.53,511.17,989.24,455.71,989.24,455.71z M976.64,571.66v-25.21l17.65,30.25L976.64,571.66z"/>
		<path d="M725.3,366.19c0-170.51-94.34-206.65-279.81-182.65C635.48,196.83,686.27,261.05,725.3,366.19z"/>
	</g>
</g>
<g id="Logo">
</g>
</svg>
