<?xml version="1.0" encoding="utf-8"?>
<!-- Generator: Adobe Illustrator 23.0.6, SVG Export Plug-In . SVG Version: 6.00 Build 0)  -->
<svg version="1.1" id="Capa_1" xmlns="http://www.w3.org/2000/svg" xmlns:xlink="http://www.w3.org/1999/xlink" x="0px" y="0px"
	 viewBox="0 0 431.98 431.98" style="enable-background:new 0 0 431.98 431.98;" xml:space="preserve">
<g>
	<path d="M368.58,95.13c-0.59-1.51-1.97-2.56-3.57-2.76c-1.6-0.2-3.19,0.5-4.13,1.82c-5.58,7.83-12.9,10.43-21.39,13.45
		c-6.84,2.44-13.91,4.95-21.56,10.44c-10.81,7.76-15.76,18.34-13.29,28.37l-0.26,0.34c-4.52-6.55-9.43-12.61-14.61-18.02
		c-24.26-25.31-58.15-40.52-92.99-41.74c-1.53-0.05-3.09-0.08-4.64-0.08c-38.91,0-76.14,17.39-102.17,47.72
		c-25.89,30.17-37.36,69.44-31.48,107.74c0.49,3.2,1.11,6.44,1.83,9.62c9.57,42.11,34,74.15,67.05,87.89
		c8.14,3.39,16.36,5.1,24.41,5.1c20.01,0,37.49-10.7,47.96-29.37c3.98-7.1,6.55-14.45,7.63-21.83c0.64-4.36,0.2-8.71-0.22-12.93
		c-0.44-4.34-0.85-8.45-0.19-12.58c1.51-9.47,8.12-15.13,17.7-15.13c2.72,0,5.51,0.45,8.29,1.33c-3.26,5.97-6.21,11.67-8.8,16.96
		c-5.48,11.2-9.25,20.47-11.23,27.56c-1.22,4.37-4.46,15.99,3.44,21.47c2.51,1.74,5.68,2.35,8.99,1.74
		c2.98-0.55,12.05-2.24,37.82-31.58c6.92-7.87,14.37-16.99,22.16-27.09c20-6.74,35.57-23.5,39.68-42.76
		c1.03-4.82,1.46-9.97,1.28-15.32c7.49-11.57,14.06-22.37,20.67-33.98c0.13-0.22,0.25-0.46,0.38-0.71
		c9.59-2.63,17.86-10.09,22.71-20.53C377.13,135.04,376.61,115.45,368.58,95.13z M260.45,167.29c-3.47,5.51-9.43,8.8-15.96,8.8
		c-3.54,0-7-1-10.02-2.9c-4.26-2.68-7.22-6.86-8.33-11.76c-1.11-4.91-0.25-9.95,2.43-14.21c3.47-5.51,9.44-8.8,15.96-8.8
		c3.54,0,7,1,10.02,2.9c4.26,2.68,7.22,6.86,8.33,11.76C264,157.98,263.13,163.03,260.45,167.29z M284.9,201.41
		c9.52-14.03,19.59-27.98,29.16-40.38c1.55,1.4,3.28,2.77,5.16,4.07c3.11,2.16,6.37,3.83,9.69,4.97
		c-8.08,13.81-16.76,27.49-27.27,42.98c-17.27,25.45-35.23,49.09-50.57,66.57c-8.57,9.76-16.07,17.3-21.84,21.97
		c2.23-7.13,6.49-16.92,12.42-28.52C252.25,252.32,267.61,226.87,284.9,201.41z M117.72,201.29c-3.54,0-7.01-1-10.02-2.9
		c-4.26-2.68-7.22-6.86-8.33-11.76c-1.11-4.91-0.25-9.95,2.43-14.21c3.47-5.51,9.43-8.8,15.95-8.8c3.54,0,7.01,1,10.02,2.9
		c8.79,5.53,11.43,17.19,5.9,25.97C130.21,198,124.24,201.29,117.72,201.29z M97.98,242.76c3.47-5.51,9.43-8.8,15.96-8.8
		c3.54,0,7,1,10.02,2.9c4.26,2.68,7.22,6.86,8.33,11.76c1.12,4.9,0.25,9.95-2.43,14.21c-3.47,5.51-9.43,8.8-15.95,8.8
		c-3.54,0-7.01-1-10.02-2.9c-4.26-2.68-7.21-6.86-8.33-11.76C94.43,252.07,95.3,247.02,97.98,242.76z M158.29,130.9
		c3.47-5.51,9.43-8.8,15.96-8.8c3.54,0,7,1,10.02,2.9c8.79,5.53,11.44,17.19,5.9,25.97c-3.47,5.51-9.44,8.8-15.96,8.8
		c-3.54,0-7-1-10.02-2.9c-4.26-2.68-7.21-6.86-8.33-11.76C154.75,140.21,155.61,135.16,158.29,130.9z"/>
</g>
</svg>
