<?xml version="1.0" encoding="utf-8"?>
<!-- Generator: Adobe Illustrator 23.0.6, SVG Export Plug-In . SVG Version: 6.00 Build 0)  -->
<svg version="1.1" id="Layer_1" xmlns="http://www.w3.org/2000/svg" xmlns:xlink="http://www.w3.org/1999/xlink" x="0px" y="0px"
	 viewBox="0 0 512 512" style="enable-background:new 0 0 512 512;" xml:space="preserve">
<style type="text/css" >
	.lm-2-st0{fill:url(#lm-2-SVGID_1_);}
	.lm-2-st1{fill:url(#lm-2-SVGID_2_);}
	.lm-2-st2{fill:url(#lm-2-SVGID_3_);}
</style>
<g id="lm-2-Planting-2">
	<g id="lm-2-Glyph">
		<linearGradient id="lm-2-SVGID_1_" gradientUnits="userSpaceOnUse" x1="162.9671" y1="229.6933" x2="362.2324" y2="229.6933">
			<stop  offset="0" style="stop-color:#54B948"/>
			<stop  offset="0.3764" style="stop-color:#00A651"/>
			<stop  offset="1" style="stop-color:#005826"/>
		</linearGradient>
		<path class="lm-2-st0" d="M200.3,256.02c31.5,0,62.6-23.4,93-23.4c20.9,0,37.5,12.5,43.4,30c3,8.9,14.2,11.7,21.2,5.4l0,0
			c4.4-4,5.6-10.5,2.9-15.8c-29.4-57.8-100.1-80.9-157.9-51.5c-14,7.1-26.5,17-36.6,29c-5,5.9-4.3,14.7,1.6,19.6
			c1.9,1.6,4.1,2.6,6.5,3.1C183.7,254.12,193.2,256.02,200.3,256.02z"/>
		<linearGradient id="lm-2-SVGID_2_" gradientUnits="userSpaceOnUse" x1="58" y1="311.6743" x2="454" y2="311.6743">
			<stop  offset="0" style="stop-color:#54B948"/>
			<stop  offset="0.3764" style="stop-color:#00A651"/>
			<stop  offset="1" style="stop-color:#005826"/>
		</linearGradient>
		<path class="lm-2-st1" d="M169.4,454.02H64.2c-3.4,0-6.2-2.8-6.2-6.2v-68.1c0-21.5,3.4-52.5,19.5-77.6c17-26.5,43.8-40,79.5-40
			c8.8,0,33.9,6.2,43.3,6.2c23.3,0,47.3-9.6,68.4-18.1c61.3-24.6,72.6,42.6,39.9,55c-24.2,9.1-65.4,15.5-84.9,34.2l103.5-27.2
			l59.3-53.3c8.3-37.8,10.4-89.6,61.3-89.6c3.5,0,6.2,2.9,6.2,6.4c0,0.3,0,0.6-0.1,0.9c-0.6,3.9-17.2,112-20.3,114.7l-99,99
			c-2.1,2.7-136.4,32.4-139.7,33.2c-11.3,2.6-19.4,12.7-19.3,24.3C175.6,451.22,172.8,454.02,169.4,454.02z"/>
		<linearGradient id="lm-2-SVGID_3_" gradientUnits="userSpaceOnUse" x1="135.8662" y1="117.15" x2="377.3008" y2="117.15">
			<stop  offset="0" style="stop-color:#54B948"/>
			<stop  offset="0.3764" style="stop-color:#00A651"/>
			<stop  offset="1" style="stop-color:#005826"/>
		</linearGradient>
		<path class="lm-2-st2" d="M373.1,67.02c-2-0.7-49.5-15.9-81.2-4.8c-17.8,6.2-29.3,15-35.7,24.2c-6.3-9.4-17.7-18.2-35.6-24.5
			c-31.3-11-78.5,4.4-80.5,5.1c-3.3,1.1-5,4.7-3.9,8c0.2,0.5,0.4,0.9,0.6,1.3c9.7,14.8,41.7,59.5,87.9,59.5c9.1,0,18.2-2.3,25.1-7.3
			v41.6c0,3.4,2.8,6.2,6.2,6.2l0,0c3.4,0,6.2-2.8,6.2-6.2v-40.9c14.2,9.9,37.1,7.3,53.6,1.5c31.6-11.1,59.3-52.7,60.5-54.5
			c1.9-2.9,1-6.8-1.9-8.6C374,67.42,373.5,67.22,373.1,67.02z"/>
	</g>
</g>
</svg>
