<?xml version="1.0" encoding="utf-8"?>
<!-- Generator: Adobe Illustrator 23.0.6, SVG Export Plug-In . SVG Version: 6.00 Build 0)  -->
<svg version="1.1" id="Layer_1" xmlns="http://www.w3.org/2000/svg" xmlns:xlink="http://www.w3.org/1999/xlink" x="0px" y="0px"
	 viewBox="0 0 1300 1300" style="enable-background:new 0 0 1300 1300;" xml:space="preserve">
<style type="text/css" >
	.lm-5-st0{fill:url(#lm-5-XMLID_3_);}
	.lm-5-st1{fill:url(#lm-5-XMLID_4_);}
	.lm-5-st2{fill:url(#lm-5-XMLID_5_);}
	.lm-5-st3{fill:url(#lm-5-XMLID_16_);}
	.lm-5-st4{fill:url(#lm-5-XMLID_18_);}
	.lm-5-st5{fill:url(#lm-5-XMLID_19_);}
	.lm-5-st6{fill:url(#lm-5-XMLID_20_);}
	.lm-5-st7{fill:url(#lm-5-XMLID_21_);}
	.lm-5-st8{fill:url(#lm-5-XMLID_22_);}
</style>
<linearGradient id="lm-5-XMLID_3_" gradientUnits="userSpaceOnUse" x1="392.0356" y1="802.7153" x2="926.1323" y2="802.7153">
	<stop  offset="0" style="stop-color:#41837E"/>
	<stop  offset="0.5169" style="stop-color:#007169"/>
	<stop  offset="1" style="stop-color:#00473D"/>
</linearGradient>
<path id="lm-5-XMLID_8_" class="lm-5-st0" d="M869.01,826.44L454.4,886.96c-17.83,2.6-36.12-3.3-48.25-16.64
	c-8.78-9.65-14.12-22.49-14.12-36.55l0,0c0-29.08,22.85-52.83,51.57-54.29c1.87-0.1,3.71-0.19,5.55-0.49l414.61-60.52
	c17.83-2.6,36.12,3.3,48.25,16.64c8.78,9.65,14.12,22.49,14.12,36.55l0,0c0,29.08-22.85,52.83-51.57,54.29
	C872.72,826.05,870.88,826.17,869.01,826.44z"/>
<linearGradient id="lm-5-XMLID_4_" gradientUnits="userSpaceOnUse" x1="438.1223" y1="939.4232" x2="880.0455" y2="939.4232">
	<stop  offset="0" style="stop-color:#41837E"/>
	<stop  offset="0.5169" style="stop-color:#007169"/>
	<stop  offset="1" style="stop-color:#00473D"/>
</linearGradient>
<path id="lm-5-XMLID_7_" class="lm-5-st1" d="M825.69,969.48l-333.21,48.61c-30.03,0-54.36-24.33-54.36-54.36l0,0
	c0-30.03,24.33-54.36,54.36-54.36l333.21-48.61c30.03,0,54.36,24.33,54.36,54.36l0,0C880.07,945.15,855.72,969.48,825.69,969.48z"/>
<linearGradient id="lm-5-XMLID_5_" gradientUnits="userSpaceOnUse" x1="526.051" y1="1076.1553" x2="792.1411" y2="1076.1553">
	<stop  offset="0" style="stop-color:#41837E"/>
	<stop  offset="0.5169" style="stop-color:#007169"/>
	<stop  offset="1" style="stop-color:#00473D"/>
</linearGradient>
<path id="lm-5-XMLID_6_" class="lm-5-st2" d="M737.78,1118.36l-157.37,24.3c-30.03,0-54.36-24.33-54.36-54.36l0,0
	c0-30.03,24.33-54.36,54.36-54.36l157.37-24.3c30.03,0,54.36,24.33,54.36,54.36l0,0C792.14,1094.01,767.81,1118.36,737.78,1118.36z"
	/>
<g id="XMLID_10_">
	<linearGradient id="lm-5-XMLID_16_" gradientUnits="userSpaceOnUse" x1="604.7382" y1="656.7538" x2="713.4542" y2="656.7538">
		<stop  offset="0" style="stop-color:#41837E"/>
		<stop  offset="0.5169" style="stop-color:#007169"/>
		<stop  offset="1" style="stop-color:#00473D"/>
	</linearGradient>
	<path id="lm-5-XMLID_2_" class="lm-5-st3" d="M713.45,712.6V639.5c0-30.03-24.33-54.36-54.36-54.36l0,0c-30.03,0-54.36,24.33-54.36,54.36
		v88.87L713.45,712.6z"/>
</g>
<g id="lm-5-XMLID_9_">
	<linearGradient id="lm-5-XMLID_18_" gradientUnits="userSpaceOnUse" x1="134.8959" y1="170.7865" x2="143.6523" y2="170.7865">
		<stop  offset="0" style="stop-color:#41837E"/>
		<stop  offset="0.5169" style="stop-color:#007169"/>
		<stop  offset="1" style="stop-color:#00473D"/>
	</linearGradient>
	<path id="lm-5-XMLID_12_" class="lm-5-st4" d="M134.9,169.9c0,0,3.03,0.49,8.76,1.79C138.49,169.6,134.9,169.9,134.9,169.9z"/>
	<linearGradient id="lm-5-XMLID_19_" gradientUnits="userSpaceOnUse" x1="134.8958" y1="365.3295" x2="631.0764" y2="365.3295">
		<stop  offset="0" style="stop-color:#41837E"/>
		<stop  offset="0.5169" style="stop-color:#007169"/>
		<stop  offset="1" style="stop-color:#00473D"/>
	</linearGradient>
	<path id="lm-5-XMLID_13_" class="lm-5-st5" d="M629.26,573.32c4.56-44.83,14.29-247.92-167.88-353.27
		C284.77,119.71,134.9,169.87,134.9,169.87s3.59-0.29,8.76,1.79c36.02,8.25,179.2,49.65,349.82,213.99
		C493.47,385.68,618.69,494.06,629.26,573.32z"/>
	<linearGradient id="lm-5-XMLID_20_" gradientUnits="userSpaceOnUse" x1="143.6524" y1="387.3078" x2="584.1249" y2="387.3078">
		<stop  offset="0" style="stop-color:#41837E"/>
		<stop  offset="0.5169" style="stop-color:#007169"/>
		<stop  offset="1" style="stop-color:#00473D"/>
	</linearGradient>
	<path id="lm-5-XMLID_15_" class="lm-5-st6" d="M176.08,226.53c10.89,56.54,84.29,437.51,406.68,367.97c6.09-26.08-5.6-129.29-89.29-208.85
		c-170.62-164.34-313.8-205.74-349.82-213.99C153.35,175.6,168.66,187.94,176.08,226.53z"/>
</g>
<g id="XMLID_11_">
	<linearGradient id="lm-5-XMLID_21_" gradientUnits="userSpaceOnUse" x1="679.3094" y1="441.51" x2="1165.0798" y2="441.51">
		<stop  offset="0" style="stop-color:#41837E"/>
		<stop  offset="0.5169" style="stop-color:#007169"/>
		<stop  offset="1" style="stop-color:#00473D"/>
	</linearGradient>
	<path id="lm-5-XMLID_14_" class="lm-5-st7" d="M1165.08,377.7c0,0-156.43-117.81-332.19-46.35S680.32,574.68,680.32,574.68
		c32.19-73.4,107.84-120.29,107.84-120.29C926.45,333.92,1165.08,377.7,1165.08,377.7z"/>
	<linearGradient id="lm-5-XMLID_22_" gradientUnits="userSpaceOnUse" x1="718.4752" y1="496.0272" x2="1165.1041" y2="496.0272">
		<stop  offset="0" style="stop-color:#41837E"/>
		<stop  offset="0.5169" style="stop-color:#007169"/>
		<stop  offset="1" style="stop-color:#00473D"/>
	</linearGradient>
	<path id="lm-5-XMLID_17_" class="lm-5-st8" d="M718.48,594.91c184.23,84.92,298.42-49.94,334.61-118.71c38.62-73.4,112.01-98.5,112.01-98.5
		s-238.66-43.78-376.92,76.7C721.87,513.92,719.18,576.84,718.48,594.91z"/>
</g>
</svg>
