<?xml version="1.0" encoding="utf-8"?>
<!-- Generator: Adobe Illustrator 23.0.6, SVG Export Plug-In . SVG Version: 6.00 Build 0)  -->
<svg version="1.1" xmlns="http://www.w3.org/2000/svg" xmlns:xlink="http://www.w3.org/1999/xlink" x="0px" y="0px"
	 viewBox="0 0 566.93 566.93" style="enable-background:new 0 0 566.93 566.93;" xml:space="preserve">
<g id="BG">
</g>
<g id="graphics">
	<g>
		<path d="M498.74,244.66c-17.62-45.33-55.59-53.36-80.98-37.8c23.68,42.71,3.51,152.7-85.69,194.24
			c7.89,24.07,7.19,49.63,7.19,49.63h66.03c9.39-24.34,16.56-55.47,15.24-94.43c13.87,14.6,36.22,17.39,49.64,8.76
			C511.05,338.78,512.22,279.33,498.74,244.66z"/>
		<path d="M323.84,293.95c-1.37,4.54,1.2,9.34,5.74,10.71c4.54,1.38,9.34-1.19,10.71-5.74c1.38-4.54-1.19-9.34-5.74-10.71
			C330.01,286.84,325.21,289.41,323.84,293.95z"/>
		<path d="M284.61,249.44c-4.54-1.37-9.33,1.2-10.71,5.74c-1.37,4.54,1.2,9.34,5.74,10.71c4.55,1.37,9.34-1.19,10.72-5.74
			C291.73,255.61,289.16,250.82,284.61,249.44z"/>
		<path d="M159.14,260.66c-10.26-2.93-14.7-1.73-14.7,4.24c0,5.97,5.7,12.82,12.51,16.02c6.8,3.2,9.13,13.88,16.82,35.07
			c13.11,36.12,52.27,41.97,100.81,21.77c52.47-20.96,73.04,21.75,59.26,44.21c-4.93,8.04-18.28,21.61-47.36,22.14
			c-8.57,25.1-1.25,48.32-1.25,48.32h-81.31c0,0-7.71-25.35-2.38-52.57c-12-1.06-23.49-2.68-34.25-5.05
			c-10.49,26.27,3.48,57.63,3.48,57.63s-50.34,0-72.59,0c-20.45-64-18.99-117.66-12.82-148.9c-9.09,2.03-15.3,21.14-15.3,37.81
			c0,13.87-6.94,17.89-8.71,4.77c-6.09-44.98,21.68-76.6,31.96-85.93c23.48-51.35,61.45-78.37,123.21-72.87
			c1.39,15.31,1.76,35.39,20.74,61.67c-4.38-25.19-6.93-64.98,10.55-98.75c29.46-56.9,124.87-43.58,128.94,23.86
			c-37.26-13.53-78.19-0.4-96.53,28.16c-17.49,27.24-20.65,82.51-43.85,104.74c-11.5,11.02-41.56,18.84-55.02-10.87
			c-3.83-8.46-2.23-13.56,2.38-16.02c4.61-2.46,11.36-7.08,11.36-13.05c0-5.97-5.89-9.13-14.24-6.75
			C172.51,262.67,166.81,262.85,159.14,260.66z"/>
	</g>
</g>
</svg>
