<?xml version="1.0" encoding="utf-8"?>
<!-- Generator: Adobe Illustrator 23.0.6, SVG Export Plug-In . SVG Version: 6.00 Build 0)  -->
<svg version="1.1" xmlns="http://www.w3.org/2000/svg" xmlns:xlink="http://www.w3.org/1999/xlink" x="0px" y="0px"
	 viewBox="0 0 1900 1900" style="enable-background:new 0 0 1900 1900;" xml:space="preserve">
<g id="BG_1_">
</g>
<g id="graphics">
	<g>
		<path d="M1324.21,805.13V679.36c0-225.72-183.64-409.36-409.36-409.36c-113.58,0-216.49,46.51-290.73,121.47
			c-6.05,4.93-11.79,10.39-17.13,16.42l0.98,0.87c-63.73,72.2-102.47,166.95-102.47,270.6c0,65.21,15.72,130.11,45.46,187.67
			c26.97,52.2,65.52,98.65,111.9,134.96v34.61c0,172.02,139.95,311.97,311.97,311.97h56.11v108.95c0,46.93,38.18,85.11,85.11,85.11
			c13.62,0,26.5-3.23,37.93-8.95v11.23c0,46.93,38.18,85.11,85.11,85.11c46.93,0,85.11-38.18,85.11-85.11v-201.78
			c15.48,1.89,31.23,2.89,47.22,2.89h23.07V959.38C1394.5,897.91,1367.24,842.71,1324.21,805.13z M551.64,679.36
			c0-98.51,39.44-187.97,103.33-253.46c37.22-29.03,91.11-28.4,127.7,3.99c12.47,11.04,19.06,34.97,19.06,69.21v315.18
			c-28.17-7.36-56.02-3.93-80.86,10.38c-35.24,20.31-58.01,60.32-58.01,101.92v14.25C592.54,872.81,551.64,778.15,551.64,679.36z
			 M1278.07,1544.89c0,21.49-17.48,38.97-38.97,38.97c-21.49,0-38.97-17.48-38.97-38.97v-74.15c0.68-4.31,1.03-8.73,1.03-13.23
			h-1.03v-70.37H1154v79.14c-4,17.27-19.47,30.19-37.93,30.19c-21.49,0-38.97-17.48-38.97-38.96v-155.08H974.84
			c-146.58,0-265.83-119.25-265.83-265.83V990.5v-63.92c0-25.02,14.03-49.91,34.91-61.94c20.43-11.78,44.4-10.37,69.32,4.07
			l34.64,20.08V499.09c0-48.51-11.65-83.42-34.62-103.76c-21.24-18.8-46.48-30.26-72.6-34.61c51.75-28.41,111.12-44.58,174.2-44.58
			c200.28,0,363.21,162.94,363.21,363.21v95.27c-26.78-12.87-56.77-20.09-88.41-20.09c-112.95,0-204.85,91.89-204.85,204.84
			c0,181,125.04,333.32,293.26,375.19V1544.89z M1348.36,1299.08c-177.01-11.91-317.4-159.72-317.4-339.7
			c0-87.5,71.19-158.7,158.7-158.7c87.51,0,158.7,71.2,158.7,158.7V1299.08z"/>
		<path d="M1149.9,556.83c0-73.77-60.02-133.79-133.79-133.79c-73.78,0-133.79,60.02-133.79,133.79
			c0,73.78,60.02,133.8,133.79,133.8C1089.88,690.63,1149.9,630.61,1149.9,556.83z M928.46,556.83c0-48.33,39.32-87.65,87.65-87.65
			c48.33,0,87.65,39.32,87.65,87.65c0,48.34-39.32,87.65-87.65,87.65C967.77,644.49,928.46,605.17,928.46,556.83z"/>
		<path d="M1049.46,556.83c0-18.42-14.94-33.35-33.36-33.35c-18.42,0-33.36,14.93-33.36,33.35c0,18.43,14.93,33.36,33.36,33.36
			C1034.53,590.2,1049.46,575.26,1049.46,556.83z"/>
	</g>
</g>
</svg>
