<?xml version="1.0" encoding="utf-8"?>
<!-- Generator: Adobe Illustrator 23.0.6, SVG Export Plug-In . SVG Version: 6.00 Build 0)  -->
<svg version="1.1" xmlns="http://www.w3.org/2000/svg" xmlns:xlink="http://www.w3.org/1999/xlink" x="0px" y="0px"
	 viewBox="0 0 500 500" style="enable-background:new 0 0 500 500;" xml:space="preserve">
<style type="text/css">
	.st0{fill:#FFFFFF;}
</style>
<g id="Background">
	<rect id="XMLID_237_" y="0" class="st0" width="500" height="500"/>
</g>
<g id="Objects">
	<g id="XMLID_206_">
		<g id="XMLID_12_">
			<g id="XMLID_9_">
				<path id="XMLID_10_" d="M381.25,280.52c-0.04-0.09-0.1-0.19-0.14-0.29c-0.04,0.35-0.06,0.69-0.14,1.04
					c0.13-0.16,0.25-0.34,0.38-0.5C381.31,280.69,381.28,280.61,381.25,280.52z"/>
				<path id="XMLID_189_" d="M374.52,272.24c-1.65-1.41-3.53-2.86-5.57-4.45c-1.01-0.84-2.03-1.7-3.07-2.57
					c-1.05-0.92-2.12-1.87-3.15-2.87c-2.09-1.96-4.1-4.16-5.98-6.54c-1.79-2.43-3.53-4.97-4.77-7.68c-1.34-2.65-2.29-5.38-3.12-7.99
					c-0.34-1.32-0.68-2.61-1.01-3.88c-0.26-1.27-0.51-2.51-0.76-3.72c-0.38-2.42-0.73-4.7-0.9-6.81c-0.79-8.43-0.33-14.1-0.33-14.1
					s0.61,1.3,1.54,3.58c0.45,1.14,1,2.52,1.63,4.11c0.61,1.58,1.29,3.35,2.04,5.29c0.73,1.91,1.53,3.98,2.37,6.17
					c0.88,2.15,1.79,4.39,2.83,6.63c1.04,2.23,2.16,4.46,3.45,6.58c1.25,2.15,2.74,4.14,4.31,6.11c1.6,1.94,3.37,3.8,5.2,5.64
					c0.93,0.9,1.85,1.8,2.77,2.68c0.97,0.91,1.92,1.8,2.86,2.69c1.88,1.83,3.75,3.74,5.38,5.79c0.8,1.04,1.56,2.09,2.21,3.17
					c0.32,0.55,0.62,1.08,0.93,1.67c0.34,0.64,0.42,0.88,0.75,1.63c0.34,0.82,0.57,1.62,0.77,2.4c9.04-14.4,10.56-32.49,3.58-47.55
					c-9.77-21.1-34.35-35.78-38.26-58.47c-2.16-12.53,2.46-25.98-2.35-37.85c-6.32-15.6-27.42-22.73-45.84-20.41
					c-18.42,2.32-39.44,5.98-55.09,15.24c-15.65-9.26-30.55-12.91-48.98-15.24c-18.42-2.32-39.52,4.81-45.84,20.41
					c-4.81,11.87-0.19,25.32-2.35,37.85c-3.91,22.68-28.49,37.37-38.26,58.47c-7.08,15.29-5.4,33.68,4,48.18
					c0.2-0.99,0.49-2,0.92-3.03c0.33-0.75,0.41-0.99,0.75-1.63c0.31-0.59,0.61-1.13,0.93-1.67c0.65-1.09,1.41-2.13,2.21-3.17
					c1.62-2.05,3.49-3.96,5.38-5.79c0.94-0.88,1.89-1.78,2.86-2.69c0.91-0.88,1.84-1.78,2.77-2.68c1.83-1.84,3.6-3.7,5.2-5.64
					c1.57-1.96,3.06-3.96,4.31-6.11c1.29-2.12,2.42-4.35,3.45-6.58c1.03-2.24,1.94-4.48,2.83-6.63c0.84-2.19,1.64-4.26,2.37-6.17
					c0.75-1.94,1.43-3.72,2.04-5.29c0.63-1.59,1.18-2.97,1.63-4.11c0.93-2.28,1.54-3.58,1.54-3.58s0.46,5.67-0.33,14.1
					c-0.17,2.11-0.52,4.39-0.9,6.81c-0.25,1.21-0.5,2.45-0.76,3.72c-0.33,1.27-0.67,2.56-1.01,3.88c-0.83,2.61-1.77,5.33-3.12,7.99
					c-1.24,2.7-2.97,5.25-4.77,7.68c-1.87,2.37-3.89,4.58-5.98,6.54c-1.03,1-2.1,1.95-3.15,2.87c-1.04,0.87-2.06,1.73-3.07,2.57
					c-2.04,1.59-3.92,3.04-5.57,4.45c-0.54,0.45-1.01,0.9-1.49,1.36c-2.65,21.41,3.43,43.22,16.19,61.84
					c-2.15-4.25-0.69-10.44,2.72-13.77c2.19,19.61,19.4,35.59,35.06,49.58c15.66,13.99,38.81,22.61,44.76,43.63
					c3.22-7.71,3.11-18.12-2.89-24.52c11.34,10.99,23.19,24.01,27.89,38.35c-0.1-2.09-0.18-4.3-0.21-6.63
					c-0.09-0.77-0.18-1.53-0.28-2.32c-0.52-4.43-1.25-9.19-2.27-14.16c-0.97-4.98-2.18-10.17-3.8-15.42
					c-1.64-5.24-3.45-10.59-5.79-15.82c-2.32-5.23-5.03-10.36-8.07-15.27c-3.08-4.89-6.48-9.57-10.21-13.85
					c-3.77-4.39-7.48-8.07-11.84-11.92c-3.91-3.39-8.28-6.84-12.32-10.05c-2.04-1.62-4.04-3.21-5.91-4.87
					c-0.93-0.83-1.85-1.65-2.74-2.46c-0.93-0.89-1.87-1.77-2.68-2.71c-1.68-1.83-3.03-3.79-4.13-5.72c-0.43-0.75-0.8-1.48-1.17-2.22
					c0.51,1.84,1.07,3.67,1.69,5.51c1.14,2.89,2.36,6.01,3.86,8.58c1.55,2.92,3.27,5.57,5.2,8.19c1.92,2.62,3.93,5.19,5.94,7.73
					c2,2.54,3.95,5.04,5.72,7.54c1.78,2.48,3.35,4.95,4.65,7.34c1.37,2.34,2.34,4.67,3.09,6.75c0.76,2.08,1.22,3.94,1.46,5.53
					c0.34,1.56,0.32,2.76,0.37,3.59c0.03,0.83,0.04,1.27,0.04,1.27s-0.19-0.4-0.56-1.14c-0.33-0.75-0.86-1.88-1.61-3.15
					c-0.68-1.29-1.71-2.81-2.87-4.48c-0.61-0.83-1.23-1.71-1.99-2.58c-0.72-0.89-1.46-1.83-2.32-2.76
					c-3.34-3.76-7.64-7.82-12.23-12.52c-2.29-2.34-4.65-4.88-6.9-7.66c-2.29-2.74-4.39-5.9-6.14-9.07
					c-1.92-3.46-3.2-6.83-4.34-10.35c-0.48-1.77-1.02-3.5-1.31-5.27c-0.38-1.75-0.64-3.49-0.81-5.21c-0.23-1.71-0.25-3.42-0.34-5.07
					c0.04-1.66,0-3.28,0.15-4.85c0.24-3.14,0.71-6.07,1.38-8.72c0.58-2.66,1.43-5.01,2.25-7.04c0.78-2.05,1.69-3.73,2.45-5.1
					c0.69-1.39,1.49-2.36,1.92-3.07c0.47-0.68,0.72-1.04,0.72-1.04s-0.08,0.44-0.23,1.25c-0.14,0.81-0.43,1.97-0.66,3.47
					c-0.26,1.49-0.51,3.29-0.73,5.35c-0.15,1.02-0.18,2.12-0.25,3.27c-0.09,1.14-0.14,2.34-0.15,3.59
					c-0.01,0.27,0.01,0.57,0.01,0.84c0.27,1.37,0.63,3.29,1.39,5.61c0.83,2.43,1.97,5.3,3.84,8.22c1.73,2.98,4.24,5.98,7.34,8.65
					c0.76,0.69,1.6,1.29,2.46,1.93c0.94,0.66,1.9,1.34,2.88,2.02c1.99,1.36,4.05,2.77,6.17,4.22c4.3,2.96,8.82,5.91,13.55,9.83
					c4.21,3.53,8.85,8.07,12.82,12.68c4.01,4.71,7.74,9.79,10.92,15.19c3.22,5.38,5.9,11.05,8.11,16.76
					c2.19,5.72,4.02,11.46,5.24,17.12c0.48,2.14,0.88,4.25,1.26,6.34c0.37-2.09,0.78-4.2,1.26-6.34c1.22-5.66,3.05-11.4,5.24-17.12
					c2.2-5.72,4.88-11.39,8.11-16.76c3.18-5.4,6.91-10.48,10.92-15.19c3.97-4.6,8.61-9.14,12.82-12.68
					c4.73-3.92,9.25-6.87,13.55-9.83c2.12-1.45,4.18-2.86,6.17-4.22c0.98-0.69,1.94-1.36,2.88-2.02c0.86-0.65,1.7-1.24,2.46-1.93
					c3.1-2.67,5.6-5.67,7.34-8.65c1.87-2.93,3.01-5.8,3.84-8.22c0.76-2.32,1.12-4.24,1.39-5.61c0-0.28,0.02-0.57,0.01-0.84
					c-0.01-1.25-0.06-2.45-0.15-3.59c-0.07-1.15-0.09-2.25-0.25-3.27c-0.22-2.05-0.47-3.86-0.73-5.35c-0.22-1.5-0.51-2.66-0.66-3.47
					c-0.15-0.82-0.23-1.25-0.23-1.25s0.25,0.36,0.72,1.04c0.42,0.7,1.22,1.68,1.92,3.07c0.76,1.37,1.66,3.05,2.45,5.1
					c0.83,2.03,1.67,4.38,2.25,7.04c0.67,2.64,1.15,5.58,1.38,8.72c0.14,1.57,0.1,3.19,0.15,4.85c-0.08,1.65-0.11,3.36-0.34,5.07
					c-0.17,1.72-0.43,3.47-0.81,5.21c-0.29,1.77-0.83,3.5-1.31,5.27c-1.15,3.52-2.42,6.89-4.35,10.35
					c-1.75,3.18-3.84,6.33-6.14,9.07c-2.25,2.78-4.6,5.32-6.9,7.66c-4.58,4.69-8.89,8.76-12.23,12.52c-0.86,0.93-1.6,1.87-2.32,2.76
					c-0.77,0.87-1.38,1.75-1.99,2.58c-1.16,1.67-2.19,3.19-2.87,4.48c-0.75,1.27-1.28,2.4-1.61,3.15c-0.36,0.75-0.56,1.14-0.56,1.14
					s0.01-0.44,0.04-1.27c0.05-0.83,0.03-2.03,0.37-3.59c0.25-1.59,0.7-3.45,1.46-5.53c0.75-2.08,1.72-4.41,3.09-6.75
					c1.3-2.39,2.87-4.86,4.65-7.34c1.78-2.49,3.72-4.99,5.72-7.54c2-2.54,4.01-5.11,5.94-7.73c1.93-2.62,3.66-5.27,5.2-8.19
					c1.5-2.57,2.72-5.7,3.86-8.58c0.62-1.84,1.18-3.68,1.69-5.51c-0.37,0.74-0.74,1.47-1.17,2.22c-1.1,1.93-2.45,3.89-4.13,5.72
					c-0.81,0.94-1.75,1.82-2.68,2.71c-0.9,0.8-1.81,1.62-2.74,2.46c-1.87,1.66-3.87,3.25-5.91,4.87
					c-4.04,3.21-8.41,6.66-12.32,10.05c-4.36,3.85-8.07,7.53-11.84,11.92c-3.74,4.28-7.13,8.97-10.21,13.85
					c-3.04,4.91-5.76,10.04-8.07,15.27c-2.33,5.23-4.14,10.58-5.79,15.82c-1.61,5.25-2.82,10.45-3.8,15.42
					c-1.02,4.97-1.74,9.74-2.27,14.16c-0.1,0.79-0.19,1.55-0.28,2.32c-0.02,1.65-0.07,3.22-0.13,4.75
					c5.08-13.6,16.4-25.96,27.24-36.47c-6.01,6.39-6.11,16.8-2.89,24.52c5.94-21.02,29.1-29.64,44.76-43.63
					c15.66-13.99,32.87-29.97,35.06-49.58c3.41,3.33,4.87,9.52,2.72,13.77c12.87-18.79,18.96-40.82,16.12-62.41
					C375.09,272.76,374.84,272.5,374.52,272.24z"/>
			</g>
			<path id="XMLID_13_" d="M294.97,129.21l-44.33,33.03l-20-26.97l-5.32-14.84c-9.25-1.9-17.88-6.91-24.26-14.1
				c-6.38-7.19-10.49-16.51-11.54-26.22c4.33,8.21,13.53,11.66,21.64,15.78c8.11,4.11,16.72,9.03,20.35,17.6
				c-3.37-6.92-8.37-13.45-11.99-20.23c-3.62-6.79-5.16-15.78-0.64-21.97c2.7,9.17,10.58,15.45,17.6,21.71
				c7.02,6.26,14.04,14.22,13.9,23.8c3.61-3,4.68-9,2.91-13.42c-1.87-4.67-6.51-7.48-9.18-11.72c-3.06-4.87-3.11-11.59-0.12-16.5
				c-0.49,3.21,1.44,6.37,3.94,8.35c2.49,1.98,5.51,3.07,8.34,4.5c9,4.53,16.23,12.71,19.8,22.39c1.54,4.18,2.25,9.37-0.59,12.74"/>
			<path id="XMLID_15_" class="st0" d="M324.15,186.7c-7.42-12.27-14.84-24.44-22.26-36.53c-7.2-11.73-19.12-19.07-31.87-19.36
				c-7.16-0.17-14.31-0.25-21.47-0.25c-7.16,0-14.31,0.08-21.47,0.25c-12.75,0.29-24.67,7.63-31.87,19.36
				c-7.42,12.09-14.84,24.26-22.26,36.53c-7.19,11.91-6.42,26.92,1.88,36.61c6.73,7.87,13.47,15.81,20.21,23.83
				c0,0.04,0.48,34.6,17.67,41.47c0-0.07,23.61,4.08,35.83-15.88c12.22,19.97,35.83,15.82,35.83,15.88
				c17.19-6.87,17.67-41.43,17.67-41.47c6.74-8.02,13.48-15.96,20.21-23.83C330.57,213.62,331.34,198.61,324.15,186.7z"/>
			<path id="XMLID_256_" class="st0" d="M275.14,296.62c-5.19-0.1-10.24-1.8-14.62-4.56c-3.24-2.04-7.01-3.15-10.88-3.15h-2.72
				c-3.87,0-7.65,1.11-10.88,3.15c-4.38,2.76-9.43,4.46-14.62,4.56c-2.49,0.05-5.01-0.3-7.42-1.02c-1.62-0.48-2.97,1.34-2.03,2.68
				c5.7,8.12,13.09,14.93,21.6,19.66c9.3,5.17,20.57,5.14,29.86-0.05c8.57-4.78,16-11.65,21.71-19.85c0.98-1.4-0.52-3.11-2.19-2.58
				C280.43,296.27,277.77,296.67,275.14,296.62z"/>
			<path id="XMLID_255_" d="M258.66,254.12c-6.69,1.19-13.53,1.19-20.21,0c-5.05-0.9-10.11-0.9-10.11,2.7c0,4.7,6.26,10.31,12.14,14
				c4.87,3.06,11.29,3.06,16.15,0c5.88-3.69,12.14-9.31,12.14-14C268.77,253.22,263.72,253.22,258.66,254.12z"/>
			<path id="XMLID_254_" d="M214.79,121.76c-1.23,3.62,6.09-1.16,2.54-2.62c-3.56-1.46-18.48-12.56-21.44-15.01
				c-8.1-6.73-19.67-9.09-29.79-6.08c-10.12,3.01-18.47,11.31-21.51,21.36c-4.85,16.07-4.94,32.43-14.08,46.55
				c-4.1,6.34-9.54,11.98-12.1,19.08"/>
			<path id="XMLID_262_" d="M275.71,121.76c1.23,3.62-6.09-1.16-2.54-2.62c3.56-1.46,18.48-12.56,21.44-15.01
				c8.1-6.73,19.67-9.09,29.79-6.08c10.12,3.01,18.47,11.31,21.51,21.36c4.85,16.07,4.94,32.43,14.08,46.55
				c4.1,6.34,9.54,11.98,12.1,19.08l-17.83-22.8l-8.36-12.3v-13.66l-35.3-15.4L275.71,121.76z"/>
			<path id="XMLID_16_" d="M275.64,118.5c1.62-2.86,1.18-6.43,0.24-9.57c-0.94-3.14-2.35-6.2-2.56-9.48
				c-0.42-6.66,5.01-13.18,11.68-14c-3.3,5.42-2.47,12.98,1.93,17.56c3.8,3.96,9.51,5.48,14.98,6.09c5.48,0.62,15.21,2.02,20.5,3.53
				c10.25,2.92,21.5,8.5,22.92,18.99"/>
			<path id="XMLID_56_" d="M330.55,108.54c4.1,2.57,14.86,10.09,16.34,14.37c1.48,4.28,5.06,19.89,6.89,24.07
				c6.29,14.34,23.56,22.53,31.69,36.1c6.98,11.64,6.04,26.75-2.32,37.63c3.16-8.38-1.97-17.11-7.46-24.47s-12.82-13.47-18.47-20.73
				c-9.25-11.88-13.65-26.72-12.19-41.15"/>
			<path id="XMLID_188_" d="M159.6,122.91c-4.1,2.57-6.46,6.84-7.94,11.13c-1.48,4.28-2.26,8.76-4.09,12.94
				c-6.28,14.34-23.56,22.53-31.69,36.1c-6.98,11.64-6.04,26.75,2.32,37.63c-3.16-8.38,1.97-17.11,7.46-24.47
				c5.49-7.36,12.82-13.47,18.47-20.73c9.25-11.88,13.65-26.72,12.19-41.15"/>
			<path id="XMLID_265_" d="M214.6,133.43c0,0,26.55,5.67,33.96,14.77c7.41-9.11,33.96-14.77,33.96-14.77l-3.84-9.06l-44.86-1.46
				l-19.21,4.56V133.43z"/>
			<path id="XMLID_267_" class="st0" d="M183.48,134.62c-10.35,9.39,0.95,43.61,0.95,43.61l56.4-35.81
				C240.83,142.42,200.54,119.14,183.48,134.62z"/>
			<path id="XMLID_7_" class="st0" d="M313.5,134.62c10.35,9.39-0.95,43.61-0.95,43.61l-56.4-35.81
				C256.15,142.42,296.44,119.14,313.5,134.62z"/>
			<g id="XMLID_293_">
				<path id="XMLID_33_" d="M227.15,196.77c1.56-3.45,2.1-6.49-2.55-9.61c-4.23-2.84-9.49-7.01-13.49-10.17
					c-3.69-2.92-8.65-3.54-12.98-1.63l-4.11,1.81c-2.18,0.96-2.94,3.75-1.54,5.69c2.45,3.38,15.32,10.93,31.54,16.57
					c0,0,6.31-3.56,11.67-15.02l-0.07-6.54c0,0-8.26,10.57-14.87,12.95C214.13,193.22,227.15,196.77,227.15,196.77z"/>
				<path id="XMLID_197_" d="M224.02,199.44c0,0,2.72,13,3.89,23.04c0,0-0.7-14.88,3.25-30.24l-7.9,4.24L224.02,199.44z"/>
			</g>
			<g id="XMLID_294_">
				<path id="XMLID_296_" d="M267.84,196.77c-1.56-3.45-2.1-6.49,2.55-9.61c4.23-2.84,9.49-7.01,13.49-10.17
					c3.69-2.92,8.65-3.54,12.98-1.63l4.11,1.81c2.18,0.96,2.94,3.75,1.54,5.69c-2.45,3.38-15.32,10.93-31.54,16.57
					c0,0-6.31-3.56-11.67-15.02l0.07-6.54c0,0,8.26,10.57,14.87,12.95C280.87,193.22,267.84,196.77,267.84,196.77z"/>
				<path id="XMLID_295_" d="M270.98,199.44c0,0-2.72,13-3.89,23.04c0,0,0.7-14.88-3.25-30.24l7.9,4.24L270.98,199.44z"/>
			</g>
		</g>
		<path id="XMLID_19_" d="M190.26,161.65c0,0,5.96-11.08,24.34-17.45c0,0-19.37-7.35-25.07-0.38
			C184.5,149.97,188.94,152.76,190.26,161.65z"/>
		<path id="XMLID_35_" d="M305.61,161.65c0,0-5.96-11.08-24.34-17.45c0,0,19.37-7.35,25.07-0.38
			C311.37,149.97,306.93,152.76,305.61,161.65z"/>
	</g>
</g>
<g id="Designed_by_Freepik">
</g>
</svg>
