<?xml version="1.0" encoding="utf-8"?>
<!-- Generator: Adobe Illustrator 23.0.6, SVG Export Plug-In . SVG Version: 6.00 Build 0)  -->
<svg version="1.1" id="Layer_1" xmlns="http://www.w3.org/2000/svg" xmlns:xlink="http://www.w3.org/1999/xlink" x="0px" y="0px"
	 viewBox="0 0 1300 1300" style="enable-background:new 0 0 1300 1300;" xml:space="preserve">
<path id="XMLID_8_" d="M731.59,702.17l-170.93,24.95c-7.35,1.07-14.89-1.36-19.89-6.86c-3.62-3.98-5.82-9.27-5.82-15.07l0,0
	c0-11.99,9.42-21.78,21.26-22.38c0.77-0.04,1.53-0.08,2.29-0.2l170.93-24.95c7.35-1.07,14.89,1.36,19.89,6.86
	c3.62,3.98,5.82,9.27,5.82,15.07l0,0c0,11.99-9.42,21.78-21.26,22.38C733.12,702.01,732.36,702.06,731.59,702.17z"/>
<path id="XMLID_7_" d="M713.73,761.14l-137.37,20.04c-12.38,0-22.41-10.03-22.41-22.41v0c0-12.38,10.03-22.41,22.41-22.41
	l137.37-20.04c12.38,0,22.41,10.03,22.41,22.41v0C736.15,751.11,726.11,761.14,713.73,761.14z"/>
<path id="XMLID_6_" d="M677.49,822.52l-64.88,10.02c-12.38,0-22.41-10.03-22.41-22.41l0,0c0-12.38,10.03-22.41,22.41-22.41
	l64.88-10.02c12.38,0,22.41,10.03,22.41,22.41l0,0C699.9,812.48,689.87,822.52,677.49,822.52z"/>
<g id="XMLID_10_">
	<path id="XMLID_2_" d="M667.46,655.24V625.1c0-12.38-10.03-22.41-22.41-22.41h0c-12.38,0-22.41,10.03-22.41,22.41v36.64
		L667.46,655.24z"/>
</g>
<g id="XMLID_9_">
	<path id="XMLID_12_" d="M428.94,431.5c0,0,1.25,0.2,3.61,0.74C430.42,431.38,428.94,431.5,428.94,431.5z"/>
	<path id="XMLID_13_" d="M632.75,597.82c1.88-18.48,5.89-102.21-69.21-145.64c-72.81-41.37-134.6-20.69-134.6-20.69
		s1.48-0.12,3.61,0.74c14.85,3.4,73.88,20.47,144.22,88.22C576.77,520.46,628.39,565.14,632.75,597.82z"/>
	<path id="XMLID_15_" d="M445.92,454.85c4.49,23.31,34.75,180.37,167.66,151.7c2.51-10.75-2.31-53.3-36.81-86.1
		c-70.34-67.75-129.37-84.82-144.22-88.22C436.55,433.85,442.86,438.94,445.92,454.85z"/>
</g>
<g id="XMLID_11_">
	<path id="XMLID_14_" d="M853.65,517.17c0,0-64.49-48.57-136.95-19.11c-72.46,29.46-62.9,100.32-62.9,100.32
		c13.27-30.26,44.46-49.59,44.46-49.59C755.27,499.12,853.65,517.17,853.65,517.17z"/>
	<path id="XMLID_17_" d="M669.53,606.72c75.95,35.01,123.03-20.59,137.95-48.94c15.92-30.26,46.18-40.61,46.18-40.61
		s-98.39-18.05-155.39,31.62C670.93,573.33,669.82,599.27,669.53,606.72z"/>
</g>
</svg>
