<?xml version="1.0" encoding="utf-8"?>
<!-- Generator: Adobe Illustrator 23.0.6, SVG Export Plug-In . SVG Version: 6.00 Build 0)  -->
<svg version="1.1" xmlns="http://www.w3.org/2000/svg" xmlns:xlink="http://www.w3.org/1999/xlink" x="0px" y="0px"
	 viewBox="0 0 1122 1122" style="enable-background:new 0 0 1122 1122;" xml:space="preserve">
<g id="background">
</g>
<g id="object">
	<g>
		<g>
			<path d="M846.97,337.46l-4.64,41.06l23.19-33.74c2.48-3.61,1.07-8.58-2.94-10.34l-5.87-2.58
				C852.4,329.97,847.49,332.79,846.97,337.46z"/>
			<path d="M880.65,376.95l-41.25-2.34l34.98,21.27c3.74,2.27,8.62,0.59,10.16-3.51l2.25-6
				C888.44,381.97,885.35,377.22,880.65,376.95z"/>
			<path d="M874.74,351.83l-32.45,25.57l40.29-7.24c4.31-0.77,6.85-5.27,5.28-9.36l-2.29-5.99
				C883.89,350.42,878.43,348.92,874.74,351.83z"/>
			<g>
				<path d="M870.05,406.26l-28.31-30.1l10.73,39.51c1.15,4.22,5.85,6.36,9.79,4.45l5.77-2.8
					C872.25,415.26,873.27,409.69,870.05,406.26z"/>
				<g>
					<path d="M666.75,727.56c16.93-11.21,33.9-22.34,51.01-33.27c78.9-50.39,162.17-97.5,251.69-125.78
						c-3.85,0.16-7.95,0.34-12.19,0.55c-31.98,1.58-64.22,3.68-96.4,6.76l-19.46-190.47l1.52-6.57l0.31,0.41l-0.16-1.05l0.13-0.56
						l2.25-1.39l-1.96,0.12l0.21-0.89l-0.81,0.93l-0.09,0.01l-5.76-38.01c-0.71-4.65-5.72-7.29-9.95-5.23l-5.77,2.8
						c-3.93,1.91-5.16,6.93-2.54,10.44l19.34,25.96l-28.15-21.9c-3.71-2.89-9.16-1.35-10.82,3.06l-2.25,6
						c-1.54,4.1,1.03,8.58,5.34,9.33l38.19,6.61l0.77,1.04l-0.69,0.04l-0.05-0.46l-0.03,0.47l-36.2,2.28
						c-4.7,0.3-7.76,5.06-6.08,9.46l2.29,5.99c1.56,4.09,6.46,5.74,10.18,3.45l29.59-18.25v0.01l-23.65,27.13
						c-3.09,3.55-1.86,9.07,2.45,10.97l5.87,2.58c4,1.76,8.62-0.55,9.61-4.81l4.52-19.54l-13.59,183.87
						c-10.35,1.25-20.67,2.62-30.98,4.13l-2.13-53.7l-62.69-50.05l-56.4,53.01v76.52c-20.37,5.95-40.46,12.83-60.13,20.8
						c-8.22,3.33-16.16,7.06-24.13,10.85c-2.5,1.25-20.73,12.92-22.18,12.02c15.23,9.39,30.05,19.44,44.47,30
						C630.35,697.24,648.83,712.07,666.75,727.56z M715.93,528.87l17.02-13.74l18.92,12.97l1,22.57l-36.94,0.28V528.87z"/>
					<path d="M686.91,745.49c28.55,26.12,55.59,53.91,81.26,82.81c2.26,2.55,4.51,5.11,6.75,7.68c21.26-17.75,41.07-37.24,60-57.42
						c21.5-22.93,41.88-46.89,62.04-71c21.02-25.14,38.57-52.2,55.22-80.38c6.21-10.51,12.46-21.07,18.63-31.7
						c-4.49,1.46-8.98,2.95-13.44,4.52C860.29,633.98,772.45,688.88,686.91,745.49z"/>
					<path d="M908.43,734.43c-36.16,43.02-73.61,85.12-116.66,121.21c14.38,17.12,28.33,34.63,41.78,52.51
						c90.38-72.68,151.24-180.48,162.03-302.68C970.11,650.81,941.92,694.57,908.43,734.43z"/>
					<path d="M596.2,700.09c-53.02-37.52-110.5-65.04-171.93-86.07c-34.76-11.9-70.29-21.55-106.29-28.86v-35.58
						c11.99,0.54,21.73,1.5,28.31,3.92c-6.27-5.46-13.69-12.97-20.76-22.89c-0.11-0.15-0.21-0.3-0.31-0.45
						c8.7,1.07,15.87,3.18,21.07,5.09c-6.27-5.46-13.69-12.97-20.76-22.89c-0.47-0.66-0.91-1.31-1.36-1.96
						c9.16,1.02,16.71,3.21,22.12,5.2c-6.01-5.24-13.09-12.39-19.89-21.72c8.16,1.11,14.93,3.1,19.89,4.93
						c-6.27-5.46-13.69-12.97-20.76-22.89c-5.27-7.4-9.16-14.47-12.04-20.61c-3.29,6.52-7.58,13.9-13.16,21.62
						c-6.49,8.99-13.14,16.22-19.04,21.88c4.59-1.68,11-3.63,18.81-4.78c-6.42,8.84-12.98,15.98-18.81,21.57
						c5.02-1.84,12.22-4,21.06-5.09c-0.65,0.95-1.32,1.9-2.02,2.86c-6.49,8.99-13.14,16.22-19.04,21.88
						c4.81-1.77,11.63-3.82,19.97-4.95c-0.31,0.44-0.61,0.87-0.93,1.32c-6.49,8.99-13.14,16.22-19.04,21.88
						c6.33-2.32,16.12-3.38,28.31-3.93v33.98c-9.27-1.79-18.55-3.47-27.87-4.94c-17.41-2.76-34.9-5.5-52.46-7.82v-33.04
						c17.11,0.58,30.95-0.63,40.23,2.96c-8.55-7.84-18.68-18.62-28.33-32.84c-0.15-0.22-0.29-0.44-0.43-0.66
						c11.87,1.53,21.65,4.56,28.76,7.31c-8.55-7.84-18.68-18.62-28.33-32.84c-0.64-0.95-1.26-1.89-1.87-2.84
						c12.52,1.46,22.81,4.63,30.2,7.48c-8.21-7.52-17.87-17.79-27.16-31.18c11.15,1.59,20.37,4.47,27.16,7.09
						c-8.55-7.84-18.68-18.62-28.33-32.84c-7.19-10.61-12.5-20.77-16.42-29.58c-4.49,9.36-10.34,19.95-17.95,31.02
						c-8.86,12.9-17.93,23.28-25.98,31.4c6.26-2.42,15-5.21,25.67-6.86c-8.76,12.69-17.71,22.93-25.67,30.95
						c6.85-2.65,16.67-5.74,28.73-7.3c-0.89,1.36-1.81,2.72-2.75,4.1c-8.86,12.9-17.93,23.28-25.98,31.4
						c6.57-2.54,15.87-5.48,27.25-7.1c-0.42,0.63-0.83,1.25-1.27,1.89c-8.86,12.9-17.93,23.28-25.98,31.4
						c8.92-3.44,22.85-2.37,40.23-2.96v32c-28.43-3.52-57.01-5.74-85.66-4.82c-3.26,0.1-5.82,0.38-7.84,0.97
						c22.08,5.4,43.48,13.48,64.9,21.38c31.09,11.47,62.84,20.98,93.79,32.89c112.87,43.44,217.41,106.92,312.91,180.79
						c46.01,35.59,88.42,75.09,129.35,116.38c11.86,11.97,23.63,24.23,34.99,36.87c18.41-9.73,36.06-20.71,52.81-32.86
						c-24.95-33.23-51.68-65.13-79.87-95.62C693.79,779.64,647.5,736.4,596.2,700.09z"/>
					<path d="M694.16,920.09c-40.65-39.94-82.68-77.88-128.46-111.91c-46.69-34.7-95.63-67.15-146.11-96.07
						c-51.04-29.24-104.57-53.93-159.85-74.02c-27.06-9.84-54.57-18.3-81.59-28.29c-18.48-6.84-37.32-14.07-56.64-18.79
						c0.04,0.67,0.09,1.34,0.13,2.01c39.97,25.94,80.53,50.98,119.81,77.97c85.39,58.68,159.92,130.37,232.24,204.17
						c34.56,35.27,70.35,69.81,103.12,106.76c6.19,6.98,12.19,14.09,17.98,21.36c51.06-4.12,99.65-17.01,144.26-37.13
						C724.54,950.3,709.37,935.04,694.16,920.09z"/>
					<path d="M183.25,729.88c-16.22-18.8-32.38-37.67-49.13-55.99c23.35,92.52,77.45,176.04,152.08,235.5
						c29.07,23.16,60.95,42.39,94.66,57.37c-35.4-52.28-74.51-101.97-116.98-148.73C237.08,788.52,209.32,760.08,183.25,729.88z"/>
					<path d="M438.87,877.06c-35.85-36.26-72.35-71.92-110.7-105.55c-37.54-32.92-77.05-62.87-118.58-90.57
						c-27.97-18.65-56.43-36.57-84.72-54.73c0.01,0.08,0.02,0.16,0.04,0.24c30.93,30.79,58.85,64.36,87.49,97.25
						c26.69,30.64,55.49,59.26,82.39,89.7c25.84,29.22,50.4,59.57,73.69,90.86c19,25.54,37.04,51.77,54.15,78.58
						c43.86,14.37,89.98,21.88,136.48,21.88c0.96,0,1.92-0.03,2.87-0.04c-6.67-7.7-13.53-15.23-20.51-22.61
						C507.85,946.55,473.26,911.83,438.87,877.06z"/>
				</g>
			</g>
		</g>
		<g>
			<path d="M537.88,119.67c0.02,0,0.03,0,0.05,0c6.94-0.37,14-0.57,20.97-0.61c0.49,0,0.88-0.4,0.88-0.89c0-0.48-0.4-0.88-0.88-0.88
				c0,0,0,0-0.01,0c-7,0.04-14.09,0.24-21.05,0.61c-0.49,0.03-0.86,0.44-0.83,0.93C537.03,119.3,537.42,119.67,537.88,119.67z"/>
			<path d="M375.59,160.23c0.12,0,0.25-0.03,0.37-0.08c6.32-2.96,12.8-5.81,19.24-8.45c0.45-0.19,0.66-0.7,0.48-1.15
				c-0.18-0.45-0.7-0.66-1.15-0.48c-6.47,2.66-12.97,5.52-19.32,8.49c-0.44,0.21-0.63,0.73-0.42,1.17
				C374.94,160.04,375.26,160.23,375.59,160.23z"/>
			<path d="M303.24,203.06c0.18,0,0.36-0.05,0.52-0.17c5.64-4.12,11.45-8.14,17.25-11.97c0.41-0.27,0.52-0.82,0.25-1.22
				c-0.27-0.4-0.81-0.52-1.22-0.25c-5.83,3.84-11.66,7.88-17.32,12.02c-0.39,0.29-0.48,0.84-0.19,1.23
				C302.7,202.93,302.97,203.06,303.24,203.06z"/>
			<path d="M270.49,229.44c0.21,0,0.42-0.07,0.58-0.22c5.22-4.63,10.61-9.19,16.03-13.55c0.38-0.31,0.44-0.86,0.13-1.24
				c-0.3-0.38-0.86-0.44-1.24-0.13c-5.43,4.38-10.85,8.96-16.09,13.61c-0.36,0.32-0.4,0.88-0.07,1.24
				C270.01,229.34,270.25,229.44,270.49,229.44z"/>
			<path d="M454.84,132.07c0.07,0,0.14-0.01,0.21-0.03c6.76-1.69,13.64-3.23,20.47-4.59c0.48-0.09,0.79-0.56,0.69-1.04
				c-0.1-0.48-0.55-0.79-1.04-0.69c-6.85,1.36-13.77,2.91-20.55,4.61c-0.47,0.12-0.76,0.6-0.64,1.07
				C454.08,131.81,454.44,132.07,454.84,132.07z"/>
			<path d="M496.06,123.87c0.04,0,0.09,0,0.13-0.01c6.89-1.03,13.89-1.9,20.82-2.6c0.48-0.05,0.84-0.48,0.79-0.96
				c-0.05-0.48-0.47-0.84-0.96-0.79c-6.95,0.7-13.99,1.58-20.9,2.61c-0.48,0.07-0.81,0.52-0.74,1
				C495.26,123.56,495.63,123.87,496.06,123.87z"/>
			<path d="M338.38,179.91c0.15,0,0.31-0.04,0.45-0.12c5.99-3.55,12.15-7,18.33-10.26c0.43-0.23,0.59-0.76,0.37-1.19
				c-0.23-0.43-0.76-0.6-1.19-0.37c-6.2,3.28-12.39,6.75-18.4,10.31c-0.42,0.25-0.56,0.79-0.31,1.21
				C337.79,179.76,338.08,179.91,338.38,179.91z"/>
			<path d="M240.42,258.81c0.24,0,0.47-0.09,0.64-0.28c4.75-5.1,9.68-10.15,14.66-15.01c0.35-0.34,0.35-0.9,0.01-1.24
				c-0.34-0.34-0.89-0.36-1.25-0.01c-5,4.88-9.95,9.95-14.71,15.07c-0.33,0.36-0.31,0.91,0.04,1.24
				C239.99,258.74,240.21,258.81,240.42,258.81z"/>
			<path d="M138.59,440.35c0.08,0.02,0.16,0.03,0.24,0.03c0.39,0,0.74-0.26,0.85-0.65c1.85-6.71,3.9-13.47,6.07-20.08
				c0.15-0.46-0.1-0.96-0.56-1.11c-0.46-0.16-0.96,0.1-1.11,0.56c-2.18,6.64-4.24,13.42-6.1,20.17
				C137.85,439.73,138.12,440.22,138.59,440.35z"/>
			<path d="M129.45,481.37c0.05,0.01,0.1,0.01,0.15,0.01c0.42,0,0.79-0.3,0.87-0.73c1.2-6.86,2.58-13.78,4.11-20.57
				c0.11-0.47-0.19-0.95-0.67-1.05c-0.47-0.1-0.95,0.19-1.05,0.67c-1.53,6.82-2.92,13.77-4.12,20.66
				C128.65,480.84,128.98,481.29,129.45,481.37z"/>
			<path d="M151.65,400.39c0.1,0.04,0.21,0.06,0.32,0.06c0.35,0,0.69-0.21,0.82-0.57c2.49-6.49,5.17-13,7.96-19.36
				c0.2-0.45-0.01-0.96-0.45-1.16c-0.44-0.19-0.96,0.01-1.16,0.45c-2.81,6.38-5.5,12.92-8,19.44
				C150.97,399.71,151.19,400.22,151.65,400.39z"/>
			<path d="M213.29,290.9c0.26,0,0.53-0.12,0.7-0.34c4.25-5.54,8.67-11.03,13.15-16.33c0.31-0.37,0.27-0.93-0.1-1.24
				c-0.37-0.31-0.93-0.27-1.24,0.1c-4.5,5.32-8.94,10.84-13.21,16.4c-0.3,0.39-0.22,0.94,0.16,1.23
				C212.92,290.84,213.11,290.9,213.29,290.9z"/>
			<path d="M188.89,325.29c0.15,0.09,0.31,0.13,0.47,0.13c0.29,0,0.58-0.15,0.75-0.41c3.69-5.9,7.57-11.79,11.53-17.51
				c0.28-0.4,0.18-0.95-0.22-1.23c-0.4-0.28-0.95-0.18-1.23,0.22c-3.98,5.74-7.87,11.65-11.58,17.58
				C188.36,324.49,188.48,325.03,188.89,325.29z"/>
			<path d="M168.46,361.95c0.13,0.06,0.26,0.09,0.39,0.09c0.32,0,0.63-0.18,0.79-0.49c3.1-6.21,6.39-12.44,9.79-18.52
				c0.24-0.42,0.09-0.96-0.34-1.2c-0.43-0.24-0.96-0.09-1.2,0.34c-3.42,6.1-6.72,12.36-9.83,18.59
				C167.85,361.21,168.02,361.74,168.46,361.95z"/>
			<path d="M742.12,158.05c6.31,2.87,12.65,5.94,18.85,9.12c0.13,0.07,0.27,0.1,0.4,0.1c0.32,0,0.63-0.17,0.78-0.48
				c0.22-0.43,0.05-0.96-0.38-1.18c-6.22-3.2-12.59-6.28-18.93-9.16c-0.44-0.2-0.96-0.01-1.17,0.44
				C741.48,157.33,741.68,157.85,742.12,158.05z"/>
			<path d="M959.86,375.94c0.15,0.32,0.47,0.52,0.8,0.52c0.12,0,0.25-0.03,0.36-0.08c0.44-0.2,0.64-0.72,0.44-1.17
				c-2.89-6.36-5.97-12.75-9.18-19c-0.22-0.43-0.75-0.6-1.19-0.38c-0.43,0.22-0.6,0.75-0.38,1.19
				C953.91,363.24,956.99,369.61,959.86,375.94z"/>
			<path d="M940.68,338.56c0.16,0.28,0.46,0.44,0.76,0.44c0.15,0,0.3-0.04,0.44-0.12c0.42-0.24,0.57-0.78,0.33-1.2
				c-3.49-6.06-7.17-12.12-10.96-18.02c-0.26-0.41-0.81-0.53-1.22-0.27c-0.41,0.26-0.53,0.81-0.27,1.22
				C933.53,326.49,937.21,332.53,940.68,338.56z"/>
			<path d="M918.01,303.22c0.17,0.24,0.44,0.37,0.72,0.37c0.18,0,0.36-0.05,0.51-0.16c0.4-0.28,0.49-0.83,0.21-1.23
				c-4.07-5.72-8.32-11.4-12.62-16.88c-0.3-0.39-0.86-0.45-1.24-0.15c-0.38,0.3-0.45,0.85-0.15,1.23
				C909.73,291.86,913.96,297.52,918.01,303.22z"/>
			<path d="M975.36,415.02c0.13,0.37,0.47,0.6,0.83,0.6c0.09,0,0.19-0.02,0.28-0.05c0.46-0.16,0.71-0.66,0.55-1.12
				c-2.26-6.63-4.72-13.29-7.3-19.81c-0.18-0.45-0.69-0.67-1.14-0.49c-0.45,0.18-0.67,0.69-0.49,1.14
				C970.66,401.78,973.1,408.42,975.36,415.02z"/>
			<path d="M999.24,539.19c0.01,0,0.02,0,0.04,0c0.48-0.02,0.86-0.43,0.84-0.92c-0.29-7-0.74-14.07-1.36-21.02
				c-0.04-0.48-0.51-0.84-0.95-0.8c-0.48,0.04-0.84,0.47-0.8,0.95c0.61,6.92,1.07,13.97,1.35,20.94
				C998.38,538.82,998.77,539.19,999.24,539.19z"/>
			<path d="M892.07,270.21c0.17,0.2,0.42,0.3,0.67,0.3c0.2,0,0.41-0.07,0.58-0.21c0.37-0.32,0.41-0.88,0.09-1.24
				c-4.58-5.29-9.35-10.53-14.17-15.59c-0.34-0.35-0.89-0.36-1.24-0.03c-0.35,0.34-0.37,0.89-0.03,1.25
				C882.77,259.73,887.51,264.95,892.07,270.21z"/>
			<path d="M995.54,497.32c0.04,0,0.08,0,0.12-0.01c0.48-0.07,0.82-0.51,0.75-0.99c-0.95-6.95-2.08-13.94-3.36-20.8
				c-0.09-0.48-0.56-0.79-1.03-0.7c-0.48,0.09-0.79,0.55-0.7,1.03c1.27,6.82,2.4,13.79,3.34,20.71
				C994.73,497,995.1,497.32,995.54,497.32z"/>
			<path d="M986.98,455.32c0.1,0.4,0.46,0.68,0.86,0.68c0.07,0,0.13-0.01,0.2-0.02c0.47-0.11,0.77-0.59,0.65-1.06
				c-1.61-6.81-3.41-13.67-5.35-20.38c-0.14-0.47-0.63-0.74-1.09-0.6c-0.47,0.13-0.74,0.62-0.6,1.09
				C983.58,441.71,985.38,448.54,986.98,455.32z"/>
			<path d="M621.66,123.18c6.89,0.95,13.86,2.08,20.71,3.37c0.06,0.01,0.11,0.02,0.16,0.02c0.42,0,0.79-0.3,0.86-0.72
				c0.09-0.48-0.22-0.94-0.7-1.03c-6.87-1.29-13.87-2.43-20.79-3.38c-0.5-0.06-0.93,0.27-0.99,0.75
				C620.84,122.67,621.18,123.11,621.66,123.18z"/>
			<path d="M863.12,239.84c0.17,0.16,0.39,0.24,0.61,0.24c0.23,0,0.46-0.09,0.64-0.27c0.34-0.35,0.32-0.91-0.03-1.24
				c-5.07-4.84-10.32-9.6-15.58-14.16c-0.37-0.32-0.92-0.28-1.24,0.09c-0.32,0.37-0.28,0.92,0.09,1.24
				C852.85,230.28,858.07,235.03,863.12,239.84z"/>
			<path d="M579.88,119.44c6.98,0.29,14.02,0.75,20.94,1.37c0.03,0,0.05,0,0.08,0c0.45,0,0.83-0.34,0.88-0.8
				c0.04-0.49-0.31-0.91-0.8-0.96c-6.94-0.62-14.01-1.09-21.02-1.38c-0.47,0.02-0.9,0.36-0.92,0.84
				C579.02,119,579.4,119.42,579.88,119.44z"/>
			<path d="M703.18,142.57c6.57,2.25,13.19,4.7,19.68,7.28c0.11,0.04,0.22,0.06,0.32,0.06c0.35,0,0.68-0.21,0.82-0.56
				c0.18-0.45-0.04-0.96-0.49-1.14c-6.51-2.59-13.16-5.05-19.76-7.31c-0.46-0.16-0.96,0.09-1.12,0.55
				C702.48,141.91,702.72,142.41,703.18,142.57z"/>
			<path d="M662.89,130.9c6.77,1.61,13.6,3.41,20.29,5.35c0.08,0.02,0.16,0.03,0.24,0.03c0.38,0,0.73-0.25,0.85-0.64
				c0.13-0.47-0.13-0.95-0.6-1.09c-6.72-1.94-13.57-3.75-20.37-5.37c-0.47-0.12-0.95,0.18-1.06,0.65
				C662.12,130.32,662.41,130.79,662.89,130.9z"/>
			<path d="M831.43,212.38c0.16,0.13,0.35,0.19,0.54,0.19c0.26,0,0.52-0.12,0.69-0.34c0.3-0.38,0.24-0.94-0.15-1.23
				c-5.5-4.32-11.17-8.57-16.85-12.61c-0.39-0.28-0.94-0.19-1.23,0.21c-0.28,0.4-0.19,0.95,0.21,1.23
				C820.3,203.85,825.95,208.08,831.43,212.38z"/>
			<path d="M779.37,177.19c6.01,3.46,12.04,7.13,17.9,10.89c0.15,0.09,0.31,0.14,0.48,0.14c0.29,0,0.57-0.14,0.74-0.4
				c0.26-0.41,0.14-0.95-0.26-1.22c-5.89-3.78-11.94-7.46-17.97-10.94c-0.42-0.24-0.96-0.1-1.2,0.32
				C778.8,176.41,778.95,176.95,779.37,177.19z"/>
			<path d="M124.3,523.09c0.02,0,0.05,0,0.07,0c0.46,0,0.84-0.35,0.88-0.81c0.54-6.96,1.25-13.98,2.12-20.88
				c0.06-0.48-0.28-0.92-0.76-0.98c-0.49-0.07-0.92,0.28-0.98,0.76c-0.87,6.92-1.58,13.98-2.12,20.96
				C123.45,522.63,123.81,523.06,124.3,523.09z"/>
			<path d="M414.54,144.23c0.1,0,0.2-0.02,0.29-0.05c6.58-2.34,13.31-4.54,19.98-6.56c0.47-0.14,0.73-0.63,0.59-1.1
				c-0.14-0.46-0.63-0.73-1.1-0.59c-6.7,2.02-13.45,4.24-20.06,6.59c-0.46,0.16-0.7,0.67-0.53,1.12
				C413.84,144,414.18,144.23,414.54,144.23z"/>
			<path d="M999.85,580.39c-0.02,0.47-0.41,0.83-0.88,0.83c-0.02,0-0.03,0-0.05,0c-0.49-0.03-0.86-0.44-0.83-0.93
				c0.37-6.94,0.58-14,0.63-20.97c0-0.48,0.4-0.88,0.88-0.88c0,0,0,0,0.01,0c0.49,0,0.88,0.4,0.88,0.89
				C1000.44,566.34,1000.23,573.42,999.85,580.39z"/>
			<path d="M999.61,558.45C999.61,558.45,999.61,558.45,999.61,558.45c-0.49,0-0.88,0.39-0.89,0.88
				c-0.04,6.98-0.26,14.03-0.63,20.97c-0.03,0.49,0.35,0.9,0.83,0.93c0.02,0,0.03,0,0.05,0c0.47,0,0.85-0.36,0.88-0.83
				c0.37-6.97,0.59-14.06,0.63-21.06C1000.49,558.85,1000.1,558.45,999.61,558.45z"/>
		</g>
	</g>
</g>
</svg>
