<svg id="Layer_1" data-name="Layer 1" xmlns="http://www.w3.org/2000/svg" xmlns:xlink="http://www.w3.org/1999/xlink" viewBox="0 0 1001.88 1000"><defs><style>.cls-1{fill:url(#radial-gradient);}.cls-2{fill:#f3d400;}</style><radialGradient id="radial-gradient" cx="500" cy="500" r="302.82" gradientUnits="userSpaceOnUse"><stop offset="0" stop-color="#f3d400"/><stop offset="0.29" stop-color="#f4d105" stop-opacity="0.99"/><stop offset="0.69" stop-color="#f8c713" stop-opacity="0.94"/><stop offset="1" stop-color="#fcbd21" stop-opacity="0.9"/></radialGradient></defs><title>Danger Zone Travel</title><rect width="1001.88" height="1000"/><path class="cls-1" d="M183.32,730.51l286.38-496c13.47-23.33,47.13-23.33,60.6,0l286.38,496c13.47,23.33-3.37,52.49-30.3,52.49H213.62C186.69,783,169.85,753.84,183.32,730.51Z" transform="translate(0.94)"/><path d="M786.38,772.7H213.62c-7.77,0-14.1-4.15-18.83-12.35-1.08-1.87-6.18-11.78,0-22.48L481.17,241.49A21.72,21.72,0,0,1,500,230.43a21.35,21.35,0,0,1,18.83,10.78l286.38,496c5.29,9.16,2.49,18.89,0,23.2C800.49,768.55,794.16,772.7,786.38,772.7ZM500,235.64a16.53,16.53,0,0,0-14.32,8.45L199.31,740.48c-4.85,8.39-.52,16.38,0,17.27,3.77,6.55,8.46,9.74,14.31,9.74H786.38c5.86,0,10.54-3.18,14.31-9.72.06-.09,5.14-9.09,0-18l-286.38-496A16,16,0,0,0,500,235.64Z" transform="translate(0.94)"/><path d="M496.38,438c40.21-.34,75.91,29.15,82.88,69.92a73.08,73.08,0,0,1-2.6,35c-5,15.8-11.92,30.77-19.52,45.44-14.25,27.53-30.55,53.84-47.61,79.69-3.92,5.93-8,11.77-12,17.65-1.13,1.66-1.22,1.65-2.39,0q-18.63-26.77-35.5-54.69c-10.43-17.18-20.38-34.63-29.15-52.73-6.23-12.85-11.9-25.94-15.69-39.77-4.62-16.83-2.62-33.16,4.08-48.91,9.67-22.77,26.41-38.36,49.65-46.84A77,77,0,0,1,496.38,438Zm-54.67,83c-.4,29.8,24.53,54.69,54.63,54.71s54.72-24.82,54.78-54.64c.06-28.66-22.81-54.79-54.55-54.88A54.36,54.36,0,0,0,441.71,520.94Z" transform="translate(0.94)"/><path d="M498.72,699.78c-17.45,0-32.32-1.36-46.87-5.31-6.54-1.78-12.9-4-18.6-7.83a31.27,31.27,0,0,1-3.49-2.67c-6.83-6.09-6.66-14.46.35-20.41a40.5,40.5,0,0,1,10.54-6.32,99.71,99.71,0,0,1,16.45-5.18c1.37-.32,2.07-.13,2,1.53-.14,5.5.64,4.21-4.19,5.53A71.72,71.72,0,0,0,439.29,665a19.61,19.61,0,0,0-6.76,5.26,5.65,5.65,0,0,0,0,7.45,19.51,19.51,0,0,0,6.63,5.15c8.34,4.49,17.42,6.62,26.65,8.24a172.57,172.57,0,0,0,32.09,2.43c15.31-.2,30.49-1.6,45.19-6.29,5.28-1.69,10.38-3.78,14.81-7.23a12.22,12.22,0,0,0,2.32-2.39,5.55,5.55,0,0,0,0-7.29c-2.76-3.59-6.72-5.45-10.7-7.21a75.21,75.21,0,0,0-14.07-4.53c-1.31-.3-2-.87-1.82-2.26,0-.35,0-.71,0-1.06.07-3.54-.71-3.84,3.48-2.81,7.09,1.75,14,3.88,20.41,7.57a32.51,32.51,0,0,1,5.31,3.77c7,6.13,6.81,14.68-.35,20.64-5.07,4.22-11,6.73-17.18,8.73a141.13,141.13,0,0,1-31.43,5.93C508.05,699.58,502.19,699.84,498.72,699.78Z" transform="translate(0.94)"/><path class="cls-2" d="M782.69,481.28c-1.35-2.69-4.27-3.61-7.22-4.2a32.75,32.75,0,0,0-6.27-.61,42.76,42.76,0,0,0-15.78,3.34c-16.29,6.41-31.66,15.88-44.1,23.61a8.32,8.32,0,0,0-4.22-5.19,9.34,9.34,0,0,0-4.59-1.24,10.91,10.91,0,0,0-7.59,3.51,2.23,2.23,0,0,1-1.75.82,7.57,7.57,0,0,1-1.69-.26c-13.11-3.22-26.44-6.44-39.34-9.55q-14.7-3.56-29.4-7.12a14.78,14.78,0,0,0-3.5-.46,10.08,10.08,0,0,0-5.57,1.63l-.22.09c-3.29,1.2-3.82,3.38-3.69,5,.18,2.26,1.66,3.76,4.39,4.45l.32.08,12.58,4.94c10.33,4.07,21,8.26,31.59,12.22a9.86,9.86,0,0,0-6.44,3.4,7.77,7.77,0,0,0-2.23,6c.28,2.46.32,4.94.37,7.56,0,2.11.07,4.28.24,6.48-6.59-1.53-13.26-3-19.73-4.47l-1.26-.28-.54-.13a11.47,11.47,0,0,0-2.9-.45,7.09,7.09,0,0,0-3,.67c-.12.06-.25.1-.39.16-1,.38-3.71,1.39-4,4.4-.1,1-.07,4.46,4.54,5.19l.2,0c2,.71,4,1.39,6,2.08l-6,2.25-6.69,2.51c-32.52,12.26-62,22.08-90.2,30-27,7.63-56.27,15.14-86.73,18.45l-1.7.19a94.76,94.76,0,0,1-10.29.77,32.83,32.83,0,0,1-6.93-.68,8.31,8.31,0,0,1-1-.27c.14-.17.31-.38.53-.62a61.06,61.06,0,0,1,9.14-7.89h-7.74v-11.5c-1,.71-2.09,1.43-3.18,2.2-5.83,4.13-12.51,9.28-17.89,16.22C393.8,601,394,606,395,609s3.87,7,11.62,9.07A60.88,60.88,0,0,0,421.18,620l2.29,0c12.31,0,24.59-1.66,36-3.45,17.62-2.75,36.23-6.6,56.88-11.76,21.77-5.44,43.67-11.88,67-19.69,21.91-7.35,45.32-15.62,68-26.34a18.53,18.53,0,0,1,7.76-2.16,10.69,10.69,0,0,1,7.12,3,7.85,7.85,0,0,0,5.23,2,11.86,11.86,0,0,0,4.78-1.18c.83-.38,3-1.36,3.49-3.79a5.06,5.06,0,0,0-1.78-4.62c-.74-.73-1.45-1.51-2.17-2.33l14.82-4.77q9.25-3,18.52-6a8.74,8.74,0,0,1,2.66-.47,7,7,0,0,1,1.79.24c11.09,2.86,24,6.82,35.82,14.51,2.55,1.65,5.22,3,7.81,4.38l2.22,1.16a7.42,7.42,0,0,0,3.51.9,8.7,8.7,0,0,0,6.5-3.27,4.8,4.8,0,0,0,1.32-3.6,6,6,0,0,0-2.49-4.15,4.36,4.36,0,0,1-.34-.29c-2.42-2.94-4.94-5.82-7.58-8.82-.34-.39-.71-.81-1-1.17.29-.34.64-.72,1-1.09a8.63,8.63,0,0,0,.47-11.59,8.5,8.5,0,0,0-6.52-2.9,9.11,9.11,0,0,0-4.7,1.3,16.81,16.81,0,0,0-1.77,1.21c-1.41-1.61-2.85-3.18-4.26-4.73A136.59,136.59,0,0,0,765,507.9c5.66-4.06,12.7-9.84,16.83-18.51C783,486.89,784,484,782.69,481.28Zm-114.36,46c-1.64-3.14-3.37-6.25-5-9.28l-1.08-2-.14-.26a7.64,7.64,0,0,0-1.35-2l1.24.46a37.55,37.55,0,0,1,14.06,9C673.62,524.45,670.91,525.79,668.33,527.29Z" transform="translate(0.94)"/><path d="M774.77,480.63c-6.94-1.38-13.6,0-20,2.54-15.67,6.17-30,14.91-44.22,23.76-1.45.9-2.79,2.12-4.91,2.51.72-3.37.89-6.3-2.27-8.05s-5.73-.41-7.91,1.71-4.11,2.13-6.81,1.47c-22.89-5.63-45.83-11.08-68.74-16.67-2.29-.56-4.35-.57-6.32.75-.79.53-2.29.54-2.2,1.7s1.54,1.11,2.42,1.46c16.45,6.42,32.83,13,49.42,19.09a41.88,41.88,0,0,1,16.71,11.24c1.75,1.89,1.36,2.67-.71,3.65-3.26,1.55-6.53,3.11-9.62,5-2.16,1.3-3.18.65-4.2-1.32-2-3.91-4.2-7.76-6.34-11.62-.42-.77-.72-1.72-1.8-1.85-2.36-.29-6,2.9-5.68,5.33.59,5.2.19,10.44.76,15.62.32,3-.87,3.19-3.22,2.65-7.42-1.73-14.86-3.39-22.3-5.06-1.36-.3-2.72-.82-4.12-.16-.9.42-2.25.64-2.35,1.65-.13,1.36,1.42,1.13,2.26,1.43,4.78,1.7,9.59,3.3,14.54,5-.91,1.42-2.09,1.51-3.07,1.89-6,2.3-12,4.51-18,6.78-29.77,11.22-59.87,21.49-90.49,30.12-28.69,8.09-57.59,15.34-87.32,18.56-6.66.72-13.37,1.67-20.08.22-4.67-1-5.51-3.42-2.32-6.87,4.27-4.63,10.58-9.35,15.75-12.79-.65-2.13-1.77-4-2.43-6.13-3.26,2-7.25,4.93-10.36,7.13-6.32,4.48-12.34,9.31-17.13,15.48-6.42,8.28-4.16,15.16,5.9,17.81a57,57,0,0,0,13.69,1.8c12.68.22,25.22-1.43,37.71-3.38,19-3,37.86-7,56.55-11.69,22.5-5.62,44.71-12.24,66.69-19.61,22.93-7.69,45.73-15.85,67.6-26.19,7.07-3.34,12.81-3.76,18.77,1.32,2,1.67,4,1.19,6.2.23,1.48-.66,2-1.21.64-2.52s-2.46-2.65-3.64-4c-2.11-2.41-2-2.74,1-3.72,11.74-3.8,23.49-7.56,35.23-11.36a11.13,11.13,0,0,1,6.47-.29c13,3.34,25.56,7.59,36.9,15,3.1,2,6.46,3.64,9.74,5.38,2.33,1.23,4.31-.14,5.63-1.6s-.81-2.35-1.62-3.33c-2.42-2.94-4.93-5.81-7.44-8.67-3.2-3.64-3.22-3.62-.06-7.12,1.91-2.12,2.07-4.86.4-6.83a5.27,5.27,0,0,0-6.61-.84A14.46,14.46,0,0,0,749,529c-1.13,1-2,1-3-.22-2.29-2.66-4.68-5.23-7-7.82-1.22-1.33-.7-2,.75-2.61A132.54,132.54,0,0,0,762.87,505c6.38-4.58,12.21-9.86,15.67-17.13C780.78,483.15,780,481.66,774.77,480.63Z" transform="translate(0.94)"/></svg>