<svg id="Layer_1" data-name="Layer 1" xmlns="http://www.w3.org/2000/svg" xmlns:xlink="http://www.w3.org/1999/xlink" viewBox="0 0 1000 1000"><defs><style>.cls-1{fill:url(#linear-gradient);}.cls-2{fill:url(#linear-gradient-2);}.cls-3{fill:url(#linear-gradient-3);}.cls-4{fill:url(#linear-gradient-4);}.cls-5{fill:url(#linear-gradient-5);}.cls-6{fill:url(#linear-gradient-6);}</style><linearGradient id="linear-gradient" x1="613.06" y1="499.87" x2="772.45" y2="499.87" gradientUnits="userSpaceOnUse"><stop offset="0.01" stop-color="#429bf6"/><stop offset="1" stop-color="#487cea"/></linearGradient><linearGradient id="linear-gradient-2" x1="227.55" y1="500.1" x2="377.62" y2="500.1" gradientUnits="userSpaceOnUse"><stop offset="0.02" stop-color="#ff343b"/><stop offset="1" stop-color="#af272d"/></linearGradient><linearGradient id="linear-gradient-3" x1="394.8" y1="500.13" x2="583.75" y2="500.13" gradientUnits="userSpaceOnUse"><stop offset="0.03" stop-color="#f7eb00"/><stop offset="1" stop-color="#f7c635"/></linearGradient><linearGradient id="linear-gradient-4" x1="320.08" y1="500.03" x2="188.72" y2="500.03" xlink:href="#linear-gradient-2"/><linearGradient id="linear-gradient-5" x1="489.07" y1="584.4" x2="489.07" y2="470.58" xlink:href="#linear-gradient-3"/><linearGradient id="linear-gradient-6" x1="692.56" y1="404.85" x2="692.56" y2="440.18" xlink:href="#linear-gradient"/></defs><title>KMD ACCOUNTING</title><rect width="1000" height="1000"/><path class="cls-1" d="M769.52,524.9c-8.61,34.9-36.24,64.23-86.33,64.23H613.06V410.62h70.13c61.2,0,88.47,43.61,89.24,87.73A104.26,104.26,0,0,1,769.52,524.9Z"/><polygon class="cls-2" points="377.62 588.72 377.48 588.72 377.48 589.13 335.91 589.13 335.54 588.72 261.21 588.72 261.21 589.13 227.55 589.13 227.55 411.07 370.86 411.07 370.86 411.64 291.56 497.08 377.48 587.09 377.48 588.63 377.62 588.72"/><polygon class="cls-3" points="583.75 410.89 583.75 589.38 394.81 589.38 394.81 410.89 433.58 410.89 489.41 487.63 545.25 410.89 583.75 410.89"/><polygon class="cls-4" points="289.52 588.72 261.21 588.72 261.21 589.13 227.55 589.13 227.55 411.29 227.93 411.07 228.16 410.93 228.21 411.07 289.52 588.72"/><polygon class="cls-5" points="583.34 410.89 494.63 541.48 394.81 411.34 394.81 410.89 433.58 410.89 489.41 487.63 545.25 410.89 583.34 410.89"/><path class="cls-6" d="M769.52,524.9C734.34,421.5,620.61,411.5,613.06,411l-.39,0,.39-.15.45-.16h69.68c61.2,0,88.47,43.61,89.24,87.73A104.26,104.26,0,0,1,769.52,524.9Z"/></svg>