<?xml version="1.0" encoding="utf-8"?>
<!-- Generator: Adobe Illustrator 23.0.6, SVG Export Plug-In . SVG Version: 6.00 Build 0)  -->
<svg version="1.1" xmlns="http://www.w3.org/2000/svg" xmlns:xlink="http://www.w3.org/1999/xlink" x="0px" y="0px"
	 viewBox="0 0 1200 1200" style="enable-background:new 0 0 1200 1200;" xml:space="preserve">
<g id="background">
	<path d="M616.85,606.31c0,0-35.98-249.33,355.85-282.63c0,0-10.23,18.18-35.86,84.2c-40.46,104.21-81.99,150.97-246.81,192.13
		c-30.5,7.62-78.58,23.51-63.23,108.7c0,0-60.37-176.31,172.88-299.31C799.68,409.41,628.74,463.87,616.85,606.31z"/>
	<path d="M227.3,454.36c0,0,10.78,37.16,46.56,88.57c46.06,66.18,121.3,71.48,176.43,69.36c93.3-3.58,108.04,42.17,108.04,42.17
		s-9.77-84.23-168.95-144.36c0,0,191.92,33.94,186,178.39C573.96,723.2,647.92,401.25,227.3,454.36z"/>
	<path d="M562.99,710.42c0,0,5.95,50.19-45.53,98.63c0,0,62.82-33.86,59.66-102.78c0,0,31.24,163.64-129.58,170.04
		c0,0,4.14,1.58,33.36-84.49C503.28,725.9,562.99,710.42,562.99,710.42z"/>
	<path d="M645.29,691.93c0,0,11.42,74.06,81.62,103.5c0,0-76.14-10.47-98.94-81.18c0,0,18.26,176.46,194.36,127.32
		c0,0-27.53-25.03-70.51-89.27C710.12,689.98,645.29,691.93,645.29,691.93z"/>
	<ellipse transform="matrix(0.9343 -0.3566 0.3566 0.9343 -137.2648 238.7303)" cx="578.88" cy="491.67" rx="30.49" ry="30.49"/>
</g>
<g id="Logo">
</g>
</svg>
