<?xml version="1.0" encoding="utf-8"?>
<!-- Generator: Adobe Illustrator 23.0.6, SVG Export Plug-In . SVG Version: 6.00 Build 0)  -->
<svg version="1.1" id="Layer_1" xmlns="http://www.w3.org/2000/svg" xmlns:xlink="http://www.w3.org/1999/xlink" x="0px" y="0px"
	 viewBox="0 0 1417.32 1417.32" style="enable-background:new 0 0 1417.32 1417.32;" xml:space="preserve">
<path d="M948.75,587.37c5.99,14.77,10.78,29.52,14.37,44.23C959.46,615.78,954.52,601.03,948.75,587.37z"/>
<path d="M650.55,818.49c-19.98-16.84-42.69-5.09-42.69-5.09s-21.93-17.63-45.43-3.92c-23.5,13.71-83.43,32.51-83.43,32.51
	c0.17,0.07,0.35,0.12,0.52,0.19c3.46,1.3,23.94,9.78,47.85,35.65c26.24,28.4,126.12,43.47,127.49-26.05
	C654.86,851.78,670.53,835.33,650.55,818.49z M602.64,857.53c-13.71,6.79-31.86-11.62-67.76-6.92c0,0-5.96,2.23-17.21-2.26
	c31.78-1.84,53.72-21.43,63.85-14.78c8.76,5.76,19.11,4.88,25.45,3.49c3.59-0.78,7.36,0.01,10.2,2.33
	c7.42,6.05,17.11,10.03,25.47,11.28C632.85,851.08,612.76,852.51,602.64,857.53z"/>
<path d="M1003.84,589.19c-36.22-89.1-114.67-114.65-140.41-120.78c26.8,21.84,51.25,49.93,70.94,87.86
	c5.38,10.36,10.17,20.74,14.37,31.1c5.77,13.65,10.71,28.41,14.37,44.23c5.63,23.06,8.31,46.01,7.98,68.7
	c-0.4,27.53-5.2,54.67-14.28,81.05C967.11,772.14,1047.18,695.8,1003.84,589.19z"/>
<path d="M965.41,518c3.03-26.22,15.51-189.05-140.6-200.44c-144.93-10.58-239.5-75.61-264.1-94.45
	c11.57,113.87,83.52,141.87,166.62,174.2c36.3,14.12,75,29.19,111.01,52.78C911.23,464.46,953.68,499.02,965.41,518z"/>
<path d="M710.98,1199.32c0,0-3.01-69.13,126.99-110.45c129.99-41.33,100.14-254.68,100.14-254.68s-65.41,103.4-151.99,149.49
	C693.05,1033.22,710.98,1199.32,710.98,1199.32z"/>
<path d="M561.74,243.1c-0.12,0.07-0.24,0.14-0.36,0.21c0.05,0.25,0.08,0.51,0.13,0.76C561.58,243.74,561.66,243.43,561.74,243.1z"/>
<path d="M569.85,715.09c0,0-37.98,19.58-5.08,54.05C564.78,769.14,542.03,742.51,569.85,715.09z"/>
<path d="M604.86,764.31c0,0-8.36-9.92-15.41-9.14c0,0-2.09,7.31-5.74,9.14c-3.66,1.83-14.1-4.7-7.31-13.32
	C583.18,742.38,606.42,754.65,604.86,764.31z"/>
<path d="M408.57,535.86c0,0,52.27-17.83,86.09,11.07c33.82,28.9,67.02,38.12,67.02,38.12S506.34,477.45,408.57,535.86z"/>
<path d="M928.14,559.51C820.69,352.5,571.98,447.18,553.19,218c0,0-70.5,160.33,140.25,313.85c-20.03,12.85-32.32,27.66-32.32,27.66
	s23.11-1.25,53.05-13.2c7.17,4.79,14.61,9.57,22.36,14.33c262.99,161.55,148.02,320.09,131.49,340.38
	C868.02,901.02,1035.59,766.52,928.14,559.51z"/>
<path d="M661.13,574.09c0,0-37.99,38.78-20.76,109.67c17.23,70.89,20.76,83.82-16.45,85.38c0,0,13.14-14.49,22.11-7.44
	c0,0,8.64-11.95-1.35-41.91C634.69,689.83,615.82,616,661.13,574.09z"/>
<path d="M432.69,551.77c0,0,6.89,79.82,115.8,48.09c0,0-77.57,67.89-147.77-10.84c0,0,28.83,15.55,45.95,9.52
	C446.66,598.55,424.95,578.99,432.69,551.77z"/>
<path d="M897.83,761.91c-11.81-69.59-67.32-135.29-164.98-195.28c-7.94-4.88-15.65-9.83-23.14-14.85
	c-2.14,5.3-13.76,36.07-12.34,75.26c-14.56,1.21-32.56-0.6-54.85-7.09c0,0,23.6,20.65,56.55,25.96
	c5.34,36.63,23.64,77.77,70.52,111.61c113.46,81.9,29.11,209.26,29.11,209.26c27.43-25.74,63.87-70.19,63.87-70.19
	C870.61,886.72,910.05,833.9,897.83,761.91z"/>
</svg>
