<?xml version="1.0" encoding="utf-8"?>
<!-- Generator: Adobe Illustrator 23.0.6, SVG Export Plug-In . SVG Version: 6.00 Build 0)  -->
<svg version="1.1" id="Capa_1" xmlns="http://www.w3.org/2000/svg" xmlns:xlink="http://www.w3.org/1999/xlink" x="0px" y="0px"
	 viewBox="0 0 512 512" style="enable-background:new 0 0 512 512;" xml:space="preserve">
<path d="M256,339.12l7.47-8.56c51.72-59.34,51.72-148.82,0-208.15l-7.47-8.38l-7.47,8.38c-51.72,59.34-51.72,148.82,0,208.15
	L256,339.12z"/>
<path d="M364.76,328.14c-41.71,28.03-76.03,29.08-108.76,31.41c2.01,0.14-59.35,1.86-108.8-31.4c-36.42,7.27-60.26,18.1-60.26,30.21
	c0,21.88,76.05,39.62,169.05,39.62s169.05-17.74,169.05-39.62C425.05,346.24,401.2,335.4,364.76,328.14z"/>
<path d="M378.32,187.1c1.37,55.83-23.76,110.03-68.1,144.95c62.39-18.31,109.46-74.1,114.06-141.06l0.77-11.34l-11.34,0.77
	C401.56,181.26,389.58,183.64,378.32,187.1z"/>
<path d="M201.79,332.05c-44.33-34.91-69.46-89.12-68.1-144.95c-11.27-3.46-23.25-5.84-35.41-6.68l-11.34-0.77l0.77,11.34
	C92.31,257.95,139.39,313.75,201.79,332.05z"/>
<path d="M297.67,316.76c51.84-40.58,74.46-110.82,52.9-175.04l-3.62-10.78L336.76,136c-10.77,5.35-20.58,11.94-29.57,19.33
	C329.6,207.1,326.52,267.48,297.67,316.76L297.67,316.76z"/>
<path d="M214.34,316.76c-28.86-49.28-31.94-109.66-9.53-161.43c-8.99-7.39-18.8-13.98-29.57-19.33l-10.19-5.06l-3.62,10.78
	C139.88,205.93,162.5,276.18,214.34,316.76L214.34,316.76z"/>
</svg>
