<?xml version="1.0" encoding="utf-8"?>
<!-- Generator: Adobe Illustrator 23.0.6, SVG Export Plug-In . SVG Version: 6.00 Build 0)  -->
<svg version="1.1" xmlns="http://www.w3.org/2000/svg" xmlns:xlink="http://www.w3.org/1999/xlink" x="0px" y="0px"
	 viewBox="0 0 800 800" style="enable-background:new 0 0 800 800;" xml:space="preserve">
<style type="text/css">
	.st0{fill-rule:evenodd;clip-rule:evenodd;}
	.st1{fill-rule:evenodd;clip-rule:evenodd;fill:#A7A9AC;}
	.st2{fill-rule:evenodd;clip-rule:evenodd;stroke:#71726F;stroke-width:0.2268;stroke-miterlimit:10;}
</style>
<g id="_x36_">
	<path class="st0" d="M651.28,480.06C615.96,580.77,520.06,653,407.26,653c-142.8,0-258.54-115.75-258.54-258.55
		c0-116.67,77.26-215.28,183.42-247.45c-83.84,38.61-142.06,123.37-142.06,221.74c0,134.76,109.24,244.01,244.01,244.01
		C528.76,612.75,610.82,558.85,651.28,480.06L651.28,480.06z"/>
	<path class="st1" d="M291.39,535.72c0,0-6.34-51.6,41.68-51.6c48.02,0,58.74-58.35,58.74-58.35l-46.04-46.04
		C242.97,424.98,291.39,535.72,291.39,535.72L291.39,535.72z"/>
	<path class="st1" d="M371.17,515.48c-3.17,0-5.16,1.18-6.35,3.56c-6.75,12.71-17.86,33.36-17.86,42.08
		c0,13.49,11.11,23.82,24.21,23.82c13.1,0,23.03-10.33,23.03-23.82c0-8.72-9.93-29.37-17.07-42.08
		C375.93,516.66,373.16,515.48,371.17,515.48L371.17,515.48z"/>
	<path class="st2" d="M403.32,414.25L356.48,369c0,0,169.48-169.47,182.98-178.6c0,0,23.82-6.35,25.01,18.25
		C547.8,238.02,403.32,414.25,403.32,414.25L403.32,414.25z"/>
</g>
<g id="Layer_1">
</g>
</svg>
