<?xml version="1.0" encoding="utf-8"?>
<!-- Generator: Adobe Illustrator 23.0.6, SVG Export Plug-In . SVG Version: 6.00 Build 0)  -->
<svg version="1.1" id="Layer_1" xmlns="http://www.w3.org/2000/svg" xmlns:xlink="http://www.w3.org/1999/xlink" x="0px" y="0px"
	 viewBox="0 0 720 720" style="enable-background:new 0 0 720 720;" xml:space="preserve">
<style type="text/css">
	.st0{fill:#FFFFFF;}
</style>
<rect x="159.2" y="376.05" transform="matrix(0.4281 -0.9037 0.9037 0.4281 -157.9626 523.9263)" width="351.59" height="21.46"/>
<rect x="186.55" y="389.01" transform="matrix(0.4283 -0.9036 0.9036 0.4283 -154.0687 555.9424)" width="351.59" height="21.46"/>
<rect x="213.89" y="401.97" transform="matrix(0.4281 -0.9037 0.9037 0.4281 -150.1121 588.1671)" width="351.59" height="21.46"/>
<polygon points="477.8,156.1 400.46,223.57 474.55,258.68 "/>
<polygon class="st0" points="466.72,179.47 410.64,228.4 464.37,253.86 "/>
<polygon points="477.8,156.1 439.13,189.84 476.17,207.39 "/>
<path d="M391.78,375.81c-41.49-73.46-75.47-66.5-75.47-66.5l-12.14,6.85l-12.14,6.86c0,0-23.51,25.51,17.98,98.97
	c41.49,73.46,129.96,159.98,140.82,153.85C461.69,569.71,433.27,449.27,391.78,375.81z"/>
<polygon points="276.44,238.74 264.3,245.59 252.17,252.45 282.74,321.12 301.11,310.75 319.47,300.38 "/>
<path d="M247.9,246.01c0,0-24.9-15-27.77-42.45c-2.87-27.45-0.08-42.29-14.81-62.41c22.95,18.63,62.04,36.37,67.49,90.79
	C259.4,239.52,247.9,246.01,247.9,246.01z"/>
<rect x="182.54" y="362.7" class="st0" width="330.47" height="94.64"/>
<path class="st0" d="M272.81,246.56l35.87,51.04C308.68,297.6,280.36,293.89,272.81,246.56z"/>
<path class="st0" d="M319.47,316.16c0,0,32.91,15.91,59.19,54.86C353.45,372.37,344.14,346.82,319.47,316.16z"/>
<path class="st0" d="M396.29,455.87c0,0,17.89,29.92,37.33,70.72c-0.49-21.5-13.99-63.7-23.46-78.34
	C400.68,433.6,396.29,455.87,396.29,455.87z"/>
<path d="M458.46,362.57c0,0,74.88,4.6,83.12-7.76c8.24-12.36-11.33-15.96-21.12-15.96c-9.78,0-14.32-0.19-19.46-2.32
	c0,18.02,0,20.86,0,20.86S483.49,362.44,458.46,362.57z"/>
<path d="M543.56,359.57c0,0-18.46,40.17,2.01,80.34C543.64,418.27,543.56,359.57,543.56,359.57z"/>
<path d="M466.72,457.33c0,0,76.14,0.73,78.85-14.08C545.19,451.23,547.39,461.89,466.72,457.33z"/>
<path d="M261.44,362.57c0,0-74.88,4.6-83.12-7.76c-8.24-12.36,11.33-15.96,21.11-15.96c9.78,0,14.32-0.19,19.46-2.32
	c0,18.02,0,20.86,0,20.86S236.41,362.44,261.44,362.57z"/>
<path d="M176.35,359.57c0,0,18.46,40.17-2.02,80.34C176.26,418.27,176.35,359.57,176.35,359.57z"/>
<path d="M253.18,457.33c0,0-76.14,0.73-78.85-14.08C174.72,451.23,172.51,461.89,253.18,457.33z"/>
<polygon points="380.4,457.33 427.47,457.6 427.47,473.64 380.4,480.97 "/>
</svg>
