<?xml version="1.0" encoding="utf-8"?>
<!-- Generator: Adobe Illustrator 23.0.6, SVG Export Plug-In . SVG Version: 6.00 Build 0)  -->
<svg version="1.1" id="Layer_1" xmlns="http://www.w3.org/2000/svg" xmlns:xlink="http://www.w3.org/1999/xlink" x="0px" y="0px"
	 viewBox="0 0 720 720" style="enable-background:new 0 0 720 720;" xml:space="preserve">
<path d="M334.43,541.89c-6.49,0-11.75-5.26-11.75-11.75v-287.7c0-6.49,5.26-11.75,11.75-11.75c6.49,0,11.75,5.26,11.75,11.75v287.7
	C346.18,536.62,340.92,541.89,334.43,541.89z"/>
<path d="M373.43,541.89c-6.49,0-11.75-5.26-11.75-11.75v-287.7c0-6.49,5.26-11.75,11.75-11.75c6.49,0,11.75,5.26,11.75,11.75v287.7
	C385.18,536.62,379.92,541.89,373.43,541.89z"/>
<path d="M413.4,542.71c-6.49,0-11.75-5.26-11.75-11.75v-26.89c0-6.49,5.26-11.75,11.75-11.75c6.49,0,11.75,5.26,11.75,11.75v26.89
	C425.15,537.46,419.89,542.71,413.4,542.71z"/>
<path d="M413.4,472.93c-6.49,0-11.75-5.26-11.75-11.75V352.67c0-6.49,5.26-11.75,11.75-11.75c6.49,0,11.75,5.26,11.75,11.75v108.51
	C425.15,467.67,419.89,472.93,413.4,472.93z"/>
<path d="M361.5,216.62c0,0-17.96-15.14-15.5-38.3c3.37-31.64,31.61-53.61,21.5-96.94c22.25,22.57,35.96,60.09,35.96,93.47
	c0,33.37-21.53,41.78-21.53,41.78H361.5z"/>
<path d="M373.43,638.63c-0.02,0-0.03,0-0.05,0c-4.76-0.02-9.04-2.91-10.83-7.32l-39-95.9c-2.44-6.01,0.45-12.87,6.46-15.31
	c6.01-2.44,12.86,0.45,15.31,6.46L373.56,596l28.99-69.55c2.5-5.99,9.38-8.82,15.37-6.33c5.99,2.5,8.82,9.38,6.33,15.37l-39.97,95.9
	C382.45,635.77,378.17,638.63,373.43,638.63z"/>
<polygon points="348.16,564.98 397.01,564.98 373.32,626.87 "/>
<path d="M333.82,515.82c-27.4,0-55.4-20.03-76.81-54.97c-20.39-33.28-32.09-75.56-32.09-116.02c0-45.37,19.66-72.48,36.16-87.24
	c24.12-21.57,54.57-29.03,74.05-26.85c6.45,0.72,11.09,6.53,10.37,12.98c-0.72,6.45-6.53,11.1-12.98,10.37
	c-11.53-1.29-35.9,3.24-55.77,21.02c-18.79,16.81-28.32,40.27-28.32,69.72c0,36.24,10.43,74.05,28.62,103.73
	c16.79,27.39,38.01,43.74,56.77,43.74c6.49,0,11.75,5.26,11.75,11.75C345.57,510.57,340.31,515.82,333.82,515.82z"/>
<path d="M255.48,351.68c0,0,21.93,33.58,43.09,22.39c21.15-11.19,18.81-17.3,18.81-17.3S307.97,328.28,255.48,351.68z"/>
<path d="M333.82,467.06c0,0-31.34-10.58-48.57-39.56c20.37,14.1,39.95,11.36,48.57,11.36C333.82,445.12,333.82,467.06,333.82,467.06
	z"/>
<path d="M413.39,515.83c-5.35,0-10.18-3.67-11.44-9.1c-1.46-6.31,2.46-12.61,8.75-14.09c2.54-0.61,60.21-15.33,60.87-83.86
	c0.38-39.53-18.65-56.87-37.05-73.65c-12.96-11.82-26.35-24.04-30.89-42.75c-4.85-20,1.26-38.73,16.34-50.11
	c13.36-10.08,30.58-11.72,43.88-4.19c5.65,3.2,7.63,10.37,4.43,16.02c-3.2,5.65-10.37,7.63-16.02,4.43
	c-5.06-2.87-12.35-1.87-18.13,2.5c-3.53,2.67-11.36,10.52-7.65,25.81c2.84,11.72,12.59,20.62,23.89,30.92
	c20.13,18.36,45.18,41.21,44.71,91.24c-0.43,45.51-21.8,72.07-39.65,86.35c-19.25,15.39-38.55,19.99-39.37,20.17
	C415.16,515.73,414.26,515.83,413.39,515.83z"/>
<path d="M262.85,337.01c0,0,26.24-10.58,33.3-11.36C303.19,324.87,300.84,297.45,262.85,337.01z"/>
<path d="M325.91,427.1c0,0-13.71-11.36-21.15-12.93c-7.44-1.57,16.06-4.7,21.15-3.14C331,412.61,325.91,427.1,325.91,427.1z"/>
</svg>
