<?xml version="1.0" encoding="utf-8"?>
<!-- Generator: Adobe Illustrator 23.0.6, SVG Export Plug-In . SVG Version: 6.00 Build 0)  -->
<svg version="1.1" xmlns="http://www.w3.org/2000/svg" xmlns:xlink="http://www.w3.org/1999/xlink" x="0px" y="0px"
	 viewBox="0 0 800 800" style="enable-background:new 0 0 800 800;" xml:space="preserve">
<style type="text/css">
	.st0{fill:#E02626;}
</style>
<g id="background">
</g>
<g id="objects">
	<path d="M398.93,519.22c-183.01-0.63-167.86-63.32-337.39-65.44v0.52c22.63,2.38,85.35,14.49,151.01,76.08
		c71.15,66.74,168.93,3.15,186.38-9.17c17.45,12.32,115.23,75.91,186.38,9.17c67.85-63.64,132.55-74.45,153.14-76.28v-0.34
		C566.68,455.38,582.71,518.6,398.93,519.22z"/>
	<path d="M574.81,356.95c-84.03-32.32-99.74-86.36-102.67-105.74c0.33-0.4,0.52-0.81,0.52-1.22c0-5.74-32.56-10.39-72.72-10.39
		c-40.16,0-72.72,4.65-72.72,10.39c0,0.46,0.23,0.91,0.63,1.35c-2.98,19.49-18.8,73.36-102.65,105.62
		C121.43,396.85,89.47,402.17,89.47,459.62c2.97-90.64,231.09-60.19,238.82-207.87c5.9,4.89,35.72,8.61,71.64,8.61
		c36.17,0,66.16-3.77,71.77-8.71c7.63,147.79,235.85,117.31,238.82,207.97C710.53,402.17,678.57,396.85,574.81,356.95z
		 M399.93,253.65c-37.89,0-68.6-2.38-68.6-5.32c0-2.94,30.71-5.32,68.6-5.32c37.89,0,68.6,2.38,68.6,5.32
		C468.54,251.27,437.82,253.65,399.93,253.65z"/>
	<path class="st0" d="M513.38,373.51c9.45,0,17.1-7.66,17.1-17.1c0-8.07-5.6-14.78-13.11-16.59c0.24-2.47,0.44-4.98,0.59-7.51
		c6.5-0.4,11.66-5.75,11.66-12.34c0-6.86-5.56-12.42-12.42-12.42c-6.86,0-12.42,5.56-12.42,12.42c0,5.97,4.22,10.95,9.83,12.14
		c-0.15,2.45-0.34,4.88-0.57,7.27c-0.22-0.01-0.43-0.07-0.65-0.07c-9.45,0-17.11,7.66-17.11,17.1c0,7.36,4.67,13.57,11.19,15.99
		c-0.54,1.73-1.12,3.42-1.72,5.1c-2.17-0.77-4.49-1.21-6.93-1.21c-11.46,0-20.75,9.29-20.75,20.75c0,6.48,2.98,12.27,7.64,16.07
		c-1.88,2.24-3.81,4.42-5.86,6.48c-4.6-6.2-11.95-10.24-20.26-10.24c-13.93,0-25.23,11.3-25.23,25.23c0,3.85,0.89,7.48,2.43,10.75
		c-2.41,0.74-4.86,1.43-7.37,2.03c-2.31-13.97-14.42-24.64-29.05-24.64c-0.09,0-0.18,0.01-0.27,0.01l0,0
		c-14.56,0.13-26.57,10.82-28.8,24.78c-2.75-0.64-5.45-1.36-8.09-2.18c1.54-3.26,2.43-6.9,2.43-10.75
		c0-13.93-11.3-25.23-25.23-25.23c-8.31,0-15.66,4.04-20.26,10.24c-2.04-2.06-3.98-4.23-5.85-6.48c4.66-3.8,7.64-9.59,7.64-16.07
		c0-11.46-9.29-20.75-20.75-20.75c-2.43,0-4.76,0.44-6.93,1.21c-0.6-1.68-1.18-3.37-1.72-5.1c6.52-2.42,11.18-8.63,11.18-15.99
		c0-9.45-7.66-17.1-17.1-17.1c-0.22,0-0.43,0.06-0.65,0.07c-0.23-2.39-0.42-4.81-0.57-7.27c5.61-1.19,9.83-6.17,9.83-12.14
		c0-6.86-5.56-12.42-12.42-12.42c-6.86,0-12.42,5.56-12.42,12.42c0,6.6,5.16,11.94,11.66,12.34c0.15,2.54,0.35,5.04,0.59,7.51
		c-7.51,1.81-13.11,8.52-13.11,16.59c0,9.45,7.66,17.1,17.1,17.1c0.9,0,1.76-0.13,2.62-0.26c0.6,1.91,1.23,3.79,1.89,5.64
		c-6.37,3.54-10.69,10.33-10.69,18.14c0,11.46,9.29,20.75,20.75,20.75c3.72,0,7.21-0.99,10.23-2.71c2.17,2.61,4.42,5.12,6.81,7.49
		c-1.94,3.57-3.04,7.67-3.04,12.02c0,13.93,11.3,25.23,25.23,25.23c8.84,0,16.61-4.56,21.12-11.45c3.07,0.96,6.21,1.81,9.43,2.53
		c-0.02,0.43-0.07,0.86-0.07,1.29c0,16.28,13.2,29.48,29.48,29.48c16.28,0,29.48-13.2,29.48-29.48c0-0.49-0.05-0.96-0.07-1.45
		c2.97-0.69,5.86-1.49,8.7-2.38c4.5,6.89,12.27,11.45,21.12,11.45c13.93,0,25.23-11.3,25.23-25.23c0-4.35-1.1-8.44-3.04-12.02
		c2.38-2.37,4.64-4.88,6.81-7.49c3.02,1.72,6.51,2.71,10.23,2.71c11.46,0,20.75-9.29,20.75-20.75c0-7.81-4.32-14.6-10.69-18.14
		c0.66-1.85,1.3-3.73,1.89-5.64C511.62,373.38,512.49,373.51,513.38,373.51z"/>
</g>
</svg>
