<?xml version="1.0" encoding="utf-8"?>
<!-- Generator: Adobe Illustrator 23.0.6, SVG Export Plug-In . SVG Version: 6.00 Build 0)  -->
<svg version="1.1" id="Layer_1" xmlns="http://www.w3.org/2000/svg" xmlns:xlink="http://www.w3.org/1999/xlink" x="0px" y="0px"
	 viewBox="0 0 1000 1000" style="enable-background:new 0 0 1000 1000;" xml:space="preserve">
<style type="text/css">
	.st0{fill:#939598;}
	.st1{fill:#231F20;}
</style>
<g>
	<g id="New_Symbol_2">
	</g>
</g>
<g id="Layer_3">
	<g>
		<g>
			<path class="st0" d="M384.47,627.86c-4.1-1.71-8.36-3.47-12.76-5.6c-2.45-1.17-4.83-2.35-7.14-3.56l-6.98,112.81l-1.6,21.47
				l-1.6,21.48l-3.24,43.37l-6.47,86.76l19.45-129.04l6.42-42.58l17.09-103.78c-0.01,0-0.02-0.01-0.03-0.01
				C386.57,628.73,385.52,628.29,384.47,627.86z"/>
			<path class="st0" d="M438.62,69.82c-17.3-1.95-33.2,14.35-35.73,36.14c-0.08,0.71-0.15,1.41-0.2,2.13l-0.63,8.45l-0.36,4.77
				l-0.57,7.68l-1.09,14.58l-1.55,20.65l-0.11,1.42v0.01l-0.81,10.97l-1.65,22.12L375.43,473.2l-1.49,20l-1.41,18.76l-1.5,20.17
				l-1.29,17.38l-1.83,24.5l-1.7,22.71c4.64,2.76,9.39,5.22,14.16,7.5c3.44,1.66,6.89,3.13,10.36,4.57l3.11-20.63l3.1-20.55
				l3.92-25.98l3.31-21.96l2.88-19.04l3.08-20.48l45.17-299.62l1.47-9.75l1.7-11.27l1.87-12.45c-6.4,1.32-12.76,2.81-19.07,4.47
				c-0.76,4.41-1.68,8.56-2.73,12.31v0.01c-0.46,1.66-0.94,3.23-1.45,4.72c-0.41,1.22-0.84,2.38-1.28,3.48s-0.88,2.13-1.35,3.11
				c-0.22,0.48-0.46,0.94-0.69,1.4c-2.56,4.94-5.35,7.71-7.99,7.41c-3.46-0.39-5.99-5.96-7.23-14.55c-0.14-0.96-0.26-1.95-0.37-2.98
				c-0.25-2.44-0.41-5.1-0.47-7.9c-0.11-5.54,0.17-11.68,0.89-18.12c0.13-1.12,0.26-2.24,0.42-3.33c0.36-2.69,0.79-5.3,1.26-7.81
				c0.38-1.98,0.8-3.9,1.24-5.74c0.56-2.32,1.16-4.52,1.81-6.57c0.37-1.2,0.75-2.33,1.14-3.42c0.41-1.12,0.82-2.18,1.24-3.18
				c1.69-4.02,3.52-7.08,5.39-8.9c1.39-1.37,2.81-2.04,4.18-1.88c2.29,0.26,4.17,2.77,5.54,6.92c0.09,0.27,0.18,0.55,0.27,0.85
				c0.34,1.17,0.66,2.44,0.93,3.82c0.34,1.73,0.62,3.61,0.84,5.63c0.01,0.14,0.03,0.29,0.04,0.43c0.19,1.89,0.33,3.9,0.4,6
				c0.02,0.46,0.04,0.91,0.05,1.37c0.01,0.46,0.02,0.93,0.02,1.4c0.01,1.13,0.01,2.28-0.02,3.45c0,0.3-0.01,0.61-0.01,0.92
				c6.71-1.62,13.46-3.06,20.16-4.31l1.31-8.7l0.34-2.25C468.56,92.46,456.48,71.83,438.62,69.82z"/>
		</g>
		<g>
			<g>
				<path class="st1" d="M766.94,910.69c-3.74,3.65-8.17,6.56-12.84,8.85c-4.67,2.32-9.67,3.92-14.73,5.12
					c-5.07,1.18-10.26,1.84-15.45,2.09c-10.39,0.49-20.84-0.61-30.8-3.36c-1.25-0.33-2.49-0.68-3.71-1.09
					c-1.24-0.37-2.45-0.81-3.65-1.26c-1.21-0.4-2.41-0.96-3.61-1.44l-3.6-1.51l-3.59-1.51c-1.19-0.54-2.35-1.14-3.51-1.71
					c-2.32-1.17-4.68-2.28-6.97-3.49c-4.51-2.61-9.08-5.07-13.37-8.04c-4.41-2.75-8.53-5.93-12.73-8.99
					c-2.04-1.6-4.03-3.28-6.05-4.92c-0.99-0.83-2.02-1.63-3-2.48l-2.89-2.62l-2.89-2.61c-0.97-0.88-1.95-1.73-2.85-2.67l-5.53-5.49
					c-0.94-0.9-1.82-1.86-2.7-2.82l-2.65-2.86c-1.77-1.91-3.55-3.79-5.21-5.81l-5.07-5.93l-4.86-6.12c-0.8-1.03-1.62-2.03-2.41-3.07
					l-2.31-3.15c-1.53-2.11-3.11-4.17-4.61-6.31c-2.95-4.31-5.97-8.56-8.75-12.98c-11.41-17.49-21.4-35.91-30.68-54.7
					c-9.2-18.84-17.72-38.04-25.81-57.49c-8.11-19.44-15.89-39.07-24.1-58.68l-3.13-7.35l-1.52-3.6c-0.5-1.17-0.99-2.36-1.46-3.56
					c-1.2-2.99-2.35-6.02-3.47-9.08c18.39,0.49,36.86-1.09,54.91-4.68c2.72-0.46,5.39-1.15,8.08-1.76c2.69-0.62,5.38-1.23,8.03-2.01
					c2.65-0.75,5.32-1.44,7.95-2.24l7.86-2.55c10.42-3.58,20.64-7.73,30.55-12.52c9.86-4.87,19.43-10.29,28.68-16.23
					c9.22-5.96,18.04-12.51,26.54-19.46c8.51-6.92,16.47-14.48,24.12-22.33l2.84-2.96c0.96-0.99,1.9-1.98,2.8-3.02l5.48-6.13
					c3.51-4.19,7.06-8.37,10.35-12.75c13.39-17.33,24.73-36.25,33.92-56.17c4.53-9.99,8.5-20.24,11.85-30.7l2.4-7.89l2.09-7.98
					l0.52-1.99l0.45-2.01l0.88-4.04l0.87-4.03l0.73-4.06c3.99-21.66,4.8-43.95,2.51-65.95c-1.22-11-3.31-21.9-6.22-32.58l-1.12-3.99
					c-0.38-1.33-0.74-2.67-1.2-3.98l-2.65-7.87c-1.99-5.16-3.94-10.35-6.3-15.35c-4.61-10.04-9.87-19.81-16.04-28.96
					c-1.45-2.35-3.09-4.56-4.7-6.8c-1.62-2.23-3.15-4.52-4.92-6.63l-5.15-6.46l-5.41-6.19c-7.36-8.13-15.23-15.82-23.62-22.91
					c-8.45-7.02-17.38-13.46-26.71-19.22l-3.51-2.13c-1.17-0.73-2.35-1.43-3.56-2.07c-2.41-1.31-4.79-2.65-7.22-3.94l-7.37-3.64
					c-2.46-1.17-4.99-2.24-7.49-3.36c-10.06-4.3-20.4-7.9-30.91-10.82c-2.64-0.68-5.26-1.43-7.91-2.06l-7.97-1.78l-8.02-1.51
					c-2.67-0.51-5.37-0.85-8.05-1.27c-10.76-1.53-21.58-2.37-32.41-2.66c-10.81-0.31-21.63,0.1-32.38,0.97
					c-6.3,0.52-12.59,1.21-18.83,2.08c-4.42,0.61-8.82,1.32-13.2,2.12c-2.53,0.46-5.05,0.96-7.56,1.47
					c-6.4,1.32-12.76,2.81-19.07,4.47c-1.6,0.41-3.19,0.85-4.77,1.28c-6.31,1.74-12.59,3.64-18.78,5.73c0.06,2.8,0.22,5.46,0.47,7.9
					c0.11,1.03,0.23,2.02,0.37,2.98c6.61-2.06,13.27-3.92,19.98-5.57v-0.01c6.6-1.63,13.25-3.08,19.93-4.33
					c3.8-0.73,7.61-1.38,11.43-1.97c3.09-0.46,6.18-0.88,9.28-1.25v-0.01c17.5-2.16,35.13-2.99,52.64-2.12
					c10.31,0.53,20.56,1.62,30.71,3.27c2.53,0.46,5.07,0.81,7.58,1.35l7.54,1.58l7.46,1.85c2.47,0.64,4.92,1.4,7.39,2.09
					c19.59,5.9,38.4,14.25,55.5,25.3c8.56,5.49,16.71,11.59,24.42,18.22c7.65,6.7,14.81,13.94,21.49,21.6l4.92,5.83l4.66,6.01
					c1.6,1.96,2.97,4.1,4.44,6.16c1.45,2.08,2.93,4.12,4.22,6.3c5.55,8.45,10.21,17.44,14.29,26.65c2.1,4.58,3.8,9.33,5.55,14.05
					l2.31,7.19c0.41,1.19,0.71,2.42,1.04,3.63l0.98,3.65c2.49,9.75,4.31,19.68,5.32,29.71c1.88,20.07,0.96,40.46-2.92,60.35
					c-1.9,9.94-4.36,19.8-7.55,29.44c-3.16,9.66-6.89,19.12-11.13,28.37c-8.64,18.42-19.27,35.95-31.84,51.99
					c-24.98,32.16-57.09,58.94-93.6,76.66c-9.14,4.41-18.52,8.26-28.09,11.57l-7.22,2.35c-2.42,0.73-4.86,1.37-7.3,2.07
					c-2.43,0.72-4.89,1.27-7.35,1.85c-2.47,0.56-4.92,1.21-7.41,1.63c-19.1,3.84-38.67,5.21-58.13,4.08l-4.91-14.34
					c-3.54-10.09-7.3-20.25-11.86-30.23c-4.53-9.97-9.81-19.81-16.34-29.01c-3.25-4.59-6.79-9.04-10.66-13.23
					c-1.96-2.06-3.93-4.13-6.03-6.06l-1.57-1.47l-1.61-1.41c-0.23-0.2-0.46-0.39-0.68-0.59c-0.85-0.74-1.69-1.49-2.66-2.2
					c-4.62-3.79-9.78-6.9-15.15-9.51c-0.2-0.09-0.4-0.19-0.6-0.28l-2.88,19.04c2.6,1.44,5.1,3.06,7.42,4.93
					c0.92,0.65,1.85,1.49,2.78,2.25l1.39,1.17l1.34,1.24c1.77,1.58,3.44,3.29,5.11,4.99c0.04,0.03,0.06,0.07,0.1,0.1
					c3.37,3.54,6.47,7.34,9.4,11.31c5.86,7.95,10.8,16.73,15.17,25.91c4.39,9.19,8.16,18.82,11.8,28.61
					c0.86,2.34,1.73,4.7,2.58,7.06c-1.06-0.13-2.15-0.24-3.2-0.42l-3.75-0.63c-2.49-0.45-5-0.78-7.48-1.31l-7.44-1.61l-1.86-0.4
					l-1.84-0.48l-3.69-0.97c-4.94-1.19-9.76-2.79-14.62-4.29c-1.22-0.35-2.42-0.79-3.61-1.22l-0.8-0.29l-2.8-1.01
					c-2.39-0.88-4.81-1.65-7.15-2.67c-3.05-1.27-6.14-2.49-9.16-3.79c-1.64-0.7-3.25-1.41-4.84-2.17
					c-7.44-3.49-14.59-7.42-21.09-11.97c-1.42-0.99-2.79-2.01-4.14-3.06c-3.76-2.93-7.22-6.11-10.25-9.54
					c-1.53-1.71-2.91-3.5-4.2-5.32c-0.04-0.06-0.08-0.12-0.12-0.17c-0.61-0.87-1.15-1.8-1.73-2.7l-0.91-1.44
					c-0.28-0.49-0.51-0.98-0.77-1.48l-0.77-1.48c-0.25-0.48-0.55-0.97-0.72-1.47l-1.22-2.96l-0.9-2.94
					c-0.19-0.48-0.21-0.96-0.32-1.45l-0.27-1.44c-0.57-3.8-0.31-7.36,1-10.52c1.29-3.16,3.55-6.03,6.6-8.44
					c0.89-0.7,1.85-1.36,2.87-1.97l1.61-21.43c-5.64,1.77-11.2,4.43-16.21,8.28c-5.29,4.04-9.96,9.61-12.72,16.24
					c-2.82,6.63-3.35,14-2.4,20.61l0.44,2.46c0.15,0.81,0.27,1.66,0.51,2.42c0.45,1.56,0.89,3.13,1.38,4.66l1.75,4.38
					c0.28,0.76,0.65,1.41,0.99,2.1l1.05,2.06c0.35,0.67,0.69,1.38,1.06,2.04l1.17,1.91c0.8,1.28,1.54,2.58,2.41,3.82
					c1.73,2.51,3.56,4.91,5.53,7.17c2.68,3.09,5.56,5.96,8.55,8.61c1.39,1.23,2.81,2.42,4.24,3.57c4.76,3.78,9.72,7.12,14.8,10.14
					c4.64,2.76,9.39,5.22,14.16,7.5c3.44,1.66,6.89,3.13,10.36,4.57c1.6,0.66,3.18,1.31,4.78,1.99c2.51,1.11,5.12,1.96,7.68,2.93
					l3.87,1.41c0.93,0.35,1.85,0.69,2.8,1c0.36,0.13,0.73,0.24,1.09,0.35c5.23,1.66,10.44,3.4,15.77,4.73l3.98,1.07l1.99,0.53
					l2.01,0.45l8.05,1.78c2.69,0.59,5.41,0.99,8.13,1.49l4.07,0.71c1.35,0.23,2.73,0.37,4.09,0.56l8.2,1.04l1.88,0.16
					c0.12,0.35,0.25,0.69,0.39,1.04c1.88,5.01,3.86,10.05,6,15.05c0.52,1.25,1.07,2.5,1.63,3.75l1.64,3.67l3.23,7.18
					c8.54,19.22,16.74,38.74,25.44,58.1c8.65,19.38,17.71,38.65,27.61,57.53c10.01,18.83,20.72,37.37,32.97,54.94
					c3,4.43,6.25,8.7,9.41,13.02c1.61,2.14,3.3,4.23,4.95,6.33l2.48,3.16c0.85,1.04,1.73,2.05,2.59,3.08l5.2,6.13l5.43,5.96
					c1.78,2.01,3.69,3.91,5.58,5.81l2.84,2.87c0.93,0.96,1.89,1.9,2.89,2.8l5.92,5.47c0.97,0.93,2.02,1.78,3.04,2.65l3.09,2.6
					l3.08,2.59c1.04,0.84,2.14,1.64,3.2,2.45c2.15,1.62,4.27,3.28,6.44,4.86c8.78,6.21,18.03,11.75,27.66,16.53
					c2.43,1.15,4.9,2.2,7.35,3.3c1.23,0.54,2.44,1.11,3.68,1.61l3.78,1.4l3.77,1.4c1.27,0.45,2.5,0.97,3.8,1.34
					c1.3,0.42,2.59,0.83,3.9,1.16c1.3,0.37,2.62,0.69,3.93,0.99c10.55,2.42,21.42,3.13,32.13,2.15c5.35-0.51,10.65-1.45,15.82-2.92
					c5.16-1.47,10.2-3.38,14.89-5.99c4.69-2.59,9.07-5.77,12.72-9.7c3.69-3.86,6.49-8.51,8.34-13.45
					C773.79,902.67,770.76,907.09,766.94,910.69z"/>
				<path class="st1" d="M377.66,174.62c-0.46,0.21-0.91,0.42-1.36,0.63c-9.67,4.58-19.13,9.59-28.36,14.99
					c-9.22,5.4-18.23,11.18-26.93,17.37c-8.7,6.2-17.08,12.82-25.13,19.83c-16.07,14.02-30.84,29.6-43.25,46.91
					c-12.33,17.31-22.48,36.33-28.53,56.62c7.21-19.9,18.04-38.26,31.06-54.73c12.97-16.54,28.1-31.27,44.43-44.36
					c8.18-6.56,16.67-12.69,25.4-18.47c8.75-5.75,17.76-11.07,26.97-16.04c8.16-4.39,16.47-8.5,24.92-12.27L377.66,174.62z"/>
			</g>
		</g>
	</g>
</g>
</svg>
