<svg id="Layer_1" data-name="Layer 1" xmlns="http://www.w3.org/2000/svg" xmlns:xlink="http://www.w3.org/1999/xlink" viewBox="0 0 544.9 178.75"><defs><style>.lm-2-cls-1{fill:url(#lm-2-linear-gradient);}.lm-2-cls-2{fill:url(#lm-2-linear-gradient-2);}.lm-2-cls-3{fill:url(#lm-2-linear-gradient-3);}.lm-2-cls-4{fill:url(#lm-2-linear-gradient-4);}.lm-2-cls-5{fill:url(#lm-2-linear-gradient-5);}.lm-2-cls-6{fill:url(#lm-2-linear-gradient-6);}</style><linearGradient id="lm-2-linear-gradient" x1="613.06" y1="499.87" x2="772.45" y2="499.87" gradientUnits="userSpaceOnUse"><stop offset="0.01" stop-color="#429bf6"/><stop offset="1" stop-color="#487cea"/></linearGradient><linearGradient id="lm-2-linear-gradient-2" y1="89.48" x2="150.07" y2="89.48" gradientUnits="userSpaceOnUse"><stop offset="0.02" stop-color="#ff343b"/><stop offset="1" stop-color="#af272d"/></linearGradient><linearGradient id="lm-2-linear-gradient-3" x1="167.25" y1="89.51" x2="356.2" y2="89.51" gradientUnits="userSpaceOnUse"><stop offset="0.03" stop-color="#f7eb00"/><stop offset="1" stop-color="#f7c635"/></linearGradient><linearGradient id="lm-2-linear-gradient-4" x1="92.53" y1="89.4" x2="-38.83" y2="89.4" xlink:href="#lm-2-linear-gradient-2"/><linearGradient id="lm-2-linear-gradient-5" x1="261.52" y1="173.78" x2="261.52" y2="59.96" xlink:href="#lm-2-linear-gradient-3"/><linearGradient id="lm-2-linear-gradient-6" x1="692.56" y1="404.85" x2="692.56" y2="440.18" xlink:href="#lm-2-linear-gradient"/></defs><title>KMD ACCOUNTING</title><path class="lm-2-cls-1" d="M769.52,524.9c-8.61,34.9-36.24,64.23-86.33,64.23H613.06V410.62h70.13c61.2,0,88.47,43.61,89.24,87.73A104.26,104.26,0,0,1,769.52,524.9Z" transform="translate(-227.55 -410.62)"/><polygon class="lm-2-cls-2" points="150.07 178.09 149.92 178.09 149.92 178.5 108.36 178.5 107.98 178.09 33.66 178.09 33.66 178.5 0 178.5 0 0.45 143.31 0.45 143.31 1.02 64.01 86.45 149.92 176.46 149.92 178 150.07 178.09"/><polygon class="lm-2-cls-3" points="356.2 0.27 356.2 178.75 167.25 178.75 167.25 0.27 206.03 0.27 261.86 77.01 317.7 0.27 356.2 0.27"/><polygon class="lm-2-cls-4" points="61.97 178.09 33.66 178.09 33.66 178.5 0 178.5 0 0.66 0.38 0.45 0.61 0.3 0.66 0.45 61.97 178.09"/><polygon class="lm-2-cls-5" points="355.79 0.27 267.08 130.86 167.25 0.71 167.25 0.27 206.03 0.27 261.86 77.01 317.7 0.27 355.79 0.27"/><path class="lm-2-cls-6" d="M769.52,524.9C734.34,421.5,620.61,411.5,613.06,411l-.39,0,.39-.15.45-.16h69.68c61.2,0,88.47,43.61,89.24,87.73A104.26,104.26,0,0,1,769.52,524.9Z" transform="translate(-227.55 -410.62)"/></svg>