<svg id="Layer_1" data-name="Layer 1" xmlns="http://www.w3.org/2000/svg" xmlns:xlink="http://www.w3.org/1999/xlink" viewBox="0 0 466.47 466.29"><defs><style>.lm-1-cls-1{fill:#ddca1d;}.lm-1-cls-2{fill:url(#lm-1-linear-gradient);}.lm-1-cls-3{fill:url(#lm-1-linear-gradient-2);}.lm-1-cls-4{fill:#0a0101;}.lm-1-cls-5{fill:url(#lm-1-linear-gradient-3);}</style><linearGradient id="lm-1-linear-gradient" x1="457.08" y1="749.48" x2="472.07" y2="651.31" gradientUnits="userSpaceOnUse"><stop offset="0"/><stop offset="1" stop-color="#fff" stop-opacity="0"/></linearGradient><linearGradient id="lm-1-linear-gradient-2" x1="500.06" y1="249.28" x2="500.06" y2="377.8" xlink:href="#lm-1-linear-gradient"/><linearGradient id="lm-1-linear-gradient-3" x1="500" y1="763.65" x2="500" y2="763.65" xlink:href="#lm-1-linear-gradient"/></defs><title>I M Safety &amp;amp; Training Solutions</title><path class="lm-1-cls-1" d="M449,645.35c10.48,3.76,21.13,5.87,31.88,7.46,32.27,4.8,64.58,6.4,96.91.6a147.35,147.35,0,0,0,42.4-14.17c13.59-7.13,27-12.79,42.45-14.62a10.42,10.42,0,0,1,4.62.19c7,2.42-.49,7.68-2.78,9.9-20.32,19.68-43.08,35.82-69,47.45a228.61,228.61,0,0,1-118.6,19.25c-59.33-6-109.12-31.38-149.39-75.16C295,590.87,275.27,549.12,269,501.45c-8.82-67.32,8.09-127.84,51.25-180.25,39.06-47.44,89.65-75.35,150.73-82.89,65.88-8.14,125,9.08,176.45,50.94,46.68,38,74.29,87.41,83.19,146.93,6.43,43,.8,84.61-16.25,124.64a42.69,42.69,0,0,1-9.06,13.92c-3.31,3.27-7.1,5.56-11.89,3.45s-5.09-6.39-5-10.74c.15-8,2.71-15.49,5.61-22.83,12.13-30.65,15.8-62.59,12.82-95.1A200,200,0,0,0,662.1,339.57c-35.16-43.21-80.47-69.36-135.79-76.12-62.44-7.62-118,9.34-165.29,51.28-39.43,35-61.91,79.29-68.14,131.54-4.64,38.87.59,76.82,18.5,111.57,20.32,39.4,53.45,61.89,98.7,63.19,32.06.92,64.16.18,96.23-1,2.32-.08,5.53-1.3,6.75,1.44,1.08,2.44-1.18,4.69-2.65,6.65-8.82,11.72-21.67,14.37-35.2,15.38C466.48,644.15,457.75,644.74,449,645.35Z" transform="translate(-266.76 -236.35)"/><path class="lm-1-cls-2" d="M501.05,699.23c-7.82,0-15.82-.41-23.78-1.21-57.84-5.84-107.38-30.76-147.22-74.08C297.9,589,278.51,547.64,272.41,501c-8.72-66.58,8.27-126.35,50.5-177.64,38.52-46.78,88.49-74.25,148.52-81.67a253.47,253.47,0,0,1,30.84-1.94c52.41,0,100.54,17.55,143,52.14,45.58,37.11,73.16,85.82,82,144.8,6.26,41.84.87,83.16-16,122.79a39.08,39.08,0,0,1-8.32,12.84c-2.26,2.23-4.12,3.28-5.85,3.28a5.62,5.62,0,0,1-2.26-.53c-2.35-1-3.07-2.87-3-7.56.14-7.8,2.84-15.25,5.37-21.63,11.8-29.83,16.19-62.35,13-96.67a203.59,203.59,0,0,0-45.52-111.8c-36.26-44.56-82.7-70.58-138-77.34a240.42,240.42,0,0,0-28.94-1.8c-52,0-98.75,18.14-139,53.91-39.57,35.14-62.87,80.12-69.27,133.69-4.95,41.46,1.4,79.66,18.86,113.53,21.28,41.25,56.42,63.74,101.63,65,9.57.27,19.72.41,30.17.41,19.12,0,39.57-.43,66.28-1.41.6,0,1.25-.1,1.91-.19s1.08-.14,1.51-.15a16,16,0,0,1-1.47,2.09l-.69.88c-7.67,10.19-18.64,13-32.73,14-5.93.44-11.85.85-17.78,1.27l-8.41.58-.91,6.61c11.8,4.23,23.58,6.3,32.53,7.62a364.75,364.75,0,0,0,53.86,4.35h0a247.14,247.14,0,0,0,44.15-3.77,150.25,150.25,0,0,0,43.38-14.5c11.4-6,25.21-12.34,41.27-14.25a16.64,16.64,0,0,1,1.87-.15,3.75,3.75,0,0,1,1.23.17l.25.09a27.38,27.38,0,0,1-3,3c-.49.43-.93.81-1.26,1.14-20.75,20.1-43.62,35.84-68,46.79A225.72,225.72,0,0,1,501.05,699.23Z" transform="translate(-266.76 -236.35)"/><path class="lm-1-cls-1" d="M365.91,421.69c17.5-7.31,18.84-22.26,20-39.11,1.89-27.53,16.2-49.07,38.66-66.41,6.95,19-5.06,39.95,11.48,59.36,16.51-24.15,4.05-48.65,10.85-72.18,9.75-5.16,21.73-8.3,34.66-10.37,3.45,12,1.51,22.9,1.9,33.64.42,11.35,5.54,18.83,17.17,18.51,10.77-.29,16-7.54,16-18.29s0-21.58,0-33c14.61-.11,25.73,4.78,36.58,9.41,7.47,22.52-6,47.74,10.36,71.79,17.75-18.7,4.88-39.88,12.09-58.74,21.63,16.41,35.51,37.17,38.17,63.46,1.79,17.74,2,34.72,20.41,42.56,1.3,13.8-7.58,18.33-16.16,22.49-23.8,11.54-49.67,15-75.54,17.09-43.29,3.48-86.49,2.28-129.17-6.9-12.5-2.69-24.77-6.23-35.87-12.8C370.68,438.2,364.66,433.4,365.91,421.69Z" transform="translate(-266.76 -236.35)"/><path class="lm-1-cls-3" d="M499.36,460.32c-30.4,0-58.29-2.82-85.26-8.62-10.8-2.33-23.39-5.62-34.86-12.4-5.85-3.46-10.35-6.85-10.08-15.33,17.91-8.55,19-25.12,20.15-41.16,1.61-23.5,12.54-43.42,33.38-60.77,1.12,5.55.94,11.37.76,17.45-.37,12-.79,25.58,10,38.25l2.89,3.4,2.52-3.68c10.56-15.44,10-30.82,9.44-45.69-.34-9.07-.65-17.66,1.49-26.07,7.65-3.83,17.25-6.73,29.23-8.84,1.48,6.84,1.29,13.47,1.1,19.92-.09,3.26-.19,6.63-.06,10,.5,13.86,7.74,21.81,19.86,21.81h.8c12.08-.33,19.3-8.44,19.33-21.69,0-7.58,0-15.17,0-23v-6.54c11.67.58,21.18,4.53,30.37,8.44,2.38,8.25,2,17,1.51,26.23-.7,14.69-1.43,29.87,8.82,45l2.37,3.5,2.92-3.07c11.71-12.33,11.2-26,10.76-38-.23-6-.44-11.78.71-17.25,19.6,16.13,30.67,35.62,32.93,58,.13,1.31.25,2.6.37,3.89,1.5,15.85,3,32.21,20.15,40.58.19,9.4-5.4,12.83-14.36,17.18-22.13,10.72-45.72,14.45-74.33,16.75C527.52,459.72,513.09,460.32,499.36,460.32Z" transform="translate(-266.76 -236.35)"/><path class="lm-1-cls-4" d="M599.44,553.13c-5.46,10.31-15.06,17.7-23.29,24.93-10.84.31-13.2-9.56-20.52-12.67L523,579.09c-4.16,6.38.77,15.24-5.43,22.7-11.15,3.08-23.13,1.5-34.17.79-6.47-7.39-2.86-15.39-5.65-23.09l-32.88-14.13c-7,2.47-9.39,11.21-18.84,13.11-10.28-5.63-18.24-15.07-25.07-24.24.16-10.5,10-13,12.76-21.28a170.27,170.27,0,0,1-13.16-31.74c-6.82-4.44-14.87.08-22.9-4.81-3.91-11.65-2.28-24.26-.73-36.85,19.54-6.68,35,4.32,51.42,4.65,5.39,56.87,28.95,84.71,70.81,85.41,41.69.69,64.12-25.12,73.21-85.29,16-1.9,31.4-10.42,49.83-5.54,4.16,12.78,3.31,25.38.88,37.22-7.55,5.05-14.85,1.67-22.23,4.23-4.43,10.55-9.14,21.73-14,33.37C588.68,540.86,598.49,543.4,599.44,553.13Z" transform="translate(-266.76 -236.35)"/><path class="lm-1-cls-5" d="M500,763.65" transform="translate(-266.76 -236.35)"/></svg>