<?xml version="1.0" encoding="utf-8"?>
<!-- Generator: Adobe Illustrator 23.0.6, SVG Export Plug-In . SVG Version: 6.00 Build 0)  -->
<svg version="1.1" xmlns="http://www.w3.org/2000/svg" xmlns:xlink="http://www.w3.org/1999/xlink" x="0px" y="0px"
	 viewBox="0 0 566.93 566.93" style="enable-background:new 0 0 566.93 566.93;" xml:space="preserve">
<style type="text/css">
	.st0{fill:#231F20;}
</style>
<g id="BG">
</g>
<g id="graphics">
	<g>
		<path class="st0" d="M248.02,158.47c4.3-11.83,5.31-16.57,11.39-18.48c10.55-3.31,25.46,5.14,23.06-15.53
			c-0.07,0.01-0.11,0.01-0.17,0.01c-1.35,0.92-9.9,3.92-10.79,2.77c-1.17-1.52-0.19-3.51-1.98-3.89c0,0-0.08-1.17-0.58-1.43
			c-0.51-0.25-0.46-0.39-0.31-1.05c0.15-0.66-0.48-1.9-1.3-2.09c-0.82-0.19-2.07-0.8-2.07-0.8c3.01-9.79,0.39-6.97,0.27-10.43
			c3.1-1.23,4.72-2.51,6.39-5.01c0.38-0.57,1.13,3.78,9.06,7.47c2.07-2.77,4.32-0.48,3.82,3.16c4.29,5.07,11.32,18.41,12.97,21.38
			c2.65,4.26,7.12,7.55,15.92,2.7c6.32-3.48,17.28-10.77,23.05-19.27c18.43-29.1-12.88-66.87-76.35-47.6
			c-40.17,12.19-55.66,40.83-50.89,61.4C213.02,146.91,228.8,155.76,248.02,158.47z"/>
		<path class="st0" d="M202.97,323.46c-7.2-5.7-9.32-19.89-8.34-30.08c-1.34-3.84,0.06-7.64,2.41-10.93
			c0.34-0.9-1.47,6.59-1.47,6.59c-0.2,1.08-0.39,3.35,2.56,3.45c2.17,0.07,3.48-1.3,3.94-3.45c1.96-9.09,5.66-28.55,9.86-36.52
			c0.87,0.38,2.33,0.89,3.63,0.7c0.83,3.74,2.46,13.35,3.59,20.2c-8.18-0.68-14.26,11.62-14.26,25.36
			c0,14.04,6.11,25.42,13.65,25.42c7.54,0,13.65-11.38,13.65-25.42c0-10.32-3.31-19.18-8.05-23.17c-1.07-5.86-3.53-18.56-5.74-25.4
			c0,0,1.36-6.25-0.48-13.59c2.1-5,9.96-15.2,19.42-27.81c2.43-3.24,4.76-5.69,6.18-8.07c2.05-3.42-7.8-11.39-12.29-6.67
			c-5.22,5.48-10.41,15.12-14.76,24.98c-10.55,23.87-13.57,29.34-10.89,39.87c-3.7,10.89-2.09,6.07-5.76,16.06
			c-5.91,2.71-10.29,12.34-10.29,23.84C189.53,312.32,195.53,323.26,202.97,323.46z"/>
		<path class="st0" d="M294.86,148.38c-6.63,0.46-9.96,5.21-12.49,6.5c-3.19,1.62-3.27,1.46-7.4-3.81
			c-3.54-4.53-11.95-6.22-15.75-0.13c-10.04,16.08,8.97,29.63,10.21,39.72c2.52-3.17,13.81-4.49,21.46,4.41
			c2.31-4.13,6.86-11.94,16.5-24.04C313.43,163.46,306.91,147.54,294.86,148.38z"/>
		<path class="st0" d="M301.22,273.14c2.24-13.59,2.23-29.78,0.2-40.48c-4.17-6.35-16.78-8.63-18.29-6.49
			c0.17-0.32,4.08-4.66,10.87-3.21c7.36,1.57,13.06,0,23.76-9.91c9.81-9.09,17.88-17.76,19.5-20.43c2.03-3.34-8.11-10.04-11.36-5.3
			c-1.76,2.57-0.79,1.84-7.09,10.24c-8.65,11.53-13.34,16.41-16.84,17.63c-2.79,0.97-4.79,0.36-6.26-0.87
			c-1.17-2.83-2.67-6.67-3.9-8.72c-5.94-9.95-18.37-10.52-24.67-6.9c-10.88,6.25-30.72,28.36-32.74,56.61
			c-2.7,37.84,7.1,57.95,9.45,112.64c2.95,68.62-23.6,120.33-56.07,133.86c27.84-8.22,47.16-11.04,62.55-11.28
			c0.03,0.18,0.06,0.36,0.09,0.54c1.2,6.01,5.39,8.73,7.15,8.8c1.81,0.07,7.05-2.94,9-8.61c30.26,3.13,48.74,14.48,112.57-0.84
			C282.23,488.75,285.96,366.04,301.22,273.14z M276.17,348.33c-0.92,13.49,0.93,20.97-5.13,47.07c-3.17,13.66-9.32,27.03-8.85,46.6
			c0.47,19.57,4.19,23.3,2.8,32.62s-12.12,10.25-13.98,2.8c-1.86-7.46,0,0,0.93-30.75c0.93-30.76,10.25-111.84,37.28-159.37
			C285.49,318.97,277.57,327.83,276.17,348.33z"/>
	</g>
</g>
</svg>
