<?xml version="1.0" encoding="utf-8"?>
<!-- Generator: Adobe Illustrator 23.0.6, SVG Export Plug-In . SVG Version: 6.00 Build 0)  -->
<svg version="1.1" id="Ñëîé_1" xmlns="http://www.w3.org/2000/svg" xmlns:xlink="http://www.w3.org/1999/xlink" x="0px" y="0px"
	 viewBox="0 0 1248 1248" style="enable-background:new 0 0 1248 1248;" xml:space="preserve">
<style type="text/css">
	.st0{fill:none;}
	.st1{fill:#1D1D1B;}
</style>
<rect x="0.5" y="0.5" class="st0" width="1247" height="1247"/>
<g>
	<g>
		<g>
			<path class="st1" d="M1025.79,834.84H807.21c-11.35,0-20.55-9.2-20.55-20.55v-22.86c0-11.35,9.2-20.55,20.55-20.55h154.63
				c11.35,0,20.55-9.2,20.55-20.55V456.27c0-16.04-17.57-25.9-31.26-17.53L634.7,632.07c-6.58,4.02-14.85,4.02-21.43,0
				l-316.4-193.35c-13.69-8.37-31.26,1.49-31.26,17.53v294.09c0,11.35,9.2,20.55,20.55,20.55h198.78c11.35,0,20.55,9.2,20.55,20.55
				v22.86c0,11.35-9.2,20.55-20.55,20.55H222.21c-11.35,0-20.55-9.2-20.55-20.55V342.23c0-16.04,17.57-25.9,31.26-17.53
				l380.35,232.43c6.58,4.02,14.85,4.02,21.43,0l380.37-232.4c13.69-8.36,31.26,1.49,31.26,17.53V814.3
				C1046.33,825.65,1037.13,834.84,1025.79,834.84z"/>
		</g>
	</g>
	<g>
		<path class="st1" d="M686.74,802.87L404.27,923.85c-17.15,7.35-37.15-2.16-41.69-20.26c-16.58-66.12-16.58-135.33,0-201.46
			c4.54-18.1,24.54-27.6,41.69-20.26L686.74,802.87z"/>
	</g>
	<g>
		<path class="st1" d="M561.24,802.87l282.47,120.98c17.15,7.35,37.15-2.16,41.69-20.26c16.58-66.12,16.58-135.33,0-201.46
			c-4.54-18.1-24.54-27.6-41.69-20.26L561.24,802.87z"/>
	</g>
	<g>
		
			<ellipse transform="matrix(0.2298 -0.9732 0.9732 0.2298 -197.1787 1143.74)" class="st1" cx="624" cy="696.44" rx="22.59" ry="22.59"/>
	</g>
</g>
</svg>
