<?xml version="1.0" encoding="utf-8"?>
<!-- Generator: Adobe Illustrator 23.0.6, SVG Export Plug-In . SVG Version: 6.00 Build 0)  -->
<svg version="1.1" id="Layer_1" xmlns="http://www.w3.org/2000/svg" xmlns:xlink="http://www.w3.org/1999/xlink" x="0px" y="0px"
	 viewBox="0 0 5000 5000" style="enable-background:new 0 0 5000 5000;" xml:space="preserve">
<style type="text/css">
	.st0{fill-rule:evenodd;clip-rule:evenodd;fill:#231F20;}
	.st1{fill:#231F20;}
	.st2{fill-rule:evenodd;clip-rule:evenodd;fill:#F90606;}
</style>
<path class="st0" d="M1196.79,1577.63c160.01,0,65.54,139.19,219.03,228.64c284.59,165.88,960.5,40.29,1382.69-64.78
	c297.59-74.05,758.34-195.86,1002.71,50.37c266.85,268.82-74.01,848.31,192.61,1261.99c0,75.71,13.41,339.06,13.41,414.78
	c0,62.46-18.25,95.89-95.24,95.89c-302.57,0-605.13-2.72-907.67,0c-57.16,0.52-105.89,3.74-72.15-57.01
	c693.64-1249.47-1327.1-1371.69-1617.11-652.43c-49.4,122.52-31.26,134.45-116.23,134.24c-122.27-0.28-264.79,30.59-259.67-108.38
	c15.18-412.37-7.27-825.35,0.12-1237.96C940.96,1549.51,1092.67,1577.63,1196.79,1577.63z"/>
<path class="st0" d="M3995.44,1814.19c13.88,0,26.76,17.58,37.35,47.55c12.01-75.54,30.11-123.66,50.36-123.66
	c36.13,0,65.43,153.11,65.43,341.9c0,188.8-29.3,341.9-65.43,341.9c-20.25,0-38.35-48.11-50.36-123.66
	c-10.59,29.97-23.46,47.56-37.35,47.56c-36.13,0-65.43-119.03-65.43-265.81C3930,1933.21,3959.3,1814.19,3995.44,1814.19z"/>
<rect x="3845.91" y="2015.74" class="st0" width="161.13" height="128.5"/>
<path class="st0" d="M4091.57,1821.91h71.42c7.57-12.18,21.08-20.29,36.45-20.29c23.67,0,42.89,19.2,42.89,42.89
	c0,23.67-19.22,42.88-42.89,42.88c-15.38,0-28.88-8.11-36.45-20.29h-71.42V1821.91z"/>
<g>
	<path class="st0" d="M3421.66,1396.96v199.2c22.01,4.14,35.91,10.21,35.91,16.98c0,12.47-47.21,22.59-105.4,22.59
		c-58.21,0-105.42-10.12-105.42-22.59c0-7.01,14.9-13.27,38.25-17.42v-198.34c-23.35-4.15-38.25-10.41-38.25-17.42
		c0-12.47,47.21-22.6,105.42-22.6c58.2,0,105.4,10.13,105.4,22.6C3457.57,1386.75,3443.67,1392.82,3421.66,1396.96z"/>
	<rect x="3339.93" y="1307.96" class="st0" width="24.47" height="395.7"/>
</g>
<path class="st0" d="M1142.81,1543.61v81.07h-58.32v-81.07c-48.6-3.25-84.42-14.48-84.42-27.81c0-15.89,50.87-28.76,113.59-28.76
	c62.72,0,113.59,12.88,113.59,28.76C1227.25,1529.13,1191.42,1540.36,1142.81,1543.61z"/>
<polygon class="st0" points="1109.69,3299.97 1120.73,3115.63 1131.77,2931.3 1109.69,2931.3 1087.61,2931.3 1098.65,3115.63 "/>
<path class="st0" d="M846.25,2112.33h110.5c47.89,0,87.07,39.17,87.07,87.06l0,0c0,47.88-39.18,87.07-87.07,87.07h-110.5
	c-47.88,0-87.06-39.18-87.06-87.07l0,0C759.19,2151.5,798.36,2112.33,846.25,2112.33z"/>
<rect x="725.7" y="2008.52" class="st0" width="110.5" height="371.69"/>
<path class="st1" d="M1095.57,3099.49c-62.25-47.6-122.89-87-178.01-122.8c-221.23-143.72-355.25-230.79-158.81-550.03
	c35.57-57.82,22.3-260.3,12.49-410.02c-3.66-55.87-6.85-104.49-6.85-135.74c0-123.38,0.7-204.68,34.87-256.34
	c34.52-52.21,101.56-72.47,233.62-72.47c97.38,0,147.21-29.68,200.65-61.5c41.31-24.6,84.73-50.47,152.98-65.63
	c181.27-40.27,380.4-7.79,585.43,25.63c210.02,34.25,426.27,69.51,634.34,27.92c107.96-21.58,290.79-54.98,457.55-78.8
	c116.32-16.61,224.74-28.55,294.38-28.55v14.3c-69.03,0-176.74,11.87-292.37,28.39c-166.09,23.73-348.75,57.1-456.77,78.7
	c-210.48,42.07-428.09,6.59-639.43-27.88c-203.66-33.2-401.48-65.46-580.05-25.8c-66.06,14.68-108.45,39.93-148.79,63.95
	c-55.24,32.89-106.74,63.57-207.92,63.57c-126.61,0-190.26,18.47-221.72,66.05c-31.82,48.11-32.47,127.65-32.47,248.46
	c0,31.22,3.16,79.44,6.79,134.84c9.94,151.65,23.39,356.73-14.56,418.39c-189.14,307.41-59.54,391.61,154.4,530.59
	c55.39,35.98,116.33,75.57,178.9,123.41L1095.57,3099.49z"/>
<path class="st2" d="M1126.7,3564.72c169.78,0,308.25-40.64,308.25-90.47c0-49.83-138.47-90.46-308.25-90.46
	c-169.78,0-308.26,40.63-308.26,90.46C818.45,3524.08,956.92,3564.72,1126.7,3564.72z"/>
<ellipse class="st0" cx="3515.68" cy="3515.37" rx="820.9" ry="176.67"/>
</svg>
