<?xml version="1.0" encoding="utf-8"?>
<!-- Generator: Adobe Illustrator 23.0.6, SVG Export Plug-In . SVG Version: 6.00 Build 0)  -->
<svg version="1.1" xmlns="http://www.w3.org/2000/svg" xmlns:xlink="http://www.w3.org/1999/xlink" x="0px" y="0px"
	 viewBox="0 0 2000 2000" style="enable-background:new 0 0 2000 2000;" xml:space="preserve">
<style type="text/css">
	.st0{fill:#FFFFFF;}
	.st1{fill:url(#XMLID_2_);}
</style>
<g id="Background">
	<rect id="XMLID_2122_" class="st0" width="2000" height="2000"/>
</g>
<g id="Layer_1">
	<g id="XMLID_4576_">
		<linearGradient id="XMLID_2_" gradientUnits="userSpaceOnUse" x1="123.0888" y1="1000" x2="1876.9113" y2="1000">
			<stop  offset="0" style="stop-color:#00A8DE"/>
			<stop  offset="0.2" style="stop-color:#333391"/>
			<stop  offset="0.4" style="stop-color:#E91388"/>
			<stop  offset="0.6" style="stop-color:#EB2D2E"/>
			<stop  offset="0.8" style="stop-color:#FDE92B"/>
			<stop  offset="1" style="stop-color:#009E54"/>
		</linearGradient>
		<path id="XMLID_4577_" class="st1" d="M123.09,1048.67c0,0,0.23-0.3,0.7-0.89c0.48-0.58,1.11-1.52,2.12-2.63
			c1.93-2.29,5.07-5.52,9.84-9.04c2.43-1.68,5.2-3.53,8.51-5.15c3.29-1.64,7.02-3.19,11.23-4.45c8.38-2.52,18.71-3.86,30.21-2.4
			c2.88,0.33,5.8,0.95,8.78,1.67c2.95,0.83,5.99,1.73,8.97,3.03c1.52,0.57,2.97,1.35,4.49,2.05c1.45,0.82,2.98,1.56,4.41,2.51
			c2.94,1.76,5.74,3.92,8.44,6.31c2.72,2.34,5.18,5.24,7.45,8.09c2.33,3.04,4.4,6.25,6.31,9.67c1.85,3.45,3.57,7.05,5.05,10.84
			c1.46,3.79,2.79,7.7,3.9,11.75c1.11,4.05,2.1,8.21,2.95,12.46c0.84,4.26,1.57,8.59,2.24,13.02c1.32,8.81,2.42,17.93,3.95,27.19
			c1.54,9.24,3.54,18.66,6.89,27.82c0.44,1.13,0.83,2.29,1.32,3.41l0.72,1.69l0.36,0.85c0.12,0.3,0.18,0.41,0.35,0.77
			c0.56,1.14,1.1,2.33,1.67,3.43c0.58,1.05,1.16,2.1,1.74,3.16c2.49,4.26,5.44,8.32,8.85,12.01c6.77,7.36,15.56,13.28,25.52,15.31
			c1.24,0.24,2.5,0.38,3.76,0.58c1.27,0.1,2.54,0.13,3.81,0.21c0.04,0.02,0.62-0.01,0.91-0.01l1.07-0.03
			c0.35-0.01,0.73-0.01,1.05-0.04l0.91-0.09c1.19-0.08,2.48-0.31,3.75-0.5c5.06-0.98,10-2.91,14.52-5.79
			c9.1-5.7,16.55-14.66,22.25-24.81c2.87-5.09,5.31-10.52,7.32-16.16c0.51-1.41,0.97-2.84,1.42-4.27l0.61-2.04l0.6-2.3
			c0.4-1.54,0.8-3.07,1.2-4.62c0.4-1.54,0.64-2.99,0.97-4.5c0.3-1.5,0.65-2.97,0.91-4.51c0.25-1.54,0.5-3.09,0.75-4.64l0.38-2.33
			l0.28-2.35c0.18-1.57,0.36-3.14,0.55-4.71c0.2-1.57,0.25-3.17,0.39-4.76c0.11-1.59,0.26-3.18,0.33-4.79
			c0.05-1.6,0.1-3.21,0.15-4.82l0.08-2.42l-0.01-2.43c-0.02-12.96-1.1-26.2-3.5-39.47c-2.41-13.28-5.85-26.53-10.67-39.7
			c-4.76-13.34-10.17-26.85-15.35-40.88c-5.17-14.02-10.11-28.62-13.66-44.03c-3.46-15.39-5.67-31.73-4.29-48.63
			c0.73-8.43,2.32-16.98,5.24-25.28l0.56-1.55c0.08-0.26,0.51-1.4,0.68-1.78l1.17-2.76l0.59-1.38l0.79-1.59l1.62-3.18
			c0.55-1.05,1.16-1.97,1.74-2.95c0.61-0.96,1.13-1.97,1.82-2.88c1.32-1.86,2.59-3.76,4.1-5.5c2.85-3.6,6.18-6.83,9.7-9.85
			c1.82-1.44,3.62-2.92,5.58-4.19c1.89-1.37,3.94-2.5,5.97-3.68c8.25-4.46,17.44-7.41,27.01-8.27c4.78-0.4,9.64-0.45,14.47,0.22
			c4.82,0.64,9.65,1.69,14.26,3.45c4.61,1.72,9.13,3.9,13.23,6.71l1.56,1.02l1.48,1.13c0.98,0.77,1.99,1.5,2.94,2.31
			c1.84,1.67,3.74,3.29,5.39,5.16c0.83,0.92,1.75,1.78,2.49,2.77l2.32,2.9c0.8,0.95,1.42,2.01,2.14,3.02
			c0.67,1.03,1.44,2.02,2.02,3.1c1.21,2.13,2.51,4.24,3.5,6.47l0.79,1.65c0.29,0.64,0.46,0.92,0.85,1.85l1.22,2.99
			c0.82,2,1.63,3.99,2.45,6c0.81,2.06,1.57,4.3,2.35,6.44c1.65,4.35,2.9,8.66,4.26,13c0.71,2.16,1.23,4.37,1.83,6.56
			c0.57,2.2,1.21,4.39,1.72,6.61c0.5,2.22,1,4.45,1.5,6.68c0.24,1.12,0.52,2.23,0.73,3.35l0.62,3.38c0.41,2.25,0.82,4.51,1.24,6.77
			c0.33,2.27,0.66,4.54,0.99,6.82l0.5,3.42l0.38,3.43c0.25,2.29,0.5,4.58,0.75,6.88c0.76,9.19,1.37,18.46,1.39,27.76
			c0.12,4.65-0.04,9.3-0.09,13.97c-0.04,2.33-0.18,4.66-0.27,7c-0.11,2.33-0.17,4.68-0.36,7.01c-2.27,37.46-9.73,74.68-18.07,111.88
			c-4.19,18.6-8.62,37.23-12.76,55.96c-2.05,9.35-4.1,18.82-5.91,28.16c-1.78,9.29-3.22,18.45-3.68,27.36
			c-0.45,8.91,0.05,17.58,2.13,25.67c0.19,0.86,0.52,1.87,0.81,2.85c0.27,0.99,0.64,1.95,0.98,2.91c0.32,0.98,0.73,1.91,1.13,2.85
			c0.37,0.95,0.82,1.86,1.26,2.77c1.77,3.63,3.91,7.02,6.37,10c4.9,5.98,11.1,10.18,17.86,11.96c6.74,1.76,14.26,1.15,21.62-1.69
			c7.35-2.77,14.4-7.64,20.25-13.67c2.92-3.03,5.57-6.34,7.82-9.86c1.1-1.78,2.17-3.57,3.07-5.43c0.49-0.92,0.88-1.86,1.3-2.79
			c0.22-0.46,0.39-0.94,0.58-1.42c0.12-0.29,0.52-1.36,0.41-1.01l1.21-3.67l0.6-1.84c0.2-0.61,0.26-1.02,0.4-1.54l0.75-2.95
			c0.14-0.46,0.23-1.05,0.34-1.6l0.32-1.65c0.92-4.39,1.37-8.96,1.72-13.57c0.52-9.28,0.07-18.89-1.06-28.71
			c-1.14-9.83-2.85-19.83-4.76-30.06c-0.97-5.17-1.94-10.34-2.9-15.53c-0.98-5.17-1.93-10.41-2.86-15.67
			c-3.76-21.01-7.28-42.24-10.1-63.86c-2.83-21.6-4.91-43.57-5.67-65.87c-0.76-22.29-0.21-44.92,2.35-67.63l0.46-4.26
			c0.15-1.42,0.29-2.84,0.54-4.26c0.44-2.83,0.88-5.67,1.31-8.51c0.46-2.84,0.84-5.68,1.37-8.52c0.58-2.82,1.17-5.65,1.75-8.48
			c0.59-2.83,1.18-5.66,1.77-8.49c0.74-2.8,1.47-5.61,2.21-8.42c0.74-2.81,1.48-5.62,2.23-8.43c0.17-0.7,0.45-1.58,0.62-2.14
			l0.64-2.07l0.71-2.24l0.72-2.15c3.91-11.45,8.92-22.81,15.96-33.66c3.53-5.41,7.6-10.68,12.4-15.57c2.38-2.45,4.99-4.78,7.75-6.97
			c2.76-2.2,5.74-4.23,8.89-6.03c3.14-1.82,6.46-3.42,9.93-4.71c3.44-1.3,7.03-2.38,10.63-3.05l2.06-0.42
			c0.82-0.15,1.94-0.3,2.89-0.43c0.99-0.13,2-0.27,2.98-0.38l2.76-0.18c3.67-0.25,7.44-0.09,11.2,0.31
			c7.53,0.83,14.99,3.2,21.68,6.61c6.73,3.41,12.57,7.96,17.64,12.9c5.09,4.96,9.26,10.44,12.91,16.08
			c3.63,5.66,6.66,11.52,9.19,17.51c2.54,5.99,4.62,12.11,6.29,18.33c0.82,3.12,1.56,6.25,2.17,9.43l0.45,2.38
			c0.3,1.71,0.26,1.69,0.41,2.62l0.62,4.23c0.11,0.66,0.18,1.64,0.27,2.45l0.24,2.55c0.16,1.7,0.34,3.44,0.38,4.98l0.22,4.76
			c0.08,1.59,0.04,3.14,0.06,4.72c0.07,6.29-0.3,12.44-0.74,18.55c-1.01,12.16-2.76,23.97-4.67,35.53
			c-1.96,11.31-3.92,22.65-5.88,34.01c-1.85,11.15-3.44,22.12-4.28,32.88c-1.81,21.51-0.14,42.15,8.12,59.19
			c0.52,1.06,1.12,2.08,1.66,3.13l0.83,1.57c0.29,0.59,0.1,0.17,0.75,1.24c0.97,1.62,1.1,1.5,1.41,2.02
			c0.52,0.56,0.99,1.19,1.53,1.66c2.07,2.05,4.26,3.24,6.89,3.87c5.15,1.37,12.77-0.32,18.88-4.76c3.08-2.15,5.74-4.92,7.78-7.93
			l0.74-1.14l0.85-1.49l1.09-1.91c0.41-0.69,0.63-1.16,0.87-1.66l0.75-1.49c0.25-0.51,0.5-0.95,0.77-1.56l1.58-3.45
			c4.05-9.4,7.14-19.91,10.19-31.13c1.53-5.62,3.07-11.41,4.79-17.34c0.84-2.96,1.77-5.97,2.73-8.99l2.79-8.43
			c1.67-5.22,3.27-10.78,4.86-16.4c1.61-5.71,3.22-11.43,4.82-17.14c3.29-11.56,6.79-23.29,10.95-35.05
			c4.15-11.76,8.92-23.57,15.01-35.24c3.08-5.83,6.46-11.62,10.43-17.28c1.97-2.83,4.08-5.63,6.37-8.36
			c2.26-2.74,4.73-5.41,7.38-7.99c2.63-2.58,5.49-5.05,8.56-7.35c3.06-2.31,6.34-4.45,9.84-6.32c6.95-3.79,14.78-6.47,22.7-7.74
			c3.96-0.6,7.95-0.97,11.86-0.94c0.99-0.03,1.95,0.03,2.92,0.06c0.97,0.05,1.95,0.05,2.9,0.15l2.87,0.26
			c2.79,0.32,2.05,0.3,3.24,0.46l2.22,0.36c0.72,0.12,1.39,0.2,2.67,0.53c2.23,0.55,4.56,1.11,6.67,1.8
			c1.98,0.73,3.96,1.48,5.92,2.28c1.93,0.95,3.86,1.93,5.76,2.94c7.55,4.34,14.06,10.53,18.86,17.23
			c4.84,6.72,8.16,13.84,10.59,20.8c2.41,6.98,3.94,13.85,5.04,20.58c1.09,6.73,1.73,13.34,2.13,19.84
			c0.76,12.98,0.51,25.56,0.16,37.76c-0.18,6.09-0.4,12.08-0.49,17.81l-0.03,4.22l0.04,4.29l0.11,9.11
			c0.11,12.27,0.08,24.39,0.01,36.52c-0.14,24.22-0.39,48.23,0.17,72.02l0.04,4.83l-0.08,5.15c-0.09,3.32-0.22,6.46-0.38,9.57
			c-0.31,6.2-0.67,12.14-0.86,17.84c-0.43,11.4,0.03,21.84,2.41,30.53c0.3,1.08,0.56,2.19,0.97,3.17l0.54,1.53
			c0.18,0.57-0.04,0.04,0.5,1.27c0.29,0.65,0.64,1.49,0.88,1.98c0.17,0.28,0.33,0.57,0.48,0.86c0.1,0.25,0.4,0.69,0.63,1.08
			c0.25,0.39,0.45,0.82,0.73,1.17c1,1.54,2.19,2.9,3.43,4.19c1.26,1.28,2.68,2.39,4.16,3.42c5.98,4.04,13.97,5.81,21.8,4.77
			c1.96-0.24,3.9-0.65,5.79-1.26c0.96-0.25,1.87-0.65,2.81-0.97c0.9-0.41,1.83-0.76,2.7-1.24c0.9-0.41,1.74-0.95,2.61-1.43
			c0.82-0.56,1.69-1.05,2.47-1.67c0.4-0.3,0.81-0.58,1.2-0.9l1.15-0.96c0.4-0.3,0.24-0.22,1.12-1.02l1.66-1.56
			c0.67-0.6,0.77-0.81,1.16-1.2l0.98-1.04c0.33-0.31,0.71-0.84,1.07-1.24l1.1-1.29l2.04-2.7c0.61-0.95,1.26-1.87,1.85-2.83
			c2.36-3.85,4.26-8.03,5.76-12.53c1.49-4.5,2.56-9.31,3.26-14.36c0.68-5.06,1.01-10.35,1.05-15.78c0.1-10.88-0.9-22.29-2.23-34.07
			l-4.23-36.11c-1.42-11.96-2.92-24-4.45-36.03c-3.05-24.07-6.19-48.24-9.01-72.54c-1.41-12.15-2.75-24.33-3.95-36.55l-0.41-4.8
			l-0.19-2.27c-0.07-0.72-0.12-1.56-0.16-2.41c-0.17-3.34-0.43-6.76-0.47-9.99l-0.12-4.91c-0.01-1.64,0.02-3.29,0.03-4.93
			c-0.02-3.28,0.15-6.6,0.31-9.9c0.66-13.23,2.61-26.66,6.34-39.95c0.48-1.66,0.89-3.32,1.45-4.97l1.69-4.94l0.86-2.47l1-2.44
			l2.02-4.87c0.7-1.62,1.53-3.19,2.3-4.79l1.18-2.38c0.38-0.8,0.79-1.59,1.26-2.35l2.7-4.64c0.46-0.77,0.88-1.56,1.39-2.3l1.52-2.23
			l3.06-4.45c1.09-1.44,2.25-2.83,3.37-4.25l1.71-2.11c0.46-0.62,2.22-2.53,2.22-2.48l1.57-1.64c0.56-0.57,0.96-1.03,1.66-1.7
			c1.63-1.5,3.3-2.98,4.99-4.43c0.87-0.78,1.64-1.29,2.45-1.89l2.41-1.74c1.58-1.2,3.31-2.19,5.01-3.2l2.56-1.5
			c0.87-0.48,1.77-0.88,2.66-1.32c14.17-7.13,30.31-9.57,45.82-7.78l5.8,0.88c1.91,0.43,3.81,0.88,5.71,1.34
			c0.96,0.21,1.89,0.51,2.81,0.82l2.79,0.92c0.92,0.32,1.86,0.59,2.76,0.97l2.7,1.15c1.8,0.77,3.6,1.52,5.3,2.49l2.58,1.39
			c0.32,0.15,2.52,1.38,2.93,1.69l3.81,2.44c0.6,0.38,1.6,1.13,2.37,1.68l2.47,1.82c0.83,0.61,1.65,1.23,2.33,1.83l2.15,1.83
			c0.71,0.62,1.43,1.22,2.13,1.85l2.03,1.98c1.35,1.32,2.7,2.64,3.93,4.09c1.23,1.43,2.56,2.79,3.67,4.32
			c4.72,5.9,8.69,12.35,11.8,19.02c6.26,13.38,9.37,27.35,10.78,40.84c1.34,13.52,1.04,26.7-0.05,39.5
			c-1.13,12.8-3.04,25.27-5.31,37.43l-1.76,9.06c-0.1,0.49-0.37,1.86-0.52,2.52l-0.48,2.19l-0.48,2.19
			c-0.17,0.75-0.3,1.42-0.52,2.26c-1.6,6.61-3.24,12.65-5.06,18.62c-3.58,11.97-7.51,23.3-10.99,34.39
			c-3.45,11.05-6.48,21.82-8.39,32.39c-0.42,2.63-0.93,5.28-1.2,7.89l-0.47,3.85l-0.21,2.22l-0.16,1.95
			c-0.42,5.2-0.49,10.26-0.11,14.76c0.22,2.24,0.52,4.37,0.97,6.29c0.48,1.89,0.98,3.7,1.69,5.16c0.15,0.4,0.32,0.77,0.52,1.1
			l0.54,1.04c0.44,0.59,0.76,1.29,1.24,1.8c0.09,0.12,0.71,0.92,0.35,0.5l1.51,1.64c0.21,0.17,0.31,0.22,0.44,0.37
			c0.11,0.13,0.5,0.4,0.73,0.61c2.14,1.67,4.37,2.61,7.11,2.96c2.72,0.34,5.96-0.03,9.25-1.19c3.28-1.15,6.55-3.08,9.28-5.51
			c1.37-1.21,2.62-2.53,3.69-3.92c0.27-0.35,0.55-0.69,0.77-1.06c0.24-0.36,0.51-0.71,0.71-1.08c0.41-0.72,0.15-0.15,0.6-1.01
			l1.05-1.95c0.41-0.73,0.53-1.06,0.79-1.57l0.7-1.44c0.49-1.14,1.03-2.22,1.5-3.41c0.49-1.16,0.97-2.34,1.43-3.56
			c0.47-1.2,0.92-2.45,1.36-3.7c1.78-5.01,3.39-10.36,5.01-15.9c1.62-5.54,3.24-11.3,5.13-17.29l2.69-8.44l1.34-4.19l1.27-4.12
			c13.71-44.12,25.37-89.74,41.61-134.33c2.07-5.57,4.13-11.13,6.35-16.66c2.09-5.57,4.86-11.86,7.97-17.61
			c3.14-5.81,6.71-11.45,10.96-16.92c4.28-5.45,9.26-10.77,15.64-15.45c3.19-2.33,6.77-4.47,10.8-6.19
			c4.01-1.71,8.49-2.98,13.15-3.48c4.66-0.51,9.44-0.24,13.89,0.71c0.37,0.04,3.35,0.78,3.68,0.93c0.77,0.25,1.18,0.35,2.23,0.72
			c1.31,0.48,2.6,1.01,3.88,1.57c1.12,0.55,2.16,1.1,3.22,1.69c4.22,2.42,8.09,5.73,11.12,9.43c3.05,3.7,5.29,7.71,6.91,11.61
			c1.62,3.91,2.67,7.73,3.41,11.41c0.73,3.68,1.14,7.23,1.35,10.66c0.43,6.87,0.17,13.34-0.35,19.55c-0.52,6.2-1.34,12.2-2.11,17.77
			c-1.53,11.25-3.06,22.47-4.59,33.66c-3.05,22.39-6.09,44.69-9.12,66.87c-6.08,44.37-12.09,88.32-18.05,131.79
			c-1.49,10.87-2.98,21.71-4.47,32.52c-0.74,5.4-1.49,10.8-2.23,16.19c-0.37,2.69-0.74,5.39-1.11,8.08l-0.53,3.96l-0.45,3.74
			c-1.13,10.02-1.53,19.79-0.17,28.18c0.67,4.17,1.78,7.94,3.32,11.01c1.55,3.08,3.46,5.45,5.89,7.39c0.77,0.55-0.09,0.02,0.68,0.53
			l1.61,1.07c0.21,0.08,0.4,0.18,0.58,0.3c0.13,0.11,0.64,0.3,0.93,0.45c1.39,0.63,2.88,1.19,4.51,1.52
			c1.62,0.34,3.32,0.57,5.08,0.61c1.76,0.02,3.55-0.09,5.34-0.35c1.78-0.3,3.55-0.73,5.26-1.29l1.26-0.46
			c-0.3,0.16,0.97-0.41,1.38-0.58c0.7-0.29,1.16-0.51,1.42-0.66c0.36-0.2,0.64-0.29,1.09-0.55c3.41-1.81,6.7-4.19,9.78-7.05
			c1.55-1.41,3.03-2.96,4.45-4.59c1.43-1.62,2.8-3.35,4.1-5.15c0.33-0.45,0.66-0.89,0.97-1.36c0.22-0.32,0.84-1.24,0.74-1.06
			l2.1-3.35l1.03-1.65l0.75-1.39l1.53-2.78c4.15-8.2,7.44-17.02,9.73-26.33l0.87-3.49l0.75-3.54c0.54-2.34,0.9-4.77,1.36-7.15
			c0.78-4.82,1.48-9.68,1.99-14.61c0.55-4.91,0.94-9.9,1.28-14.89l0.23-3.76l0.2-3.74c0.12-2.57,0.24-5.13,0.36-7.69
			c0.09-2.5,0.18-5,0.27-7.49c0.06-2.52,0.12-5.04,0.19-7.56c0.09-5.04,0.17-10.08,0.16-15.12c0.02-10.07-0.11-20.12-0.4-30.16
			c-0.56-20.07-1.61-40.05-2.81-59.93c-0.31-4.97-0.62-9.94-0.92-14.89c-0.17-2.45-0.35-4.9-0.52-7.35
			c-0.19-2.42-0.39-4.84-0.58-7.26c-0.82-9.69-1.79-19.52-2.71-29.34c-0.93-9.84-1.78-19.73-2.41-29.66
			c-0.64-9.93-1.02-19.93-0.91-29.98c0.11-10.05,0.59-20.14,1.92-30.24c0.7-5.01,1.54-10.22,2.4-14.76
			c0.86-4.7,1.74-9.42,2.65-14.16c3.71-18.92,8.15-38.11,16.16-56.55c2.02-4.6,4.22-9.14,6.79-13.56c1.22-2.23,2.64-4.38,4.01-6.54
			c1.46-2.12,2.9-4.25,4.52-6.28c1.53-2.07,3.29-4.01,4.98-5.98c1.81-1.89,3.57-3.8,5.53-5.55c1.87-1.83,3.95-3.43,5.96-5.1
			c2.13-1.53,4.19-3.14,6.44-4.49c4.38-2.86,9.06-5.19,13.81-7.18l3.59-1.4c1.2-0.47,2.42-0.81,3.64-1.21l1.82-0.58
			c0.59-0.2,1.55-0.47,1.91-0.55c1.12-0.29,2.08-0.57,3.51-0.89l1.99-0.45c0.66-0.14,1.29-0.24,1.93-0.37
			c1.27-0.25,2.58-0.44,3.89-0.61c1.3-0.2,2.66-0.27,3.99-0.41c1.36-0.06,2.71-0.16,4.1-0.13c5.51-0.01,11.36,0.8,16.98,2.98
			c5.64,2.11,10.82,5.73,14.83,10c4.04,4.29,6.94,9.13,9.11,13.96c2.16,4.84,3.62,9.71,4.7,14.51c1.06,4.8,1.75,9.55,2.17,14.24
			c0.87,9.38,0.79,18.51,0.31,27.48c-0.51,8.96-1.46,17.76-2.69,26.41c-0.61,4.31-1.31,8.65-1.99,12.79
			c-0.68,4.18-1.36,8.34-2.04,12.5c-1.34,8.3-2.67,16.54-3.99,24.73c-10.49,65.57-19.46,127.94-27.1,186.6
			c-1.81,14.4-2.84,28.78-3.16,42.84c-0.27,14.07,0.17,27.9,1.92,41.18c0.86,6.64,2.09,13.13,3.76,19.35
			c1.7,6.2,3.88,12.15,6.78,17.43c2.89,5.28,6.55,9.85,10.99,12.96c4.42,3.14,9.63,4.76,15.16,4.95c2.74,0.09,5.61-0.06,8.37-0.63
			c0.55-0.17,1.04-0.25,1.64-0.44c0.61-0.23,1.23-0.37,1.84-0.65c1.22-0.49,2.43-1.05,3.62-1.73c4.77-2.67,9.19-6.56,13.36-10.73
			c8.38-8.41,15.72-18.07,24.82-26.46c2.29-2.09,4.71-4.1,7.36-5.89l1.01-0.66c0.25-0.17,0.79-0.51,1.08-0.67l1.87-1.09
			c1.25-0.73,2.45-1.46,3.86-2.15c1.36-0.69,2.71-1.43,4.07-2.06c1.36-0.61,2.71-1.22,4.06-1.82c1.36-0.59,2.75-1.08,4.12-1.62
			c1.36-0.56,2.76-1,4.16-1.44c2.77-0.96,5.6-1.63,8.4-2.34c1.42-0.28,2.83-0.56,4.24-0.85c1.41-0.29,2.84-0.42,4.25-0.64
			c5.67-0.7,11.33-0.99,16.9-0.55c11.1,0.71,21.81,3.74,31.12,8.33c9.44,4.62,17.59,10.38,25.18,16.24
			c7.58,5.87,14.52,11.9,21.35,17.5c6.82,5.6,13.52,10.83,20.36,15.19c3.42,2.18,6.88,4.14,10.36,5.85
			c3.5,1.68,7.03,3.07,10.57,4.19c3.54,1.12,7.11,1.82,10.63,2.32c0.88,0.09,1.76,0.19,2.64,0.28c0.2,0.02,0.48,0.06,0.61,0.06
			l0.68,0.03l1.35,0.06l1.34,0.06c0.44,0.01,0.86-0.01,1.28-0.01c0.85-0.02,1.69,0,2.54-0.04c3.42-0.15,6.76-0.55,10-1.07
			c3.24-0.58,6.4-1.22,9.45-2.01c6.12-1.52,11.87-3.32,17.33-4.95c5.44-1.63,10.67-3.18,15.56-4.29c4.96-1.13,9.62-1.87,13.99-2.22
			c4.36-0.36,8.41-0.35,12.07-0.09c3.67,0.27,6.94,0.92,9.81,1.64c1.42,0.42,2.75,0.82,3.97,1.27c1.2,0.51,2.34,0.91,3.34,1.41
			c0.99,0.51,1.9,0.98,2.74,1.41c0.79,0.5,1.5,0.95,2.13,1.35c0.65,0.38,1.17,0.78,1.61,1.14c0.44,0.35,0.82,0.64,1.11,0.87
			c0.59,0.46,0.89,0.7,0.89,0.7s-0.31-0.22-0.92-0.67c-0.3-0.22-0.68-0.5-1.14-0.83c-0.45-0.34-0.98-0.72-1.64-1.08
			c-0.64-0.38-1.36-0.81-2.16-1.28c-0.84-0.4-1.76-0.84-2.76-1.31c-1.01-0.47-2.15-0.82-3.35-1.29c-1.22-0.4-2.55-0.75-3.97-1.13
			c-2.86-0.62-6.1-1.16-9.73-1.31c-3.62-0.15-7.6-0.03-11.89,0.47c-4.28,0.49-8.88,1.38-13.69,2.62c-4.88,1.26-9.91,2.93-15.33,4.73
			c-5.41,1.79-11.12,3.77-17.3,5.5c-3.08,0.89-6.29,1.65-9.61,2.34c-3.33,0.64-6.79,1.15-10.36,1.42c-0.9,0.06-1.82,0.08-2.74,0.12
			l-1.38,0.05l-1.34-0.02l-1.35-0.02l-0.68-0.01c-0.33-0.01-0.49-0.03-0.74-0.05c-0.93-0.07-1.86-0.14-2.8-0.22
			c-3.74-0.42-7.56-1.06-11.34-2.14c-3.78-1.07-7.55-2.45-11.27-4.11c-3.71-1.69-7.37-3.64-10.98-5.8
			c-14.47-8.66-27.89-20.63-42.95-31.77c-7.53-5.53-15.6-10.87-24.37-14.88l-1.73-0.77l-0.87-0.39l-0.79-0.3
			c-1.13-0.43-2.27-0.86-3.41-1.29c-1.13-0.45-2.33-0.73-3.5-1.11c-1.17-0.36-2.35-0.73-3.56-0.97c-1.2-0.27-2.41-0.55-3.62-0.83
			c-1.23-0.19-2.46-0.39-3.69-0.59c-1.23-0.24-2.49-0.29-3.74-0.42c-1.25-0.11-2.51-0.26-3.78-0.26c-5.06-0.28-10.21,0.14-15.35,0.9
			c-1.28,0.23-2.58,0.38-3.86,0.68c-1.28,0.29-2.56,0.58-3.85,0.87c-2.54,0.72-5.11,1.39-7.62,2.33c-1.26,0.44-2.53,0.87-3.77,1.41
			c-1.24,0.53-2.5,1-3.73,1.58c-1.22,0.59-2.45,1.17-3.68,1.76c-1.21,0.6-2.36,1.27-3.54,1.9c-1.16,0.59-2.4,1.38-3.63,2.14
			l-1.85,1.13c-0.35,0.2-0.41,0.26-0.75,0.5l-0.8,0.55c-2.12,1.51-4.18,3.28-6.18,5.2c-4.01,3.85-7.82,8.25-11.69,12.81
			c-3.88,4.56-7.8,9.3-12.2,13.93c-4.41,4.6-9.25,9.2-15.37,12.84c-1.52,0.91-3.15,1.73-4.84,2.45c-0.83,0.39-1.74,0.66-2.61,0.99
			c-0.9,0.31-1.96,0.57-2.94,0.83c-3.44,0.77-6.99,1.07-10.65,1.04c-3.65-0.05-7.39-0.55-11.03-1.64
			c-3.64-1.07-7.17-2.73-10.35-4.87c-6.4-4.28-11.26-10.26-14.91-16.56c-3.66-6.34-6.25-13.09-8.3-19.95
			c-2-6.86-3.47-13.86-4.54-20.93c-2.16-14.14-2.92-28.55-2.95-43.14c0.02-14.61,0.76-29.37,2.32-44.41
			c6.39-59.04,14.29-121.68,23.5-187.62c1.17-8.24,2.35-16.54,3.53-24.88c1.16-8.32,2.51-16.79,3.54-24.96
			c1.02-8.24,1.78-16.53,2.1-24.79c0.31-8.26,0.21-16.52-0.67-24.52c-0.88-7.96-2.54-15.78-5.55-22.19
			c-1.5-3.19-3.32-5.98-5.43-8.12c-2.12-2.12-4.45-3.71-7.2-4.67c-2.73-1-5.89-1.45-9.35-1.38c-0.85-0.01-1.75,0.09-2.63,0.13
			c-0.9,0.12-1.79,0.16-2.71,0.33c-0.92,0.14-1.83,0.28-2.77,0.49c-0.46,0.1-0.94,0.18-1.39,0.28l-1.3,0.32
			c-0.77,0.16-1.98,0.53-3.04,0.82c-0.73,0.2-0.85,0.24-1.33,0.42l-1.4,0.48c-0.93,0.33-1.88,0.6-2.79,0.98l-2.72,1.12
			c-3.58,1.58-7.05,3.36-10.27,5.56c-1.66,1.01-3.16,2.27-4.74,3.42c-1.47,1.29-3.01,2.49-4.39,3.91c-1.45,1.32-2.76,2.82-4.12,4.27
			c-1.27,1.55-2.6,3.03-3.77,4.69c-1.24,1.59-2.35,3.31-3.49,5c-1.07,1.76-2.19,3.48-3.16,5.33c-2.04,3.62-3.84,7.47-5.5,11.41
			c-6.63,15.86-10.59,33.57-13.88,51.89c-0.8,4.63-1.59,9.27-2.39,13.92c-0.84,4.83-1.43,9.08-2.01,13.55
			c-1.04,8.91-1.34,18.08-1.31,27.35c0.04,9.27,0.52,18.68,1.29,28.19c0.74,9.51,1.72,19.12,2.78,28.84
			c1.06,9.74,2.18,19.55,3.18,29.6c0.24,2.52,0.51,5.09,0.72,7.57c0.21,2.51,0.42,5.01,0.63,7.53c0.37,4.98,0.74,9.96,1.12,14.96
			c1.47,20,2.79,40.25,3.62,60.77c0.43,10.25,0.69,20.58,0.8,30.96c0.07,5.19,0.06,10.4,0.03,15.62c-0.03,2.61-0.06,5.23-0.09,7.85
			c-0.06,2.65-0.13,5.29-0.19,7.94c-0.09,2.58-0.18,5.17-0.27,7.76l-0.16,4l-0.19,3.98c-0.3,5.32-0.65,10.67-1.18,16.08
			c-0.48,5.39-1.2,10.84-2.01,16.31c-0.48,2.74-0.87,5.48-1.46,8.22l-0.83,4.12l-0.96,4.13c-2.57,11.01-6.43,22.05-11.67,32.67
			l-2.23,4.16l-1.14,2.08l-1.03,1.71l-2.06,3.38c-0.82,1.29-0.95,1.45-1.47,2.22c-0.42,0.63-0.86,1.26-1.31,1.88
			c-1.76,2.5-3.65,4.94-5.69,7.3c-2.03,2.37-4.19,4.67-6.52,6.86c-4.63,4.39-9.93,8.39-15.87,11.63c-0.7,0.4-1.64,0.85-2.46,1.26
			c-0.92,0.46-1.67,0.81-2.19,1.03c-0.82,0.35-0.75,0.37-2.29,0.98l-2.47,0.94c-3.33,1.15-6.73,2.03-10.2,2.63
			c-3.48,0.56-7.02,0.84-10.59,0.81c-3.58-0.04-7.2-0.44-10.81-1.17c-3.61-0.71-7.21-1.91-10.7-3.47c-0.91-0.43-1.66-0.73-2.68-1.3
			c-0.98-0.54-1.96-1.09-2.92-1.66l-1.74-1.14c-0.37-0.2-2.26-1.6-2.56-1.85c-6.05-4.64-11-10.85-14.32-17.36
			c-3.35-6.53-5.23-13.24-6.35-19.68c-1.12-6.47-1.45-12.72-1.44-18.8c0.02-6.08,0.44-11.96,1.02-17.72l0.48-4.34l0.51-4.12
			c0.34-2.69,0.68-5.39,1.03-8.09c0.68-5.4,1.37-10.8,2.06-16.21c1.37-10.82,2.75-21.68,4.13-32.56
			c5.55-43.53,11.16-87.53,16.83-131.95c2.85-22.21,5.7-44.53,8.58-66.94c1.44-11.21,2.87-22.44,4.32-33.7
			c0.73-5.67,1.4-10.95,1.79-16.09c0.4-5.12,0.51-10.06,0.18-14.57c-0.3-4.5-1.16-8.52-2.34-11.25c-0.58-1.36-1.22-2.37-1.81-3.07
			c-0.61-0.71-1.16-1.15-1.91-1.58c-0.2-0.08-0.42-0.21-0.58-0.3c-0.05,0.01-0.07-0.01-0.09-0.07c-0.29-0.12-1.26-0.39-1.86-0.58
			c-1.03-0.33,0.53,0.2-0.49-0.09c-1.15-0.22-2.15-0.26-3.2-0.14c-1.04,0.13-2.15,0.42-3.41,0.97c-1.25,0.54-2.64,1.35-4.08,2.43
			c-2.88,2.15-5.9,5.25-8.68,8.88c-2.79,3.65-5.38,7.78-7.7,12.13c-2.34,4.42-4.23,8.71-6.18,13.97c-2.06,5.21-3.98,10.51-5.92,15.8
			c-3.78,10.64-7.36,21.43-10.79,32.33c-3.42,10.91-6.68,21.96-9.91,33.08c-3.21,11.19-6.42,22.4-9.63,33.62
			c-3.24,11.3-6.5,22.57-10,34.03l-1.3,4.3l-1.31,4.21l-2.61,8.36c-1.62,5.22-3.16,10.79-4.8,16.55c-1.65,5.76-3.38,11.7-5.51,17.81
			c-0.54,1.53-1.07,3.05-1.66,4.6c-0.57,1.54-1.19,3.09-1.83,4.65c-0.61,1.55-1.36,3.13-2.04,4.69c-0.37,0.81-0.82,1.7-1.22,2.55
			c-0.4,0.81-0.89,1.83-1.2,2.39l-1.04,1.95c-0.22,0.46-1.29,2.27-1.63,2.82c-0.53,0.91-1.12,1.77-1.71,2.63
			c-0.58,0.87-1.2,1.7-1.83,2.53c-2.51,3.3-5.32,6.31-8.36,9.02c-6.09,5.42-13.12,9.72-20.98,12.57
			c-7.83,2.83-16.61,4.22-25.67,3.19c-4.51-0.51-9.06-1.65-13.38-3.41c-4.32-1.76-8.38-4.14-11.98-6.95
			c-0.91-0.75-1.72-1.35-2.69-2.24c-0.94-0.87-1.94-1.82-2.79-2.68l-1.51-1.63c-1.37-1.51-1.6-1.93-2.44-2.96
			c-1.45-1.75-2.58-3.66-3.79-5.53c-0.54-0.95-1.05-1.92-1.57-2.88c-0.53-0.97-0.99-1.94-1.4-2.92c-1.81-3.92-2.97-7.85-3.92-11.72
			c-0.91-3.86-1.45-7.62-1.81-11.3c-0.64-7.34-0.49-14.22,0.01-20.88l0.2-2.5l0.2-2.22c0.09-0.98,0.19-1.69,0.29-2.55l0.3-2.47
			c0.35-3.32,0.94-6.53,1.46-9.78c2.29-12.9,5.74-25.15,9.36-36.9c3.63-11.71,7.5-23,10.73-33.98c1.66-5.49,3.11-11.02,4.33-16.05
			c0.16-0.6,0.32-1.4,0.47-2.12l0.47-2.2l0.47-2.2c0.18-0.8,0.18-0.9,0.38-1.88l1.63-8.59c2.09-11.42,3.76-22.71,4.71-33.85
			c0.92-11.12,1.06-22.09-0.02-32.53c-1.12-10.4-3.51-20.22-7.51-28.69c-1.99-4.25-4.43-8.11-7.25-11.62
			c-0.65-0.93-1.47-1.7-2.2-2.56c-0.71-0.87-1.54-1.64-2.35-2.42l-1.2-1.19c-0.42-0.38-0.87-0.73-1.3-1.1l-1.29-1.1
			c-0.44-0.41-0.84-0.68-1.23-0.96l-1.17-0.87c-0.45-0.32-0.62-0.54-1.3-0.96l-3.82-2.43l-2.43-1.28c-0.91-0.56-1.92-0.92-2.9-1.34
			l-1.46-0.64c-0.49-0.22-1.01-0.33-1.51-0.51l-1.52-0.5c-0.5-0.18-1-0.36-1.53-0.45c-1.04-0.23-2.07-0.48-3.11-0.74
			c-1.06-0.14-2.11-0.29-3.16-0.46c-8.45-0.92-17.23,0.37-24.69,4.2c-0.47,0.23-0.96,0.43-1.41,0.68l-1.34,0.81
			c-0.89,0.54-1.83,1.02-2.63,1.68l-1.26,0.91c-0.41,0.3-0.91,0.61-1.15,0.87c-0.59,0.54-1.21,1.05-1.86,1.54
			c-0.4,0.36-1.01,1.04-1.51,1.55l-1.57,1.64c-1.07,1.13-0.34,0.32-0.79,0.91l-1.14,1.43c-0.76,0.96-1.54,1.89-2.29,2.85l-2.07,3.04
			l-1.05,1.51c-0.35,0.5-0.63,1.07-0.95,1.59l-1.87,3.21c-0.33,0.52-0.62,1.08-0.88,1.65l-0.83,1.69c-0.54,1.14-1.14,2.23-1.64,3.39
			l-1.45,3.53l-0.73,1.76l-0.62,1.83l-1.26,3.66c-0.42,1.22-0.71,2.51-1.08,3.76c-2.81,10.06-4.42,20.78-4.95,31.77
			c-0.12,2.75-0.27,5.5-0.25,8.28l-0.02,4.17l0.11,4.19c0.03,2.84,0.25,5.47,0.38,8.19c0.03,0.67,0.07,1.34,0.14,2.13l0.19,2.27
			l0.37,4.27c1.19,11.94,2.52,23.9,3.92,35.88c2.81,23.96,5.96,47.99,9.05,72.14c1.54,12.09,3.07,24.17,4.53,36.35l4.28,36.34
			c1.37,12.38,2.55,25.23,2.43,38.68c-0.07,6.72-0.47,13.59-1.43,20.58c-0.97,6.99-2.52,14.09-4.86,21.13
			c-2.33,7.03-5.48,13.99-9.49,20.49c-1.01,1.62-2.1,3.2-3.15,4.79c-1.14,1.53-2.28,3.07-3.46,4.57l-1.84,2.19
			c-0.64,0.74-1.18,1.43-1.92,2.2l-2.16,2.26c-0.68,0.69-1.57,1.64-2.04,2.05l-1.66,1.56c-0.25,0.22-1.46,1.4-2.26,2.04l-2.35,1.95
			c-0.79,0.64-1.63,1.23-2.44,1.84c-1.62,1.24-3.37,2.3-5.08,3.41c-1.77,1.02-3.53,2.07-5.37,2.95c-1.81,0.95-3.71,1.73-5.59,2.53
			c-1.92,0.71-3.82,1.46-5.8,2.02c-3.91,1.22-7.93,2.07-12,2.59c-2.03,0.3-4.08,0.41-6.13,0.55c-2.06,0.04-4.11,0.11-6.17-0.02
			c-4.12-0.17-8.24-0.68-12.31-1.6c-8.13-1.77-16.04-5.1-23.12-9.85c-3.52-2.4-6.86-5.09-9.87-8.14c-2.98-3.05-5.74-6.34-8.07-9.88
			c-0.62-0.86-1.13-1.78-1.69-2.68c-0.55-0.92-1.08-1.75-1.63-2.87c-0.55-1.05-1.09-2.12-1.61-3.18c-0.41-0.88-0.64-1.44-0.97-2.18
			c-0.09-0.14-0.9-2.07-1.19-2.95l-0.98-2.76c-0.7-1.84-1.18-3.68-1.69-5.52c-1.99-7.37-2.99-14.64-3.47-21.61
			c-0.48-6.98-0.42-13.67-0.2-20.08c0.22-6.41,0.61-12.58,0.91-18.47c0.16-2.94,0.27-5.86,0.36-8.59l0.08-3.94l-0.03-4.26
			c-0.54-24.64-0.27-49.03-0.08-73.14c0.11-12.05,0.17-24.08,0.11-35.94l-0.07-8.99l-0.02-4.76c0-1.65,0.04-3.21,0.05-4.82
			c0.12-6.33,0.37-12.38,0.56-18.34c0.39-11.88,0.62-23.41,0.01-34.46c-0.63-10.99-2.08-21.63-5.08-30.45
			c-1.51-4.38-3.39-8.22-5.57-11.25c-2.19-3.05-4.59-5.29-7.44-6.96c-0.76-0.35-1.51-0.74-2.24-1.15c-0.83-0.3-1.65-0.6-2.47-0.95
			c-0.74-0.23-1.34-0.34-1.99-0.59c-0.15-0.12-0.97-0.25-1.73-0.37l-2.22-0.37c-0.29-0.04-2.49-0.42-1.2-0.19l-1.61-0.15
			c-0.54-0.07-1.05-0.05-1.58-0.08c-0.52-0.02-1.05-0.07-1.56-0.04c-2.08-0.04-4.06,0.17-6.02,0.44c-3.88,0.63-7.55,1.84-11.1,3.75
			c-1.78,0.93-3.53,2.06-5.24,3.35c-1.72,1.27-3.4,2.7-5.04,4.3c-6.58,6.34-12.37,14.91-17.35,24.32
			c-4.98,9.45-9.22,19.74-13.02,30.39c-3.8,10.65-7.15,21.67-10.43,32.9c-1.64,5.69-3.27,11.38-4.91,17.06
			c-1.67,5.77-3.37,11.57-5.34,17.61l-2.83,8.4c-0.84,2.61-1.67,5.24-2.47,7.96c-1.6,5.41-3.13,11.02-4.73,16.78
			c-3.21,11.52-6.77,23.69-12.09,35.9l-2.12,4.56c-0.33,0.73-0.79,1.59-1.19,2.39l-1.26,2.43c-0.42,0.81-0.87,1.66-1.21,2.23
			l-1.1,1.91l-1.36,2.32l-1.66,2.55c-4.59,6.68-10.29,12.43-16.84,16.98c-6.53,4.58-13.92,8.02-22,9.94
			c-8.04,1.93-16.94,2.22-25.69,0.04c-4.36-1.08-8.64-2.77-12.6-5.01c-3.96-2.25-7.53-5.06-10.64-8.14
			c-1.59-1.53-2.95-3.18-4.33-4.83c-1.39-1.84-3.09-4.25-3.59-5.16c-0.1-0.18-1.15-1.79-1.5-2.51l-1.22-2.3
			c-0.8-1.54-1.64-3.05-2.39-4.61l-2.09-4.74c-0.34-0.79-0.71-1.58-1.01-2.38l-0.88-2.42c-0.58-1.62-1.17-3.23-1.72-4.85l-1.41-4.91
			c-0.23-0.82-0.47-1.64-0.68-2.46l-0.55-2.47l-1.07-4.94l-0.79-4.93l-0.39-2.46l-0.26-2.45l-0.52-4.9l-0.29-4.86
			c-0.25-3.25-0.19-6.43-0.26-9.64c0.06-6.35,0.31-12.64,0.87-18.79c1.05-12.32,2.84-24.23,4.87-35.82
			c2.01-11.59,4.22-22.91,6.16-34.01c1.93-11.09,3.61-21.98,4.58-32.63c0.42-5.3,0.78-10.57,0.76-15.7
			c-0.01-1.28,0.05-2.58-0.01-3.85l-0.14-3.79c-0.02-1.32-0.15-2.41-0.24-3.55l-0.14-1.71c-0.06-0.61-0.05-1.05-0.16-1.8l-0.58-4.23
			c-0.07-0.48-0.26-1.92-0.23-1.61l-0.33-1.82c-0.44-2.42-0.99-4.83-1.6-7.22c-1.24-4.77-2.8-9.45-4.65-13.92
			c-1.84-4.48-4.02-8.73-6.48-12.63c-2.46-3.88-5.18-7.47-8.17-10.42c-2.99-2.95-6.15-5.44-9.49-7.14
			c-3.33-1.71-6.76-2.86-10.42-3.29c-1.83-0.18-3.7-0.32-5.63-0.19l-1.45,0.07l-1.2,0.15c-0.43,0.06-0.71,0.05-1.28,0.14l-2.07,0.4
			c-1.93,0.32-3.73,0.88-5.54,1.53c-1.8,0.64-3.55,1.47-5.26,2.44c-6.85,3.83-13.06,10.24-18.23,18.05
			c-5.18,7.81-9.35,16.88-12.7,26.36l-0.62,1.78l-0.57,1.71l-0.6,1.9c-0.23,0.76-0.39,1.19-0.55,1.84l-2.08,7.6l-2.09,7.59
			l-1.68,7.7l-1.68,7.69c-0.51,2.57-0.88,5.18-1.32,7.77c-0.43,2.59-0.86,5.18-1.29,7.77c-0.24,1.29-0.38,2.6-0.53,3.91l-0.46,3.92
			c-2.57,20.87-3.33,41.98-2.83,63.06c0.49,21.08,2.26,42.14,4.79,63.08c2.51,20.94,5.74,41.8,9.23,62.51
			c1.72,10.32,3.58,20.78,5.37,31.14c1.82,10.47,3.53,21.17,4.66,32.12c1.12,10.95,1.56,22.22,0.77,33.66
			c-0.49,5.72-1.15,11.48-2.4,17.2l-0.45,2.15c-0.16,0.72-0.28,1.41-0.5,2.18l-1.24,4.53c-0.21,0.72-0.43,1.57-0.64,2.19l-0.63,1.83
			l-1.25,3.66c-0.58,1.55-0.66,1.68-1.02,2.58c-0.29,0.72-0.58,1.45-0.91,2.14c-0.65,1.41-1.28,2.82-2.01,4.17
			c-1.38,2.75-2.97,5.36-4.62,7.93c-3.34,5.08-7.19,9.76-11.43,14.04c-4.23,4.29-8.93,8.1-13.98,11.45
			c-5.05,3.36-10.53,6.17-16.38,8.31c-5.83,2.16-12.08,3.55-18.52,3.99c-6.43,0.48-13.08-0.22-19.42-1.93
			c-0.76-0.17-1.72-0.52-2.56-0.79c-0.81-0.27-1.87-0.61-2.47-0.86l-1.75-0.71c-0.44-0.16-2.02-0.85-2.41-1.08
			c-2.94-1.39-5.76-3.01-8.39-4.84c-5.28-3.65-9.84-8.05-13.68-12.83c-3.84-4.78-6.97-9.94-9.49-15.28
			c-0.63-1.34-1.26-2.67-1.78-4.04c-0.55-1.36-1.1-2.72-1.55-4.11c-0.47-1.38-0.96-2.76-1.34-4.16c-0.4-1.4-0.81-2.76-1.15-4.32
			c-2.66-11.18-3.05-22.47-2.35-33.16c0.72-10.72,2.52-20.93,4.55-30.74c2.04-9.77,4.24-19.24,6.47-28.73
			c4.49-18.93,9.19-37.51,13.61-55.86c4.4-18.35,8.56-36.49,11.88-54.49c0.41-2.25,0.85-4.51,1.23-6.73
			c0.38-2.22,0.75-4.44,1.13-6.66c0.39-2.19,0.71-4.53,1.07-6.79l0.52-3.42l0.26-1.71l0.21-1.57c0.59-4.46,1.22-8.91,1.66-13.35
			c0.53-4.44,0.89-8.88,1.27-13.3c0.22-2.21,0.31-4.42,0.45-6.63c0.12-2.21,0.3-4.41,0.37-6.61c0.13-4.4,0.35-8.79,0.31-13.16
			c0.13-8.75-0.29-17.42-0.85-26.02c-0.2-2.14-0.4-4.28-0.59-6.42l-0.3-3.2l-0.41-3.18c-0.27-2.12-0.54-4.24-0.81-6.35
			c-0.35-2.1-0.7-4.2-1.04-6.29l-0.52-3.14c-0.18-1.05-0.42-2.07-0.62-3.11c-0.43-2.07-0.85-4.14-1.28-6.21
			c-0.44-2.06-1-4.09-1.49-6.13c-0.52-2.03-0.96-4.09-1.59-6.09c-1.19-4.01-2.3-8.08-3.66-11.87c-0.67-1.94-1.26-3.82-1.99-5.8
			c-0.78-2.02-1.57-4.03-2.35-6.04l-1.17-3.01l-1.08-2.35c-0.71-1.73-1.67-3.28-2.53-4.9c-0.41-0.83-0.98-1.53-1.45-2.3
			c-0.52-0.74-0.94-1.56-1.52-2.24l-1.64-2.13c-0.52-0.74-1.18-1.33-1.76-2.01c-1.14-1.37-2.49-2.51-3.76-3.74
			c-0.66-0.58-1.37-1.1-2.05-1.65l-1.02-0.82l-1.09-0.73c-2.84-2.05-5.98-3.61-9.21-4.9c-3.22-1.33-6.65-2.12-10.09-2.65
			c-3.45-0.57-6.98-0.58-10.48-0.36c-7.01,0.49-13.89,2.54-20.14,5.75c-1.52,0.87-3.09,1.67-4.53,2.68
			c-1.5,0.91-2.87,2.02-4.27,3.07c-2.69,2.24-5.29,4.62-7.5,7.34c-9.15,10.56-13.8,24.86-15.28,39.28
			c-0.72,7.25-0.71,14.61-0.11,21.94l0.24,2.75l0.29,2.68c0.08,0.86,0.24,1.88,0.36,2.82l0.19,1.43l0.2,1.29
			c0.3,1.82,0.6,3.65,0.89,5.46c0.35,1.81,0.7,3.63,1.05,5.43c3.03,14.46,7.43,28.56,12.22,42.43c4.79,13.88,9.94,27.56,14.53,41.33
			c4.74,13.87,8.13,28.06,10.35,42.08c0.32,1.75,0.51,3.51,0.75,5.26c0.22,1.75,0.47,3.5,0.67,5.25c0.17,1.75,0.34,3.5,0.5,5.25
			l0.25,2.61l0.16,2.62c0.1,1.74,0.21,3.48,0.31,5.21c0.1,1.73,0.1,3.47,0.15,5.2c0.02,1.73,0.12,3.45,0.08,5.17
			c-0.03,1.72-0.06,3.44-0.08,5.15l-0.05,2.57l-0.14,2.56c-0.1,1.7-0.19,3.4-0.29,5.1c-0.11,1.69-0.31,3.38-0.46,5.07
			c-0.18,1.68-0.28,3.37-0.53,5.03c-0.23,1.67-0.47,3.33-0.7,4.99l-0.36,2.49l-0.46,2.47c-0.3,1.64-0.61,3.28-0.91,4.91
			c-0.31,1.63-0.75,3.29-1.11,4.92c-0.4,1.62-0.74,3.31-1.18,4.85c-0.44,1.53-0.88,3.06-1.31,4.59l-0.65,2.29
			c-0.18,0.64-0.27,0.86-0.41,1.3l-0.38,1.18c-0.53,1.57-1.08,3.12-1.67,4.66c-2.35,6.14-5.16,12.02-8.46,17.57
			c-3.28,5.56-7.09,10.77-11.41,15.49c-4.36,4.69-9.25,8.91-14.78,12.17c-5.48,3.31-11.59,5.56-17.83,6.6
			c-1.57,0.21-3.1,0.44-4.77,0.51l-1.22,0.08c-0.4,0.02-0.72,0.01-1.09,0.01l-1.07,0c-0.42-0.01-0.55,0.02-1.22-0.01
			c-1.55-0.12-3.11-0.21-4.64-0.38c-1.52-0.27-3.05-0.5-4.55-0.83c-5.99-1.39-11.56-3.92-16.47-7.14
			c-4.92-3.22-9.2-7.11-12.91-11.33c-3.7-4.23-6.84-8.79-9.45-13.54c-0.63-1.23-1.27-2.45-1.89-3.67c-0.58-1.2-1.07-2.35-1.6-3.52
			c-0.1-0.21-0.31-0.68-0.42-0.98l-0.36-0.92l-0.72-1.83c-0.49-1.22-0.88-2.46-1.32-3.68c-3.32-9.85-5.12-19.7-6.46-29.17
			c-1.31-9.48-2.15-18.62-3.22-27.4c-1.05-8.74-2.4-17.12-4.37-25.01c-0.97-3.95-2.15-7.75-3.45-11.42
			c-1.31-3.67-2.86-7.15-4.53-10.49c-1.73-3.29-3.64-6.44-5.69-9.27c-0.49-0.72-1.11-1.44-1.65-2.15l-0.84-1.06
			c-0.17-0.21-0.23-0.31-0.39-0.48l-0.43-0.49c-0.58-0.65-1.15-1.29-1.72-1.93c-0.61-0.6-1.22-1.2-1.82-1.8
			c-2.47-2.33-5.06-4.45-7.8-6.2c-1.33-0.95-2.76-1.69-4.13-2.51c-1.43-0.7-2.79-1.5-4.23-2.09c-2.82-1.33-5.71-2.28-8.53-3.17
			c-2.86-0.78-5.66-1.46-8.44-1.87c-11.11-1.75-21.24-0.75-29.55,1.45c-4.16,1.1-7.89,2.51-11.18,4.02c-3.31,1.5-6.1,3.23-8.57,4.82
			c-4.83,3.33-8.06,6.45-10.05,8.66c-1.04,1.07-1.7,2-2.2,2.56C123.33,1048.38,123.09,1048.67,123.09,1048.67z"/>
	</g>
</g>
</svg>
