<?xml version="1.0" encoding="utf-8"?>
<!-- Generator: Adobe Illustrator 23.0.6, SVG Export Plug-In . SVG Version: 6.00 Build 0)  -->
<svg version="1.1" xmlns="http://www.w3.org/2000/svg" xmlns:xlink="http://www.w3.org/1999/xlink" x="0px" y="0px"
	 viewBox="0 0 566.93 566.93" style="enable-background:new 0 0 566.93 566.93;" xml:space="preserve">
<g id="BG">
</g>
<g id="graphics">
	<g>
		<g>
			<g>
				<path d="M137.91,412.23c-9.15,2.96-13.13,4.35-19.32,9c0.16,7.76,0.63,15.91,1.29,24.57c0.34,4.64,5.1,13.39,16.92,5.62
					c6.59-4.32,3.29-31.58,14.68-43.44c0.12-0.13,0.19-0.29,0.31-0.43C146.22,409.53,141.63,411.03,137.91,412.23z"/>
			</g>
		</g>
		<g>
			<g>
				<path d="M462.03,298.72c-13.51,1.61-55.09,1.91-79.34-13.69c0.59,1.01,1.16,2.02,1.84,3.01c14.13,20.59,35.87,30.77,53.29,35.8
					c7.73-1.1,15.47-2.83,23.25-5.51C476.69,312.97,470.66,297.71,462.03,298.72z"/>
			</g>
		</g>
		<g>
			<path d="M243.35,143.23c19.18-7.72,44.41,7,66.86,35.53c3.73-1.72,7.47-3.44,11.26-5.13c-24.06-30.4-51.62-46.01-72.84-37.47
				c-8.02,3.22-14.33,9.63-18.98,18.39C233.35,149.33,237.89,145.42,243.35,143.23z"/>
			<path d="M358.61,349.76c-3.82,15.72-11.28,27.05-22.33,31.5c-5.43,2.17-11.39,2.51-17.62,1.28c9.3,3.14,18.23,3.4,26.24,0.18
				c11.22-4.52,19.11-15.29,23.7-30.1C365.29,351.66,361.97,350.7,358.61,349.76z"/>
		</g>
		<path d="M320.07,157.62c-26.35-28.87-56.17-42.67-80.11-33.05c-39.61,15.96-47.91,89.93-18.52,165.19
			c29.38,75.3,85.35,123.39,124.98,107.43c15.16-6.11,25.69-20.72,31.31-40.64c1.91-6.8,5.48,42.97-35.04,58.26
			c-43.74,16.51-105.06-36.3-137.75-120.07c-32.73-83.79-24.08-165.86,19.3-183.31C252.74,99.94,289.18,119.25,320.07,157.62z"/>
		<path d="M191.18,294.16c-21.15-54.15-22.69-107.49-7.17-139.17c-19.55,10.88-33.72,54.71-18.93,113.97
			c-0.02,0.02-0.05,0.03-0.07,0.05c-22.5,12.65-33.29,16.64-56.42,11c-18.51-4.53-24.76-23.98-26.07-21.32
			c-16.26,32.58,20.07,57.28,41.32,55.66c-1.47,34.79-22.56,51.87-31.99,65.12c-12.36,17.38-14.72,40.88-16.48,69.46
			c-0.3,4.64,3.23,13.95,16,7.87c7.12-3.4,7.56-30.84,20.45-41.05c11.71-9.27,16.4-8.62,38.71-16.66
			c25.33-9.11,47.3-25.49,50.39-46.45c1.76,2.77,3.45,5.6,5.35,8.25c31.26,44.86,56.74,36.25,56.74,36.25
			C231.09,377.71,207.5,335.95,191.18,294.16z"/>
		<path d="M450.99,157.08c1.9-7.25,5.43-24.28-2.92-29.72c-3.68-2.39-8.62,8.29-19.66,15.73
			C433.54,144.75,444.52,149.08,450.99,157.08z"/>
		<path d="M467.02,337.23c-17.24-0.55-64.26-7.76-89.42-44.41c-24.15-35.18,2.13-73.71,44.53-62.12
			c67.86,18.53,70.15-17.15,69.34-28.17c-20.09-7.4-34.17-8.68-36.73-21.49c-5.52-27.85-31.56-30.11-39.25-32.81
			c-1.18-4.22-7.46-26.08-18.98-26.31c-6.07-0.12-0.72,22.4-18.47,37.47c-56.19,21.08-111.29,48.75-159.37,76.67
			c2.9,15.68,7.39,31.97,13.8,48.37c6.46,16.54,14.25,31.68,22.81,45.2c11.99-0.46,26.17-0.03,44.7,0.9
			c62.46,2.88,108.3,36.11,163.19,25.97C479.42,353.5,475.7,337.5,467.02,337.23z M430.81,177.24c2.98,0.27,5.18,2.91,4.92,5.9
			c-0.28,2.99-2.93,5.19-5.92,4.92c-2.97-0.27-5.18-2.92-4.92-5.89C425.18,179.18,427.81,176.98,430.81,177.24z"/>
	</g>
</g>
</svg>
