<?xml version="1.0" encoding="utf-8"?>
<!-- Generator: Adobe Illustrator 23.0.6, SVG Export Plug-In . SVG Version: 6.00 Build 0)  -->
<svg version="1.1" id="Layer_1" xmlns="http://www.w3.org/2000/svg" xmlns:xlink="http://www.w3.org/1999/xlink" x="0px" y="0px"
	 viewBox="0 0 566.93 566.93" style="enable-background:new 0 0 566.93 566.93;" xml:space="preserve">
<style type="text/css">
	.st0{fill:url(#SVGID_1_);}
	.st1{fill:url(#SVGID_2_);}
	.st2{fill:url(#SVGID_3_);}
	.st3{fill:url(#SVGID_4_);}
	.st4{fill:url(#SVGID_5_);}
</style>
<g id="graphics">
	<g>
		<linearGradient id="SVGID_1_" gradientUnits="userSpaceOnUse" x1="69.8" y1="283.46" x2="497.12" y2="283.46">
			<stop  offset="0" style="stop-color:#FCF3DD"/>
			<stop  offset="0" style="stop-color:#FAEDC9"/>
			<stop  offset="0" style="stop-color:#F6DD92"/>
			<stop  offset="0.5506" style="stop-color:#F0C83B"/>
			<stop  offset="0.668" style="stop-color:#F0C731"/>
			<stop  offset="1" style="stop-color:#EFC41A"/>
		</linearGradient>
		<path class="st0" d="M283.46,69.8C165.65,69.8,69.8,165.65,69.8,283.46c0,117.82,95.85,213.66,213.66,213.66
			c117.82,0,213.66-95.85,213.66-213.66C497.13,165.65,401.28,69.8,283.46,69.8z M81.84,285.43
			c74.42,24.14,139.54,57.43,197.17,97.89c-13.58,5.29-26.53,10.79-38.79,16.38c-57.1-47.1-125.18-73.67-155.82-84.05
			C82.81,305.79,81.94,295.7,81.84,285.43z M86.61,327.2c31.23,10.99,91.42,35.63,143.31,77.27c-11.24,5.33-21.83,10.7-31.79,16.01
			c-33.47-28.16-76.76-49.05-100.78-59.43C92.82,350.21,89.21,338.9,86.61,327.2z M159.61,442.48
			c-23.09-18.02-42.17-40.95-55.66-67.21c23.42,10.8,57.19,28.37,84.45,50.47C177.97,431.5,168.37,437.12,159.61,442.48z
			 M439.15,411.48c-76.63,14.43-145.97,46.49-190.35,70.64c-4.26-0.74-8.47-1.62-12.63-2.63c45.17-25.52,123.89-63.79,210.89-78.27
			C444.52,404.72,441.89,408.15,439.15,411.48z M463.94,373.33c-114.9,10.08-221.45,68.61-263.06,94.09
			c-3.53-1.59-7.01-3.29-10.43-5.07c41.01-24,84.79-46.24,130.03-63.64c63.43-24.4,106.33-31.59,147.86-34.8
			C466.96,367.08,465.49,370.23,463.94,373.33z M483.86,305.91c-91.74-26.53-183.22-15.93-240.98-3.47
			c0.94,0.57,6.53,5.69,7.86,7.98c1.31-0.12,49.78-7.88,76.99-9.68c46.84-3.08,100.79-0.42,154.73,15.42
			c-0.47,2.85-0.98,5.68-1.57,8.49c-68.73-10.81-141.99-2.47-197.9,11.28c2.21,2.74,3.73,5.95,4.47,9.42
			c54.32-13.15,124.85-21.01,191.09-10.73c-0.31,1.18-0.63,2.35-0.96,3.52c-69.84,4.73-133.07,20.84-187,40.8
			c-1.47-1.05-2.94-2.07-4.41-3.1c0.35-6.29-2.93-12.24-8.69-15.19c7.98-9.02,3.29-23.64-8.69-26.24
			c1.08-11.94-10.82-20.87-22-16.38c-0.46-1.93-3.55-10.66-12.46-12.02c-5.65-0.86-11.65,0.84-15.51,5.5
			c-1.16-0.97-6.71-5.17-14.41-3.14c-4.42,1.17-8.26,3.63-10.62,9.26c-0.79,0.6-10.06-2.29-12.16-3.31c0,0,4.78-0.84,6.84-0.77
			c4.25-8.29,13.44-13.49,23.43-11.98c-1.58-3.22-4.29-5.9-7.86-7.37c4.78-11.63-5.81-23.69-17.92-20.53
			c-1.22-11.33-13.97-17.37-23.52-11.12c-7.38-8.71-21.39-6.51-25.73,4.05c-0.04,0.12-0.08,0.23-0.12,0.35
			c-11.44-7.99-26.71,2.4-23.55,15.94c-1.11,0.21-2.17,0.58-3.21,1.02c-2.54-0.89-5.05-1.75-7.55-2.58c1.31-1.11,2.7-2.11,4.23-2.87
			c0.11-3.15,0.89-6.25,2.33-9.13c-0.08-0.28-0.01-0.51,0.33-0.62c4.98-9.27,15.54-13.33,24.97-10.35c2.26-2.89,5.2-5.1,8.52-6.5
			l-1.62-6.98c-2.08,0.14-4.14,0.68-5.27-0.88c-1.38-1.91-0.79-1.32,14.62-39.7c0.88-2.18,0.42-1.31,44.13-9.43
			c-1.6-1.7-3.71-2.45-5.81-2.34c-0.87-4.95-6.05-7.81-10.61-5.67c-4.59-4.74-12.06-4.07-15.92,1.08c-5.14-1.57-10.14,2.64-9.7,8.03
			c-6.4-0.4-10.41,7.03-6.5,12.37c-5.33,2.15-7.9,7.94-6.2,13.4c-2.28,0.04-4.5,0.82-6.32,2.26c-5.25-9.52-19.32-6.07-19.79,4.82
			c-7.41-4.43-18.66,0.6-16.17,13.25c-4.62,0-7.82,4.63-6.29,9.11c-2.49-0.62-4.93-0.17-7.12,1.02
			c15.08-96.38,98.67-170.35,199.21-170.35c98.96,0,181.49,71.65,198.45,165.8c-1.7-4.57-4.94-8.4-9.18-10.54
			c0.84-11.03-6.84-21.08-17.46-21.43c0.03-0.11,0.03-0.23,0.08-0.32c5.7-9.7,1.73-21.61-8.04-23.9c-4.04-0.94-8.05-0.31-11.52,1.5
			c-1.83-6.73-7.12-11.35-13.57-13.75c-3.58-1.33-8.84-0.11-10.29-0.05l12.54,18.14c3,4.33-0.07,10.26-5.34,10.31
			c-3.43,0.03-6.2,2.82-6.2,6.25v24.08c0,2.74,0,1.26-0.43,4.88c-1.57-0.37-4.22-0.25-5.79-0.59v-36.5h-83.78v32.22
			c-1.4-0.02-4.48-0.03-8-0.01v-1.32c0-4.62-6.98-4.61-6.98,0v1.36c-1.92,0.02-3.74,0.04-5.25,0.05
			c-1.43,0.02-15.94,0.61-19.57,0.85v-2.26c0-4.62-6.98-4.61-6.98,0v2.76c-5.42,0.43-10.35,0.92-14.72,1.42v-36.66l27.8-46.49
			l30.05,39.91h97.09l-36.17-50.69H278l-34.77,54.78h7.44v40.52c-0.03,0-0.07,0.01-0.1,0.02c-3.91,0.56-7.11,1.07-9.59,1.5
			l-3.09-16.62L187,236.52l4.9,26.38l0.03,0.46l-2.94,0.55c0.64,1.01,1.21,2.07,1.68,3.18c1.26,0.04,2.51,0.2,3.74,0.46
			c3.41,1.61,7.29,3.89,10.08,6.84c37.34-7.69,75.12-11.76,111-11.76c46.95,0,89.57,6.7,127.32,19.97
			c10.61,3.73,27.78,10.98,41.61,17.48C484.27,301.99,484.07,303.95,483.86,305.91z M391.62,258.76c-7.67-1.36-15.48-2.5-23.44-3.43
			V235.9c0-8.19,5.25-14.83,11.72-14.83s11.72,6.64,11.72,14.83V258.76z M354.13,213.04v26.47c-5.23-0.45-10.38-0.8-15.4-1.06
			v-25.41H354.13z M308.55,243.99v6.74h-8.43v-6.57C302.86,244.08,305.68,244.02,308.55,243.99z M314.69,243.95
			c2.7,0,5.46,0.03,8.26,0.08V250l-0.09,0.73h-8.17V243.95z M293.98,244.39v6.34h-10.83v-5.75
			C286.6,244.75,290.21,244.55,293.98,244.39z M276.18,245.49v5.24h-14.72v-3.8C265.81,246.43,270.73,245.93,276.18,245.49z
			 M250.68,256.43c-2.38,0.29-4.76,0.6-7.15,0.92l-1.43-7.69c1.83-0.32,4.07-0.68,6.68-1.07L250.68,256.43z M209.71,253.19
			l-9.36,1.74l-3.03-16.3l9.35-1.74L209.71,253.19z M477.01,285.72c3.1-2.3,4.43-5.83,3.74-9.26c-0.63-3.13-2.51-5.51-6.28-6.51
			c0.92-2,2.76-5.19,0.51-9.01c-3.75-6.38-9.25-4.5-11.33-4.05c-0.14-2-0.09-6.52-4.61-8.9c-2.51-1.32-5.9-1.38-9.78,0.94
			c-3.03-3.9-6.59-4.93-9.6-4.25c-4.6,1.03-5.87,4.75-6.67,6.86c-0.86-0.57-2.63-1.8-3.41-2.16c-3.45-1.58-7.11-0.67-9.5,1.59
			c-3.71,3.51-2.58,7.52-2.2,9.53c-2,0.29-3.93,0.38-6.17,2.38c-2.01-0.47-4.05-0.91-6.08-1.35c0,0,1.63-3.97,5.87-4.63
			c-0.55-10.04,10.16-16.81,18.95-12.1c4.5-7.05,14.33-8.02,20.1-2.14c7.44-3.36,16.18,0.95,17.94,9.02
			c6.43-0.44,12.33,3.94,13.56,10.55c0,0,1.11,0.42,2.19,2.65c2.4,9.33,1.29,16.08,0.78,24.83
			C482.36,288.34,479.7,287.01,477.01,285.72z"/>
		<linearGradient id="SVGID_2_" gradientUnits="userSpaceOnUse" x1="283.15" y1="215.02" x2="298.56" y2="215.02">
			<stop  offset="0" style="stop-color:#FCF3DD"/>
			<stop  offset="0" style="stop-color:#FAEDC9"/>
			<stop  offset="0" style="stop-color:#F6DD92"/>
			<stop  offset="0.5506" style="stop-color:#F0C83B"/>
			<stop  offset="0.668" style="stop-color:#F0C731"/>
			<stop  offset="1" style="stop-color:#EFC41A"/>
		</linearGradient>
		<rect x="283.15" y="201.6" class="st1" width="15.41" height="26.84"/>
		<linearGradient id="SVGID_3_" gradientUnits="userSpaceOnUse" x1="162.2785" y1="245.2231" x2="174.6562" y2="245.2231">
			<stop  offset="0" style="stop-color:#FCF3DD"/>
			<stop  offset="0" style="stop-color:#FAEDC9"/>
			<stop  offset="0" style="stop-color:#F6DD92"/>
			<stop  offset="0.5506" style="stop-color:#F0C83B"/>
			<stop  offset="0.668" style="stop-color:#F0C731"/>
			<stop  offset="1" style="stop-color:#EFC41A"/>
		</linearGradient>
		<polygon class="st2" points="162.28,237.94 171.63,236.2 174.66,252.51 165.31,254.24 		"/>
		<linearGradient id="SVGID_4_" gradientUnits="userSpaceOnUse" x1="206.2" y1="146.585" x2="245.27" y2="146.585">
			<stop  offset="0" style="stop-color:#FCF3DD"/>
			<stop  offset="0" style="stop-color:#FAEDC9"/>
			<stop  offset="0" style="stop-color:#F6DD92"/>
			<stop  offset="0.5506" style="stop-color:#F0C83B"/>
			<stop  offset="0.668" style="stop-color:#F0C731"/>
			<stop  offset="1" style="stop-color:#EFC41A"/>
		</linearGradient>
		<path class="st3" d="M225.74,166.12c10.79,0,19.53-8.74,19.53-19.54c0-10.79-8.75-19.53-19.53-19.53
			c-10.79,0-19.54,8.75-19.54,19.53C206.2,157.38,214.94,166.12,225.74,166.12z"/>
		<linearGradient id="SVGID_5_" gradientUnits="userSpaceOnUse" x1="142" y1="223.28" x2="242.26" y2="223.28">
			<stop  offset="0" style="stop-color:#FCF3DD"/>
			<stop  offset="0" style="stop-color:#FAEDC9"/>
			<stop  offset="0" style="stop-color:#F6DD92"/>
			<stop  offset="0.5506" style="stop-color:#F0C83B"/>
			<stop  offset="0.668" style="stop-color:#F0C731"/>
			<stop  offset="1" style="stop-color:#EFC41A"/>
		</linearGradient>
		<path class="st4" d="M216.74,195.33l-61.88,12.22L142,239.57l1.06-0.07c1.26-0.1,2.42,0.77,2.71,2.02l2.25,9.71
			c0.97-0.14,1.94-0.23,2.94-0.23c0.04,0,0.08,0,0.12,0l-1.69-9.09l11.64-31.37l22.28,20.39c0.03,0,0.04-0.02,0.06-0.03l58.89-10.94
			L216.74,195.33z"/>
	</g>
</g>
</svg>
