<?xml version="1.0" encoding="utf-8"?>
<!-- Generator: Adobe Illustrator 23.0.6, SVG Export Plug-In . SVG Version: 6.00 Build 0)  -->
<svg version="1.1" id="Layer_1" xmlns="http://www.w3.org/2000/svg" xmlns:xlink="http://www.w3.org/1999/xlink" x="0px" y="0px"
	 viewBox="0 0 566.93 566.93" style="enable-background:new 0 0 566.93 566.93;" xml:space="preserve">
<style type="text/css">
	.st0{fill:url(#SVGID_1_);}
	.st1{fill:url(#SVGID_2_);}
	.st2{fill:url(#SVGID_3_);}
	.st3{fill:url(#SVGID_4_);}
	.st4{fill:url(#SVGID_5_);}
</style>
<g>
	<linearGradient id="SVGID_1_" gradientUnits="userSpaceOnUse" x1="134.6594" y1="309.024" x2="293.84" y2="309.024">
		<stop  offset="0" style="stop-color:#FFF33B"/>
		<stop  offset="0.0401" style="stop-color:#FEE72E"/>
		<stop  offset="0.1171" style="stop-color:#FED51B"/>
		<stop  offset="0.1964" style="stop-color:#FDCA10"/>
		<stop  offset="0.2809" style="stop-color:#FDC70C"/>
		<stop  offset="0.6685" style="stop-color:#F3903F"/>
		<stop  offset="0.8876" style="stop-color:#ED683C"/>
		<stop  offset="1" style="stop-color:#E93E3A"/>
	</linearGradient>
	<path class="st0" d="M199.08,344.53c-4.41-3.73-11-3.17-14.72,1.24s-3.17,11,1.24,14.72l87.33,73.8v43.1
		c-35.22-2.59-66.81-17.55-87.7-41.9c-50.53-58.87-27.06-143.46,1.52-204.06c14.61-30.98,39.69-66.75,62.04-95.2
		c3.56-4.54,2.78-11.1-1.76-14.67c-4.54-3.56-11.1-2.78-14.67,1.76c-23.02,29.3-49.06,66.45-64.5,99.19
		c-44.78,94.91-44.25,173.26,1.52,226.59c26.68,31.08,67.8,49.17,112.83,49.62c0.04,0,0.07,0,0.11,0c5.1,0,11.52-4.6,11.52-11.26
		v-58.01c0-3.07-1.36-6-3.7-7.98L199.08,344.53z"/>
	<linearGradient id="SVGID_2_" gradientUnits="userSpaceOnUse" x1="190.5861" y1="319.1439" x2="375.7277" y2="319.1439">
		<stop  offset="0" style="stop-color:#FFF33B"/>
		<stop  offset="0.0401" style="stop-color:#FEE72E"/>
		<stop  offset="0.1171" style="stop-color:#FED51B"/>
		<stop  offset="0.1964" style="stop-color:#FDCA10"/>
		<stop  offset="0.2809" style="stop-color:#FDC70C"/>
		<stop  offset="0.6685" style="stop-color:#F3903F"/>
		<stop  offset="0.8876" style="stop-color:#ED683C"/>
		<stop  offset="1" style="stop-color:#E93E3A"/>
	</linearGradient>
	<path class="st1" d="M358.72,278.81l-75.19,60.8l-75.85-62.48c-4.45-3.67-11.04-3.03-14.71,1.42c-3.67,4.45-3.03,11.04,1.42,14.71
		c1.16,0.96,81.83,67.47,83.06,68.34c4.04,2.87,9.22,2.4,12.58-0.37l81.82-66.16c4.49-3.63,5.18-10.21,1.55-14.69
		C369.79,275.87,363.21,275.18,358.72,278.81z"/>
	<linearGradient id="SVGID_3_" gradientUnits="userSpaceOnUse" x1="212.0616" y1="239.1433" x2="257.9184" y2="239.1433">
		<stop  offset="0" style="stop-color:#FFF33B"/>
		<stop  offset="0.0401" style="stop-color:#FEE72E"/>
		<stop  offset="0.1171" style="stop-color:#FED51B"/>
		<stop  offset="0.1964" style="stop-color:#FDCA10"/>
		<stop  offset="0.2809" style="stop-color:#FDC70C"/>
		<stop  offset="0.6685" style="stop-color:#F3903F"/>
		<stop  offset="0.8876" style="stop-color:#ED683C"/>
		<stop  offset="1" style="stop-color:#E93E3A"/>
	</linearGradient>
	<path class="st2" d="M229.36,220.42c-4.36-3.78-10.96-3.32-14.74,1.04s-3.32,10.96,1.04,14.74l24.96,21.67
		c4.36,3.78,10.96,3.31,14.74-1.04c3.78-4.36,3.32-10.96-1.04-14.74L229.36,220.42z"/>
	<linearGradient id="SVGID_4_" gradientUnits="userSpaceOnUse" x1="310.0863" y1="377.515" x2="390.8337" y2="377.515">
		<stop  offset="0" style="stop-color:#FFF33B"/>
		<stop  offset="0.0401" style="stop-color:#FEE72E"/>
		<stop  offset="0.1171" style="stop-color:#FED51B"/>
		<stop  offset="0.1964" style="stop-color:#FDCA10"/>
		<stop  offset="0.2809" style="stop-color:#FDC70C"/>
		<stop  offset="0.6685" style="stop-color:#F3903F"/>
		<stop  offset="0.8876" style="stop-color:#ED683C"/>
		<stop  offset="1" style="stop-color:#E93E3A"/>
	</linearGradient>
	<path class="st3" d="M312.44,408.54c3.65,4.47,10.23,5.14,14.7,1.49l59.85-48.84c4.47-3.65,5.14-10.23,1.49-14.7
		c-3.65-4.47-10.23-5.14-14.7-1.49l-59.85,48.84C309.46,397.49,308.79,404.07,312.44,408.54z"/>
	<linearGradient id="SVGID_5_" gradientUnits="userSpaceOnUse" x1="272.9019" y1="281.2467" x2="432.2868" y2="281.2467">
		<stop  offset="0" style="stop-color:#FFF33B"/>
		<stop  offset="0.0401" style="stop-color:#FEE72E"/>
		<stop  offset="0.1171" style="stop-color:#FED51B"/>
		<stop  offset="0.1964" style="stop-color:#FDCA10"/>
		<stop  offset="0.2809" style="stop-color:#FDC70C"/>
		<stop  offset="0.6685" style="stop-color:#F3903F"/>
		<stop  offset="0.8876" style="stop-color:#ED683C"/>
		<stop  offset="1" style="stop-color:#E93E3A"/>
	</linearGradient>
	<path class="st4" d="M399.09,222.51C370.81,162.56,306,89.69,291.56,72.05c-6.54-8-19.53-2.59-18.47,7.69
		c-0.27,1.61-0.17-9.98-0.17,198c0,9.87,11.6,13.09,17.79,8.2l61.9-48.86c4.53-3.58,5.3-10.15,1.73-14.67
		c-3.58-4.53-10.15-5.3-14.67-1.73l-45.85,36.2V107.22c24.95,29.88,66.04,81.1,86.38,124.2c28.59,60.6,52.06,145.19,1.52,204.06
		c-16.02,18.66-33.4,31.88-59.04,38.22c-5.6,1.38-9.02,7.05-7.64,12.65c1.39,5.6,7.06,9.02,12.65,7.63
		c29.89-7.39,51.02-22.91,69.88-44.89C443.34,395.78,443.86,317.42,399.09,222.51z"/>
</g>
</svg>
