<svg id="Layer_1" data-name="Layer 1" xmlns="http://www.w3.org/2000/svg" xmlns:xlink="http://www.w3.org/1999/xlink" viewBox="0 0 1000 1000"><defs><style>.cls-1{fill:url(#Новый_образец_градиента_60);}.cls-2{fill:url(#Новый_образец_градиента_60-2);}.cls-3{fill:url(#Новый_образец_градиента_60-3);}.cls-4{fill:url(#Новый_образец_градиента_60-4);}.cls-5{fill:url(#Новый_образец_градиента_60-5);}.cls-6{fill:url(#Новый_образец_градиента_60-6);}.cls-7{fill:url(#Новый_образец_градиента_60-7);}.cls-8{fill:url(#Новый_образец_градиента_60-8);}.cls-9{fill:url(#Новый_образец_градиента_60-9);}.cls-10{fill:url(#Новый_образец_градиента_60-10);}.cls-11{fill:url(#Новый_образец_градиента_60-11);}.cls-12{fill:url(#Новый_образец_градиента_60-12);}.cls-13{fill:url(#Новый_образец_градиента_60-13);}.cls-14{fill:url(#Новый_образец_градиента_60-14);}.cls-15{fill:url(#Новый_образец_градиента_60-15);}</style><linearGradient id="Новый_образец_градиента_60" x1="424.54" y1="696.99" x2="424.54" y2="87.11" gradientUnits="userSpaceOnUse"><stop offset="0" stop-color="#dddad9"/><stop offset="0" stop-color="#d4d2d0"/><stop offset="0.04" stop-color="#c5c3c4"/><stop offset="0.11" stop-color="#9e9da3"/><stop offset="0.15" stop-color="#85848e"/><stop offset="0.32" stop-color="#eeefef"/><stop offset="0.35" stop-color="#e0e0e1"/><stop offset="0.41" stop-color="#bab9bd"/><stop offset="0.48" stop-color="#7d7b83"/><stop offset="0.48" stop-color="#7c7a82"/><stop offset="0.62" stop-color="#9ea2aa"/><stop offset="0.7" stop-color="#c7cbcf"/><stop offset="0.78" stop-color="#eeefef"/><stop offset="1" stop-color="#7c7a82"/></linearGradient><linearGradient id="Новый_образец_градиента_60-2" x1="586.96" y1="696.99" x2="586.96" y2="87.11" xlink:href="#Новый_образец_градиента_60"/><linearGradient id="Новый_образец_градиента_60-3" x1="499.38" y1="696.99" x2="499.38" y2="87.11" xlink:href="#Новый_образец_градиента_60"/><linearGradient id="Новый_образец_градиента_60-4" x1="458.43" y1="410.87" x2="458.43" y2="410.87" xlink:href="#Новый_образец_градиента_60"/><linearGradient id="Новый_образец_градиента_60-5" x1="484.84" y1="696.99" x2="484.84" y2="87.11" gradientTransform="translate(466.6 -208.38) rotate(45)" xlink:href="#Новый_образец_градиента_60"/><linearGradient id="Новый_образец_градиента_60-6" x1="499.69" y1="696.99" x2="499.69" y2="87.11" xlink:href="#Новый_образец_градиента_60"/><linearGradient id="Новый_образец_градиента_60-7" x1="518.62" y1="696.99" x2="518.62" y2="87.11" gradientTransform="translate(482.07 1340.31) rotate(-135)" xlink:href="#Новый_образец_градиента_60"/><linearGradient id="Новый_образец_градиента_60-8" x1="406.29" y1="696.99" x2="406.29" y2="87.11" xlink:href="#Новый_образец_градиента_60"/><linearGradient id="Новый_образец_градиента_60-9" x1="393.92" y1="557.9" x2="393.92" y2="557.9" xlink:href="#Новый_образец_градиента_60"/><linearGradient id="Новый_образец_градиента_60-10" x1="442.09" y1="696.99" x2="442.09" y2="87.11" gradientTransform="translate(1130.51 594.71) rotate(135)" xlink:href="#Новый_образец_градиента_60"/><linearGradient id="Новый_образец_градиента_60-11" x1="596.92" y1="696.99" x2="596.92" y2="87.11" xlink:href="#Новый_образец_градиента_60"/><linearGradient id="Новый_образец_градиента_60-12" x1="553.36" y1="696.99" x2="553.36" y2="87.11" gradientTransform="translate(-189.86 537.06) rotate(-45)" xlink:href="#Новый_образец_градиента_60"/><linearGradient id="Новый_образец_градиента_60-13" x1="421.13" y1="696.99" x2="421.13" y2="87.11" xlink:href="#Новый_образец_градиента_60"/><linearGradient id="Новый_образец_градиента_60-14" x1="583.56" y1="696.99" x2="583.56" y2="87.11" xlink:href="#Новый_образец_градиента_60"/><linearGradient id="Новый_образец_градиента_60-15" x1="500" y1="696.99" x2="500" y2="87.11" xlink:href="#Новый_образец_градиента_60"/></defs><title>Oracle Real Estate</title><rect width="1000" height="1000"/><polygon class="cls-1" points="500 496.38 396.46 599.92 388.17 591.63 380.22 599.58 372.62 591.98 380.22 584.37 366.6 570.75 334.81 602.53 349.12 616.84 358.88 607.08 365.12 613.32 356.61 621.84 366.37 630.01 349.34 645 363.87 660.44 514.27 510.65 500 496.38"/><path class="cls-2" d="M672,363.66a25.41,25.41,0,0,0-44.66-16.61,31.9,31.9,0,1,0-47.14,43,28.3,28.3,0,0,0-7.29,33.43l-11.1,11.1-1.37-1.36A9.54,9.54,0,1,0,547,446.7l1.36,1.36-46.39,46.39,14.27,14.28,4.38-4.37,42.11-41.93,1,1a9.54,9.54,0,0,0,13.48-13.49l-.93-.93,10.88-10.83v-.67a28.23,28.23,0,0,0,32.52-6.79,31.9,31.9,0,0,0,42.87-47.18A25.41,25.41,0,0,0,672,363.66Zm-73.34,58.58a10.67,10.67,0,1,1,9.55-15.4,32.14,32.14,0,0,0,.89,6.93A10.68,10.68,0,0,1,598.66,422.24Zm5.11-39.51A14.19,14.19,0,1,1,618,368.54,14.2,14.2,0,0,1,603.77,382.73Zm36.33,37.7A14.23,14.23,0,0,1,627,411.77c0-.07,0-.13,0-.2a28.38,28.38,0,0,0-1-7.3,14.18,14.18,0,1,1,14,16.16Zm6.47-49.05a7.72,7.72,0,1,1,7.72-7.72A7.72,7.72,0,0,1,646.57,371.38Z"/><polygon class="cls-3" points="476.78 411.57 524.18 458.97 515.61 468.06 458.43 410.87 499.38 369.93 540.32 410.87 514.45 436.75 505.99 428.29 523.42 410.85 499.98 387.41 476.78 411.57"/><path class="cls-4" d="M458.43,410.87"/><rect class="cls-5" x="477.71" y="452.42" width="14.26" height="13.25" transform="translate(-182.59 477.28) rotate(-45)"/><polygon class="cls-6" points="522.96 620.46 469.01 565.52 477.84 556.16 541.87 621.18 499.69 663.36 457.5 621.18 484.16 594.52 492.88 603.23 474.91 621.2 499.06 645.35 522.96 620.46"/><rect class="cls-7" x="507.6" y="563.49" width="22.03" height="13.65" transform="translate(1288.62 606.87) rotate(135)"/><polygon class="cls-8" points="394.62 539.55 450.52 484.54 459.6 493.11 393.92 557.9 352.97 516.96 393.92 476.01 419.79 501.88 411.33 510.34 393.9 492.91 370.45 516.35 394.62 539.55"/><path class="cls-9" d="M393.92,557.9"/><rect class="cls-10" x="434.96" y="524.87" width="14.26" height="13.25" transform="translate(378.87 1219.92) rotate(-135)"/><polygon class="cls-11" points="603.5 493.37 556.79 541.25 547.43 532.42 604.22 474.46 646.4 516.64 604.22 558.83 577.56 532.17 586.28 523.46 604.24 541.42 628.39 517.27 603.5 493.37"/><rect class="cls-12" x="542.35" y="490.88" width="22.03" height="13.65" transform="translate(514.01 -245.51) rotate(45)"/><path class="cls-13" d="M359.9,438.14a31.82,31.82,0,0,0,20.5-7.46,28.23,28.23,0,0,0,32.52,6.79v.67L423.8,449l-.93.93a9.54,9.54,0,0,0,13.48,13.49l1-1L500,524.86l14.27-14.21-62.59-62.59L453,446.7a9.54,9.54,0,0,0-13.48-13.49l-1.37,1.36-11.1-11.1A28.3,28.3,0,0,0,419.8,390a31.9,31.9,0,1,0-47.14-43,25.42,25.42,0,1,0-35.13,36.45,31.9,31.9,0,0,0,22.37,54.64Zm41.44-15.9a10.68,10.68,0,0,1-10.44-8.47,32.14,32.14,0,0,0,.89-6.93,10.66,10.66,0,1,1,9.55,15.4Zm-5.11-67.89A14.19,14.19,0,1,1,382,368.54,14.21,14.21,0,0,1,396.23,354.35Zm-42.8,1.59a7.72,7.72,0,1,1-7.72,7.72A7.72,7.72,0,0,1,353.43,355.94ZM359.9,392a14.21,14.21,0,0,1,14,12.23,28.38,28.38,0,0,0-1,7.3c0,.07,0,.13,0,.2A14.19,14.19,0,1,1,359.9,392Z"/><polygon class="cls-14" points="619.78 584.37 627.38 591.98 619.78 599.58 611.83 591.63 603.54 599.92 516.2 512.58 501.93 526.79 636.13 660.44 650.66 645 633.63 630.01 643.39 621.84 634.88 613.32 641.12 607.08 650.88 616.84 665.19 602.53 633.4 570.75 619.78 584.37"/><path class="cls-15" d="M699.39,300.61V699.39H300.61V300.61H699.39M710,290H290V710H710V290Z"/><path class="cls-15" d="M691,309V691H309V309H691m2.13-2.13H306.88V693.12H693.12V306.88Z"/></svg>