<svg id="Layer_1" data-name="Layer 1" xmlns="http://www.w3.org/2000/svg" viewBox="0 0 442.15 431.31"><defs><style>.cls-1{fill:#fff;}.cls-2{fill:#d59f01;}.cls-3{fill:#00acff;}.cls-4{fill:#febf00;}.cls-5{fill:#030c29;}</style></defs><title>Mountain View</title><path class="cls-1" d="M681.41,557.92a198,198,0,0,0,5.23-45.29c0-105.33-82.2-190.72-183.59-190.72S319.46,407.3,319.46,512.63a198,198,0,0,0,5.23,45.29Z" transform="translate(-278.93 -284.35)"/><path class="cls-2" d="M714.78,557.92a221.56,221.56,0,0,0,6.29-52.5c0-122.1-99-221.07-221.07-221.07s-221.07,99-221.07,221.07a221.56,221.56,0,0,0,6.29,52.5Z" transform="translate(-278.93 -284.35)"/><path class="cls-3" d="M444.8,650.39c-11.58.32-23.15.56-34.72.83-12.78.31-25.55.68-38.33.87-8.62.13-17.23.5-25.84.78-.6,0-1.47-.31-1.73.45-.2.59.53,1,.94,1.36,4.41,4.05,8.77,8.16,13.42,11.94a5.57,5.57,0,0,0,3.61,1.27c13.58.27,27.16.5,40.74.91,12.41.38,24.82.65,37.23.88,11.31.2,22.62.63,33.93,1.15-1.06,0-2.11,0-3.17,0-16.35.32-32.71.54-49.07,1-12.19.34-24.38.59-36.57.9-5.33.13-10.66.26-16,.36-.48,0-1-.15-1.51.53a37.86,37.86,0,0,0,5.83,4.39c3.68,2.52,7.53,4.78,11.17,7.35,2.56,1.82,5.41,2.09,8.32,2.15,10.52.22,21,.27,31.55.58,13.07.38,26.14.6,39.21.91,12,.29,23.95.46,35.91.9,9.56.35,19.13-.12,28.67,1.09h-2.67c-11.1.18-22.2.23-33.3.57-12.41.37-24.82.57-37.23.88l-37.68.91-14.23.33a2.74,2.74,0,0,0-1.7.29c-.2.65.38.71.72.88a211.37,211.37,0,0,0,31.9,12.8,11.39,11.39,0,0,0,3.23.49c11,.17,21.92.24,32.87.56,13.36.39,26.72.79,40.08.87.19,0,.38.08.57.52l-60.46,1.37,0,.63c6.28,1.41,12.59,2.62,18.94,3.56h62.41A203.92,203.92,0,0,0,587,700.93c-.83-.93-1.68-.63-2.43-.64-10.08-.2-20.16-.25-30.24-.57-12.7-.4-25.4-.64-38.11-.88-11.31-.22-22.61-.65-33.93-1.16,1,0,1.94,0,2.9,0,9.94-.16,19.87-.22,29.8-.54,12.56-.39,25.11-.6,37.67-.89s24.82-.73,37.24-.84c3.06,0,6.12-.23,9.19-.38a4.4,4.4,0,0,0,1.7-.32,207.34,207.34,0,0,0,24.14-13.82c.16-.1.24-.33.45-.64a13.52,13.52,0,0,0-4.12-.57c-11.11-.18-22.21-.24-33.31-.57q-19.05-.58-38.11-.91c-3.49-.06-7-.3-10.54-.36.23-.45.59-.28.87-.28,11.17-.19,22.35-.25,33.52-.58,13-.37,26-.57,39-.94,5.91-.17,11.83-.22,17.74-.32a6.33,6.33,0,0,0,3.84-1.28c5.58-4.14,10.94-8.54,16.2-13.07.43-.37,1.11-.72.9-1.36s-1-.5-1.55-.51c-5.47-.14-11-.15-16.43-.36-10.43-.4-20.88-.31-31.32-.62-13.07-.39-26.14-.6-39.21-.92-12.12-.29-24.24-.53-36.36-.88-6.86-.2-13.73-.26-20.59-.4-.53,0-1.16.22-1.63-.36.64-.57,1.4-.31,2.07-.33,11.32-.19,22.65-.25,34-.59,12.26-.36,24.53-.57,36.79-.88,12.63-.31,25.26-.56,37.89-.88s25.26-.7,37.9-.85c2,0,4.08-.26,6.12-.34a3.2,3.2,0,0,0,2.32-1l.62-.66Z" transform="translate(-278.93 -284.35)"/><path class="cls-3" d="M710.76,568.74c-.73,0-1.46,0-2.19,0H294.21c-4.52,0-4.56,0-3,4.14,1.85,4.87,1.06,4.1,6,4.21,14.6.31,29.22.41,43.81,1,8.09.34,16.21-.19,24.27,1.07h-2.45c-11,.18-21.91.32-32.87.54s-22.05.56-33.07.84c-2.43.06-2.4.15-1.59,2.55,1.25,3.69,3.05,5.63,7.61,5.66,7.06,0,14.16.13,21.23.46,10.73.5,21.48.33,32.21.65,12.78.38,25.55.58,38.33.89s25.26.75,37.89.85c.6,0,1.29-.25,1.86.35-.82.59-1.71.33-2.54.34-11.18.2-22.36.25-33.53.59-12.48.38-25,.57-37.45.88s-25,.55-37.45.92c-6.5.19-13,.19-19.5.37-2.55.07-2.78.47-1.59,2.66,2.8,5.18,2.8,5.2,8.62,5.21,6,0,11.95,0,17.93,0v.89c-5.9,0-11.79,0-17.69,0-1.23,0-2.47.14-3.71.26-1,.09-1.28.64-.76,1.5q2.43,4,4.9,8c.68,1.12,1.82,1.06,2.92,1.09,6.42.18,12.85.1,19.28.38,9.62.43,19.27.38,28.91.58,13.8.28,27.61.52,41.4.94,11.46.35,22.92.6,34.39.87,7.52.17,15,.37,22.56.42.47,0,.94.12,1.83.23a4.49,4.49,0,0,1-2.67.46c-11.25.2-22.5.25-33.74.59-12.56.38-25.12.57-37.67.89-12.34.31-24.68.65-37,.85-10.81.18-21.61.53-32.41.83-.56,0-1.28-.25-1.6.37s.35,1,.6,1.54a1.88,1.88,0,0,0,.12.18c4.64,6.85,4.64,6.85,14.53,7.1,6.28.15,12.56.11,18.84.37,10.29.42,20.6.33,30.89.61,14,.39,28,.84,42.05,1.08-3,.17-5.95.44-8.93.48q-10.72.16-21.46.46c-16.14.44-32.28.56-48.42,1.06-5.33.16-10.66.22-16,.35-.63,0-1.46-.24-1.82.43s.43,1.14.83,1.61a45.79,45.79,0,0,1,3.4,4c1.66,2.54,3.84,3.25,6.83,3.28q21.48.22,42.94.89c11.38.33,22.77.58,34.16.84,13.58.32,27.16.6,40.74.93,12.05.28,24.1.54,36.14.88,6.71.19,13.43.22,20.14.41,62.94.12,76.33.22,69.44.31h80.42c1.64-1.75,3.29-3.49,4.93-5.25.23-.25.53-.63.49-.91-.09-.55-.67-.43-1.09-.45-2.47-.13-4.95-.31-7.43-.36-9.86-.2-19.72-.3-29.58-.54-14.52-.35-29-.9-43.57-1,3.68-.3,7.37-.38,11-.51,10-.34,20-.38,30-.58,13.29-.28,26.57-.75,39.86-.83,4.35,0,7.1-1.86,9.21-5.33.82-1.35,2.94-2.54,2.46-3.86s-2.76-.37-4.22-.66a15.84,15.84,0,0,0-2.83-.25c-10.45-.19-20.9-.25-31.34-.56-13-.39-26-.59-39-.92-12.27-.31-24.54-.51-36.8-.89-6.69-.21-13.39-.2-20.08-.51,5-.35,9.91-.3,14.86-.5,9.71-.4,19.43-.39,29.14-.59,13.87-.29,27.75-.52,41.62-.94,12-.37,24.09-.61,36.14-.89,5.47-.13,11-.32,16.42-.36a3,3,0,0,0,2.78-1.37c1.74-2.71,3.53-5.38,5.34-8,1.09-1.61.37-2-1.21-2a59.43,59.43,0,0,1-8.74-.41c2.9,0,5.81-.11,8.71,0a3.88,3.88,0,0,0,4.17-2.42,45.67,45.67,0,0,1,2.39-4.19c.87-1.4.29-1.78-1.1-1.8-4.46-.07-8.91-.17-13.36-.33-10-.37-20-.38-30-.58-13.72-.28-27.45-.5-41.18-.94-12.62-.41-25.24-.79-37.87-1,4.76-.39,9.54-.31,14.31-.52,9.19-.4,18.4-.39,27.6-.58,14.46-.3,28.92-.53,43.38-1,11.82-.36,23.65-.58,35.48-.87,9-.21,6.32.54,10.27-6.77.76-1.4.41-2-1.2-2-4.6-.09-9.2-.29-13.8-.4l-44.47-.94A8.94,8.94,0,0,1,644,586c.74-.06,1-.1,1.31-.11,9.12-.17,18.25-.3,27.38-.51,10.73-.24,21.46-.57,32.19-.82a2.53,2.53,0,0,0,2.69-1.73q2.28-5.93,4.72-11.8C713,569.37,712.5,568.68,710.76,568.74Z" transform="translate(-278.93 -284.35)"/><path class="cls-4" d="M385,537.38c.22.32.43.64.65,1h79.88c-1.68-3.43-5.17-4.44-7.1-7.83L502,508.05c-1.65-1.22-2.7-.54-3.74-.35-10,1.87-20.23,3.2-30.08,5.81-13.72,3.64-26.95,3.56-40.3-1.47-5.29-2-11-2.95-16.39-4.36C402.61,518.05,396.45,530,385,537.38Z" transform="translate(-278.93 -284.35)"/><path class="cls-4" d="M690.28,538c-1.95-2.91-4.14-4-5.94-5.52-5.86-4.92-12.54-8.82-17.64-14.69-7.13-8.2-14.67-16.06-21.64-24.38a21.88,21.88,0,0,0-12.75-7.58c-14.17-3.2-28.22-6.84-42.38-10.31-3.58-7.95-7.07-15.64-10.37-23,1-3.87,3.93-6.39,4.45-10.31L554.58,411c-.05,11.63-2,21.82,4.85,31.12l-20.14,9.53,25.2,31.38H535.77c-.07.41-.15.83-.22,1.24l26.66,11.24c-.12.56-.22,1.13-.34,1.7H535.13c0,.41,0,.83-.07,1.24l36.26,13c0,.48,0,1,.07,1.44L509.81,538Z" transform="translate(-278.93 -284.35)"/><path class="cls-4" d="M418.68,485.46c2.32,6.22,3.88,12,6.67,17.49,8.43,1,16.08,5.1,24.63,3.87,10.42-1.52,20.84-3,31.26-4.56,6.38-.95,12.74-2,19.73-3.09-4.81-11-9.27-21.15-13.91-31.78l-17-.75c-9.25-17.38-18.75-34.56-27.85-52.36-1.42,15.43-10,27.57-16.42,40.67-3,6.12-3.88,13.27-5.85,20.37l19.93,3.55c0,.35-.05.71-.06,1.05Z" transform="translate(-278.93 -284.35)"/><path class="cls-4" d="M317.09,511.55c7-2.17,14.37-4.08,21.47-6.81,6.12-2.37,12.33-4.36,18.57-6.26a8.88,8.88,0,0,0,3.75-2.11h0a9.67,9.67,0,0,0,2-3c3.47-7.72,7.21-15.32,10.66-23.05a16.09,16.09,0,0,1,6.31-7.54c11.15-6.84,21-15.56,32.45-22,1.62-.91,2.41-2.53,3.34-4q11.43-18.27,22.85-36.56c1.42-2.28,2.89-4.52,4.83-7.56,5.59,11,10.83,21.25,16.07,31.55S470,445,475.29,455.38h16l7.9,8.52c18-23,35.7-45.64,53.32-68.17,1.55-.15,2.06,1,2.78,1.74q25.25,25.92,50.43,51.92c2.09,2.17,4.33,3.79,7.32,4.13,14.85,1.73,26,9,35.36,20.78,9.76,12.38,21.17,23.45,31.85,35.09l16.46,15.92,22,12.17a221.57,221.57,0,0,0,2.33-32.06c0-122.1-99-221.07-221.07-221.07s-221.07,99-221.07,221.07a222.36,222.36,0,0,0,1.95,29.26Zm376.66-2.83h0a0,0,0,0,1,0,0h0Zm-4.32-.93v0ZM320.54,449.68h0l0,0h0a.06.06,0,0,0,0,0Zm-11.11-29.35s0,0,0,0,0,0,.05,0h-.07Zm-3.94,90.1,0,0h0Zm-4.37-66.57h0l.19-.13Z" transform="translate(-278.93 -284.35)"/><path class="cls-5" d="M417,373.09l3.06.67a9.53,9.53,0,0,1,4.29,2.35c1.86,1.69,2.19,3.9,1.89,6.23a13.16,13.16,0,0,1-1.69,4.89c-.14-.64-.24-1.14-.36-1.64a8.11,8.11,0,0,0-8.12-6.65,21.9,21.9,0,0,0-7.44,1.21l-.83.27c-.27-.48-.06-.91,0-1.33.62-6.15-1.88-10.76-7-14a28.06,28.06,0,0,0-11.39-3.8,82.76,82.76,0,0,0-9.47-.68c.66-.15,1.3-.31,2-.45s1.32-.3,2-.43a68.56,68.56,0,0,1,16.6-1.41c3.91.2,7.75.77,11.17,2.89,3.92,2.44,5.5,6.06,5.28,10.57A2.65,2.65,0,0,0,417,373.09Z" transform="translate(-278.93 -284.35)"/><path class="cls-5" d="M377.26,394.38a16.75,16.75,0,0,1,3.73-.95,49.62,49.62,0,0,1,10.8-1,18.86,18.86,0,0,1,8.87,2.05c3.08,1.75,4.36,4.48,4.32,7.94,0,.26,0,.53,0,.79a1.67,1.67,0,0,0,.08.33c2.76.59,5.64,1.17,6.69,4.35.72,2.18,0,4.23-1.06,6.36-.13-.57-.21-1-.3-1.39a6.18,6.18,0,0,0-6.13-4.9,13.32,13.32,0,0,0-4.52.66c-.52.18-1.06.3-1.59.45-.33-.68.11-1.21.1-1.8-.1-5.48-3-8.95-7.89-10.94a31.41,31.41,0,0,0-11.6-2Z" transform="translate(-278.93 -284.35)"/><path class="cls-5" d="M662.22,476.51c-9.73-3.89-13.73-13-10.52-24-6.11,3.56-8.93,9-10.05,15.56-1.82-5-1.09-9.69,1.2-14.2a19.61,19.61,0,0,1,7.9-8.19c.45-.26,1.17-.43,1.16-1,0-.8-.87-.77-1.41-.92a20.42,20.42,0,0,0-16.25,2c-.73.43-1.44.89-2.17,1.32-.05,0-.15,0-.43,0,.25-1.46,1.35-2.32,2.25-3.21a20.82,20.82,0,0,1,24.65-3.95c1.66.85,2.22.66,2.94-1.07a17.26,17.26,0,0,1,19.75-10.33c.43.09.94.08,1.13.9-3.91.51-7.65,1.5-10.63,4.27A13,13,0,0,0,668.3,438c5-2,9.78-2.8,14.69-1.5a19.47,19.47,0,0,1,11.72,8.29c-7.29-4.27-14.64-5-22.68-.85,10.3,4.14,15.48,11.28,15.26,22.27-1.15-.24-1-1-1.24-1.61-2.8-7.89-8.4-12.47-16.56-14-1.3-.24-2-.16-1.27,1.46a164.8,164.8,0,0,1,8.42,25.13c.25,1,.51,1.59,1.63.68A12,12,0,0,1,691.71,476c-1-2.15-1-2.15-6.35-5,2.9-1.45,7.86.19,9.64,3.85,1.34,2.75,2.6,3,5.35,2.24,4.77-1.25,10.07,1.54,12.25,6.26-3.55-2.53-6.94-3.79-11.11-2.54,1.92,1.91,3.88,3.53,4.72,6s1.23,4.8-.25,7.24c-.63-3.17-1.59-6.1-4.53-8.28.33,2.74.53,5.32-1,7.57a12.12,12.12,0,0,1-5.78,4.76c-.18-1.1.69-1.44,1.08-2a8.66,8.66,0,0,0,.19-9.76c-.34-.49-.61-1.19-1.35-1.07s-.73.74-.94,1.22a92.47,92.47,0,0,0-6.8,25.78c-.23,2.06-.41,4.13-.49,6.2a2.06,2.06,0,0,1-2,2.25,27.94,27.94,0,0,1-8.94-.39c-1.51-.23-1.69-1.31-1.63-2.57.21-4.53.24-9,.1-13.6a169.52,169.52,0,0,0-9.43-50.35c-.64-1.86-1.17-1.95-2.52-.55-6,6.25-6.32,14.89-.66,21.48A2.75,2.75,0,0,1,662.22,476.51Zm27.35,3a11.75,11.75,0,0,0-10.24-1,2.24,2.24,0,0,0-1.63,3c.64,2.85,1.24,5.71,1.71,8.59.65,4,1.27,8,1.71,12.08a118.69,118.69,0,0,1,.8,11.94,102.1,102.1,0,0,1,9.4-29.1c.74-1.47,0-1.62-1.14-1.4a11.6,11.6,0,0,0-8.18,5.81c-.32.56-.29,1.4-1.48,1.65C680.91,485.25,684.1,481.7,689.57,479.55Z" transform="translate(-278.93 -284.35)"/></svg>