<?xml version="1.0" encoding="utf-8"?>
<!-- Generator: Adobe Illustrator 23.0.6, SVG Export Plug-In . SVG Version: 6.00 Build 0)  -->
<svg version="1.1" xmlns="http://www.w3.org/2000/svg" xmlns:xlink="http://www.w3.org/1999/xlink" x="0px" y="0px"
	 viewBox="0 0 566.93 566.93" style="enable-background:new 0 0 566.93 566.93;" xml:space="preserve">
<style type="text/css">
	.st0{fill:url(#SVGID_1_);}
	.st1{fill:url(#SVGID_2_);}
	.st2{fill:url(#SVGID_3_);}
	.st3{fill:url(#SVGID_4_);}
	.st4{fill:url(#SVGID_5_);}
	.st5{fill:url(#SVGID_6_);}
</style>
<g id="BG">
</g>
<g id="graphics">
	<linearGradient id="SVGID_1_" gradientUnits="userSpaceOnUse" x1="309.6603" y1="161.3475" x2="51.9587" y2="420.6761">
		<stop  offset="0.1153" style="stop-color:#124278"/>
		<stop  offset="0.275" style="stop-color:#0074A6"/>
		<stop  offset="0.3432" style="stop-color:#026FA2"/>
		<stop  offset="0.4226" style="stop-color:#076195"/>
		<stop  offset="0.5071" style="stop-color:#0F4A7F"/>
		<stop  offset="0.5306" style="stop-color:#124278"/>
		<stop  offset="0.5509" style="stop-color:#124278"/>
		<stop  offset="0.6963" style="stop-color:#124278"/>
		<stop  offset="0.7077" style="stop-color:#10487D"/>
		<stop  offset="0.7559" style="stop-color:#095B8F"/>
		<stop  offset="0.8113" style="stop-color:#04699C"/>
		<stop  offset="0.8797" style="stop-color:#0172A4"/>
		<stop  offset="1" style="stop-color:#0074A6"/>
	</linearGradient>
	<path class="st0" d="M283.46,75.74c4.98,33.23,17.58,63.09,34.35,90.48C267.7,299.93,100.43,376.15,112.82,471.4
		c0,0-69.22-77.45,3.99-153.4c17.89-19.92,38.76-40.34,59.61-62.05C224.52,205.87,272.5,148.97,283.46,75.74z"/>
	<linearGradient id="SVGID_2_" gradientUnits="userSpaceOnUse" x1="132.242" y1="302.7691" x2="333.7242" y2="488.7527">
		<stop  offset="0" style="stop-color:#0074A6"/>
		<stop  offset="0.0949" style="stop-color:#026FA2"/>
		<stop  offset="0.2052" style="stop-color:#076195"/>
		<stop  offset="0.3229" style="stop-color:#0F4A7F"/>
		<stop  offset="0.3556" style="stop-color:#124278"/>
		<stop  offset="0.3849" style="stop-color:#124278"/>
		<stop  offset="0.5961" style="stop-color:#124278"/>
		<stop  offset="0.6113" style="stop-color:#10487D"/>
		<stop  offset="0.6754" style="stop-color:#095B8F"/>
		<stop  offset="0.7491" style="stop-color:#04699C"/>
		<stop  offset="0.84" style="stop-color:#0172A4"/>
		<stop  offset="1" style="stop-color:#0074A6"/>
	</linearGradient>
	<path class="st1" d="M325.47,491.19c-37.46-55.35-101.98-111.06-144.9-184.62c-6.72-11.52-17.48-31.6-4.15-50.62
		c-8.24,8.42-30.62,31.34-38.45,39.46c-12.99,13.46-16.4,33.78-7.57,50.27c30.28,56.51,70.74,102.49,111.06,145.52H325.47z"/>
	<linearGradient id="SVGID_3_" gradientUnits="userSpaceOnUse" x1="248.351" y1="152.7167" x2="511.8266" y2="417.1045">
		<stop  offset="0" style="stop-color:#0074A6"/>
		<stop  offset="0.078" style="stop-color:#026FA2"/>
		<stop  offset="0.1686" style="stop-color:#076195"/>
		<stop  offset="0.2652" style="stop-color:#0F4A7F"/>
		<stop  offset="0.2921" style="stop-color:#124278"/>
		<stop  offset="0.3121" style="stop-color:#124278"/>
		<stop  offset="0.4562" style="stop-color:#124278"/>
		<stop  offset="0.4766" style="stop-color:#10487D"/>
		<stop  offset="0.5628" style="stop-color:#095B8F"/>
		<stop  offset="0.6621" style="stop-color:#04699C"/>
		<stop  offset="0.7846" style="stop-color:#0172A4"/>
		<stop  offset="1" style="stop-color:#0074A6"/>
	</linearGradient>
	<path class="st2" d="M283.46,75.74c-3.38,22.59-10.29,43.62-19.63,63.37c-8.32,17.59-11.03,38.16-2.03,55.41
		c60.82,116.6,203.8,188.55,192.31,276.88c0,0,69.22-77.45-3.99-153.4c-38.23-42.57-90.09-87.46-126.24-142.23
		C304.1,145.79,289.02,112.87,283.46,75.74z"/>
	<linearGradient id="SVGID_4_" gradientUnits="userSpaceOnUse" x1="361.5645" y1="222.0193" x2="134.5556" y2="475.4668">
		<stop  offset="0" style="stop-color:#0074A6"/>
		<stop  offset="0.0883" style="stop-color:#026FA2"/>
		<stop  offset="0.1909" style="stop-color:#076195"/>
		<stop  offset="0.3003" style="stop-color:#0F4A7F"/>
		<stop  offset="0.3307" style="stop-color:#124278"/>
		<stop  offset="0.3508" style="stop-color:#124278"/>
		<stop  offset="0.4956" style="stop-color:#124278"/>
		<stop  offset="0.5145" style="stop-color:#10487D"/>
		<stop  offset="0.5945" style="stop-color:#095B8F"/>
		<stop  offset="0.6866" style="stop-color:#04699C"/>
		<stop  offset="0.8002" style="stop-color:#0172A4"/>
		<stop  offset="1" style="stop-color:#0074A6"/>
	</linearGradient>
	<path class="st3" d="M156.17,491.19c-11.57,0-21.75-9.12-19.81-20.53c12.72-74.55,125.68-140.95,183.96-239.14
		c6.77-11.41,15.54-32.68,3.56-55.76c7.19,13.05,29.37,39.25,37.33,48.37c12.28,14.06,16.16,34.24,7,50.5
		c-49.8,88.41-138.44,151.05-168.61,216.55H156.17z"/>
	<linearGradient id="SVGID_5_" gradientUnits="userSpaceOnUse" x1="243.282" y1="280.7944" x2="411.0312" y2="483.1876">
		<stop  offset="0" style="stop-color:#124278"/>
		<stop  offset="0.1573" style="stop-color:#0074A6"/>
		<stop  offset="0.2569" style="stop-color:#026FA2"/>
		<stop  offset="0.3728" style="stop-color:#076195"/>
		<stop  offset="0.4963" style="stop-color:#0F4A7F"/>
		<stop  offset="0.5306" style="stop-color:#124278"/>
		<stop  offset="0.5603" style="stop-color:#124278"/>
		<stop  offset="0.774" style="stop-color:#124278"/>
		<stop  offset="0.7825" style="stop-color:#10487D"/>
		<stop  offset="0.8183" style="stop-color:#095B8F"/>
		<stop  offset="0.8596" style="stop-color:#04699C"/>
		<stop  offset="0.9105" style="stop-color:#0172A4"/>
		<stop  offset="1" style="stop-color:#0074A6"/>
	</linearGradient>
	<path class="st4" d="M430.57,470.66c-11.6-68.01-106.63-129.24-167.45-214.01c-14.18,17.28-29.42,33.61-44.58,49.29
		c50.77,72.46,122.31,127.75,148.8,185.25h43.43C422.34,491.19,432.52,482.07,430.57,470.66z"/>
	<linearGradient id="SVGID_6_" gradientUnits="userSpaceOnUse" x1="398.4692" y1="357.2883" x2="303.6544" y2="458.485">
		<stop  offset="0" style="stop-color:#124278"/>
		<stop  offset="5.240675e-03" style="stop-color:#124379"/>
		<stop  offset="0.1031" style="stop-color:#0A598D"/>
		<stop  offset="0.2107" style="stop-color:#04689B"/>
		<stop  offset="0.3358" style="stop-color:#0171A3"/>
		<stop  offset="0.5177" style="stop-color:#0074A6"/>
		<stop  offset="0.6885" style="stop-color:#0171A3"/>
		<stop  offset="0.8045" style="stop-color:#04689B"/>
		<stop  offset="0.9039" style="stop-color:#0A598D"/>
		<stop  offset="0.994" style="stop-color:#11447A"/>
		<stop  offset="1" style="stop-color:#124278"/>
	</linearGradient>
	<path class="st5" d="M371.73,329.84c-27.1,40.29-59.63,75.28-88.27,108.32c15.67,18.08,30.19,35.58,42.01,53.04
		c32.14-34.3,64.36-70.47,91.45-112.36C403.78,362.85,388.19,346.65,371.73,329.84z"/>
</g>
</svg>
