<?xml version="1.0" encoding="utf-8"?>
<!-- Generator: Adobe Illustrator 23.0.6, SVG Export Plug-In . SVG Version: 6.00 Build 0)  -->
<svg version="1.1" xmlns="http://www.w3.org/2000/svg" xmlns:xlink="http://www.w3.org/1999/xlink" x="0px" y="0px"
	 viewBox="0 0 500 500" style="enable-background:new 0 0 500 500;" xml:space="preserve">
<style type="text/css">
	.st0{fill:#272525;}
</style>
<g id="BACKGROUND">
</g>
<g id="OBJECTS">
	<g>
		<g>
			<path class="st0" d="M392,191.18V108h-83.18L250,49.18L191.18,108H108v83.18L49.17,250L108,308.82V392h83.18L250,450.82
				L308.82,392H392v-83.18L450.83,250L392,191.18z M385.34,302.17l-2.76,2.76v3.9v73.77h-73.77h-3.9l-2.76,2.76L250,437.51
				l-52.16-52.16l-2.76-2.76h-3.9h-73.77v-73.77v-3.9l-2.76-2.76L62.49,250l52.17-52.16l2.76-2.76v-3.9v-73.77h73.77h3.9l2.76-2.76
				L250,62.49l52.16,52.16l2.76,2.76h3.9h73.76v73.76v3.9l2.76,2.76L437.51,250L385.34,302.17z M370.94,199.9v-70.84H300.1
				L250,78.96l-50.1,50.1h-70.85v70.85L78.95,250l50.1,50.1v70.85h70.85l50.1,50.1l50.1-50.1h70.85V300.1l50.1-50.1L370.94,199.9z
				 M410.23,247.18h-94.56c1.64-3.84,2.69-8.35,2.69-13.62c0-16.17-6.63-26.29-15.6-33.63l62.53-62.53v62.51v2.34l1.65,1.65
				L410.23,247.18z M299.46,302.76L362,365.3h-57.9L299.46,302.76z M268.43,284.15l-0.49-8.79h25.09l2.04,2.04
				c1.08,1.08,1.08,2.84,0,3.92l-1.76,1.76c-0.3,0.3-0.53,0.67-0.66,1.07H268.43z M207.87,284.15c-0.14-0.4-0.36-0.77-0.66-1.07
				l-1.76-1.76c-1.08-1.08-1.08-2.84,0-3.92l2.05-2.04h24.9l-0.41,8.79H207.87z M196.42,365.3h-58.2l62.86-62.86L196.42,365.3z
				 M236.16,275.36h12.07v8.79h-12.48L236.16,275.36z M251.99,248.84c6.31,0.92,11.28,6.33,11.43,12.93l0.54,9.82h-11.98V248.84z
				 M248.23,271.59h-11.89l0.46-9.88c0.14-6.54,5.12-11.95,11.43-12.87V271.59z M248.23,287.92v122.86c0,0.22,0.06,0.43,0.13,0.63
				l-17.74-17.74l4.96-105.75H248.23z M251.99,287.92h12.88l5.74,103.86c0.01,0.19,0.07,0.36,0.13,0.54l-18.82,18.82
				c0.02-0.12,0.07-0.23,0.07-0.35V287.92z M251.99,284.15v-8.79h12.18l0.49,8.79H251.99z M292.23,271.59h-24.49l-0.55-9.97
				c-0.19-8.57-6.84-15.65-15.19-16.59v-13c0-1.04-0.84-1.88-1.88-1.88c-1.04,0-1.88,0.84-1.88,1.88v13
				c-8.35,0.94-15,8.01-15.19,16.54l-0.47,10.01H208.3c-0.38-5.68-3.34-11-8.14-14.42c-5.63-4.01-12.35-11.37-12.35-23.62
				c0-24.61,16.32-32.74,33.6-41.34c10.05-5,20.44-10.18,27.27-18.81c0.44-0.56,1.03-0.64,1.35-0.67c0.06,0.01,0.13,0.02,0.19,0.02
				c0.54,0.04,1.03,0.28,1.36,0.71c6.4,8.41,16.78,13.56,26.82,18.54c17.64,8.76,34.31,17.03,34.31,41.55
				c0,12.25-6.72,19.61-12.35,23.62C295.57,260.59,292.61,265.91,292.23,271.59z M297.76,134.7h2.34h59.89l-61.81,61.81
				c-5.48-3.72-11.5-6.71-17.26-9.57c-9.9-4.91-19.24-9.55-24.84-16.91c-0.79-1.04-1.83-1.81-2.99-2.31v-77.7l43.02,43.02
				L297.76,134.7z M202.24,134.7l1.65-1.65l43.54-43.54v78.11c-1.23,0.47-2.34,1.2-3.18,2.27c-6.05,7.64-15.43,12.31-25.36,17.26
				c-5.91,2.94-12.09,6.02-17.66,9.93l-62.38-62.38h61.04H202.24z M133.05,203.9l1.65-1.65v-2.34v-61.37l62.03,62.03
				c-8.43,7.24-14.57,17.22-14.57,32.98c0,5.28,1.05,9.78,2.69,13.62H89.77L133.05,203.9z M89.77,252.82h98.2
				c2.68,3.89,5.93,6.82,8.92,8.95c3.46,2.47,5.61,6.31,5.82,10.37l-1.27,1.26c-3.28,3.28-3.28,8.63,0,11.91l0.85,0.85l-0.57,7.64
				l-67.02,67.02V300.1v-2.34l-1.65-1.65L89.77,252.82z M202.24,365.3h-0.16l5.74-77.38h23.97l-4.79,102.15l-23.11-23.11
				L202.24,365.3z M249.48,412.53c0.2,0.07,0.41,0.13,0.63,0.13c0.13,0,0.24-0.05,0.35-0.07l-0.46,0.46L249.48,412.53z
				 M296.1,366.95l-21.89,21.89l-5.58-100.92h24.06l5.74,77.38h-0.68L296.1,366.95z M366.95,296.11l-1.65,1.65v2.34v60.5
				l-66.47-66.47l-0.59-7.97l0.85-0.85c3.28-3.28,3.28-8.62,0-11.91l-1.26-1.26c0.22-4.06,2.36-7.9,5.82-10.37
				c2.99-2.13,6.24-5.06,8.92-8.95h97.67L366.95,296.11z M262.38,229.57c0,4.1-1.45,8.33-4.3,12.57c-0.58,0.86-1.75,1.09-2.61,0.51
				c-0.86-0.58-1.09-1.75-0.51-2.61c2.43-3.61,3.66-7.13,3.66-10.46c0-7.28-5.92-13.69-8.51-16.14c-2.58,2.45-8.51,8.86-8.51,16.14
				c0,3.34,1.24,6.88,3.69,10.5c0.58,0.86,0.35,2.03-0.51,2.61c-0.32,0.22-0.69,0.32-1.05,0.32c-0.6,0-1.2-0.29-1.56-0.83
				c-2.87-4.25-4.33-8.5-4.33-12.61c0-11.08,10.64-19.77,11.09-20.13c0.69-0.56,1.67-0.56,2.36,0
				C251.74,209.8,262.38,218.49,262.38,229.57z"/>
		</g>
	</g>
</g>
</svg>
