<?xml version="1.0" encoding="utf-8"?>
<!-- Generator: Adobe Illustrator 23.0.6, SVG Export Plug-In . SVG Version: 6.00 Build 0)  -->
<svg version="1.1" id="Layer_1" xmlns="http://www.w3.org/2000/svg" xmlns:xlink="http://www.w3.org/1999/xlink" x="0px" y="0px"
	 viewBox="0 0 2000 2000" style="enable-background:new 0 0 2000 2000;" xml:space="preserve">
<style type="text/css">
	.st0{fill-rule:evenodd;clip-rule:evenodd;fill:#231F20;}
</style>
<path class="st0" d="M1637.81,993.23c-3.56-3.61-7.15-7.29-10.1-11.39c-15.78-21.93-31.22-44.11-47.06-66.01
	c-17.85-24.69-40.54-43.6-68.56-55.84c-6.26-2.74-12.73-5.01-19.67-7.72c2.37-6.96,4.13-13.89,7.04-20.31
	c7.26-15.99,14.23-32.24,31.08-41.22c5.62-2.99,3.91-8.12,1.73-12.76c-2.13-4.55-5.36-6.17-10.51-4.96
	c-25.96,6.13-47.18-6.42-69.38-16.74c1.06-2.26,1.56-3.42,2.13-4.55c16.19-32.25,21.24-66.27,15.67-101.8
	c-4.57-29.19-9.65-58.29-14.46-87.44c-0.88-5.31,0.23-12.45-2.83-15.48c-3.08-3.05-10.2-1.91-15.52-2.79
	c-21.1-3.49-42.25-6.73-63.27-10.65c-28.76-5.37-57.6-9.27-86.45-1.98c-14.9,3.77-29.3,9.55-44.57,14.64
	c-2.93-6.15-6.75-12.81-9.38-19.92c-5.91-16-12.05-31.98-6.41-49.69c1.7-5.33-2.8-7.82-7.44-9.78c-4.94-2.09-8.33-0.92-11.17,3.22
	c-2.29,3.34-4.07,7.23-6.97,9.93c-15.3,14.24-34.11,21.64-54.15,27.38c-1.06-2.8-2.02-5.13-2.84-7.5
	c-7.95-23.03-19.73-44.1-37.82-60.31c-17.39-15.6-36.71-29.05-55.26-43.35c-15.29-11.8-30.75-23.4-46.02-35.22
	c-4.52-3.49-8.24-2.91-12.13,0.91c-3.62,3.55-7.24,7.22-11.33,10.16c-22.14,15.93-44.51,31.55-66.65,47.48
	c-21.68,15.6-38.91,35.24-51.08,59.04c-4.71,9.21-8.27,19.02-12.5,28.9c-6.65-2.29-13.37-4.03-19.59-6.84
	c-16-7.24-32.38-14.03-41.35-30.91c-2.94-5.54-7.94-4.44-12.68-2.18c-4.33,2.07-6.77,4.9-5.46,10.27c1.14,4.63,2.16,9.53,1.91,14.23
	c-1.07,20.07-9.23,37.81-18.7,55.27c-1.83-0.79-3.25-1.32-4.6-2c-27.53-13.92-56.86-20.36-87.38-16.91
	c-30.58,3.45-60.89,9.41-91.34,14.08c-6.22,0.95-12.56,1.4-18.85,1.47c-6.01,0.07-10.07,3.8-9.99,9.92c0.06,4.54,0.4,9.16-0.32,13.6
	c-3.67,22.62-7.25,45.26-11.59,67.76c-7.11,36.94-5.96,73.01,9.45,107.9c1.9,4.31,3.91,8.58,6.01,13.16
	c-7.15,3.43-13.38,6.98-20,9.5c-16.2,6.15-32.41,12.48-50.38,7.01c-5.43-1.65-8.06,2.23-10.09,6.96c-2.21,5.17-1.06,8.57,3.38,11.77
	c4.69,3.38,9.59,6.79,13.29,11.13c12.18,14.25,18.34,31.54,23.77,49.53c-2.03,0.86-3.82,1.75-5.7,2.39
	c-34.99,11.89-62.69,33.42-84,63.43c-8.27,11.65-16.39,23.4-24.92,34.86c-10.47,14.06-21.29,27.86-31.98,41.76
	c-3.5,4.54-2.38,8.33,1.38,12.13c3.56,3.61,7.15,7.29,10.1,11.39c15.78,21.93,31.28,44.07,47.04,66.01
	c15.43,21.48,34.76,38.66,58.26,50.82c9.44,4.88,19.49,8.59,29.88,13.1c-2.47,7.09-4.41,14.5-7.57,21.36
	c-7.13,15.51-14.17,31.17-30.52,39.82c-5.17,2.73-4,7.53-1.96,12.09c2.01,4.49,4.88,6.72,10.14,5.82c5.7-0.98,11.6-2.26,17.27-1.78
	c18.88,1.62,35.74,9.36,52.43,18.46c-0.7,1.69-1.17,3.09-1.83,4.4c-13.81,27.27-20.42,56.31-17.03,86.59
	c3.45,30.85,9.38,61.41,14.03,92.13c0.94,6.21,1.35,12.55,1.43,18.84c0.08,6.52,3.98,10.43,10.51,9.95
	c3.01-0.22,6.11-0.41,9.05,0.07c23.87,3.9,47.8,7.56,71.55,12.09c30.02,5.72,59.81,6.58,89.25-2.55
	c10.83-3.36,21.24-8.06,32.35-12.34c3.29,6.88,7.11,13.55,9.73,20.66c5.91,16,12,32,6.38,49.7c-1.71,5.39,2.88,7.78,7.49,9.74
	c4.96,2.11,8.32,0.89,11.15-3.25c2.28-3.34,4.05-7.24,6.95-9.93c15.31-14.22,34.13-21.61,54.16-27.37c0.94,2.55,1.76,4.67,2.51,6.8
	c7.24,20.7,18.2,39.12,32.61,55.73c17.33,19.97,39.91,33.17,60.73,48.69c15.48,11.55,30.78,23.34,46.06,35.17
	c4.52,3.49,8.22,2.91,12.11-0.92c3.62-3.56,7.27-7.19,11.37-10.14c21.93-15.79,44.07-31.29,66.02-47.04
	c21.49-15.41,38.77-34.66,50.97-58.15c5-9.63,8.81-19.89,14.06-31.95c15.13,7.61,30.33,14.61,44.81,22.88
	c5.47,3.12,10.08,8.65,13.59,14.05c3.71,5.7,7.2,7.92,13.71,5.07c6.6-2.89,7.74-7.29,5.24-13.57c-0.82-2.06-1.08-4.46-1.1-6.7
	c-0.2-21.94,8.71-40.96,18.74-59.88c1.88,0.81,3.3,1.35,4.65,2.02c32.28,16.11,66.29,21.14,101.82,15.5
	c28.67-4.55,57.28-9.55,85.92-14.27c5.59-0.92,13.29,0.49,16.31-2.69c3.33-3.51,2.35-11.08,3.31-16.87
	c3.99-23.86,7.57-47.8,12.11-71.56c6.96-36.41,5.97-71.99-8.82-106.51c-2.06-4.8-4.32-9.51-6.64-14.62
	c7.37-3.52,13.83-7.17,20.7-9.75c15.98-6,31.98-12.16,49.67-6.71c5.45,1.68,8.08-2.23,10.09-6.94c2.19-5.14,1.12-8.58-3.36-11.78
	c-4.7-3.36-9.62-6.76-13.32-11.11c-12.14-14.27-18.33-31.54-23.82-49.74c2.53-0.95,4.83-1.88,7.18-2.69
	c27.65-9.49,51.1-25.41,70.13-47.43c9.47-10.97,17.48-23.2,26.2-34.82c14.35-19.12,28.73-38.22,43.14-57.29
	C1642.63,1000.81,1641.58,997.04,1637.81,993.23z M1483.6,786.27c6.44,2.65,13.75,3.17,21.4,4.82
	c-22.12,26.74-27.6,60.8-40.79,91.49c-7.38,17.17-17.73,32.07-31.52,44.54c-1.67,1.51-5.49,1.98-7.74,1.22
	c-5.01-1.68-9.66-4.45-15.26-7.16c16.73-22.83,18.92-49.64,26.37-74.64c2.11-7.07,4.02-14.2,6-21.3c1.55-5.54,0.25-10.52-4.67-13.37
	c-22.92-13.25-45.87-26.47-69.16-39.07c-6.57-3.56-14.32-4.94-22.44-7.62c1.91-5.53,3.53-11.34,6.02-16.75
	c0.72-1.55,3.89-2.63,6.02-2.77c22.41-1.44,43.31,4.06,63.55,13.46C1441.9,768.67,1462.68,777.68,1483.6,786.27z M1561.84,981
	c-27.91-8.8-55.76-17.74-83.54-26.93c-6.11-2.02-11.82-5.24-17.73-7.91c0.18-0.93,0.36-1.87,0.54-2.8
	c21.63,1.58,43.69,1.13,64.73,5.51c12.15,2.53,23.78,11.56,33.61,20.04c9.9,8.54,17.27,20,26.09,30.6
	c-17.28,23.34-33.99,47.38-64.46,53.15c-16.6,3.14-34.02,1.97-51.08,2.7c-2.99,0.13-5.99,0.02-9.53-1.41
	c5.82-2.67,11.46-5.92,17.5-7.93c27.04-8.97,54.21-17.58,81.32-26.32c1.21-0.39,2.42-0.79,3.66-1.1c4.99-1.25,7.71-4.48,6.51-9.5
	c-1.32-5.49-5.71-7.03-10.78-5.62c-16.43,4.58-32.85,9.24-49.18,14.17c-43.45,13.09-82.5,36.12-123.41,54.96
	c-26.6,12.25-53.2,24.51-79.82,36.72c-2.5,1.15-5.12,1.99-8.13,3.15c-2.59-4.64-4.91-8.79-7.07-12.64
	c15.38-6.27,30.48-12.08,45.29-18.55c20.98-9.17,36.36-25.94,53.64-40.18c13.72-11.31,28.19-21.74,42.6-32.19
	c6.8-4.94,6.93-12.61,0.3-17.63c-17.45-13.18-35.66-25.61-51.63-40.43c-25.11-23.31-53.79-39.17-86.5-48.36
	c-1.18-0.33-2.33-0.76-3.39-1.11c-0.03-0.57-0.14-0.86-0.05-1.07c5.85-13.59,6.04-13.98,19.53-7.65
	c47.74,22.38,95.42,44.88,142.96,67.67c33.5,16.05,68.73,26.89,104.54,36.14c5.06,1.3,9.58,0.2,11.01-5.27
	C1570.95,985.26,1567.21,982.69,1561.84,981z M1410.63,1383.6c-13.6-26.2-27.13-52.44-40.39-78.81c-2.77-5.51-4.32-11.64-6.44-17.48
	c0.62-0.37,1.24-0.74,1.87-1.11c13.43,14.9,27.81,29.09,40.02,44.94c10.21,13.25,12.55,29.9,12,46.48
	c-0.35,10.42-1.66,20.83-3.07,31.18c-0.29,2.12-2.75,5.42-4.5,5.62c-21.45,2.5-43.25,7.11-64.13-1.67
	c-9.65-4.06-19.2-9.72-26.9-16.73c-10.99-10.03-20.24-21.97-29.08-31.81c10.41,4.47,23.43,9.37,35.83,15.56
	c18.89,9.44,37.35,19.76,55.99,29.71c0.67,0.36,1.32,0.77,1.96,1.18c4.66,3.01,9.35,3.62,12.59-1.61c3.34-5.39,0.31-9.28-4.47-11.82
	c-22.47-11.96-44.24-25.63-67.67-35.27c-36.44-14.98-74.05-27.11-111.1-40.61c-24.64-8.98-49.17-18.23-73.74-27.4
	c-2.58-0.96-5.04-2.25-8-3.58c1.34-4.93,2.59-9.52,3.97-14.59c10.2,4.78,20.04,9.35,29.85,13.99c25.3,11.98,52.56,13.07,79.79,15.11
	c18.21,1.36,36.3,4.46,54.38,7.23c7.96,1.22,13.96-3.68,13-11.28c-3.06-24.2-7.38-48.36-8.56-72.65
	c-1.54-31.66-11.07-60.37-26-87.77c-0.71-1.31-1.32-2.68-2.39-4.9c5.27-1.48,9.65-2.72,15.04-4.23c2.8,6.81,5.86,13.42,8.29,20.26
	c17.78,49.87,35.12,99.91,53.26,149.65c11.72,32.15,27.8,62.27,45.63,91.44c2.81,4.59,6.67,6.71,11.48,3.65
	C1414.38,1392.95,1413.14,1388.43,1410.63,1383.6z M1009.06,1569.51c5.51,1.22,8.19-2.11,9.81-7.21
	c8.9-28.14,17.9-56.25,27.15-84.28c1.97-5.97,5.11-11.55,9-17.17c0.13,1.51,0.4,3.03,0.38,4.54c-0.14,13.01-0.43,26.02-0.5,39.03
	c-0.12,23.39-10.07,42.34-26.68,57.99c-7.6,7.15-15.97,13.51-24.24,19.9c-1.56,1.21-5.19,2.05-6.34,1.14
	c-16.51-13.12-34.77-24.74-43.79-44.97c-3.37-7.57-6.95-15.69-7.45-23.75c-1.12-17.85-0.35-35.81-0.35-55.93
	c5.75,14.46,11.46,27.11,15.84,40.21c6.54,19.54,12.15,39.39,18.15,59.12c0.59,1.95,0.47,4.66,1.76,5.74
	c2.78,2.34,6.82,5.83,9.28,5.14c2.57-0.73,5.78-6.11,5.38-8.99c-1.18-8.53-4-16.82-6.18-25.2c-12.78-49.23-36.42-93.89-58.28-139.34
	c-14.79-30.75-28.61-61.97-42.85-92.98c-0.52-1.12-0.83-2.35-1.53-4.39c4.74-2.65,8.9-4.97,12.72-7.1
	c5.9,14.9,11.21,29.44,17.36,43.61c8.79,20.24,24.42,35.56,38.3,52.18c12.37,14.82,23.73,30.51,35.27,46.01
	c4.8,6.45,12.37,6.7,17.16,0.38c12.44-16.41,23.92-33.77,37.92-48.75c25.13-26.89,43.12-57.27,52.1-94.11
	c4.97,2.77,9.26,5.17,14.4,8.04c-5.95,13.43-11.4,26.56-17.5,39.38c-19.49,40.93-39.53,81.61-58.77,122.66
	c-14.76,31.47-24.68,64.68-33.13,98.33C1002.19,1563.8,1003.42,1568.27,1009.06,1569.51z M603.7,1409.19
	c3.36,5.16,7.82,4,12.69,1.46c26.19-13.62,52.44-27.14,78.81-40.4c5.53-2.78,11.66-4.34,17.52-6.46c0.36,0.63,0.73,1.26,1.09,1.88
	c-14.9,13.44-29.14,27.74-44.93,40.04c-12.79,9.96-28.98,12.28-44.97,12.05c-10.92-0.15-21.85-1.7-32.7-3.14
	c-2.12-0.28-5.46-2.74-5.64-4.48c-2.24-20.94-7.24-42.23,1.31-62.66c4.24-10.12,9.86-20.27,17.14-28.36
	c9.95-11.06,22.08-20.16,31.51-28.55c-4.3,10.03-9.27,23.31-15.57,35.92c-9.45,18.89-19.89,37.28-29.77,55.96
	c-1.38,2.61-3.31,5.95-2.68,8.34c0.69,2.61,4.17,6.4,6.25,6.28c3.11-0.17,7.37-2.57,8.88-5.29c11.72-21.14,24.77-41.83,33.84-64.11
	c15.83-38.86,29.04-78.78,43.48-118.2c8.49-23.19,17.2-46.29,25.86-69.41c1.05-2.81,2.4-5.51,3.79-8.67c5.01,1.36,9.61,2.61,14.73,4
	c-4.46,9.27-8.79,18.13-13,27.03c-11.83,24.96-14.18,51.73-16.02,78.82c-1.32,19.48-4.65,38.84-7.5,58.19
	c-1.17,7.9,3.84,13.91,11.44,12.94c23.95-3.05,47.85-7.35,71.9-8.5c32.18-1.53,61.4-11.1,89.18-26.49c1.08-0.6,2.26-1.03,4.17-1.89
	c1.5,5.27,2.75,9.65,4.28,15.06c-9.23,3.71-18.23,7.7-27.48,10.98c-47.5,16.89-95.19,33.25-142.55,50.51
	c-32.15,11.72-62.27,27.81-91.44,45.66C602.74,1400.51,600.57,1404.39,603.7,1409.19z M437.78,1018.88
	c28.14,8.89,56.25,17.89,84.27,27.14c5.95,1.97,11.51,5.12,17.04,9.15c-5.08,0-10.17,0.12-15.25-0.02
	c-12.99-0.36-26.01-0.45-38.97-1.36c-18-1.27-32.29-10.89-44.73-22.82c-8.41-8.07-15.24-17.81-22.48-27.03
	c-1.21-1.54-2.01-5.17-1.09-6.33c13.08-16.54,24.75-34.75,44.98-43.78c7.56-3.38,15.69-6.94,23.74-7.44
	c17.84-1.12,35.8-0.35,55.92-0.35c-14.47,5.76-27.13,11.46-40.23,15.84c-19.54,6.54-39.4,12.15-59.12,18.15
	c-1.7,0.52-3.43,0.98-5.15,1.45c-5,1.38-7.48,4.71-6.13,9.7c1.36,5.02,5.47,6.58,10.28,5.43c8.17-1.96,16.28-4.22,24.4-6.37
	c44.88-11.89,86.22-32.26,127.64-52.61c32-15.72,64.51-30.4,96.92-45.27c13.21-6.07,13.36-5.75,18.6,8.2
	c-14.4,5.71-28.94,11.06-43.14,17.2c-19.77,8.55-34.78,23.76-51.05,37.27c-15.25,12.66-31.26,24.41-47.16,36.28
	c-6.41,4.79-6.62,12.4-0.3,17.17c16.24,12.25,33.37,23.59,48.18,37.4c27.09,25.26,57.56,43.6,94.72,52.56
	c-2.93,5.26-5.25,9.41-8.08,14.5c-16.43-7.35-32.57-14.18-48.37-21.71c-37.94-18.08-75.58-36.81-113.63-54.66
	c-31.47-14.76-64.68-24.68-98.33-33.14c-5.12-1.29-9.49,0.22-10.74,5.71C429.25,1014.71,432.7,1017.28,437.78,1018.88z
	 M589.26,616.19c13.59,26.2,27.12,52.43,40.38,78.8c2.8,5.56,4.42,11.72,6.58,17.61c-0.71,0.47-1.42,0.93-2.13,1.4
	c-13.98-15.98-29.17-31.1-41.55-48.23c-9.52-13.17-11.25-29.85-10.19-46.2c0.61-9.4,1.64-18.8,3-28.12
	c0.32-2.19,2.58-5.66,4.25-5.85c21.45-2.43,43.25-7.19,64.15,1.58c9.65,4.05,19.25,9.64,26.94,16.65
	c10.36,9.47,19.16,20.64,28.49,31.24c1.17,0.37,2.34,0.75,3.49,1.15c-0.56,0.3-1.12,0.6-1.69,0.9c-0.61-0.68-1.2-1.37-1.81-2.05
	c-4.26-1.34-8.57-2.58-12.52-4.56c-25.94-12.99-51.73-26.28-77.57-39.48c-1.36-0.7-2.6-1.62-3.94-2.35
	c-4.68-2.54-9.01-2.41-11.77,2.62c-2.58,4.71-0.48,8.41,3.81,10.86c13.27,7.58,26.52,15.2,39.92,22.54
	c42.52,23.27,89.35,35.45,134.44,52.09c26.75,9.87,53.49,19.77,80.22,29.7c2.12,0.79,4.12,1.89,6.96,3.21
	c-1.51,5.17-2.82,9.72-3.98,13.67c-16.66-6.85-32.35-15.56-49.16-19.63c-20.12-4.88-41.2-5.74-61.85-8.46
	c-17.64-2.32-35.29-4.56-52.85-7.36c-8.37-1.33-14.27,3.67-13.21,11.75c3.08,23.69,7.33,47.35,8.42,71.14
	c1.48,32.47,11.17,61.92,26.69,89.92c0.48,0.87,0.84,1.82,1.68,3.65c-4.95,1.46-9.63,2.83-15.36,4.51
	c-7.18-18.92-14.53-37.31-21.14-55.95c-13.61-38.4-25.26-77.57-40.69-115.21c-12.7-30.97-29.66-60.2-44.84-90.15
	c-2.39-4.7-6.41-6.94-11.36-3.95C585.74,606.84,586.72,611.3,589.26,616.19z M991.27,430.58c-5.93-1.52-8.56,2.15-10.25,7.51
	c-8.81,27.89-17.74,55.74-26.92,83.51c-2.03,6.13-5.24,11.87-7.95,17.89c0-18.77-0.65-36.85,0.18-54.85
	c0.83-18.01,10.93-32.22,22.87-44.62c8.08-8.39,17.79-15.24,27.03-22.47c1.5-1.18,5.13-1.82,6.33-0.88
	c16.76,13.22,35.36,25.06,43.99,45.71c4.14,9.9,7.02,20.78,7.98,31.44c1.34,14.9,0.34,30,0.34,47.37
	c-3.44-7.22-6.64-12.5-8.54-18.21c-9-27.02-17.66-54.16-26.42-81.26c-0.39-1.21-0.73-2.44-0.99-3.68c-1.2-5.56-4.34-9.05-10.22-7.42
	c-6,1.66-6.34,6.53-4.93,11.77c2.04,7.62,4.04,15.26,6.02,22.9c12.67,48.97,36.17,93.38,57.89,138.58
	c14.33,29.83,27.89,60.02,41.77,90.07c1.05,2.28,1.82,4.69,3.05,7.91c-4.48,2.52-8.77,4.93-12.62,7.1
	c-6.33-15.53-12.16-30.66-18.65-45.5c-8.74-20-24.58-34.81-38.16-51.32c-11.94-14.51-23.06-29.72-34.25-44.84
	c-4.75-6.42-12.46-6.79-17.17-0.62c-13.44,17.57-25.97,36-40.92,52.19c-23.03,24.96-38.91,53.34-48,85.81
	c-0.39,1.39-0.98,2.73-1.69,4.7c-4.54-2.54-8.7-4.86-13.68-7.64c4.2-9.82,7.97-19.49,12.41-28.85
	c19.99-42.09,40.06-84.14,60.33-126.1c16.25-33.66,27.15-69.14,36.43-105.2C997.78,436.56,996.85,432,991.27,430.58z
	 M1396.34,590.84c-3.35-5.2-7.78-4.06-12.66-1.52c-26.42,13.71-52.91,27.31-79.51,40.68c-5.32,2.68-11.23,4.19-16.88,6.24
	c-0.4-0.64-0.79-1.29-1.19-1.93c15.11-13.55,29.47-28.09,45.56-40.34c13.05-9.94,29.49-12.26,45.83-11.68
	c10.42,0.37,20.83,1.67,31.18,3.07c2.14,0.29,5.51,2.66,5.72,4.38c2.51,21.45,7.15,43.25-1.61,64.14
	c-4.04,9.66-9.66,19.26-16.71,26.9c-10.13,10.98-22.22,20.15-31.42,28.29c3.9-9.14,8.66-21.94,14.71-34.09
	c9.55-19.13,19.97-37.82,30.03-56.69c0.24-0.45,0.53-0.87,0.81-1.3c3.01-4.73,4.6-9.73-1.14-13.28c-5.78-3.58-9.62,0.02-12.26,5
	c-11.8,22.26-25.27,43.84-34.85,67.02c-14.38,34.76-25.94,70.69-38.84,106.07c-9.51,26.07-19.23,52.07-28.9,78.08
	c-1.05,2.82-2.41,5.52-3.82,8.73c-4.96-1.35-9.55-2.61-14.72-4.02c4.24-8.79,8.25-17.21,12.34-25.59
	c13.2-27.04,15.09-56.19,16.94-85.55c1.1-17.7,4.36-35.29,7.14-52.85c1.25-7.92-3.57-13.96-11.27-12.99
	c-23.95,3.01-47.86,7.38-71.9,8.5c-32.21,1.5-61.42,11.07-89.21,26.44c-1.08,0.6-2.24,1.06-4.07,1.92
	c-1.47-4.93-2.82-9.43-4.47-14.96c6.91-2.82,13.55-5.84,20.38-8.27c49.64-17.69,99.89-33.86,148.79-53.38
	c31.77-12.68,61.64-30.14,92.29-45.6C1397.35,599.88,1399.47,595.71,1396.34,590.84z M1399.51,879.34
	c-20.91-13.66-31.38-16.96-62.3-19c0.66-1.03,1-1.92,1.62-2.47c17.75-15.34,25.2-35.92,29.62-58.04c0.99-4.96-0.74-8.71-5.92-9.85
	c-5.23-1.15-8.13,1.75-9.49,6.54c-2.23,7.82-3.95,15.83-6.79,23.41c-5.84,15.57-15.66,27.74-32.88,34.79
	c9.27-25.37,17.98-49.19,26.76-73.22c13.73,1.01,25.33,6.57,36.54,13.12c14.95,8.73,29.91,17.45,44.64,26.54
	c1.82,1.12,3.55,4.81,3.09,6.78c-4.47,18.82-8.86,37.7-14.45,56.2c-3.12,10.29-8.47,19.91-13.17,30.63
	c-24.84-11.53-48.02-22.29-71.32-33.1c8.93-5.72,22.4-7.48,35.74-2.85c10.23,3.55,19.89,8.86,29.56,13.85
	c5.01,2.59,10.02,5.85,13.98-0.35C1408.51,886.39,1404.46,882.58,1399.51,879.34z M1295.74,1009.61c4.77-6.89,4.63-12.64-0.16-19.45
	c-10.38-14.75-23.47-25.99-41.19-33.51c3.59-4.87,6.58-8.93,10.44-14.17c5.24,3.81,10.63,7.03,15.19,11.16
	c17.1,15.5,33.94,31.3,50.52,46.65c-20.88,18.65-42.68,38.13-65.08,58.14c-4.35-5.99-7.43-10.23-10.94-15.06
	C1271.88,1035.89,1285.32,1024.67,1295.74,1009.61z M1244.53,1030.24c-8.74-10.13-17.34-20.1-26.04-30.17
	c7.97-9.34,15.59-18.52,23.58-27.36c1.22-1.35,4.65-2.13,6.32-1.42c12.85,5.5,24.16,13.24,31.84,25.23
	c1.09,1.71,1.06,5.39-0.07,7.07C1271.53,1016.54,1259.24,1024.78,1244.53,1030.24z M1206.43,989.08
	c-5.75-4.44-10.99-8.48-16.2-12.49c0.04-0.57-0.11-1.25,0.14-1.47c17.23-14.97,26.86-34.98,36.57-54.95
	c1.33-2.73,3.15-5.22,4.72-7.83c3.85-6.38,1.53-12.01-5.68-14.1c-7.57-2.19-15.2-4.24-22.64-6.82c-16.72-5.8-33.71-9.7-52.33-7.8
	c0.94-7.62,1.73-14.1,2.66-21.67c43.75,0.71,86.06,8.33,128.69,21.01C1261.62,922.12,1236.54,957.31,1206.43,989.08z M1189,1217.16
	c24.2-0.23,27.98-4.74,28.36-29.15c0.1-6.57-0.35-13.23-1.35-19.72c-0.96-6.21-2.97-12.26-4.64-18.86
	c18.16-3.69,18.98-3.02,19.6,14.95c0.8,23.34,1.63,46.67,2.43,69.5c-17.08-0.93-35.51-1.93-53.95-2.91
	c-8.12-0.43-16.25-0.65-24.36-1.2c-6.58-0.45-9.72-3.47-7.25-10.49c0.83-2.35,0.88-4.96,1.11-6.33
	C1162.54,1214.47,1175.78,1217.29,1189,1217.16z M1151.84,1190.43c0.59-11.88,1.72-23.73,2.7-35.89
	c12.13-0.98,23.97-2.11,35.85-2.71c1.83-0.09,4.81,1.83,5.51,3.54c5.26,12.94,7.89,26.36,4.71,40.26c-0.45,1.98-2.95,4.51-4.93,4.96
	c-13.9,3.21-27.32,0.57-40.26-4.69C1153.7,1195.21,1151.74,1192.24,1151.84,1190.43z M1144.21,1096.1
	c9.55-2.63,18.03-3.86,25.54-7.23c19.37-8.69,20.56-11.71,13.21-31.48c-2.87-7.71-8.04-14.56-12.17-21.8
	c0.25-0.77,0.51-1.54,0.77-2.32c2.54,1.03,5.47,1.56,7.55,3.18c13.23,10.31,21.02,24.6,28.17,39.32c1.88,3.88,3.82,7.72,6.14,12.38
	c-20.76,7.8-41.08,15.39-63.5,12.59C1148.12,1100.53,1146.6,1098.12,1144.21,1096.1z M1106.85,1032.79
	c12.05-7.81,24.2-15.82,36.51-23.59c7.97-5.04,7.87-13.38-0.21-18.48c-12.15-7.67-24.15-15.59-37.5-24.24
	c2.6-0.68,5.08-2.03,7.44-1.84c30.75,2.39,56.84,15.55,80.56,34.52C1176.67,1020.46,1116.71,1042.72,1106.85,1032.79z
	 M1028.68,1248.53c-5.42,12.6-13.24,23.4-24.51,31.61c-3.38,2.46-5.59,2.03-8.68-0.25c-11-8.09-18.76-18.67-23.97-31.08
	c-0.8-1.91,0.37-5.88,2.02-7.4c8.41-7.77,17.27-15.04,26.45-22.9c9.39,8.01,18.59,15.64,27.42,23.65
	C1028.74,1243.37,1029.41,1246.84,1028.68,1248.53z M1043.39,1254.54c4.73,3.43,8.96,6.51,14.44,10.49
	c-4.76,6.12-8.88,12.16-13.75,17.52c-14.68,16.19-29.66,32.11-44.36,47.97c-18.53-20.72-38-42.48-58.15-65.01
	c6.04-4.46,10.1-7.46,14.88-10.98c7.69,17,18.48,30.8,33.69,40.93c8.24,5.49,11.6,5.49,20-0.19
	C1025.1,1285.14,1035.95,1271.63,1043.39,1254.54z M967.23,1106.82c8.36,13.01,16.49,25.78,24.75,38.46
	c3.56,5.47,12.55,5.39,16.13-0.12c8.24-12.7,16.35-25.47,25.17-39.22c0.68,2.47,2.17,5.2,2.06,7.87
	c-0.9,20.87-8.97,39.53-18.93,57.39c-4.42,7.91-10.11,15.1-15.26,22.67C979.78,1177.22,957.28,1116.71,967.23,1106.82z
	 M827.17,1087.63c4.34,2.02,9.04,3.33,13.67,4.62c4.36,1.22,8.85,1.99,13.27,2.96c0.31,0.95,0.62,1.9,0.94,2.84
	c-2.81,1-5.55,2.6-8.43,2.91c-21,2.24-39.89-5.74-60-12.55c9.56-19.72,17.93-39.58,35.71-53.23c1.62-1.25,4.42-0.96,7.52-1.54
	c-5.31,10.11-10.56,18.25-14,27.09C810.11,1075.5,812.68,1080.88,827.17,1087.63z M784.04,1201.71c1.79,9.48,4.74,12.48,14.13,14.24
	c17.71,3.32,34.91,1.66,51.58-4.92c0.66,0.82,1.16,1.15,1.23,1.56c3.09,16.61,2.16,17.74-15.2,18.36
	c-23.35,0.84-46.71,1.64-70.06,2.46c0.99-12.9,2.31-27.22,3.1-41.57c0.6-10.91-0.07-21.92,0.9-32.78
	c1.13-12.59,1.64-12.54,13.82-10.68c1.49,0.23,2.98,0.43,5.73,0.83C782.57,1166.81,780.7,1183.99,784.04,1201.71z M804.05,1155.65
	c0.76-1.84,4.04-3.86,6.06-3.77c11.64,0.54,23.26,1.68,35.36,2.66c0.98,12.06,2.13,23.44,2.61,34.84c0.09,2.21-1.99,5.77-3.97,6.6
	c-12.64,5.33-25.87,7.77-39.49,4.63c-2.12-0.49-4.79-3.29-5.28-5.46C796.26,1181.52,798.85,1168.32,804.05,1155.65z M806.4,999.53
	c14.62-13.03,31.34-22.45,49.88-28.31c9.85-3.11,20.19-4.73,30.4-6.52c2.39-0.42,5.14,1.24,7.54,1.89
	c-13.22,8.51-25.46,16.51-37.82,24.31c-7.61,4.8-7.62,13.4-0.02,18.18c12.37,7.79,24.62,15.78,37.41,23.99
	c-1.44,0.62-3.48,2.15-5.61,2.3C866.88,1036.81,821.67,1017.04,806.4,999.53z M828.31,783.38c-11.09-0.56-22.31,0.26-33.39,1.42
	c-6.56,0.69-9.58,5.86-10.73,12.26c-2.88,16.08-2.45,31.91,2.9,47.47c0.64,1.87,1.06,3.82,1.61,5.81c-1.03,0.42-1.68,0.83-2.38,0.95
	c-14.97,2.59-16.4,1.77-17.14-13.61c-1.17-24.05-1.76-48.13-2.56-71.08c23.09,0.83,47.42,1.36,71.71,2.68
	c15.74,0.85,16.35,2.37,12.04,19.26C843.03,786.73,835.73,783.75,828.31,783.38z M848.08,810.45c-0.45,11.42-1.62,22.81-2.6,35.03
	c-12.22,0.98-24.08,2.11-35.96,2.7c-1.8,0.09-4.74-1.91-5.44-3.64c-5.27-12.94-7.83-26.38-4.67-40.28c0.44-1.96,3.03-4.42,5.02-4.88
	c13.63-3.13,26.85-0.69,39.52,4.55C845.96,804.76,848.17,808.26,848.08,810.45z M855.14,902.47c-0.2,0.71-0.4,1.42-0.6,2.13
	c-5.58,1.24-11.34,1.99-16.73,3.8c-27.49,9.26-30.27,15.22-17.38,41.33c2.46,4.98,5.97,9.44,9.08,14.26
	c-2.84,4.21-5.28,2.48-8.5-0.11c-16.9-13.63-24.86-33-34.43-52.22c20.51-7.31,40.38-15.12,62.37-12.57
	C851.11,899.37,853.08,901.31,855.14,902.47z M971.48,751.18c5.27-12.38,13-22.96,23.98-31.07c3.11-2.29,5.32-2.76,8.69-0.3
	c11.26,8.21,19.1,18.99,24.52,31.59c0.73,1.69,0.08,5.16-1.24,6.36c-8.83,8.02-18.02,15.65-27.47,23.72
	c-9.36-8.02-18.39-15.48-27-23.39C971.49,756.76,970.7,753.02,971.48,751.18z M966.65,727.48c-3.88,5.3-6.79,11.31-10.57,17.76
	c-4.54-3.38-8.59-6.39-13.39-9.97c2.8-4.22,4.97-8.58,8.12-12.06c16.52-18.23,33.28-36.23,49.47-53.79
	c18.76,21.03,38.23,42.85,58.09,65.1c-5.9,4.34-9.97,7.33-13.13,9.65c-8.53-10.74-15.89-22.06-25.26-31.35
	c-17-16.87-22.41-16.46-40.14-0.08C975.02,717.22,970.53,722.19,966.65,727.48z M1032.77,893.26
	c-8.17-12.73-16.22-25.24-24.22-37.79c-4.05-6.35-12.93-6.46-16.98-0.16c-8.04,12.52-16.1,25.04-24.81,38.58
	c-0.67-2.54-2.2-5.45-2.06-8.28c1.02-20.58,8.98-39.01,18.81-56.65c4.42-7.93,10.1-15.17,15.22-22.73
	C1019.43,821,1042.56,882.55,1032.77,893.26z M1053.12,963.62c10.99,0,22.08,0,34.69,0c-9.4,7.91-17.97,15.12-26.98,22.71
	C1052.12,980.21,1051.09,977.83,1053.12,963.62z M1052.44,923.02c0.02-1.07,0.74-2.71,1.58-3.08c11.52-5.1,22.95-10.67,39.16-10.75
	c-4.63,13.25-8.53,24.69-12.73,36.01c-0.43,1.17-2.66,2.32-4.09,2.37c-7.6,0.23-15.21,0.11-23.99,0.11
	C1052.36,939.11,1052.3,931.06,1052.44,923.02z M1062.42,1012.56c8.41,7.58,16.67,15.01,24.93,22.44c-0.36,0.52-0.71,1.04-1.06,1.56
	c-10.91,0-21.81,0-32.66,0C1050.22,1024.34,1052.01,1019.89,1062.42,1012.56z M1052.2,1066.71c0.78-4.37,0.13-9,0.13-14.37
	c8.69,0,16.51-0.09,24.33,0.09c1.25,0.03,3.17,0.95,3.6,1.96c4.82,11.39,10.52,22.57,10.46,37.77c-9.42-2.7-17.92-5.42-26.55-7.55
	C1054.51,1082.23,1050.37,1076.84,1052.2,1066.71z M1075.17,1000.22c6.52-5.88,12.89-11.63,20.93-18.87
	c9.36,4.81,21.09,10.83,32.82,16.86c-0.17,1-0.34,2.01-0.51,3.01c-5.61,3.44-11.05,7.22-16.88,10.23
	c-5.61,2.9-11.63,5.01-16.96,7.26C1088,1012.45,1081.62,1006.37,1075.17,1000.22z M1098.23,949.2c3.54-15.94,6.78-30.58,10.04-45.21
	c1.55-6.93-4.43-13.95-11.16-12.55c-14.84,3.08-29.6,6.52-45.48,10.06c1.14-2.12,1.97-5.36,4.04-7.24
	c14.25-12.96,31.61-20.3,49.71-25.75c10.09-3.03,20.65-4.49,32.37-6.94c-3.54,31.91-12.55,59.3-31.89,82.6
	C1104.07,946.33,1100.99,947.43,1098.23,949.2z M1043.17,848.67c-0.43-1.71,0.56-4.84,1.93-5.75c6.52-4.33,13.34-8.24,20.19-12.05
	c3.9-2.17,6.98-0.97,8.2,3.44c2.08,7.56,4.16,15.12,5.72,22.79c0.32,1.56-1.2,4.37-2.68,5.26c-8.42,5.09-17.09,9.77-25.48,14.48
	C1048.41,867.63,1045.55,858.21,1043.17,848.67z M1043.26,1150.94c2.32-9.3,5.11-18.49,7.75-27.78c8.52,4.78,16.97,9.34,25.2,14.28
	c1.54,0.93,3.32,3.6,3.02,5.07c-1.6,7.92-3.72,15.73-5.88,23.52c-1.13,4.07-4.23,5.17-7.72,3.24c-7.07-3.91-14.06-8.03-20.77-12.52
	C1043.56,1155.89,1042.82,1152.7,1043.26,1150.94z M1100.84,849.4c-0.24,2.02-2.45,3.81-4.66,7.06c-2.59-9.83-3.67-17.79-6.73-24.9
	c-8.91-20.66-12.41-22.31-33.52-13.87c-7.18,2.87-13.58,7.69-22.38,11.01c0.96-2.66,1.33-5.77,2.97-7.89
	c10.63-13.68,25.6-21.37,40.7-28.82c3.4-1.68,6.82-3.32,11.03-5.37C1095.79,807.16,1103.42,827.23,1100.84,849.4z M1000.21,1074.29
	c6.55,7.08,12.39,13.4,19.1,20.65c-5.51,10.72-11.45,22.29-17.39,33.87c-1.13,0.09-2.26,0.19-3.4,0.28
	c-6.12-11.6-12.24-23.2-17.88-33.9C987.43,1087.94,993.47,1081.49,1000.21,1074.29z M963.51,1086.3c0-10.87,0-21.92,0-32.97
	c10.68-3.49,18.43,0.12,24.04,8.86C979.73,1070.04,971.81,1077.97,963.51,1086.3z M1012.47,1062.44
	c8.03-10.63,8.38-10.78,23.65-9.74c0,11.18,0,22.43,0,36.36C1027.35,1079.18,1019.95,1070.85,1012.47,1062.44z M1032.01,1019.1
	c-8.04,5.87-11.46,19.34-24.27,17.13c-9.08-1.56-20.1,5.39-27.11-4.47c-5.76-8.1-19.29-11.46-16.88-24.42
	c1.69-9.04-5.32-20.01,4.74-27.04c7.97-5.57,11.23-17.9,25.09-16.81c7.47,3.67,18.81-5.46,25.83,4.75
	c5.52,8.05,19.02,11.16,16.8,23.65C1034.59,1001.01,1041.71,1012.02,1032.01,1019.1z M999.62,925.35
	c-6.17-6.71-12.01-13.05-18.89-20.53c5.43-10.44,11.51-22.13,17.59-33.81c1.1,0,2.21,0,3.31-0.01
	c6.05,11.52,12.09,23.04,18.03,34.36C1012.9,912.1,1006.64,918.35,999.62,925.35z M1036.54,911.17c0,13.52,0,24.44,0,35.29
	c-12.41,3.23-17.05,1.33-23.61-8.41C1020.5,929.43,1027.82,921.09,1036.54,911.17z M986.33,939.21c-7.46,9.21-8.53,9.65-22.73,7.71
	c0-10.99,0-22.08,0-34.79C971.52,921.56,978.72,930.14,986.33,939.21z M933.77,814.37c-10.11-3.49-13.21-2.3-18.04,7.3
	c-5.07,10.08-8.26,21.11-13.26,34.34c-1.42-3.73-3.11-6.42-3.41-9.25c-1.73-16.13,2.54-31.33,7.73-46.34
	c1.49-4.32,3.02-8.62,4.83-13.77c19.77,9.54,39.68,17.98,53.31,35.86c1.19,1.56,0.75,4.36,1.03,6.35
	C954.44,823.57,944.42,818.05,933.77,814.37z M948.98,1123.13c2.63,9.21,5.49,18.62,7.87,28.15c0.42,1.7-0.58,4.82-1.95,5.73
	c-6.51,4.34-13.31,8.28-20.16,12.09c-3.86,2.16-6.99,1.02-8.21-3.42c-2.08-7.56-4.17-15.12-5.74-22.8
	c-0.32-1.55,1.18-4.36,2.64-5.24C931.86,1132.56,940.53,1127.88,948.98,1123.13z M948.96,876.82c-8.48-4.76-16.94-9.32-25.16-14.26
	c-1.55-0.93-3.34-3.6-3.04-5.07c1.61-7.91,3.73-15.73,5.9-23.52c1.12-4.04,4.17-5.23,7.7-3.27c7.07,3.92,14.05,8.03,20.77,12.52
	c1.31,0.88,2.07,4.06,1.63,5.81C954.43,858.34,951.62,867.52,948.96,876.82z M944.43,894.38c2.04,1.87,3,4.92,4.38,7.28
	c-15.84-3.53-30.57-6.86-45.32-10.07c-6.83-1.48-13.36,4.99-11.89,11.8c3.19,14.79,6.54,29.56,10.04,45.34
	c-2.34-1.38-5.73-2.39-7.61-4.65c-17.04-20.51-26.07-44.55-30.3-70.6c-0.53-3.24-0.74-6.53-1.32-11.74
	c11.11,2.28,21.59,3.7,31.62,6.64C912.43,873.77,930.01,881.2,944.43,894.38z M946.88,1036.38c-11.24,0-22.29,0-34.68,0
	c9.14-8.13,17.39-15.47,26.35-23.43C945.88,1017.1,949.95,1024.78,946.88,1036.38z M947.58,1077.04c-0.02,1.05-0.77,2.69-1.62,3.06
	c-11.56,4.94-22.87,10.91-36.55,10.5c-0.42-13.67,5.61-24.97,10.53-36.53c0.4-0.95,2.47-1.64,3.78-1.67
	c7.6-0.15,15.2-0.07,23.93-0.07C947.65,1060.95,947.71,1068.99,947.58,1077.04z M904.35,1018.91c-9.88-5.1-21.61-11.15-33.34-17.2
	c0-1.12,0-2.23,0-3.34c11.53-6.04,23.06-12.07,33.48-17.53c7.33,7.06,13.68,13.17,20.43,19.68
	C918.64,1006.12,912.23,1011.85,904.35,1018.91z M937.79,987.47c-8.57-7.64-16.85-15.04-26.62-23.76c13.19,0,24.21,0,35.67,0
	C950.06,974.93,946.23,982.76,937.79,987.47z M906.93,909.39c16.04-0.31,27.18,5.44,38.54,10.28c1.04,0.44,2.06,2.3,2.09,3.52
	c0.19,7.83,0.1,15.67,0.1,24.49c-8.54,0-16.36,0.12-24.16-0.11c-1.4-0.04-3.55-1.3-3.99-2.5
	C915.33,933.75,911.45,922.34,906.93,909.39z M894.84,1055.12c1.4-1.99,4.58-2.72,6.8-3.96c-3.39,15.53-6.51,30.01-9.73,44.46
	c-1.68,7.56,4.08,14.39,11.29,12.86c14.81-3.14,29.57-6.54,45.46-10.08c-1.38,2.34-2.38,5.63-4.58,7.52
	c-17.81,15.27-38.94,23.65-61.53,28.71c-6.17,1.39-12.5,2.05-19.93,3.23c1.42-21.04,6.42-39.82,15.73-57.24
	C883.11,1071.7,889.01,1063.38,894.84,1055.12z M899.08,1152.17c0.27-2.49,2.27-4.8,3.46-7.2c0.59,0.29,1.18,0.58,1.77,0.87
	c2.23,8.05,3.5,16.53,6.88,24.06c8.7,19.36,11.78,20.21,30.95,13.27c7.78-2.82,14.68-8.05,21.98-12.18
	c0.78,0.16,1.56,0.31,2.33,0.47c-0.89,2.51-1.2,5.46-2.75,7.46c-10.28,13.3-24.57,21.16-39.35,28.29c-4.09,1.97-8.13,4.05-12.62,6.3
	C904.51,1193.21,896.76,1173.72,899.08,1152.17z M1066.06,1185.71c7.86,3.2,14.72,1.09,18.26-7.13c3.39-7.87,6.19-15.99,9.01-24.09
	c0.98-2.81,1.25-5.86,1.83-8.79c0.84-0.24,1.7-0.48,2.54-0.72c1.12,2.65,2.95,5.22,3.24,7.95c2.3,21.26-5.7,40.38-12.6,60.55
	c-19.32-9.7-38.64-17.44-51.84-34.35c-1.65-2.1-2-5.2-3.13-8.33C1045.48,1176.38,1055.6,1181.46,1066.06,1185.71z M1056.43,1106.43
	c-2.37-1.92-3.66-5.16-5.67-8.1c15.83,3.42,30.26,6.49,44.66,9.69c7.65,1.7,14.58-3.87,13.08-11.01
	c-3.11-14.82-6.51-29.57-10.03-45.42c2.1,1.14,5.39,1.97,7.21,4.08c15.58,17.93,23.88,39.39,29.02,62.22
	c1.38,6.12,1.96,12.42,3.08,19.83C1106.82,1134.32,1079.67,1125.35,1056.43,1106.43z M1179.53,916.28
	c-10.84-4.67-21.96-8.7-34.32-13.54c2.05-1.19,4.2-3.38,6.56-3.65c21.73-2.44,41.35,5.41,61.68,12.61
	c-9.64,19.12-17.43,38.67-34.56,52.01c-2,1.56-4.97,1.87-7.88,2.9c5.67-12.63,10.79-23.04,15.01-33.81
	C1188.75,925.88,1186.82,919.41,1179.53,916.28z M1215.96,798.26c-1.77-9.45-4.75-12.43-14.16-14.21
	c-17.72-3.34-34.91-1.65-51.41,4.87c-0.76-0.83-1.3-1.14-1.37-1.54c-3.09-16.35-2-17.69,15.24-18.33
	c23.35-0.86,46.69-1.65,70.02-2.47c-0.99,12.93-2.33,27.25-3.11,41.61c-0.58,10.66,0.15,21.42-0.77,32.04
	c-1.15,13.3-1.62,13.26-14.73,11.29c-1.24-0.19-2.47-0.4-4.9-0.79C1217.48,833.15,1219.27,815.97,1215.96,798.26z M1195.9,844.52
	c-0.71,1.73-3.62,3.74-5.41,3.65c-11.88-0.59-23.73-1.72-35.97-2.7c-0.98-12.21-2.14-23.61-2.58-35.03
	c-0.09-2.18,2.12-5.69,4.13-6.52c12.66-5.24,25.88-7.67,39.51-4.54c1.99,0.46,4.56,2.92,5.01,4.88
	C1203.78,818.15,1201.21,831.59,1195.9,844.52z M1255.17,858.99c-3.74-0.21-7.42-1.45-10.59-2.15c1.66-27.08,3.14-53.69,5.02-80.28
	c0.37-5.26,2.85-10.38,3.17-15.63c0.19-3.25-0.99-7.53-3.18-9.72c-2.42-2.42-6.84-4.45-10.14-4.12c-15.91,1.58-31.68,4.65-47.6,5.95
	c-15.89,1.3-31.89,1.12-48.86,1.61c-0.47-2.09-1.9-5.75-1.88-9.4c0.02-2.42,1.46-5.95,3.37-7.06c25.2-14.61,51.81-24.72,81.41-26.07
	c22.37-1.02,44.69-3.11,67.14-4.73c-2.66,29.82-4.51,60.32-8.37,90.56c-2.7,21.18-12.83,40.15-23.39,58.55
	C1260.39,858.05,1257.21,859.1,1255.17,858.99z M1143.05,920.83c7.43,1.4,14.74,3.52,22.06,5.47c5.32,1.41,6.01,4.74,3.69,9.29
	c-0.92,1.8-1.49,3.78-2.42,5.58c-8.79,17.11-9.26,17.23-27.59,11.91c-5.26-1.53-10.69-2.47-15.92-3.65
	c4.93-8.77,9.47-17.23,14.47-25.42C1138.38,922.33,1141.36,920.51,1143.05,920.83z M1117.92,848.8c-1.37-11.8-1.71-23.06-4.15-33.85
	c-3.2-14.11-8.01-27.86-12.24-41.73c-1.92-6.29-7.6-8.42-13.31-5.27c-6.9,3.8-13.68,7.83-20.76,11.28
	c-16.11,7.89-31.33,16.97-43.1,31.77c-4.99-6.48-9.02-11.71-13.41-17.42c31.59-30.09,66.73-54.95,105.97-75.99
	c12.91,42.21,20.14,84.53,21.26,128.6C1130.93,847.13,1124.27,847.99,1117.92,848.8z M1081.31,719.57c-3.07,2.56-6.71,4.43-9.3,6.06
	c-16.27-17.91-32.37-35.19-47.9-52.97c-5.47-6.27-9.73-13.64-14.21-20.73c-4.05-6.41-14.89-6.59-19.49-0.7
	c-12.47,16.02-25.18,31.87-38.15,47.48c-7.45,8.96-15.61,17.33-24.22,26.81c-2.59-1.6-6.7-3.57-10.01-6.46
	c-1.29-1.12-1.52-4.5-0.98-6.51c7.62-28.4,19.46-54.5,39.76-76.48c15-16.25,28.96-33.47,43.22-50.05
	c17.85,20.92,36.19,41.75,53.77,63.22c15.48,18.9,23.14,41.69,29.58,64.85C1083.82,715.67,1082.66,718.45,1081.31,719.57z
	 M988.71,794.04c-4.11,5.32-8.26,10.7-13.18,17.08c-16.21-22.23-41.91-29.57-63.61-43.03c-5.86-3.64-11.6-1.08-13.61,5.7
	c-2.38,8.05-5.21,15.99-7.08,24.16c-3.78,16.46-7.05,33.05-10.74,50.56c-4.44-0.51-10.91-1.25-18.53-2.13
	c0.66-43.7,8.3-86,20.65-127.61C903.11,724.76,969.61,771.91,988.71,794.04z M862.54,923.76c4.94,8.23,9.51,16.69,14.31,25.25
	c-9.26,2.63-18.44,5.46-27.76,7.7c-1.9,0.46-5.33-0.58-6.34-2.08c-4.37-6.49-8.24-13.34-12.01-20.22c-1.93-3.53-0.87-6.6,3.19-7.74
	c7.79-2.18,15.61-4.3,23.52-5.92C858.93,920.46,861.62,922.23,862.54,923.76z M856.84,755.46c-27.32-1.7-54.18-3.29-81.02-5.1
	c-4.02-0.27-8.22-0.95-11.92-2.47c-5.4-2.21-9.2-1.72-13.6,2.62c-4.54,4.48-3.32,8.33-2.41,13.67c2.47,14.52,4.18,29.23,5.19,43.93
	c1.1,15.92,1.09,31.91,1.59,48.95c-2.58,0.54-6.72,1.89-10.91,2.06c-1.86,0.08-4.6-1.79-5.61-3.54
	c-14.36-25.03-24.56-51.35-25.98-80.68c-1.09-22.63-3.14-45.21-4.81-68.45c5.94,0.79,12.83,1.97,19.77,2.59
	c23.86,2.14,47.87,3.08,71.55,6.41c20.87,2.94,39.67,12.74,57.8,23.27c1.55,0.9,2.62,4.06,2.51,6.1
	C858.8,748.56,857.55,752.25,856.84,755.46z M846.3,862.59c0.85,6.51,1.72,13.19,2.8,21.4c-27.1-4.5-49.98,8.27-74.33,14.07
	c-7.51,1.79-10.27,7.37-6.87,13.64c6.18,11.41,11.73,23.21,18.68,34.13c6.77,10.65,14.96,20.4,22.82,30.94
	c-4.58,3.58-9.92,7.76-15.78,12.33c-30.16-31.84-55.26-67.05-75.81-105.83C751.97,871.19,822.62,859.8,846.3,862.59z
	 M713.46,1020.61c8.99,9.07,20.01,16.14,30.68,24.55c-2.16,2.97-5.22,7.2-9.25,12.75c-6.48-5.18-12.8-9.73-18.54-14.92
	c-15.83-14.33-31.42-28.92-46.91-43.23c20.72-18.53,42.5-38,65.03-58.15c4.45,5.97,7.47,10.02,9.8,13.16
	c-10.64,8.4-21.84,15.54-30.92,24.77C695.79,997.36,695.83,1002.83,713.46,1020.61z M720.27,1004.73c-2.51-3.38-2.83-5.75-0.15-9.32
	c8.19-10.91,18.73-18.68,31.1-23.95c1.82-0.78,5.57,0.04,6.91,1.51c7.9,8.62,15.36,17.65,23.37,27.01
	c-8.08,9.44-15.71,18.62-23.74,27.45c-1.2,1.32-4.67,1.94-6.37,1.21C739.07,1023.31,728.4,1015.7,720.27,1004.73z M719.56,918.67
	c2.57,3.06,4.45,6.7,6.3,9.6c-20.4,18.06-40.32,35.81-60.4,53.38c-3.23,2.82-6.89,5.51-10.81,7.11c-5.58,2.26-7.62,5.59-7.59,11.62
	c0.02,5.89,3.28,7.84,7.47,10.93c13.69,10.13,26.88,20.97,39.81,32.07c10.39,8.91,20.11,18.59,30.9,28.63
	c-6.72,13.26-6.73,13.31-21.41,8.65c-25.8-8.19-49.33-20.18-69.41-38.9c-15.62-14.57-32.32-27.98-49.02-42.32
	c5.26-4.02,11.23-8.19,16.77-12.88c15.95-13.52,31.4-27.66,47.65-40.79c18.79-15.19,41.34-22.75,64.25-29.16
	C715.64,916.16,718.44,917.33,719.56,918.67z M793.47,1010.95c5.69,4.33,11.06,8.42,16.38,12.46c-0.1,0.65,0.01,1.33-0.27,1.56
	c-16.9,14.56-26.33,34.11-35.92,53.56c-1.57,3.18-3.55,6.16-5.37,9.21c-3.62,6.09-1.59,11.79,5.07,13.82
	c11.68,3.56,23.26,7.59,35.13,10.35c10.08,2.35,20.49,3.29,30.79,4.65c2.94,0.38,5.97,0.06,9.66,0.06
	c-0.91,7.46-1.71,13.94-2.64,21.56c-44.09-1.09-86.28-8.4-128.65-21.18C738.24,1078,763.31,1043.05,793.47,1010.95z M744.61,1140.98
	c3.74,0.16,7.43,1.41,10.84,2.15c-1.68,27.2-3.27,54.02-5.06,80.82c-0.27,4.03-0.92,8.21-2.4,11.93c-2.11,5.31-2.08,9.21,2.38,13.66
	c4.42,4.43,8.23,3.59,13.65,2.65c14.52-2.51,29.22-4.24,43.92-5.27c15.92-1.12,31.91-1.1,48.76-1.61
	c4.53,17.8,5.35,12.66-9.61,21.32c-29.83,17.28-62.68,21.58-96.42,22.65c-14.66,0.47-29.27,2.5-43.8,3.82
	c2.74-30.41,4.61-61.13,8.57-91.58c2.72-20.89,12.67-39.67,23.17-57.83C739.52,1142.11,742.6,1140.9,744.61,1140.98z
	 M857.33,1079.19c-7.92-1.54-15.74-3.71-23.52-5.91c-4.12-1.17-4.94-4.32-3.01-7.81c3.79-6.86,7.69-13.68,12-20.22
	c0.93-1.41,4.01-2.53,5.69-2.12c9.56,2.34,19,5.18,28.39,7.83c-4.74,8.48-9.16,16.74-14,24.73
	C861.81,1077.42,858.93,1079.5,857.33,1079.19z M879.42,1151.47c0.98-0.12,2,0.11,2.9,0.17c0.36,0.6,0.87,1.05,0.84,1.46
	c-1.7,22,5.42,42.22,12.44,62.48c1.24,3.59,1.77,7.42,2.87,11.07c1.9,6.3,7.54,8.56,13.23,5.48c9.61-5.21,19.57-9.88,28.77-15.73
	c12.36-7.85,24.15-16.6,36.69-25.31c3.19,4.08,7.37,9.42,11.95,15.28c-31.59,30.09-66.77,54.94-106.02,76.03
	c-12.94-42.15-20.09-84.48-21.29-128.62C868.39,1152.91,873.9,1152.15,879.42,1151.47z M918.7,1280.4c3.06-2.56,6.7-4.43,9.26-6.04
	c16.17,17.78,32.14,34.86,47.5,52.46c5.64,6.46,10.04,14.04,14.69,21.32c4.08,6.4,14.92,6.48,19.48,0.55
	c11.74-15.31,23.69-30.47,36.04-45.3c8.1-9.72,17.03-18.75,26.21-28.78c13.39,7,13.41,7.01,8.75,21.66
	c-8.12,25.54-19.94,48.88-38.42,68.79c-14.69,15.84-28.32,32.68-42.79,49.52c-4.03-5.28-8.21-11.26-12.91-16.8
	c-13.36-15.75-27.28-31.03-40.31-47.04c-15.43-18.96-23.12-41.71-29.61-64.86C916.15,1284.33,917.35,1281.53,918.7,1280.4z
	 M1011.23,1206.05c4.06-5.29,8.18-10.66,12.25-15.98c0.67,0.17,1.33,0.12,1.59,0.42c14.21,16.5,33.18,25.88,52.23,35.19
	c3.64,1.78,7.05,4.04,10.55,6.1c5.99,3.53,11.76,1.35,13.77-5.29c3.4-11.2,7.41-22.26,9.96-33.65c2.98-13.3,4.66-26.88,7.1-41.51
	c2.4,0.29,5.65,0.68,8.91,1.07c3.03,0.36,6.06,0.72,10.46,1.25c-0.65,43.62-8.34,86.06-20.78,127.87
	C1095.91,1274.46,1029.55,1227.19,1011.23,1206.05z M1137.65,1076.55c-5.09-8.42-9.78-17.08-14.55-25.57
	c9.25-2.62,18.66-5.46,28.2-7.81c1.7-0.42,4.81,0.58,5.72,1.95c4.34,6.51,8.28,13.3,12.1,20.15c2.14,3.85,1.05,6.99-3.41,8.22
	c-7.55,2.07-15.12,4.17-22.78,5.73C1141.37,1079.53,1138.54,1078.03,1137.65,1076.55z M1143.16,1244.55
	c27.35,1.69,54.22,3.26,81.06,5.12c4.51,0.31,9.15,1.33,13.35,2.99c5.23,2.06,8.54,0.31,12.13-3.31c3.41-3.44,4.03-6.49,3.18-11.47
	c-2.64-15.26-4.74-30.66-5.91-46.09c-1.22-15.9-1.11-31.89-1.61-48.73c-0.78,0.44-0.18-0.12,0.5-0.26c16.96-3.31,12.07-5.06,20.26,9
	c17.6,30.23,22.2,63.54,23.19,97.82c0.42,14.46,2.5,28.88,3.89,44.04c-6.54-0.88-13.44-2.06-20.39-2.69
	c-23.85-2.14-47.86-3.07-71.53-6.42c-20.86-2.95-39.65-12.76-57.8-23.27c-1.54-0.89-2.57-4.09-2.45-6.14
	C1141.23,1251.4,1142.47,1247.72,1143.16,1244.55z M1153.69,1137.43c-0.84-6.52-1.7-13.2-2.76-21.43
	c27.1,4.52,49.98-8.27,74.34-14.06c7.48-1.78,10.23-7.41,6.83-13.68c-6.18-11.41-11.73-23.22-18.68-34.14
	c-6.77-10.65-14.97-20.39-22.84-30.94c4.61-3.59,9.98-7.76,15.81-12.3c30.01,31.62,54.98,66.73,75.81,105.74
	C1250.57,1128.4,1177.67,1140.2,1153.69,1137.43z M1280.32,1081.16c-2.54-3.06-4.43-6.68-5.97-9.11
	c17.84-16.22,34.89-32.16,52.47-47.49c6.45-5.62,14.04-10,21.33-14.59c6.76-4.26,6.51-15.27,0.1-19.96
	c-13.71-10.02-27.32-20.26-40.3-31.2c-11.23-9.47-21.58-19.98-33.33-31.03c-0.13,0.25-0.25,0.47-0.39,0.73
	c-0.09,0.18,0.04,0.47-0.14-1.23c0.18,0.17,0.35,0.33,0.53,0.5c6.86-12.99,7.16-13,21.42-8.49c25.77,8.16,49.29,20.1,69.36,38.78
	c15.77,14.68,32.59,28.24,48.67,42.07c-22.29,18.83-44.47,38.67-67.86,56.97c-17.64,13.8-39.05,20.52-60.49,26.35
	C1284.19,1083.87,1281.46,1082.53,1280.32,1081.16z M1146.65,686.14c2.07-10.5,11.39-22.18,24.51-28.14
	c10.1-4.59,21.14-7.06,31.54-11.06c2.9-1.11,5.84-3.91,7.13-6.7c0.78-1.67-0.91-5.84-2.72-7.02c-2.18-1.43-5.77-1.58-8.54-1.09
	c-22.57,3.96-42.74,12.73-58.92,31.6c-0.33-6.8-0.32-12.27-0.9-17.68c-1.88-17.43-9.55-32.54-19-46.96
	c-3.17-4.84-7.16-6.93-12.13-3.82c-4.86,3.04-4.25,7.62-1.36,12.02c8.32,12.65,15.95,25.77,16.69,41.26
	c0.41,8.65-1.23,17.39-1.94,26.08c-0.91-0.1-1.83-0.2-2.75-0.3c-10.71-23.02-21.42-46.03-32.45-69.73
	c26.91-19.82,60.29-19.39,90.64-31.18c13.58,29.21,36.6,52.83,42.7,86.14C1194.83,668.48,1170.83,677.28,1146.65,686.14z
	 M881.22,675.46c-7.94-17.34-5.2-33.46,1.85-49.2c3-6.7,7.14-12.9,10.89-19.26c2.69-4.58,3.08-9.07-1.86-11.94
	c-4.68-2.72-8.64-0.86-11.66,3.67c-12.82,19.22-21.48,39.73-21.13,64.38c-3.23-3.4-6.2-7.11-9.75-10.13
	c-14.42-12.26-31.71-18.18-49.99-21.17c-2.82-0.46-7.81,2.61-9.19,5.36c-2.28,4.54,0.81,8.03,5.72,9.62
	c10.86,3.52,22.08,6.27,32.38,11.01c11.96,5.51,20.76,14.9,26.18,28.79c-25.22-9.23-49.21-18.01-73.72-26.98
	c5.72-33.19,28.99-56.75,42.48-86.08c30.25,11.41,63.48,11.38,90.81,30.89C903.19,628.22,892.4,651.43,881.22,675.46z
	 M686.14,853.39c-10.45-2.16-21.53-11.13-27.82-23.91c-3.9-7.92-6.39-16.53-9.38-24.88c-0.85-2.38-1.22-4.94-1.84-7.41
	c-1.26-5.07-4.03-8.52-9.71-7.17c-5.56,1.32-6.67,5.35-5.64,10.65c4.43,22.71,12.75,43.35,30.77,59.49
	c-23.95-1.11-44.38,7.18-63.32,20.13c-5.71,3.91-6.97,9.57-3.02,13.33c3.95,3.75,7.88,2.27,11.79-0.3
	c12.43-8.19,25.38-15.61,40.61-16.28c8.65-0.38,17.39,1.24,26.08,1.96c0.01,0.84,0.03,1.69,0.04,2.53
	c-23.14,10.77-46.28,21.55-71.37,33.23c-4.6-10.43-10.1-20.21-13.28-30.68c-5.63-18.49-9.97-37.37-14.49-56.17
	c-0.45-1.88,0.88-5.4,2.47-6.37c16.76-10.18,33.48-20.46,50.75-29.71c9.27-4.97,19.59-7.99,30.33-12.24
	C668.49,805.19,677.28,829.2,686.14,853.39z M603.56,1085.33c24.82,11.55,48.01,22.35,71.91,33.47c-17.16,7.8-33.14,5.25-48.74-1.69
	c-6.71-2.98-12.97-7.03-19.29-10.82c-4.47-2.68-8.92-3.63-12.08,1.21c-3.27,5.01-0.98,9.03,3.72,12.19
	c19.04,12.8,39.4,21.27,63.94,19.36c-1.08,1.65-1.5,2.75-2.28,3.44c-17.62,15.46-25.16,36.06-28.98,58.26
	c-0.46,2.7,2.86,7.56,5.66,8.96c4.13,2.08,7.85-0.77,9.2-5.36c2.14-7.32,3.55-14.89,6.16-22.04c5.97-16.35,15.68-29.63,33.9-37.09
	c-1.63,4.57-2.7,7.64-3.83,10.7c-7.64,20.74-15.28,41.49-23.66,64.21c-10.37-4-20.89-6.93-30.31-11.93
	c-17.3-9.2-34-19.52-50.76-29.69c-1.63-0.99-3.1-4.49-2.65-6.33c4.95-20.01,9.78-40.07,15.76-59.77
	C594.05,1103.13,599.26,1094.58,603.56,1085.33z M854.66,1313.4c-6.96,17.43-19.46,27.06-35.07,33.06
	c-6.85,2.63-14.13,4.16-21.25,6.04c-5.46,1.44-9.99,3.81-8.19,10.41c1.63,5.97,6.24,6.2,11.65,5.07
	c26.44-5.57,38.4-11.77,59.15-31.89c-1.84,24.8,6.19,44.97,18.63,63.85c3.19,4.84,6.91,8.23,12.46,5.01
	c5.83-3.39,4.29-8.43,1.12-13.18c-8.43-12.62-15.63-25.94-16.3-41.4c-0.36-8.34,1.54-16.77,2.42-25.15c0.77,0.03,1.53,0.06,2.3,0.09
	c10.71,23.03,21.43,46.05,32.58,70.03c-26.78,19.97-60.39,19.53-90.73,31.11c-13.5-29.32-36.74-52.9-42.49-86.09
	C805.44,1331.4,829.42,1322.63,854.66,1313.4z M1118.73,1324.64c5.98,12.19,6.61,24.2,2.66,35.76c-3.66,10.72-9.2,20.84-14.43,30.96
	c-2.55,4.94-5.01,9.73,0.68,13.35c5.86,3.73,9.67-0.01,12.97-5.08c12.26-18.77,20.33-38.73,18.43-62.87
	c5.89,5.07,10.74,9.67,16.02,13.7c13.51,10.32,29.36,15.11,45.78,17.78c2.7,0.44,7.52-2.99,8.91-5.83c2.05-4.21-1.01-7.78-5.54-9.1
	c-7.32-2.12-14.85-3.64-22.05-6.11c-17.95-6.15-30.61-17.86-36.43-33.65c24.63,8.99,48.6,17.74,73.26,26.74
	c-5.39,33.07-28.86,56.56-42.33,86.09c-30.23-11.37-63.69-11.17-90.85-30.96C1096.85,1371.69,1107.55,1348.67,1118.73,1324.64z
	 M1313.47,1145.52c13.96,5.07,23.05,14.12,28.71,25.96c4.45,9.3,7.06,19.52,10.11,29.45c1.7,5.54,3.53,10.8,10.63,8.94
	c6.53-1.71,6.04-6.78,4.92-12.34c-4.41-22.03-12.86-41.81-31.26-57.48c7.74-0.72,14.59-1.16,21.4-2.04
	c16.63-2.15,30.77-10.22,44.4-19.31c4.34-2.89,5.42-7.74,2.02-11.1c-2.12-2.09-7.6-2.89-10.51-1.69
	c-11.22,4.63-21.69,11.21-33.06,15.32c-11.72,4.23-23.94,3.42-36.25-2.46c23.74-11.05,46.76-21.77,70.74-32.93
	c20,26.78,19.53,60.4,31.13,90.72c-29.31,13.53-52.89,36.75-86.08,42.52C1331.42,1194.58,1322.65,1170.6,1313.47,1145.52z
	 M1314.93,543.64c24.51-1.54,48.08,4.67,71.96,8.23c17.34,2.59,34.61,5.7,52.58,8.68c4.82,29.18,9.44,58.29,14.49,87.34
	c5.8,33.43,1.92,65.43-13.14,95.95c-0.78,1.58-1.76,3.06-2.22,3.87c-21.69-6.84-43.03-13.58-64.6-20.39
	c9.52-10.01,19.46-21.26,30.24-31.63c24.43-23.5,31.68-52.46,28.47-85.08c-1-10.13-1.94-20.27-2.68-30.43
	c-0.44-6-3.38-9.55-9.31-10.14c-11.91-1.19-23.84-2.14-35.76-3.16c-35-3.02-63.73,9.19-87.26,35.08
	c-8.1,8.91-17.42,16.71-27.56,26.32c-1.15-24.76-9.72-45.32-19.58-66.01C1270.96,550.84,1292.24,545.07,1314.93,543.64z
	 M1175.39,514.42c11.62-4.95,22.41-11.87,33.82-18.06c1.22,5.82,1.64,12.99,4.24,19.27c9.44,22.78,19.4,45.35,29.54,67.83
	c9.1,20.19,12.9,41.17,11.07,64c-6.11,2.19-12.48,4.47-19.86,7.11c-5.77-31.58-26.06-54.82-40.12-81.18
	c-9.67-18.13-10.02-17.8-29.5-12.5c-13.51,3.68-27.29,6.44-40.64,10.61c-15.36,4.79-30.39,10.67-46.22,16.32
	c0.06,0.13,0.12,0.25,0.17,0.37c0.02,0.04,0.04,0.07,0.06,0.11c0.38,0.49,0.17,0.31,0,0c-0.09-0.11-0.19-0.25-0.36-0.44
	c0.04-0.01,0.08-0.03,0.12-0.05c-9.75-21.05-12.11-13.87,5.49-30.59c12.97-12.32,28.8-19.94,45.54-25.84
	C1144.36,525.89,1160.19,520.9,1175.39,514.42z M883.65,476.89c10.43-18.1,24.81-32.89,41.84-45.06
	c24.66-17.62,49.29-35.29,74.5-53.34c25.69,18.38,51.13,36.2,76.16,54.58c27.32,20.06,46.18,46.32,55.74,78.27
	c-20.28,10.58-40.12,20.94-60.21,31.43c-0.38-14.51-1.18-30.66-1.14-46.81c0.07-28.65-11.61-51.81-32.38-70.68
	c-10.36-9.41-21.45-18.03-32.19-27.03c-3.89-3.26-7.8-3.39-11.72-0.15c-7.07,5.84-13.84,12.06-21.19,17.53
	c-30.7,22.87-46.01,52.87-43.85,91.54c0.69,12.33,0.11,24.74,0.11,36.19c-20.73-10.88-40.37-21.19-61.95-32.51
	C872.31,500.41,877.14,488.17,883.65,476.89z M754.13,590.57c7.1-16.61,15.67-32.61,22.53-49.31c6.03-14.67,10.61-29.95,15.89-45.14
	c23.99,20.2,56.33,25.9,85.84,37.96c18.02,7.36,33.74,17.6,47.38,31.41c3.86,3.91,4.91,7.06,1.89,11.82
	c-2.43,3.83-4.14,8.13-6.37,12.62c-29.51-19.76-64.79-20.99-96.84-32.11c-5.68-1.97-10.42,0.85-13.46,6.09
	c-10.63,18.27-21.73,36.3-31.71,54.91c-5.83,10.87-9.87,22.7-15.16,35.12c-5.54-1.94-11.74-4.12-18.1-6.35
	C744.24,627.8,746.39,608.68,754.13,590.57z M545.13,699.83c-4.44-26.24,0.8-51.75,5.11-77.37c3.42-20.33,6.77-40.67,10.32-62
	c33.58-5.49,66.59-11.87,99.88-16.05c31.01-3.9,60.77,1.98,87.26,16.92c-6.85,21.81-13.49,42.95-20.27,64.55
	c-6.72-6.31-14.58-13.64-22.4-21.02c-5.37-5.07-10.54-10.37-16.03-15.31c-22.23-19.97-48.84-24.93-77.59-22.35
	c-10.4,0.93-20.78,1.97-31.19,2.76c-5.98,0.45-9.58,3.35-10.17,9.3c-1.18,11.91-2.13,23.84-3.16,35.76
	c-3.03,35,9.16,63.74,35.07,87.25c8.81,7.99,16.55,17.16,24.09,25.07c-21.37,6.71-42.51,13.34-64.68,20.3
	C553.31,733.76,548.07,717.26,545.13,699.83z M496.72,790.32c25.51-1.84,48.05-15.2,71.33-26.34c23.47-11.24,47.3-20.33,73.97-18.41
	c1.76,0.13,3.52,0.25,5.52,0.39c2.23,6.33,4.43,12.54,6.73,19.08c-1.33,0.68-2.37,1.33-3.49,1.77c-11.31,4.46-23.15,7.9-33.84,13.53
	c-18.02,9.47-35.31,20.34-52.93,30.57c-5.58,3.24-7.76,7.88-6.12,14.15c5.08,19.46,9.64,39.07,15.5,58.29
	c3.97,13.02,9.79,25.47,14.97,38.68c0.01,0,0.01-0.01,0.01-0.01c0.64-0.58,0.39-0.21,0,0c0,0-0.01,0.01-0.01,0.01c0,0,0,0,0,0
	c-0.02,0.01-0.03,0.02-0.05,0.03c-21.79,9.97-14.13,12.47-31-5.16c-13.31-13.9-20.94-31.17-27.23-49.08
	c-4.31-12.25-7.97-24.79-13.13-36.66C510.91,817.27,503.55,803.97,496.72,790.32z M476.24,1115.99
	c-17.77-10.42-32.4-24.62-44.41-41.45c-17.6-24.68-35.28-49.3-53.35-74.52c18.38-25.68,36.2-51.12,54.59-76.15
	c20.07-27.31,46.26-46.26,78.29-55.7c10.56,20.24,20.92,40.09,31.39,60.15c-14.49,0.39-30.64,1.22-46.78,1.16
	c-28.36-0.1-51.37,11.39-70.16,31.8c-9.66,10.49-18.38,21.82-27.54,32.77c-3.52,4.21-3.22,8.18,0.32,12.3
	c5.49,6.37,11.17,12.61,16.11,19.39c23.1,31.67,53.7,47.33,93.25,45.07c12.08-0.69,24.23-0.11,35.42-0.11
	c-10.88,20.72-21.19,40.36-32.54,61.97C500.19,1127.6,487.68,1122.7,476.24,1115.99z M517.25,1214.04
	c-6.75-2.68-14.27-3.42-22.18-5.21c21.5-25.97,27.24-59.08,39.73-89.23c7.45-17.97,18-33.67,32.43-46.66
	c1.69-1.52,5.48-2.1,7.71-1.36c5.02,1.67,9.67,4.45,15.02,7.04c-19.63,29.29-20.88,64.25-31.95,96.03
	c-1.9,5.45-0.41,10.52,4.51,13.39c22.45,13.07,44.91,26.13,67.74,38.49c7.03,3.81,15.26,5.4,23.44,8.18
	c0.06,0.41,0.18,0.68,0.12,0.9c-5.37,19.49-5.37,19.47-25.26,18.8c-21.98-0.75-41.42-9.64-60.92-18.59
	C551.02,1228.2,534.25,1220.82,517.25,1214.04z M700.29,1454.8c-22.77,3.74-45.17,0.75-67.58-3.22
	c-23.79-4.21-47.65-8.05-72.24-12.18c-5.42-33.02-11.45-65.31-15.84-97.82c-4.27-31.63,1.57-61.85,16.65-89.33
	c21.72,6.87,43.05,13.6,64.66,20.43c-9.45,9.97-19.34,21.22-30.11,31.57c-24.44,23.49-31.78,52.42-28.54,85.06
	c1,10.13,1.95,20.27,2.68,30.43c0.43,5.99,3.31,9.64,9.24,10.22c13.17,1.28,26.36,2.48,39.57,3.33
	c33.95,2.2,61.37-10.86,83.99-35.72c7.94-8.72,17.06-16.37,24.63-23.56c6.73,21.49,13.36,42.63,20.25,64.62
	C733.76,1446.64,717.5,1451.97,700.29,1454.8z M818.82,1488.27c-9.92,4.11-18.89,10.52-28.48,16
	c-1.66-23.82-12.96-44.22-22.84-65.16c-8.68-18.4-18.19-36.52-20.79-57.14c-0.51-4.04-0.96-8.1-1.09-12.16
	c-0.59-18.89-0.06-19.47,20.18-23.57c6.61,33.66,30.08,58.91,44.58,88.73c3.07,6.31,8.09,8.89,15.09,7.03
	c19.92-5.3,40-10.06,59.71-16.05c12.29-3.73,24.03-9.3,36.82-14.37c1.92,3.83,4.89,8.83,6.84,14.2c0.7,1.94-0.35,5.45-1.85,7.1
	c-13.22,14.56-28.99,25.57-47.46,32.52C859.29,1473.03,838.78,1480,818.82,1488.27z M1107.06,1536.45
	c-10.52,11.97-22.15,23.32-34.77,33.01c-23.4,17.98-47.87,34.56-72.41,52.09c-27.58-19.88-54.94-39.01-81.64-59
	c-24.13-18.06-45-50.41-50.09-76.05c20.86-7.43,41.56-15.88,59.7-32.27c0.53,10.59,1.08,20,1.42,29.41
	c0.25,6.63,0.36,13.26,0.26,19.89c-0.44,29.56,12,53.18,33.61,72.39c10.08,8.97,20.69,17.35,31.07,25.98
	c3.93,3.27,7.83,3.09,11.71-0.17c6.63-5.56,13.03-11.45,20-16.57c31.32-23.01,47.01-53.34,44.87-92.61
	c-0.67-12.17-0.1-24.42-0.1-35.9c20.6,10.8,40.4,21.17,61.02,31.98C1127.15,1505.48,1119.4,1522.42,1107.06,1536.45z
	 M1246.14,1408.71c-7.12,16.88-15.82,33.1-22.78,50.03c-6.04,14.67-10.63,29.95-15.92,45.13c-23.98-20.17-56.31-25.9-85.83-37.94
	c-18.53-7.55-34.62-18.16-48.45-32.54c-2.99-3.11-3.62-5.54-1.43-9.29c2.55-4.37,4.52-9.08,6.95-14.06
	c29.56,19.82,64.85,21.02,96.9,32.13c5.65,1.96,10.41-0.83,13.47-6.1c10.25-17.61,21.02-34.94,30.62-52.9
	c6.17-11.55,10.62-24.02,16.3-37.09c5.46,1.91,11.66,4.09,18.02,6.32C1255.78,1371.94,1253.68,1390.83,1246.14,1408.71z
	 M1456.38,1315.64c1.44,24.26-4.75,47.56-8.25,71.19c-2.57,17.35-5.69,34.62-8.68,52.64c-29.17,4.82-58.27,9.42-87.29,14.49
	c-32.62,5.69-63.92,2.12-93.9-12.11c-2.29-1.08-4.49-2.33-6-3.12c6.82-21.72,13.53-43.04,20.35-64.71
	c9.93,9.43,21.32,19.47,31.83,30.36c23.1,23.93,51.52,31.4,83.62,28.46c10.65-0.97,21.29-1.96,31.96-2.8
	c5.62-0.44,9.32-3.24,9.85-8.77c1.46-14.95,3.33-29.93,3.52-44.91c0.36-27.02-7.77-51.02-27.61-70.46
	c-11.22-10.99-21.76-22.68-31.78-33.19c21.47-6.78,42.62-13.46,64.64-20.41C1449.27,1271.13,1455.02,1292.67,1456.38,1315.64z
	 M1493.2,1190.97c2.69,6.43,7.45,11.99,11.64,18.53c-30.42,2.47-55.26,18.82-81.82,30.62c-27.77,12.34-47.68,16.45-70.63,13.68
	c-2.14-6.02-4.34-12.23-6.87-19.35c3.45-0.88,6.71-1.23,9.55-2.5c12.04-5.41,24.23-10.57,35.84-16.79
	c15.03-8.05,29.53-17.09,44.33-25.59c5.76-3.31,8.65-7.85,6.89-14.53c-5.3-20.19-10.19-40.51-16.26-60.46
	c-3.74-12.29-9.34-24.01-14.34-36.58c4.02-2,9.05-5.09,14.5-6.91c2.04-0.68,5.67,0.93,7.56,2.63
	c16.69,15.01,27.36,33.85,35.04,54.78C1476.34,1149.51,1484.57,1170.34,1493.2,1190.97z M1562.52,1081.65
	c-19.12,24.82-44.34,41.64-73.88,50.14c-10.62-20.31-21-40.14-32.09-61.35c15.32,0,31.49-0.11,47.67,0.03
	c28.34,0.24,51.35-11.42,70.1-31.88c9.63-10.51,18.38-21.82,27.53-32.78c3.27-3.92,3.18-7.82-0.06-11.71
	c-5.71-6.84-11.75-13.45-17.06-20.59c-22.97-30.97-53.11-46.52-92.1-44.29c-12.17,0.7-24.43,0.11-35.98,0.11
	c10.79-20.6,21.16-40.38,31.98-61.04c16.83,4.55,33.76,12.3,47.79,24.63c11.97,10.52,23.33,22.14,33.02,34.76
	c17.99,23.4,34.56,47.88,52.11,72.45C1601.71,1027.66,1582.87,1055.24,1562.52,1081.65z"/>
</svg>
