<?xml version="1.0" encoding="utf-8"?>
<!-- Generator: Adobe Illustrator 23.0.6, SVG Export Plug-In . SVG Version: 6.00 Build 0)  -->
<svg version="1.1" xmlns="http://www.w3.org/2000/svg" xmlns:xlink="http://www.w3.org/1999/xlink" x="0px" y="0px"
	 viewBox="0 0 500 500" style="enable-background:new 0 0 500 500;" xml:space="preserve">
<style type="text/css">
	.st0{fill:#231F20;}
</style>
<g id="BACKGROUND">
</g>
<g id="OBJECTS">
	<g>
		<g>
			<path class="st0" d="M387.89,303.93c-4.75-3.76-9.59-7.31-14.41-10.54c-9.06-6.09-15.71-11.92-19.55-15.57
				c-3.84,3.65-10.49,9.46-19.55,15.56c-4.81,3.23-9.66,6.78-14.41,10.54l-6.17-7.78c4.96-3.92,10.02-7.63,15.04-11
				c9.82-6.62,16.57-12.83,19.71-15.94c2.95-2.96,7.79-2.96,10.77,0.02c3.14,3.11,9.89,9.33,19.7,15.92
				c5.03,3.38,10.09,7.08,15.04,11L387.89,303.93z"/>
			<path class="st0" d="M313.85,296.14l6.12,7.81c4.96-3.89,9.81-7.45,14.44-10.56c4.55-3.06,8.5-6.06,11.8-8.75l-6.07-7.84
				c-3.11,2.55-6.88,5.41-11.25,8.35C324.04,288.39,318.99,292.1,313.85,296.14z"/>
			<path class="st0" d="M365.25,287.43c2.46,1.9,5.23,3.9,8.26,5.96c4.65,3.13,9.51,6.67,14.46,10.56l6.12-7.81
				c-5.13-4.04-10.19-7.73-15.04-10.99c-3.16-2.12-5.99-4.2-8.49-6.17L365.25,287.43z"/>
		</g>
		<g>
			<path class="st0" d="M111.79,303.93c4.75-3.76,9.59-7.31,14.41-10.54c9.06-6.09,15.71-11.92,19.55-15.57
				c3.84,3.65,10.49,9.46,19.55,15.56c4.81,3.23,9.66,6.78,14.41,10.54l6.17-7.78c-4.96-3.92-10.02-7.63-15.04-11
				c-9.82-6.62-16.57-12.83-19.71-15.94c-2.95-2.96-7.79-2.96-10.77,0.02c-3.14,3.11-9.89,9.33-19.7,15.92
				c-5.03,3.38-10.09,7.08-15.04,11L111.79,303.93z"/>
			<path class="st0" d="M185.83,296.14l-6.12,7.81c-4.96-3.89-9.81-7.45-14.44-10.56c-4.55-3.06-8.5-6.06-11.8-8.75l6.07-7.84
				c3.11,2.55,6.88,5.41,11.25,8.35C175.64,288.39,180.69,292.1,185.83,296.14z"/>
			<path class="st0" d="M134.43,287.43c-2.47,1.9-5.23,3.9-8.26,5.96c-4.65,3.13-9.51,6.67-14.46,10.56l-6.12-7.81
				c5.13-4.04,10.19-7.73,15.04-10.99c3.16-2.12,5.99-4.2,8.49-6.17L134.43,287.43z"/>
		</g>
		<g>
			<path class="st0" d="M249.73,190.41l-5.8,3.05c-0.39,0.2-0.84-0.13-0.77-0.56l1.11-6.46c0.03-0.17-0.03-0.35-0.15-0.47
				l-4.69-4.58c-0.31-0.31-0.14-0.84,0.29-0.9l6.49-0.94c0.17-0.02,0.32-0.13,0.4-0.29l2.9-5.88c0.19-0.39,0.75-0.39,0.95,0
				l2.9,5.88c0.08,0.16,0.23,0.26,0.4,0.29l6.49,0.94c0.43,0.06,0.61,0.6,0.29,0.9l-4.69,4.58c-0.12,0.12-0.18,0.3-0.15,0.47
				l1.11,6.46c0.07,0.43-0.38,0.76-0.77,0.56l-5.8-3.05C250.07,190.33,249.88,190.33,249.73,190.41z"/>
			<path class="st0" d="M249.41,219.77l1.19-0.02c2.67-0.05,5.37-0.39,8.07-1.13c15.33-4.21,25.12-18.65,24.02-33.93
				c0,0.02-0.01,0.05-0.01,0.07c0,0.01,0,0.02-0.01,0.03c-0.05,0.3-0.11,0.6-0.18,0.9c-2.1,9.68-9.4,17.98-19.6,20.78
				c-14.64,4.02-29.76-4.59-33.78-19.23c-3.7-13.47,3.29-27.35,15.84-32.61c-1.21,0.19-2.42,0.45-3.63,0.78
				c-17.46,4.79-27.72,22.83-22.93,40.28C222.32,210.05,235.23,219.53,249.41,219.77z"/>
		</g>
		<path class="st0" d="M401.66,254.26c0-83.62-68.04-151.65-151.66-151.65S98.34,170.64,98.34,254.26
			c0,54.15,28.94,104.16,75.71,131.27v6.89c0,2.74,2.22,4.96,4.96,4.96s4.96-2.22,4.96-4.96v-9.76c0-0.08-0.02-0.15-0.02-0.22
			c-0.01-0.2-0.03-0.41-0.06-0.61c-0.02-0.12-0.05-0.24-0.08-0.36c-0.04-0.18-0.1-0.35-0.16-0.52c-0.04-0.12-0.09-0.24-0.14-0.36
			c-0.07-0.16-0.16-0.31-0.25-0.46c-0.07-0.11-0.13-0.23-0.2-0.33c-0.02-0.03-0.04-0.06-0.06-0.09
			c-0.19-0.25-18.73-25.62-15.01-49.91c4.3-28.09,48.89-60.07,62.46-69.2c9.08-6.12,15.73-11.94,19.56-15.58
			c3.82,3.63,10.48,9.46,19.56,15.58c13.56,9.13,58.16,41.1,62.45,69.2c3.7,24.21-14.83,49.66-15.01,49.92
			c-0.02,0.03-0.04,0.06-0.06,0.09c-0.08,0.11-0.14,0.22-0.2,0.33c-0.09,0.15-0.18,0.3-0.25,0.46c-0.05,0.12-0.1,0.24-0.14,0.36
			c-0.06,0.17-0.12,0.34-0.16,0.52c-0.03,0.12-0.06,0.24-0.08,0.36c-0.03,0.2-0.05,0.41-0.06,0.61c0,0.08-0.02,0.15-0.02,0.22v9.76
			c0,2.74,2.22,4.96,4.96,4.96s4.96-2.22,4.96-4.96v-6.89C372.72,358.42,401.66,308.41,401.66,254.26z M335.17,367.56
			c4.72-10.69,8.85-24.91,6.66-39.27c-4.6-30.09-43.78-60.49-66.72-75.93c-9.84-6.63-16.57-12.83-19.7-15.92
			c-1.44-1.44-3.34-2.23-5.34-2.23c-0.02,0-0.05,0-0.07,0c-2-0.02-3.95,0.77-5.39,2.21c-3.14,3.11-9.88,9.31-19.71,15.94
			c-22.94,15.44-62.12,45.84-66.73,75.93c-2.19,14.36,1.94,28.58,6.66,39.27c-35.3-26.57-56.57-68.42-56.57-113.3
			c0-78.15,63.58-141.72,141.74-141.72c78.15,0,141.74,63.58,141.74,141.72C391.74,299.14,370.47,340.99,335.17,367.56z"/>
	</g>
</g>
</svg>
