<?xml version="1.0" encoding="utf-8"?>
<!-- Generator: Adobe Illustrator 23.0.6, SVG Export Plug-In . SVG Version: 6.00 Build 0)  -->
<svg version="1.1" id="Layer_1" xmlns="http://www.w3.org/2000/svg" xmlns:xlink="http://www.w3.org/1999/xlink" x="0px" y="0px"
	 viewBox="0 0 5000 5000" style="enable-background:new 0 0 5000 5000;" xml:space="preserve">
<style type="text/css">
	.st0{fill:url(#SVGID_1_);}
	.st1{fill:url(#SVGID_2_);}
	.st2{fill:url(#SVGID_3_);}
	.st3{fill:url(#SVGID_4_);}
	.st4{fill:url(#SVGID_5_);}
	.st5{fill:url(#SVGID_6_);}
	.st6{fill:url(#SVGID_7_);}
	.st7{fill:url(#SVGID_8_);}
	.st8{fill:url(#SVGID_9_);}
	.st9{fill:url(#SVGID_10_);}
	.st10{fill:url(#SVGID_11_);}
	.st11{fill:url(#SVGID_12_);}
	.st12{fill:url(#SVGID_13_);}
	.st13{fill:url(#SVGID_14_);}
	.st14{fill:url(#SVGID_15_);}
	.st15{fill:url(#SVGID_16_);}
	.st16{fill:url(#SVGID_17_);}
	.st17{fill:url(#SVGID_18_);}
	.st18{fill:url(#SVGID_19_);}
	.st19{fill:url(#SVGID_20_);}
	.st20{fill:url(#SVGID_21_);}
	.st21{fill:url(#SVGID_22_);}
	.st22{fill:url(#SVGID_23_);}
	.st23{fill:url(#SVGID_24_);}
	.st24{fill:url(#SVGID_25_);}
	.st25{fill:url(#SVGID_26_);}
	.st26{fill:url(#SVGID_27_);}
	.st27{fill:url(#SVGID_28_);}
	.st28{fill:url(#SVGID_29_);}
	.st29{fill:url(#SVGID_30_);}
	.st30{fill:url(#SVGID_31_);}
	.st31{fill:url(#SVGID_32_);}
	.st32{fill:url(#SVGID_33_);}
	.st33{fill:url(#SVGID_34_);}
	.st34{fill:url(#SVGID_35_);}
	.st35{fill:url(#SVGID_36_);}
	.st36{fill:url(#SVGID_37_);}
	.st37{fill:url(#SVGID_38_);}
	.st38{fill:url(#SVGID_39_);}
	.st39{fill:url(#SVGID_40_);}
	.st40{fill:url(#SVGID_41_);}
	.st41{fill:url(#SVGID_42_);}
	.st42{fill:url(#SVGID_43_);}
	.st43{fill:url(#SVGID_44_);}
	.st44{fill:url(#SVGID_45_);}
	.st45{fill:url(#SVGID_46_);}
	.st46{fill:url(#SVGID_47_);}
	.st47{fill:url(#SVGID_48_);}
	.st48{fill:url(#SVGID_49_);}
	.st49{fill:url(#SVGID_50_);}
	.st50{fill:url(#SVGID_51_);}
	.st51{fill:url(#SVGID_52_);}
	.st52{fill:url(#SVGID_53_);}
	.st53{fill:url(#SVGID_54_);}
	.st54{fill:url(#SVGID_55_);}
	.st55{fill:url(#SVGID_56_);}
	.st56{fill:url(#SVGID_57_);}
	.st57{fill:url(#SVGID_58_);}
	.st58{fill:url(#SVGID_59_);}
	.st59{fill:url(#SVGID_60_);}
	.st60{fill:url(#SVGID_61_);}
	.st61{fill:url(#SVGID_62_);}
	.st62{fill:url(#SVGID_63_);}
	.st63{fill:url(#SVGID_64_);}
	.st64{fill:url(#SVGID_65_);}
	.st65{fill:url(#SVGID_66_);}
	.st66{fill:url(#SVGID_67_);}
	.st67{fill:url(#SVGID_68_);}
	.st68{fill:url(#SVGID_69_);}
	.st69{fill:url(#SVGID_70_);}
	.st70{fill:url(#SVGID_71_);}
	.st71{fill:url(#SVGID_72_);}
	.st72{fill:url(#SVGID_73_);}
	.st73{fill:url(#SVGID_74_);}
	.st74{fill:url(#SVGID_75_);}
	.st75{fill:url(#SVGID_76_);}
	.st76{fill:url(#SVGID_77_);}
	.st77{fill:url(#SVGID_78_);}
	.st78{fill:url(#SVGID_79_);}
	.st79{fill:url(#SVGID_80_);}
	.st80{fill:url(#SVGID_81_);}
	.st81{fill:url(#SVGID_82_);}
	.st82{fill:url(#SVGID_83_);}
	.st83{fill:url(#SVGID_84_);}
	.st84{fill:url(#SVGID_85_);}
	.st85{fill:url(#SVGID_86_);}
	.st86{fill:url(#SVGID_87_);}
	.st87{fill:url(#SVGID_88_);}
</style>
<g>
	<g>
		<g>
			<g>
				<g>
					<linearGradient id="SVGID_1_" gradientUnits="userSpaceOnUse" x1="1903.7662" y1="1137.9834" x2="3313.8223" y2="4203.3267">
						<stop  offset="0" style="stop-color:#E6E7E8"/>
						<stop  offset="0.4494" style="stop-color:#939598"/>
						<stop  offset="1" style="stop-color:#231F20"/>
					</linearGradient>
					<circle class="st0" cx="2188.92" cy="1757.89" r="28.96"/>
					<linearGradient id="SVGID_2_" gradientUnits="userSpaceOnUse" x1="1799.3765" y1="1186.0027" x2="3209.4326" y2="4251.3462">
						<stop  offset="0" style="stop-color:#E6E7E8"/>
						<stop  offset="0.4494" style="stop-color:#939598"/>
						<stop  offset="1" style="stop-color:#231F20"/>
					</linearGradient>
					<circle class="st1" cx="2075.72" cy="1786.76" r="28.96"/>
					<linearGradient id="SVGID_3_" gradientUnits="userSpaceOnUse" x1="2000.572" y1="1093.4528" x2="3410.6279" y2="4158.7959">
						<stop  offset="0" style="stop-color:#E6E7E8"/>
						<stop  offset="0.4494" style="stop-color:#939598"/>
						<stop  offset="1" style="stop-color:#231F20"/>
					</linearGradient>
					<circle class="st2" cx="2274.09" cy="1688.05" r="28.96"/>
					<g>
						<g>
							<linearGradient id="SVGID_4_" gradientUnits="userSpaceOnUse" x1="2231.0681" y1="987.4246" x2="3641.124" y2="4052.7678">
								<stop  offset="0" style="stop-color:#E6E7E8"/>
								<stop  offset="0.4494" style="stop-color:#939598"/>
								<stop  offset="1" style="stop-color:#231F20"/>
							</linearGradient>
							<path class="st3" d="M2291.04,1624.41c-43.05,0-85.11-21.76-117.63-62.25c-27.25-33.92-44.75-77.82-49.27-123.6
								c-5.02-50.74,5.91-100.92,31.59-145.12c50.55-87,121.61-142.93,184.31-192.28c76.52-60.23,136.96-107.8,136.96-189.62
								c0-12.7,10.29-22.99,22.99-22.99c12.7,0,22.99,10.29,22.99,22.99c0,104.15-75.05,163.22-154.51,225.75
								c-59.46,46.8-126.85,99.84-172.99,179.24c-20.8,35.8-29.65,76.42-25.59,117.49c3.66,37,17.64,72.28,39.36,99.33
								c30.59,38.09,69.79,53.03,107.54,40.98c12.1-3.86,25.04,2.82,28.9,14.91c3.86,12.1-2.82,25.04-14.91,28.9
								C2317.61,1622.35,2304.28,1624.41,2291.04,1624.41z"/>
						</g>
						<g>
							<linearGradient id="SVGID_5_" gradientUnits="userSpaceOnUse" x1="2852.3071" y1="701.6546" x2="4262.3628" y2="3766.9978">
								<stop  offset="0" style="stop-color:#E6E7E8"/>
								<stop  offset="0.4494" style="stop-color:#939598"/>
								<stop  offset="1" style="stop-color:#231F20"/>
							</linearGradient>
							<path class="st4" d="M2710.72,1625.26c-14.09,0-28.25-2.41-42.19-7.34c-44.43-15.72-78.29-53.85-90.59-101.99
								c-14.47-56.67,2.7-117.61,47.13-167.18c29.01-32.38,69.48-71.92,130.66-99.74c-38.85-44.52-83.4-79.58-124.22-111.71
								c-79.46-62.54-154.51-121.61-154.51-225.76c0-12.7,10.29-22.99,22.99-22.99c12.7,0,22.99,10.29,22.99,22.99
								c0,81.82,60.44,129.39,136.96,189.62c46.52,36.61,97.63,76.84,141.57,130.7c82-24.52,179.64-22.81,290.7,5.15
								c159.33,40.12,294.91,53.71,392.07,39.3c78.86-11.7,148-59.38,184.93-127.56c6.05-11.17,20.01-15.31,31.17-9.27
								c11.17,6.05,15.32,20,9.27,31.17c-43.79,80.84-125.51,137.34-218.62,151.15c-130.25,19.32-294.88-11.19-410.04-40.19
								c-95.59-24.07-179.56-27.41-250.27-10.04c4.66,7.07,9.18,14.35,13.54,21.87c26.02,44.79,36.8,95.88,31.16,147.76
								c-5.09,46.79-23.39,91.26-51.55,125.21C2792.07,1604.78,2751.75,1625.26,2710.72,1625.26z M2785.15,1286.38
								c-59.38,24.45-98.3,62.33-125.83,93.06c-34.01,37.96-47.43,83.56-36.82,125.11c8.49,33.25,31.43,59.42,61.37,70.01
								c17.09,6.05,61.49,14.49,104.6-37.5c40.82-49.24,63.25-139.25,16.02-220.52C2798.4,1306.04,2791.93,1296,2785.15,1286.38z"/>
							<linearGradient id="SVGID_6_" gradientUnits="userSpaceOnUse" x1="2230.1096" y1="987.8654" x2="3640.1655" y2="4053.2087">
								<stop  offset="0" style="stop-color:#E6E7E8"/>
								<stop  offset="0.4494" style="stop-color:#939598"/>
								<stop  offset="1" style="stop-color:#231F20"/>
							</linearGradient>
							<path class="st5" d="M2291.04,1624.41c-43.05,0-85.11-21.76-117.63-62.25c-27.25-33.92-44.75-77.82-49.27-123.6
								c-5.02-50.74,5.91-100.92,31.59-145.12c50.55-87,121.61-142.93,184.31-192.28c76.52-60.23,136.96-107.8,136.96-189.62h45.99
								c0,104.15-75.05,163.22-154.51,225.75c-59.46,46.8-126.85,99.84-172.99,179.24c-20.8,35.8-29.65,76.42-25.59,117.49
								c3.66,37,17.64,72.28,39.36,99.33c30.59,38.09,69.79,53.03,107.54,40.98l13.98,43.81
								C2317.61,1622.35,2304.28,1624.41,2291.04,1624.41z"/>
						</g>
						<linearGradient id="SVGID_7_" gradientUnits="userSpaceOnUse" x1="2022.5828" y1="1083.3278" x2="3432.6387" y2="4148.6709">
							<stop  offset="0" style="stop-color:#E6E7E8"/>
							<stop  offset="0.4494" style="stop-color:#939598"/>
							<stop  offset="1" style="stop-color:#231F20"/>
						</linearGradient>
						<path class="st6" d="M2092.11,1907.01c-54.95,0-111.81-9.81-166.49-29.56c-11.94-4.31-18.13-17.49-13.82-29.44
							c4.31-11.94,17.49-18.13,29.44-13.82c107.23,38.72,222.85,35.5,309.27-8.63c68.62-35.04,116.84-95.1,139.45-173.69
							c12.43-43.23,8.94-80.64,4.46-113.94c-31.41-0.93-63.39-9.5-89.04-25.38c-44.83-27.76-68.29-74.58-66.04-131.84
							c3.53-89.96,73.84-136.48,135.88-177.52c38.99-25.79,75.82-50.16,94.63-82.33c6.41-10.96,20.5-14.65,31.46-8.24
							c10.96,6.41,14.65,20.5,8.24,31.46c-24.22,41.4-67.29,69.9-108.95,97.47c-57.95,38.34-112.69,74.56-115.3,140.97
							c-1.61,41.14,13.29,71.73,44.3,90.94c17.83,11.04,38.9,16.71,59.24,18.16c-0.65-9.69-0.68-19.16,0.37-28.44
							c4.07-35.96,23.04-66.21,49.51-78.95c20.74-9.98,43.74-8.21,64.77,5.01c17.17,10.79,26.28,28.26,25.66,49.19
							c-0.92,30.83-24.03,65.49-54.95,82.42c-10.27,5.63-21.77,9.85-33.97,12.7c4.8,36.14,8.65,79.84-6.08,131.04
							c-26.22,91.13-82.49,160.96-162.73,201.93C2218.7,1893.45,2156.72,1907.01,2092.11,1907.01z M2466.18,1423.86
							c-3.15,0-5.61,0.9-7.52,1.81c-11.79,5.67-21.56,23.22-23.76,42.69c-0.67,5.88-0.67,12.24-0.26,19.08
							c6.5-1.82,12.4-4.15,17.46-6.92c18.1-9.91,30.68-30.48,31.07-43.47c0.17-5.67-1.96-7.49-4.16-8.87
							C2473.84,1424.92,2469.61,1423.86,2466.18,1423.86z"/>
						<linearGradient id="SVGID_8_" gradientUnits="userSpaceOnUse" x1="2426.533" y1="897.5107" x2="3836.5889" y2="3962.854">
							<stop  offset="0" style="stop-color:#E6E7E8"/>
							<stop  offset="0.4494" style="stop-color:#939598"/>
							<stop  offset="1" style="stop-color:#231F20"/>
						</linearGradient>
						<path class="st7" d="M2634.43,1274.85c-4.74,0-9.52-1.46-13.63-4.49c-13.37-9.85-27.92-19.48-41.99-28.79
							c-41.66-27.56-84.74-56.06-108.96-97.47c-6.41-10.96-2.72-25.05,8.24-31.46c10.96-6.41,25.05-2.72,31.46,8.24
							c18.82,32.17,55.65,56.54,94.64,82.33c14.55,9.63,29.6,19.58,43.91,30.13c10.22,7.54,12.4,21.93,4.86,32.15
							C2648.45,1271.61,2641.48,1274.85,2634.43,1274.85z"/>
						<g>
							<linearGradient id="SVGID_9_" gradientUnits="userSpaceOnUse" x1="2697.3591" y1="772.9307" x2="4107.415" y2="3838.2742">
								<stop  offset="0" style="stop-color:#E6E7E8"/>
								<stop  offset="0.4494" style="stop-color:#939598"/>
								<stop  offset="1" style="stop-color:#231F20"/>
							</linearGradient>
							<circle class="st8" cx="2965.58" cy="1356.01" r="28.96"/>
							<linearGradient id="SVGID_10_" gradientUnits="userSpaceOnUse" x1="2462.1211" y1="881.14" x2="3872.1772" y2="3946.4834">
								<stop  offset="0" style="stop-color:#E6E7E8"/>
								<stop  offset="0.4494" style="stop-color:#939598"/>
								<stop  offset="1" style="stop-color:#231F20"/>
							</linearGradient>
							<circle class="st9" cx="2727.1" cy="1457.19" r="28.96"/>
						</g>
					</g>
				</g>
				<g>
					<g>
						<linearGradient id="SVGID_11_" gradientUnits="userSpaceOnUse" x1="1906.3608" y1="1136.7898" x2="3316.4167" y2="4202.1333">
							<stop  offset="0" style="stop-color:#E6E7E8"/>
							<stop  offset="0.4494" style="stop-color:#939598"/>
							<stop  offset="1" style="stop-color:#231F20"/>
						</linearGradient>
						<path class="st10" d="M2222.2,2359.09c-16.36,0-33-1.1-49.9-3.31c-68.23-8.9-140.89-35.98-215.96-80.47
							c-10.93-6.47-14.53-20.58-8.06-31.5c6.47-10.93,20.58-14.53,31.5-8.06c69.68,41.29,136.46,66.34,198.47,74.43
							c56,7.31,108.5,0.83,156.03-19.26c54.39-22.99,101.91-63.26,141.26-119.71c16.44-23.58,31.27-49.93,44.23-78.41
							c-33.28-14.04-61.55-38.88-79.83-71.68c-18.95-34.01-26.3-75.02-21.24-118.59c5.54-47.79,25.48-97.94,59.26-149.08
							c3.54-5.35,9.15-8.99,15.48-10.02c6.34-1.03,12.81,0.63,17.86,4.58c1.3,1.01,32.05,25.28,58.68,66.48
							c36,55.69,47.57,116.11,33.47,174.72c-5.84,24.26-12.83,47.86-20.88,70.6c1.8,0.03,3.61,0.01,5.42-0.04
							c54.82-1.63,103.47-38.28,133.47-100.57c5.51-11.44,19.25-16.25,30.7-10.74c11.44,5.51,16.25,19.25,10.74,30.7
							c-19.43,40.32-45.36,71.95-77.07,94c-29.2,20.3-62.56,31.57-96.47,32.57c-8.28,0.25-16.48-0.12-24.54-1.06
							c-14.86,33.78-32.17,65.02-51.56,92.83c-44.39,63.68-98.59,109.36-161.09,135.77
							C2311.55,2350.46,2267.99,2359.09,2222.2,2359.09z M2501.96,1802.18c-42.44,74.41-50.56,145.02-21.83,196.56
							c13.08,23.47,33.27,41.29,57.06,51.47c8.38-22.97,15.61-46.97,21.57-71.74c11.14-46.31,2.19-92.68-26.62-137.82
							C2521.97,1824.73,2510.97,1811.7,2501.96,1802.18z"/>
					</g>
				</g>
			</g>
		</g>
		<g>
			<g>
				<g>
					<linearGradient id="SVGID_12_" gradientUnits="userSpaceOnUse" x1="1379.8226" y1="1378.9974" x2="2789.8787" y2="4444.3408">
						<stop  offset="0" style="stop-color:#E6E7E8"/>
						<stop  offset="0.4494" style="stop-color:#939598"/>
						<stop  offset="1" style="stop-color:#231F20"/>
					</linearGradient>
					<path class="st11" d="M1775.76,2174.74c11.31,11.31,11.31,29.64,0,40.95c-11.31,11.31-29.64,11.31-40.95,0
						c-11.31-11.31-11.31-29.64,0-40.95C1746.11,2163.43,1764.45,2163.43,1775.76,2174.74z"/>
					<linearGradient id="SVGID_13_" gradientUnits="userSpaceOnUse" x1="1292.4696" y1="1419.1797" x2="2702.5256" y2="4484.5229">
						<stop  offset="0" style="stop-color:#E6E7E8"/>
						<stop  offset="0.4494" style="stop-color:#939598"/>
						<stop  offset="1" style="stop-color:#231F20"/>
					</linearGradient>
					<circle class="st12" cx="1695.65" cy="2295.67" r="28.96"/>
					<linearGradient id="SVGID_14_" gradientUnits="userSpaceOnUse" x1="1430.3812" y1="1355.7405" x2="2840.4373" y2="4421.084">
						<stop  offset="0" style="stop-color:#E6E7E8"/>
						<stop  offset="0.4494" style="stop-color:#939598"/>
						<stop  offset="1" style="stop-color:#231F20"/>
					</linearGradient>
					<circle class="st13" cx="1766.12" cy="2085.61" r="28.96"/>
					<g>
						<g>
							
								<linearGradient id="SVGID_15_" gradientUnits="userSpaceOnUse" x1="1333.2842" y1="1400.4052" x2="2743.3401" y2="4465.7485">
								<stop  offset="0" style="stop-color:#E6E7E8"/>
								<stop  offset="0.4494" style="stop-color:#939598"/>
								<stop  offset="1" style="stop-color:#231F20"/>
							</linearGradient>
							<path class="st14" d="M1627.63,2068.98c-7.09,0-14.34-0.4-21.72-1.2c-43.25-4.72-86.67-23.39-122.24-52.56
								c-39.42-32.33-67.18-75.54-80.28-124.95c-25.77-97.27-15.07-187.06-5.63-266.29c11.52-96.7,20.62-173.07-37.23-230.92
								c-8.98-8.98-8.98-23.54,0-32.52c8.98-8.98,23.54-8.98,32.52,0c73.64,73.64,62.34,168.48,50.38,268.89
								c-8.95,75.14-19.1,160.29,4.42,249.07c10.6,40.02,33.07,75,64.98,101.17c28.75,23.58,63.58,38.64,98.07,42.4
								c48.56,5.3,86.84-11.85,105.01-47.07c5.82-11.28,19.69-15.71,30.98-9.89c11.28,5.83,15.71,19.7,9.89,30.98
								C1732.76,2042.63,1685.39,2068.98,1627.63,2068.98z"/>
						</g>
						<g>
							
								<linearGradient id="SVGID_16_" gradientUnits="userSpaceOnUse" x1="1924.0043" y1="1128.6738" x2="3334.0603" y2="4194.0171">
								<stop  offset="0" style="stop-color:#E6E7E8"/>
								<stop  offset="0.4494" style="stop-color:#939598"/>
								<stop  offset="1" style="stop-color:#231F20"/>
							</linearGradient>
							<path class="st15" d="M1935.93,1770.44c-26.18,0-52.7-7.19-76.66-21.4c-50.31-29.84-81.25-85.07-84.89-151.54
								c-2.38-43.41-1.72-99.98,21.86-162.91c-58.96-4.01-115.25,2.7-166.83,8.85c-100.41,11.96-195.24,23.26-268.89-50.38
								c-8.98-8.98-8.98-23.54,0-32.52c8.98-8.98,23.54-8.98,32.52,0c57.85,57.85,134.23,48.76,230.93,37.23
								c58.78-7,123.38-14.7,192.52-7.68c40.64-75.32,110.89-143.16,209.2-201.92c141.03-84.3,246.5-170.55,305.02-249.44
								c47.49-64.03,62.66-146.64,40.56-220.96c-3.62-12.17,3.32-24.97,15.49-28.59c12.17-3.62,24.98,3.32,28.59,15.49
								c26.2,88.13,8.36,185.87-47.71,261.47c-43.3,58.37-133.68,151.13-318.36,261.52c-84.61,50.57-146.35,107.58-184.07,169.87
								c8.29,1.71,16.64,3.66,25.04,5.89c50.07,13.27,93.82,41.78,126.52,82.45c29.49,36.68,47.99,81.07,52.09,124.99
								c6.23,66.67-21.22,121.35-73.42,146.27C1976.76,1766.02,1956.45,1770.44,1935.93,1770.44z M1843.47,1440.21
								c-24.7,59.28-25.43,113.58-23.17,154.77c2.79,50.89,25.54,92.62,62.43,114.5c29.52,17.51,64.24,19.79,92.9,6.11
								c16.36-7.81,53.73-33.23,47.44-100.49c-5.95-63.68-53.74-143.19-144.59-167.26
								C1866.75,1444.74,1855.07,1442.22,1843.47,1440.21z"/>
							<linearGradient id="SVGID_17_" gradientUnits="userSpaceOnUse" x1="1329.269" y1="1402.2522" x2="2739.325" y2="4467.5957">
								<stop  offset="0" style="stop-color:#E6E7E8"/>
								<stop  offset="0.4494" style="stop-color:#939598"/>
								<stop  offset="1" style="stop-color:#231F20"/>
							</linearGradient>
							<path class="st16" d="M1627.63,2068.98c-7.09,0-14.34-0.4-21.72-1.2c-43.25-4.72-86.67-23.39-122.24-52.56
								c-39.42-32.33-67.18-75.54-80.28-124.95c-25.77-97.27-15.07-187.06-5.63-266.29c11.52-96.7,20.62-173.07-37.23-230.92
								l32.52-32.52c73.64,73.64,62.34,168.48,50.38,268.89c-8.95,75.14-19.1,160.29,4.42,249.07c10.6,40.02,33.07,75,64.98,101.17
								c28.75,23.58,63.58,38.64,98.07,42.4c48.56,5.3,86.84-11.85,105.01-47.07l40.87,21.09
								C1732.76,2042.63,1685.39,2068.98,1627.63,2068.98z"/>
						</g>
						<linearGradient id="SVGID_18_" gradientUnits="userSpaceOnUse" x1="1372.3066" y1="1382.4548" x2="2782.3625" y2="4447.7983">
							<stop  offset="0" style="stop-color:#E6E7E8"/>
							<stop  offset="0.4494" style="stop-color:#939598"/>
							<stop  offset="1" style="stop-color:#231F20"/>
						</linearGradient>
						<path class="st17" d="M1643.89,2468.13c-8.64,0-16.92-4.89-20.83-13.23c-5.4-11.5-0.45-25.19,11.04-30.59
							c103.21-48.44,182.68-132.48,212.59-224.79c23.75-73.3,15.38-149.86-24.21-221.42c-21.77-39.36-50.7-63.34-77.41-83.72
							c-22.86,21.55-51.54,38.11-80.9,45.01c-51.33,12.07-101.03-4.45-139.92-46.52c-61.12-66.1-44.29-148.72-29.45-221.61
							c9.33-45.81,18.14-89.08,8.7-125.13c-3.22-12.29,4.13-24.85,16.42-28.07c12.29-3.22,24.85,4.13,28.07,16.42
							c12.15,46.4,1.84,97.01-8.12,145.96c-13.87,68.09-26.97,132.41,18.15,181.21c27.95,30.23,60.12,41.32,95.63,32.98
							c20.42-4.8,39.33-15.69,54.73-29.05c-7.31-6.4-14.03-13.07-19.85-20.37c-22.55-28.31-30.53-63.11-20.82-90.84
							c7.61-21.73,25.13-36.74,49.34-42.26c19.77-4.51,38.57,1.4,52.93,16.64c21.15,22.45,29.32,63.31,19.43,97.14
							c-3.29,11.24-8.42,22.36-15.03,33c28.95,22.16,62.57,50.34,88.36,96.96c45.9,82.98,55.49,172.15,27.72,257.86
							c-33.76,104.19-122.28,198.49-236.8,252.24C1650.48,2467.43,1647.16,2468.13,1643.89,2468.13z M1729.65,1756.62
							c-0.83,0-1.62,0.14-2.38,0.32c-11.45,2.61-14.71,8.46-16.17,12.63c-4.32,12.34,1.18,31.66,13.38,46.98
							c3.69,4.63,8.18,9.13,13.31,13.68c3.31-5.89,5.84-11.71,7.45-17.24c5.79-19.81,0.14-43.25-8.77-52.71
							C1733.77,1757.39,1731.58,1756.62,1729.65,1756.62z"/>
						<linearGradient id="SVGID_19_" gradientUnits="userSpaceOnUse" x1="1519.4929" y1="1314.7491" x2="2929.5488" y2="4380.0923">
							<stop  offset="0" style="stop-color:#E6E7E8"/>
							<stop  offset="0.4494" style="stop-color:#939598"/>
							<stop  offset="1" style="stop-color:#231F20"/>
						</linearGradient>
						<path class="st18" d="M1566.1,1568.06c-15.7,0-31.17-1.58-46.19-5.51c-12.28-3.22-19.64-15.78-16.42-28.07
							c3.22-12.28,15.79-19.64,28.07-16.42c36.05,9.44,79.32,0.63,125.13-8.7c17.1-3.48,34.78-7.08,52.36-9.74
							c12.57-1.9,24.28,6.74,26.18,19.3c1.9,12.56-6.74,24.28-19.3,26.18c-16.42,2.48-33.52,5.97-50.06,9.33
							C1632.77,1561.17,1598.91,1568.06,1566.1,1568.06z"/>
						<g>
							
								<linearGradient id="SVGID_20_" gradientUnits="userSpaceOnUse" x1="1914.9424" y1="1132.8423" x2="3324.9983" y2="4198.1855">
								<stop  offset="0" style="stop-color:#E6E7E8"/>
								<stop  offset="0.4494" style="stop-color:#939598"/>
								<stop  offset="1" style="stop-color:#231F20"/>
							</linearGradient>
							<circle class="st19" cx="2020.29" cy="1361.87" r="28.96"/>
							
								<linearGradient id="SVGID_21_" gradientUnits="userSpaceOnUse" x1="1743.6276" y1="1211.6471" x2="3153.6836" y2="4276.9907">
								<stop  offset="0" style="stop-color:#E6E7E8"/>
								<stop  offset="0.4494" style="stop-color:#939598"/>
								<stop  offset="1" style="stop-color:#231F20"/>
							</linearGradient>
							<circle class="st20" cx="1923.2" cy="1602.03" r="28.96"/>
						</g>
					</g>
				</g>
				<g>
					<g>
						<linearGradient id="SVGID_22_" gradientUnits="userSpaceOnUse" x1="1633.1547" y1="1262.4647" x2="3043.2107" y2="4327.8081">
							<stop  offset="0" style="stop-color:#E6E7E8"/>
							<stop  offset="0.4494" style="stop-color:#939598"/>
							<stop  offset="1" style="stop-color:#231F20"/>
						</linearGradient>
						<path class="st21" d="M1950.98,2726.28c-10.25,0-19.6-6.91-22.26-17.3c-3.15-12.3,4.28-24.83,16.58-27.98
							c78.47-20.08,143.4-49.58,192.97-87.71c44.77-34.43,77.31-76.14,96.72-123.95c22.2-54.71,27.33-116.8,15.24-184.54
							c-5.05-28.29-13.19-57.42-24.17-86.72c-33.47,13.6-71.02,16.03-107.14,5.76c-37.45-10.65-71.64-34.45-98.88-68.83
							c-29.87-37.71-51.24-87.28-63.51-147.32c-1.28-6.29,0.12-12.82,3.86-18.03c3.75-5.21,9.5-8.62,15.87-9.4
							c1.63-0.2,40.54-4.78,88.5,5.52c64.83,13.92,115.74,48.46,147.21,99.88c13.02,21.28,24.77,42.91,35.16,64.68
							c1.29-1.25,2.56-2.54,3.8-3.86c37.61-39.91,46.09-100.23,23.27-165.49c-4.19-11.99,2.13-25.1,14.11-29.3
							c11.99-4.19,25.1,2.13,29.3,14.11c14.78,42.25,18.81,82.95,11.97,120.97c-6.29,35-21.91,66.55-45.18,91.24
							c-5.68,6.03-11.74,11.57-18.1,16.6c13.38,34.39,23.23,68.72,29.19,102.1c13.64,76.41,7.62,147.04-17.9,209.91
							c-22.52,55.48-59.96,103.63-111.29,143.11c-54.54,41.95-125.06,74.18-209.61,95.81
							C1954.79,2726.04,1952.87,2726.28,1950.98,2726.28z M2007.95,2005.18c22.6,82.63,66.79,138.29,123.55,154.43
							c25.85,7.35,52.73,5.67,76.74-3.95c-10.32-22.17-22.18-44.25-35.48-65.98c-24.87-40.63-63.99-67.08-116.28-78.63
							C2038.05,2006.98,2021.06,2005.54,2007.95,2005.18z"/>
					</g>
				</g>
			</g>
		</g>
	</g>
	<g>
		<g>
			<g>
				<g>
					<linearGradient id="SVGID_23_" gradientUnits="userSpaceOnUse" x1="1148.1521" y1="1485.5659" x2="2558.208" y2="4550.9092">
						<stop  offset="0" style="stop-color:#E6E7E8"/>
						<stop  offset="0.4494" style="stop-color:#939598"/>
						<stop  offset="1" style="stop-color:#231F20"/>
					</linearGradient>
					<circle class="st22" cx="1757.89" cy="2811.08" r="28.96"/>
					<linearGradient id="SVGID_24_" gradientUnits="userSpaceOnUse" x1="1129.006" y1="1494.373" x2="2539.062" y2="4559.7163">
						<stop  offset="0" style="stop-color:#E6E7E8"/>
						<stop  offset="0.4494" style="stop-color:#939598"/>
						<stop  offset="1" style="stop-color:#231F20"/>
					</linearGradient>
					<circle class="st23" cx="1786.76" cy="2924.27" r="28.96"/>
					<linearGradient id="SVGID_25_" gradientUnits="userSpaceOnUse" x1="1122.847" y1="1497.2062" x2="2532.9031" y2="4562.5493">
						<stop  offset="0" style="stop-color:#E6E7E8"/>
						<stop  offset="0.4494" style="stop-color:#939598"/>
						<stop  offset="1" style="stop-color:#231F20"/>
					</linearGradient>
					<circle class="st24" cx="1688.05" cy="2725.91" r="28.96"/>
					<g>
						<g>
							<linearGradient id="SVGID_26_" gradientUnits="userSpaceOnUse" x1="816.8298" y1="1637.9741" x2="2226.8857" y2="4703.3174">
								<stop  offset="0" style="stop-color:#E6E7E8"/>
								<stop  offset="0.4494" style="stop-color:#939598"/>
								<stop  offset="1" style="stop-color:#231F20"/>
							</linearGradient>
							<path class="st25" d="M1414.53,2877.05c-42.45,0-83.89-11.16-121.09-32.78c-87-50.55-142.93-121.61-192.28-184.31
								c-60.23-76.52-107.8-136.96-189.62-136.96c-12.7,0-22.99-10.29-22.99-22.99s10.29-22.99,22.99-22.99
								c104.15,0,163.22,75.05,225.75,154.51c46.8,59.46,99.84,126.85,179.24,172.99c35.8,20.8,76.42,29.65,117.49,25.59
								c37-3.66,72.28-17.64,99.33-39.36c38.09-30.59,53.02-69.79,40.98-107.54c-3.86-12.1,2.82-25.04,14.91-28.9
								c12.1-3.86,25.04,2.82,28.9,14.91c17.88,56.03-3.05,114.86-55.99,157.38c-33.92,27.25-77.82,44.75-123.6,49.27
								C1430.53,2876.65,1422.51,2877.05,1414.53,2877.05z"/>
						</g>
						<g>
							<linearGradient id="SVGID_27_" gradientUnits="userSpaceOnUse" x1="920.218" y1="1590.4155" x2="2330.2739" y2="4655.7588">
								<stop  offset="0" style="stop-color:#E6E7E8"/>
								<stop  offset="0.4494" style="stop-color:#939598"/>
								<stop  offset="1" style="stop-color:#231F20"/>
							</linearGradient>
							<path class="st26" d="M911.54,2522.99c-12.7,0-22.99-10.29-22.99-22.99s10.29-22.99,22.99-22.99
								c81.82,0,129.39-60.44,189.62-136.96c36.61-46.52,76.84-97.63,130.7-141.57c-24.52-82-22.81-179.64,5.15-290.7
								c40.12-159.33,53.71-294.9,39.3-392.07c-11.69-78.86-59.38-147.99-127.56-184.93c-11.17-6.05-15.32-20-9.27-31.17
								c6.05-11.17,20.01-15.31,31.17-9.27c80.84,43.79,137.35,125.52,151.15,218.62c19.32,130.25-11.19,294.88-40.19,410.04
								c-24.07,95.58-27.41,179.56-10.04,250.27c7.07-4.66,14.35-9.18,21.87-13.54c44.79-26.02,95.89-36.8,147.76-31.16
								c46.79,5.09,91.26,23.39,125.21,51.55c51.55,42.74,70.8,100.81,51.51,155.35c-15.72,44.43-53.85,78.29-101.99,90.59
								c-56.67,14.47-117.61-2.71-167.18-47.13c-32.38-29.02-71.92-69.48-99.74-130.66c-44.52,38.85-79.58,83.4-111.71,124.22
								C1074.76,2447.94,1015.69,2522.99,911.54,2522.99z M1286.38,2214.85c24.45,59.38,62.34,98.3,93.06,125.83
								c37.96,34.01,83.56,47.43,125.11,36.82c33.25-8.49,59.42-31.43,70.01-61.37c6.05-17.09,14.49-61.49-37.51-104.6
								c-49.24-40.82-139.25-63.25-220.52-16.03C1306.04,2201.6,1296,2208.07,1286.38,2214.85z"/>
							<linearGradient id="SVGID_28_" gradientUnits="userSpaceOnUse" x1="822.8334" y1="1635.2124" x2="2232.8894" y2="4700.5557">
								<stop  offset="0" style="stop-color:#E6E7E8"/>
								<stop  offset="0.4494" style="stop-color:#939598"/>
								<stop  offset="1" style="stop-color:#231F20"/>
							</linearGradient>
							<path class="st27" d="M1414.53,2877.05c-42.45,0-83.89-11.16-121.09-32.78c-87-50.55-142.93-121.61-192.28-184.31
								c-60.23-76.52-107.8-136.96-189.62-136.96V2477c104.15,0,163.22,75.05,225.75,154.51c46.8,59.46,99.84,126.85,179.24,172.99
								c35.8,20.8,76.42,29.65,117.49,25.59c37-3.66,72.28-17.64,99.33-39.36c38.09-30.59,53.02-69.79,40.98-107.54l43.81-13.98
								c17.88,56.03-3.05,114.86-55.99,157.38c-33.92,27.25-77.82,44.75-123.6,49.27
								C1430.53,2876.65,1422.51,2877.05,1414.53,2877.05z"/>
						</g>
						<linearGradient id="SVGID_29_" gradientUnits="userSpaceOnUse" x1="997.3375" y1="1554.9406" x2="2407.3936" y2="4620.2837">
							<stop  offset="0" style="stop-color:#E6E7E8"/>
							<stop  offset="0.4494" style="stop-color:#939598"/>
							<stop  offset="1" style="stop-color:#231F20"/>
						</linearGradient>
						<path class="st28" d="M1855.83,3089.58c-2.59,0-5.23-0.44-7.81-1.37c-11.94-4.31-18.13-17.49-13.82-29.44
							c38.72-107.23,35.5-222.85-8.63-309.27c-35.04-68.62-95.1-116.84-173.69-139.45c-43.23-12.43-80.64-8.94-113.94-4.46
							c-0.93,31.41-9.5,63.39-25.38,89.04c-27.76,44.83-74.59,68.29-131.84,66.04c-89.96-3.53-136.48-73.84-177.52-135.88
							c-25.8-38.99-50.16-75.82-82.33-94.63c-10.96-6.41-14.65-20.5-8.24-31.46c6.41-10.96,20.5-14.65,31.46-8.24
							c41.4,24.22,69.9,67.29,97.47,108.95c38.34,57.95,74.56,112.69,140.97,115.3c41.15,1.62,71.73-13.29,90.94-44.3
							c11.04-17.83,16.71-38.9,18.16-59.24c-9.69,0.65-19.17,0.68-28.44-0.37c-35.96-4.07-66.21-23.04-78.95-49.51
							c-9.98-20.74-8.2-43.75,5.01-64.77c10.79-17.17,28.25-26.27,49.19-25.66c30.83,0.93,65.49,24.03,82.42,54.95
							c5.63,10.27,9.85,21.77,12.7,33.97c36.14-4.8,79.84-8.65,131.04,6.08c91.13,26.22,160.96,82.49,201.93,162.74
							c49.81,97.55,53.89,226.82,10.92,345.8C1874.07,3083.75,1865.24,3089.57,1855.83,3089.58z M1436.43,2516.81
							c-5.18,0-6.92,2.05-8.25,4.16c-6.25,9.94-4.42,16.38-2.51,20.36c5.67,11.79,23.23,21.56,42.69,23.76
							c5.88,0.67,12.24,0.67,19.08,0.26c-1.82-6.5-4.15-12.4-6.92-17.46c-9.91-18.1-30.48-30.68-43.47-31.07
							C1436.84,2516.81,1436.63,2516.81,1436.43,2516.81z"/>
						<linearGradient id="SVGID_30_" gradientUnits="userSpaceOnUse" x1="822.9078" y1="1635.1782" x2="2232.9639" y2="4700.5215">
							<stop  offset="0" style="stop-color:#E6E7E8"/>
							<stop  offset="0.4494" style="stop-color:#939598"/>
							<stop  offset="1" style="stop-color:#231F20"/>
						</linearGradient>
						<path class="st29" d="M1132.51,2533.3c-7.9,0-15.59-4.08-19.87-11.39c-6.41-10.96-2.72-25.05,8.24-31.46
							c32.17-18.82,56.54-55.64,82.33-94.63c9.63-14.55,19.58-29.6,30.13-43.91c7.54-10.22,21.93-12.4,32.15-4.86
							c10.22,7.54,12.4,21.93,4.86,32.15c-9.86,13.37-19.48,27.92-28.8,42c-27.56,41.66-56.06,84.74-97.47,108.95
							C1140.45,2532.28,1136.45,2533.3,1132.51,2533.3z"/>
						<g>
							
								<linearGradient id="SVGID_31_" gradientUnits="userSpaceOnUse" x1="1111.3328" y1="1502.5028" x2="2521.3887" y2="4567.8462">
								<stop  offset="0" style="stop-color:#E6E7E8"/>
								<stop  offset="0.4494" style="stop-color:#939598"/>
								<stop  offset="1" style="stop-color:#231F20"/>
							</linearGradient>
							<circle class="st30" cx="1356.02" cy="2034.42" r="28.96"/>
							
								<linearGradient id="SVGID_32_" gradientUnits="userSpaceOnUse" x1="1104.2949" y1="1505.7402" x2="2514.3508" y2="4571.0835">
								<stop  offset="0" style="stop-color:#E6E7E8"/>
								<stop  offset="0.4494" style="stop-color:#939598"/>
								<stop  offset="1" style="stop-color:#231F20"/>
							</linearGradient>
							<circle class="st31" cx="1457.19" cy="2272.9" r="28.96"/>
						</g>
					</g>
				</g>
				<g>
					<g>
						<linearGradient id="SVGID_33_" gradientUnits="userSpaceOnUse" x1="1468.1466" y1="1338.3685" x2="2878.2026" y2="4403.7119">
							<stop  offset="0" style="stop-color:#E6E7E8"/>
							<stop  offset="0.4494" style="stop-color:#939598"/>
							<stop  offset="1" style="stop-color:#231F20"/>
						</linearGradient>
						<path class="st32" d="M2255.51,3054.94c-3.99,0-8.02-1.04-11.7-3.22c-10.93-6.47-14.53-20.58-8.06-31.5
							c41.29-69.68,66.34-136.46,74.43-198.47c7.31-56.01,0.83-108.5-19.26-156.03c-22.98-54.39-63.26-101.92-119.71-141.27
							c-23.58-16.44-49.93-31.27-78.41-44.23c-14.05,33.28-38.88,61.56-71.68,79.83c-34.01,18.95-75.02,26.3-118.59,21.24
							c-47.79-5.54-97.94-25.48-149.08-59.26c-5.35-3.54-8.99-9.15-10.02-15.48c-1.03-6.33,0.63-12.81,4.58-17.86
							c1.01-1.3,25.28-32.04,66.48-58.68c55.69-36,116.11-47.57,174.72-33.47c24.26,5.84,47.86,12.83,70.6,20.88
							c0.03-1.8,0.01-3.61-0.04-5.42c-1.63-54.82-38.28-103.47-100.57-133.47c-11.44-5.51-16.25-19.25-10.74-30.7
							c5.51-11.44,19.25-16.25,30.7-10.74c40.32,19.43,71.95,45.36,94,77.07c20.3,29.2,31.57,62.56,32.57,96.47
							c0.25,8.28-0.12,16.48-1.06,24.54c33.78,14.86,65.02,32.17,92.83,51.56c63.68,44.39,109.36,98.59,135.77,161.09
							c23.31,55.15,30.88,115.68,22.5,179.89c-8.9,68.23-35.98,140.89-80.47,215.96
							C2271.02,3050.91,2263.37,3054.94,2255.51,3054.94z M1802.18,2498.04c74.41,42.44,145.02,50.56,196.56,21.84
							c23.47-13.08,41.29-33.27,51.47-57.06c-22.97-8.38-46.97-15.61-71.74-21.57c-46.31-11.14-92.68-2.19-137.82,26.62
							C1824.73,2478.03,1811.7,2489.02,1802.18,2498.04z"/>
					</g>
				</g>
			</g>
		</g>
		<g>
			<g>
				<g>
					<linearGradient id="SVGID_34_" gradientUnits="userSpaceOnUse" x1="1344.464" y1="1395.2623" x2="2754.52" y2="4460.6055">
						<stop  offset="0" style="stop-color:#E6E7E8"/>
						<stop  offset="0.4494" style="stop-color:#939598"/>
						<stop  offset="1" style="stop-color:#231F20"/>
					</linearGradient>
					<path class="st33" d="M2174.74,3224.24c11.31-11.31,29.64-11.31,40.95,0c11.31,11.31,11.31,29.64,0,40.95
						c-11.31,11.31-29.64,11.31-40.95,0S2163.43,3235.55,2174.74,3224.24z"/>
					<linearGradient id="SVGID_35_" gradientUnits="userSpaceOnUse" x1="1404.7404" y1="1367.5353" x2="2814.7964" y2="4432.8789">
						<stop  offset="0" style="stop-color:#E6E7E8"/>
						<stop  offset="0.4494" style="stop-color:#939598"/>
						<stop  offset="1" style="stop-color:#231F20"/>
					</linearGradient>
					<circle class="st34" cx="2295.67" cy="3304.34" r="28.96"/>
					<linearGradient id="SVGID_36_" gradientUnits="userSpaceOnUse" x1="1258.1187" y1="1434.9812" x2="2668.1746" y2="4500.3247">
						<stop  offset="0" style="stop-color:#E6E7E8"/>
						<stop  offset="0.4494" style="stop-color:#939598"/>
						<stop  offset="1" style="stop-color:#231F20"/>
					</linearGradient>
					<circle class="st35" cx="2085.61" cy="3233.88" r="28.96"/>
					<g>
						<g>
							<linearGradient id="SVGID_37_" gradientUnits="userSpaceOnUse" x1="855.1215" y1="1620.36" x2="2265.1775" y2="4685.7031">
								<stop  offset="0" style="stop-color:#E6E7E8"/>
								<stop  offset="0.4494" style="stop-color:#939598"/>
								<stop  offset="1" style="stop-color:#231F20"/>
							</linearGradient>
							<path class="st36" d="M1376.79,3646.2c-5.89,0-11.77-2.25-16.26-6.73c-8.98-8.98-8.98-23.54,0-32.52
								c73.64-73.64,168.48-62.34,268.88-50.38c75.14,8.95,160.29,19.1,249.07-4.42c40.02-10.6,75-33.07,101.17-64.98
								c23.58-28.75,38.64-63.58,42.4-98.07c5.3-48.56-11.85-86.84-47.07-105.01c-11.28-5.82-15.71-19.69-9.89-30.98
								c5.83-11.29,19.69-15.72,30.98-9.89c52.26,26.97,79.06,83.37,71.69,150.87c-4.72,43.25-23.39,86.67-52.56,122.24
								c-32.33,39.42-75.54,67.18-124.96,80.28c-97.27,25.77-187.06,15.07-266.29,5.63c-96.69-11.52-173.07-20.62-230.92,37.23
								C1388.56,3643.96,1382.68,3646.2,1376.79,3646.2z"/>
						</g>
						<g>
							<linearGradient id="SVGID_38_" gradientUnits="userSpaceOnUse" x1="707.5172" y1="1688.2579" x2="2117.5732" y2="4753.6011">
								<stop  offset="0" style="stop-color:#E6E7E8"/>
								<stop  offset="0.4494" style="stop-color:#939598"/>
								<stop  offset="1" style="stop-color:#231F20"/>
							</linearGradient>
							<path class="st37" d="M1376.79,3646.2c-5.89,0-11.77-2.25-16.26-6.73c-8.98-8.98-8.98-23.54,0-32.52
								c57.85-57.85,48.75-134.23,37.23-230.92c-7-58.78-14.7-123.37-7.68-192.52c-75.32-40.64-143.16-110.89-201.92-209.2
								c-84.3-141.03-170.55-246.5-249.44-305.02c-64.03-47.49-146.64-62.66-220.96-40.56c-12.18,3.62-24.98-3.32-28.59-15.49
								c-3.62-12.17,3.32-24.97,15.49-28.59c88.12-26.2,185.87-8.37,261.47,47.71c58.37,43.3,151.13,133.68,261.52,318.36
								c50.57,84.61,107.58,146.35,169.87,184.07c1.71-8.29,3.66-16.64,5.89-25.04c13.27-50.07,41.78-93.82,82.45-126.52
								c36.68-29.49,81.07-47.99,124.99-52.09c66.67-6.23,121.35,21.22,146.27,73.43c20.3,42.53,17.29,93.44-8.06,136.17
								c-29.84,50.31-85.07,81.25-151.54,84.89c-43.42,2.38-99.98,1.72-162.91-21.86c-4.01,58.95,2.7,115.25,8.85,166.83
								c11.96,100.41,23.26,195.24-50.38,268.89C1388.56,3643.96,1382.68,3646.2,1376.79,3646.2z M1440.21,3156.53
								c59.28,24.69,113.58,25.43,154.77,23.17c50.89-2.79,92.62-25.54,114.5-62.43c17.51-29.51,19.79-64.24,6.11-92.9
								c-7.81-16.36-33.23-53.73-100.49-47.44c-63.68,5.95-143.19,53.74-167.26,144.6
								C1444.74,3133.25,1442.22,3144.93,1440.21,3156.53z"/>
							<linearGradient id="SVGID_39_" gradientUnits="userSpaceOnUse" x1="861.946" y1="1617.2207" x2="2272.002" y2="4682.564">
								<stop  offset="0" style="stop-color:#E6E7E8"/>
								<stop  offset="0.4494" style="stop-color:#939598"/>
								<stop  offset="1" style="stop-color:#231F20"/>
							</linearGradient>
							<path class="st38" d="M1393.05,3639.47l-32.52-32.52c73.64-73.64,168.48-62.34,268.88-50.38
								c75.14,8.95,160.29,19.1,249.07-4.42c40.02-10.6,75-33.07,101.17-64.98c23.58-28.75,38.64-63.58,42.4-98.07
								c5.3-48.56-11.85-86.84-47.07-105.01l21.09-40.87c52.26,26.97,79.06,83.37,71.69,150.87
								c-4.72,43.25-23.39,86.67-52.56,122.24c-32.33,39.42-75.54,67.18-124.96,80.28c-97.27,25.77-187.06,15.07-266.29,5.63
								C1527.28,3590.72,1450.9,3581.62,1393.05,3639.47z"/>
						</g>
						<linearGradient id="SVGID_40_" gradientUnits="userSpaceOnUse" x1="1112.6095" y1="1501.9155" x2="2522.6655" y2="4567.2588">
							<stop  offset="0" style="stop-color:#E6E7E8"/>
							<stop  offset="0.4494" style="stop-color:#939598"/>
							<stop  offset="1" style="stop-color:#231F20"/>
						</linearGradient>
						<path class="st39" d="M1774.66,3519.17c-34.83,0-70.12-7.19-103.4-13.96c-45.81-9.33-89.08-18.14-125.13-8.7
							c-12.28,3.21-24.85-4.13-28.07-16.42c-3.22-12.28,4.13-24.85,16.42-28.07c46.4-12.15,97.02-1.84,145.96,8.12
							c68.09,13.87,132.41,26.97,181.21-18.15c30.23-27.95,41.32-60.12,32.98-95.63c-4.8-20.42-15.69-39.33-29.05-54.73
							c-6.4,7.31-13.07,14.04-20.37,19.85c-28.31,22.55-63.11,30.52-90.84,20.82c-21.73-7.61-36.74-25.13-42.26-49.34
							c-4.51-19.77,1.4-38.57,16.64-52.93c22.45-21.15,63.31-29.32,97.14-19.43c11.24,3.29,22.36,8.43,33,15.04
							c22.16-28.95,50.34-62.57,96.96-88.36c82.98-45.9,172.15-55.49,257.86-27.72c104.19,33.76,198.49,122.28,252.24,236.8
							c5.4,11.5,0.45,25.19-11.04,30.59c-11.49,5.39-25.19,0.45-30.59-11.04c-48.44-103.21-132.48-182.68-224.79-212.59
							c-73.3-23.75-149.86-15.38-221.42,24.21c-39.36,21.77-63.34,50.7-83.72,77.41c21.56,22.87,38.11,51.54,45.01,80.91
							c12.07,51.33-4.45,101.02-46.52,139.92C1856.94,3508.97,1816.13,3519.16,1774.66,3519.17z M1795.79,3252.39
							c-14.7,0-28.71,4.72-35.51,11.12c-4.13,3.89-3.91,6.69-3.34,9.21c2.61,11.45,8.46,14.71,12.63,16.17
							c12.34,4.32,31.66-1.18,46.98-13.38c4.63-3.69,9.13-8.19,13.68-13.31c-5.89-3.31-11.71-5.84-17.24-7.45
							C1807.41,3253.11,1801.54,3252.39,1795.79,3252.39z"/>
						<linearGradient id="SVGID_41_" gradientUnits="userSpaceOnUse" x1="744.8323" y1="1671.0929" x2="2154.8882" y2="4736.436">
							<stop  offset="0" style="stop-color:#E6E7E8"/>
							<stop  offset="0.4494" style="stop-color:#939598"/>
							<stop  offset="1" style="stop-color:#231F20"/>
						</linearGradient>
						<path class="st40" d="M1540.32,3497.26c-1.93,0-3.89-0.24-5.84-0.76c-12.28-3.22-19.64-15.79-16.42-28.07
							c9.44-36.05,0.63-79.32-8.7-125.13c-3.48-17.1-7.08-34.78-9.74-52.35c-1.9-12.56,6.74-24.28,19.3-26.17
							c12.57-1.9,24.28,6.74,26.18,19.3c2.48,16.42,5.97,33.52,9.33,50.05c9.97,48.95,20.28,99.56,8.12,145.96
							C1559.84,3490.42,1550.52,3497.26,1540.32,3497.26z"/>
						<g>
							<linearGradient id="SVGID_42_" gradientUnits="userSpaceOnUse" x1="757.274" y1="1665.3699" x2="2167.3298" y2="4730.7134">
								<stop  offset="0" style="stop-color:#E6E7E8"/>
								<stop  offset="0.4494" style="stop-color:#939598"/>
								<stop  offset="1" style="stop-color:#231F20"/>
							</linearGradient>
							<circle class="st41" cx="1361.87" cy="2979.71" r="28.96"/>
							<linearGradient id="SVGID_43_" gradientUnits="userSpaceOnUse" x1="918.6357" y1="1591.1434" x2="2328.6917" y2="4656.4868">
								<stop  offset="0" style="stop-color:#E6E7E8"/>
								<stop  offset="0.4494" style="stop-color:#939598"/>
								<stop  offset="1" style="stop-color:#231F20"/>
							</linearGradient>
							<circle class="st42" cx="1602.03" cy="3076.79" r="28.96"/>
						</g>
					</g>
				</g>
				<g>
					<g>
						<linearGradient id="SVGID_44_" gradientUnits="userSpaceOnUse" x1="1551.4661" y1="1300.0415" x2="2961.522" y2="4365.3848">
							<stop  offset="0" style="stop-color:#E6E7E8"/>
							<stop  offset="0.4494" style="stop-color:#939598"/>
							<stop  offset="1" style="stop-color:#231F20"/>
						</linearGradient>
						<path class="st43" d="M2703.26,3072c-10.25,0-19.6-6.91-22.26-17.3c-20.07-78.47-49.58-143.4-87.71-192.97
							c-34.43-44.77-76.13-77.31-123.95-96.72c-54.71-22.2-116.8-27.33-184.54-15.24c-28.29,5.05-57.42,13.19-86.72,24.17
							c13.6,33.46,16.03,71.02,5.76,107.14c-10.65,37.45-34.45,71.64-68.83,98.88c-37.71,29.87-87.28,51.24-147.32,63.51
							c-6.29,1.28-12.82-0.12-18.03-3.86c-5.21-3.75-8.62-9.5-9.4-15.87c-0.2-1.63-4.78-40.53,5.52-88.5
							c13.92-64.83,48.46-115.74,99.88-147.21c21.28-13.02,42.91-24.77,64.68-35.16c-1.26-1.29-2.54-2.56-3.86-3.8
							c-39.91-37.61-100.23-46.09-165.49-23.27c-11.99,4.19-25.1-2.13-29.3-14.11c-4.19-11.99,2.13-25.1,14.11-29.3
							c42.25-14.78,82.95-18.81,120.97-11.97c35,6.29,66.55,21.91,91.24,45.18c6.03,5.68,11.57,11.74,16.6,18.1
							c34.39-13.38,68.72-23.23,102.1-29.19c76.42-13.64,147.04-7.62,209.91,17.9c55.48,22.52,103.63,59.96,143.11,111.29
							c41.95,54.54,74.18,125.06,95.81,209.61c3.15,12.3-4.28,24.83-16.58,27.98C2707.06,3071.77,2705.15,3072,2703.26,3072z
							 M2155.66,2791.76c-22.17,10.32-44.25,22.18-65.98,35.48c-40.63,24.87-67.08,63.99-78.63,116.28
							c-4.07,18.43-5.51,35.42-5.87,48.53c82.63-22.6,138.29-66.79,154.43-123.55C2166.96,2842.65,2165.28,2815.77,2155.66,2791.76z
							"/>
					</g>
				</g>
			</g>
		</g>
	</g>
	<g>
		<g>
			<g>
				<g>
					<linearGradient id="SVGID_45_" gradientUnits="userSpaceOnUse" x1="1853.7615" y1="1160.9855" x2="3263.8174" y2="4226.3286">
						<stop  offset="0" style="stop-color:#E6E7E8"/>
						<stop  offset="0.4494" style="stop-color:#939598"/>
						<stop  offset="1" style="stop-color:#231F20"/>
					</linearGradient>
					<circle class="st44" cx="2811.08" cy="3242.11" r="28.96"/>
					<linearGradient id="SVGID_46_" gradientUnits="userSpaceOnUse" x1="1958.1512" y1="1112.9663" x2="3368.2073" y2="4178.3096">
						<stop  offset="0" style="stop-color:#E6E7E8"/>
						<stop  offset="0.4494" style="stop-color:#939598"/>
						<stop  offset="1" style="stop-color:#231F20"/>
					</linearGradient>
					<circle class="st45" cx="2924.28" cy="3213.24" r="28.96"/>
					<linearGradient id="SVGID_47_" gradientUnits="userSpaceOnUse" x1="1756.9558" y1="1205.5162" x2="3167.0117" y2="4270.8594">
						<stop  offset="0" style="stop-color:#E6E7E8"/>
						<stop  offset="0.4494" style="stop-color:#939598"/>
						<stop  offset="1" style="stop-color:#231F20"/>
					</linearGradient>
					<circle class="st46" cx="2725.91" cy="3311.95" r="28.96"/>
					<g>
						<g>
							
								<linearGradient id="SVGID_48_" gradientUnits="userSpaceOnUse" x1="1526.4597" y1="1311.5444" x2="2936.5156" y2="4376.8877">
								<stop  offset="0" style="stop-color:#E6E7E8"/>
								<stop  offset="0.4494" style="stop-color:#939598"/>
								<stop  offset="1" style="stop-color:#231F20"/>
							</linearGradient>
							<path class="st47" d="M2500,4111.45c-12.7,0-22.99-10.29-22.99-22.99c0-104.15,75.05-163.22,154.51-225.75
								c59.46-46.8,126.85-99.84,172.99-179.24c20.8-35.8,29.65-76.42,25.59-117.49c-3.66-37-17.64-72.28-39.36-99.33
								c-30.59-38.09-69.79-53.03-107.54-40.98c-12.1,3.86-25.04-2.82-28.9-14.92c-3.86-12.1,2.82-25.04,14.92-28.9
								c56.03-17.87,114.86,3.05,157.37,55.99c27.25,33.92,44.75,77.82,49.27,123.6c5.01,50.74-5.91,100.92-31.59,145.12
								c-50.56,87-121.61,142.93-184.31,192.28c-76.52,60.23-136.96,107.8-136.96,189.62
								C2522.99,4101.16,2512.7,4111.45,2500,4111.45z"/>
						</g>
						<g>
							<linearGradient id="SVGID_49_" gradientUnits="userSpaceOnUse" x1="905.2206" y1="1597.3143" x2="2315.2766" y2="4662.6577">
								<stop  offset="0" style="stop-color:#E6E7E8"/>
								<stop  offset="0.4494" style="stop-color:#939598"/>
								<stop  offset="1" style="stop-color:#231F20"/>
							</linearGradient>
							<path class="st48" d="M2500,4111.45c-12.7,0-22.99-10.29-22.99-22.99c0-81.82-60.44-129.39-136.96-189.62
								c-46.52-36.61-97.63-76.84-141.57-130.7c-82,24.52-179.64,22.81-290.7-5.15c-159.33-40.12-294.91-53.7-392.06-39.3
								c-78.86,11.7-147.99,59.38-184.93,127.57c-6.05,11.16-20,15.32-31.17,9.27c-11.17-6.05-15.32-20-9.27-31.17
								c43.79-80.84,125.52-137.35,218.62-151.15c130.25-19.32,294.87,11.19,410.04,40.19c95.59,24.07,179.56,27.41,250.27,10.05
								c-4.66-7.07-9.17-14.35-13.54-21.87c-26.02-44.79-36.8-95.88-31.16-147.76c5.09-46.79,23.39-91.26,51.55-125.21
								c42.74-51.55,100.81-70.8,155.35-51.51c44.43,15.72,78.29,53.85,90.59,101.99c14.47,56.67-2.71,117.61-47.13,167.18
								c-29.02,32.38-69.48,71.92-130.66,99.74c38.85,44.52,83.4,79.58,124.22,111.71c79.46,62.54,154.51,121.61,154.51,225.75
								C2522.99,4101.16,2512.7,4111.45,2500,4111.45z M2289.3,3420.9c-21.25,0-49.78,8.28-77.78,42.04
								c-40.82,49.24-63.25,139.25-16.03,220.52c6.1,10.5,12.58,20.54,19.35,30.16c59.38-24.45,98.3-62.33,125.83-93.06
								c34.01-37.96,47.43-83.56,36.82-125.11c-8.49-33.25-31.43-59.42-61.37-70.02C2310.13,3423.32,2300.78,3420.9,2289.3,3420.9z"
								/>
							
								<linearGradient id="SVGID_50_" gradientUnits="userSpaceOnUse" x1="1527.4182" y1="1311.1035" x2="2937.4741" y2="4376.4468">
								<stop  offset="0" style="stop-color:#E6E7E8"/>
								<stop  offset="0.4494" style="stop-color:#939598"/>
								<stop  offset="1" style="stop-color:#231F20"/>
							</linearGradient>
							<path class="st49" d="M2522.99,4088.46h-45.99c0-104.15,75.05-163.22,154.51-225.75c59.46-46.8,126.85-99.84,172.99-179.24
								c20.8-35.8,29.65-76.42,25.59-117.49c-3.66-37-17.64-72.28-39.36-99.33c-30.59-38.09-69.79-53.03-107.54-40.98l-13.98-43.81
								c56.03-17.87,114.86,3.05,157.37,55.99c27.25,33.92,44.75,77.82,49.27,123.6c5.01,50.74-5.91,100.92-31.59,145.12
								c-50.56,87-121.61,142.93-184.31,192.28C2583.44,3959.07,2522.99,4006.64,2522.99,4088.46z"/>
						</g>
						<linearGradient id="SVGID_51_" gradientUnits="userSpaceOnUse" x1="1734.9451" y1="1215.6411" x2="3145.001" y2="4280.9844">
							<stop  offset="0" style="stop-color:#E6E7E8"/>
							<stop  offset="0.4494" style="stop-color:#939598"/>
							<stop  offset="1" style="stop-color:#231F20"/>
						</linearGradient>
						<path class="st50" d="M2510.28,3890.51c-3.94,0-7.94-1.01-11.59-3.15c-10.96-6.41-14.65-20.5-8.24-31.46
							c24.22-41.41,67.29-69.91,108.95-97.47c57.95-38.34,112.69-74.56,115.3-140.97c1.61-41.14-13.29-71.73-44.3-90.94
							c-17.83-11.04-38.9-16.71-59.24-18.16c0.65,9.7,0.68,19.17-0.37,28.44c-4.07,35.96-23.04,66.21-49.51,78.95
							c-20.74,9.98-43.75,8.21-64.77-5.01c-17.17-10.79-26.28-28.26-25.66-49.19c0.93-30.83,24.04-65.49,54.95-82.42
							c10.27-5.63,21.77-9.85,33.97-12.71c-4.8-36.14-8.65-79.84,6.08-131.04c26.22-91.13,82.49-160.96,162.73-201.93
							c97.55-49.8,226.82-53.89,345.8-10.92c11.94,4.31,18.13,17.49,13.82,29.44c-4.31,11.94-17.5,18.13-29.44,13.82
							c-107.24-38.73-222.85-35.5-309.27,8.62c-68.62,35.04-116.84,95.1-139.45,173.69c-12.43,43.22-8.94,80.63-4.46,113.94
							c31.41,0.93,63.39,9.5,89.03,25.38c44.83,27.76,68.29,74.58,66.04,131.84c-3.53,89.96-73.84,136.48-135.88,177.52
							c-38.99,25.8-75.82,50.16-94.63,82.33C2525.87,3886.43,2518.18,3890.51,2510.28,3890.51z M2565.35,3512.56
							c-6.51,1.82-12.41,4.15-17.46,6.92c-18.1,9.91-30.68,30.48-31.07,43.46c-0.17,5.67,1.96,7.5,4.16,8.88
							c9.94,6.25,16.38,4.42,20.36,2.51c11.79-5.67,21.56-23.22,23.76-42.68C2565.76,3525.77,2565.77,3519.4,2565.35,3512.56z"/>
						<linearGradient id="SVGID_52_" gradientUnits="userSpaceOnUse" x1="1330.9958" y1="1401.4578" x2="2741.0518" y2="4466.8013">
							<stop  offset="0" style="stop-color:#E6E7E8"/>
							<stop  offset="0.4494" style="stop-color:#939598"/>
							<stop  offset="1" style="stop-color:#231F20"/>
						</linearGradient>
						<path class="st51" d="M2510.32,3890.51c-7.9,0-15.59-4.08-19.87-11.39c-18.82-32.17-55.64-56.54-94.63-82.33
							c-14.55-9.63-29.6-19.58-43.91-30.13c-10.22-7.54-12.4-21.93-4.86-32.15c7.54-10.22,21.93-12.4,32.15-4.86
							c13.37,9.86,27.92,19.48,42,28.79c41.66,27.56,84.74,56.06,108.95,97.46c6.41,10.96,2.72,25.05-8.24,31.46
							C2518.26,3889.49,2514.26,3890.51,2510.32,3890.51z"/>
						<g>
							
								<linearGradient id="SVGID_53_" gradientUnits="userSpaceOnUse" x1="1060.1687" y1="1526.0382" x2="2470.2246" y2="4591.3813">
								<stop  offset="0" style="stop-color:#E6E7E8"/>
								<stop  offset="0.4494" style="stop-color:#939598"/>
								<stop  offset="1" style="stop-color:#231F20"/>
							</linearGradient>
							<circle class="st52" cx="2034.42" cy="3643.98" r="28.96"/>
							
								<linearGradient id="SVGID_54_" gradientUnits="userSpaceOnUse" x1="1295.4066" y1="1417.8289" x2="2705.4626" y2="4483.1724">
								<stop  offset="0" style="stop-color:#E6E7E8"/>
								<stop  offset="0.4494" style="stop-color:#939598"/>
								<stop  offset="1" style="stop-color:#231F20"/>
							</linearGradient>
							<circle class="st53" cx="2272.9" cy="3542.81" r="28.96"/>
						</g>
					</g>
				</g>
				<g>
					<g>
						<linearGradient id="SVGID_55_" gradientUnits="userSpaceOnUse" x1="1851.1676" y1="1162.1788" x2="3261.2236" y2="4227.522">
							<stop  offset="0" style="stop-color:#E6E7E8"/>
							<stop  offset="0.4494" style="stop-color:#939598"/>
							<stop  offset="1" style="stop-color:#231F20"/>
						</linearGradient>
						<path class="st54" d="M2502.85,3256.86c-5.1,0-10.09-1.69-14.16-4.88c-1.3-1.01-32.04-25.28-58.68-66.48
							c-36-55.69-47.57-116.11-33.47-174.72c5.84-24.26,12.83-47.86,20.88-70.6c-1.8-0.02-3.61-0.01-5.42,0.04
							c-54.82,1.63-103.47,38.28-133.47,100.57c-5.51,11.44-19.26,16.25-30.7,10.74c-11.44-5.51-16.25-19.25-10.74-30.7
							c19.43-40.32,45.36-71.95,77.07-94c29.2-20.3,62.56-31.57,96.47-32.57c8.28-0.25,16.48,0.12,24.54,1.06
							c14.86-33.78,32.17-65.02,51.56-92.83c44.39-63.68,98.59-109.36,161.09-135.77c55.15-23.31,115.68-30.88,179.89-22.5
							c68.23,8.91,140.89,35.98,215.96,80.47c10.93,6.47,14.53,20.58,8.06,31.5c-6.47,10.93-20.58,14.53-31.5,8.06
							c-69.69-41.29-136.46-66.34-198.47-74.43c-56.01-7.31-108.5-0.83-156.03,19.26c-54.39,22.98-101.91,63.26-141.26,119.71
							c-16.44,23.58-31.27,49.93-44.23,78.41c33.28,14.05,61.55,38.88,79.83,71.68c18.95,34.01,26.3,75.02,21.24,118.59
							c-5.54,47.79-25.48,97.94-59.26,149.08c-3.54,5.35-9.15,8.99-15.48,10.02C2505.32,3256.76,2504.08,3256.86,2502.85,3256.86z
							 M2462.82,2949.79c-8.38,22.97-15.61,46.97-21.57,71.74c-11.14,46.31-2.19,92.68,26.62,137.82
							c10.15,15.91,21.15,28.95,30.17,38.46c42.44-74.41,50.56-145.02,21.83-196.56C2506.8,2977.78,2486.6,2959.96,2462.82,2949.79z
							"/>
					</g>
				</g>
			</g>
		</g>
		<g>
			<g>
				<g>
					<linearGradient id="SVGID_56_" gradientUnits="userSpaceOnUse" x1="2377.7051" y1="919.9714" x2="3787.761" y2="3985.3147">
						<stop  offset="0" style="stop-color:#E6E7E8"/>
						<stop  offset="0.4494" style="stop-color:#939598"/>
						<stop  offset="1" style="stop-color:#231F20"/>
					</linearGradient>
					<path class="st55" d="M3224.24,2825.26c-11.31-11.31-11.31-29.64,0-40.95c11.31-11.31,29.64-11.31,40.95,0s11.31,29.64,0,40.95
						S3235.55,2836.57,3224.24,2825.26z"/>
					<linearGradient id="SVGID_57_" gradientUnits="userSpaceOnUse" x1="2465.0581" y1="879.7892" x2="3875.114" y2="3945.1326">
						<stop  offset="0" style="stop-color:#E6E7E8"/>
						<stop  offset="0.4494" style="stop-color:#939598"/>
						<stop  offset="1" style="stop-color:#231F20"/>
					</linearGradient>
					<circle class="st56" cx="3304.34" cy="2704.33" r="28.96"/>
					<linearGradient id="SVGID_58_" gradientUnits="userSpaceOnUse" x1="2327.1465" y1="943.2284" x2="3737.2024" y2="4008.5718">
						<stop  offset="0" style="stop-color:#E6E7E8"/>
						<stop  offset="0.4494" style="stop-color:#939598"/>
						<stop  offset="1" style="stop-color:#231F20"/>
					</linearGradient>
					<circle class="st57" cx="3233.88" cy="2914.39" r="28.96"/>
					<g>
						<g>
							<linearGradient id="SVGID_59_" gradientUnits="userSpaceOnUse" x1="2424.2439" y1="898.5637" x2="3834.2998" y2="3963.907">
								<stop  offset="0" style="stop-color:#E6E7E8"/>
								<stop  offset="0.4494" style="stop-color:#939598"/>
								<stop  offset="1" style="stop-color:#231F20"/>
							</linearGradient>
							<path class="st58" d="M3623.21,3646.2c-5.89,0-11.77-2.25-16.26-6.73c-73.64-73.64-62.34-168.48-50.38-268.89
								c8.95-75.14,19.1-160.29-4.42-249.07c-10.6-40.02-33.07-75-64.98-101.17c-28.75-23.58-63.58-38.64-98.07-42.4
								c-48.56-5.3-86.84,11.85-105.01,47.07c-5.83,11.29-19.69,15.71-30.98,9.89c-11.29-5.83-15.71-19.7-9.89-30.98
								c26.97-52.26,83.37-79.06,150.87-71.69c43.26,4.72,86.67,23.39,122.24,52.56c39.42,32.33,67.18,75.54,80.28,124.96
								c25.77,97.27,15.07,187.06,5.63,266.29c-11.52,96.7-20.62,173.07,37.23,230.92c8.98,8.98,8.98,23.54,0,32.52
								C3634.98,3643.96,3629.09,3646.2,3623.21,3646.2z"/>
						</g>
						<g>
							
								<linearGradient id="SVGID_60_" gradientUnits="userSpaceOnUse" x1="1833.5233" y1="1170.2952" x2="3243.5793" y2="4235.6387">
								<stop  offset="0" style="stop-color:#E6E7E8"/>
								<stop  offset="0.4494" style="stop-color:#939598"/>
								<stop  offset="1" style="stop-color:#231F20"/>
							</linearGradient>
							<path class="st59" d="M2606.67,4311.8c-9.91,0-19.06-6.46-22.03-16.45c-26.2-88.13-8.36-185.87,47.71-261.47
								c43.3-58.38,133.67-151.13,318.36-261.52c84.61-50.57,146.35-107.58,184.07-169.87c-8.29-1.71-16.64-3.66-25.04-5.89
								c-50.07-13.27-93.82-41.78-126.52-82.45c-29.49-36.68-47.99-81.07-52.09-124.99c-6.23-66.67,21.22-121.35,73.43-146.27
								c42.53-20.3,93.44-17.29,136.17,8.06c50.31,29.84,81.25,85.07,84.89,151.54c2.38,43.41,1.72,99.98-21.86,162.92
								c58.96,4,115.25-2.7,166.83-8.85c100.41-11.96,195.24-23.26,268.88,50.38c8.98,8.98,8.98,23.54,0,32.52
								c-8.98,8.98-23.54,8.98-32.52,0c-57.85-57.85-134.22-48.75-230.92-37.23c-58.77,7-123.38,14.7-192.52,7.68
								c-40.64,75.32-110.89,143.16-209.2,201.92c-141.03,84.3-246.5,170.55-305.02,249.44c-47.5,64.04-62.66,146.64-40.56,220.97
								c3.62,12.17-3.32,24.97-15.49,28.59C2611.05,4311.49,2608.84,4311.8,2606.67,4311.8z M3064.07,3275.55
								c-13.76,0-27.3,2.93-39.7,8.85c-16.36,7.81-53.73,33.23-47.45,100.49c5.95,63.68,53.74,143.19,144.6,167.26
								c11.74,3.11,23.42,5.63,35.01,7.65c24.7-59.28,25.43-113.58,23.17-154.77c-2.79-50.89-25.54-92.62-62.43-114.5
								C3100.53,3280.59,3082.11,3275.55,3064.07,3275.55z"/>
							<linearGradient id="SVGID_61_" gradientUnits="userSpaceOnUse" x1="2428.2593" y1="896.7166" x2="3838.3154" y2="3962.0598">
								<stop  offset="0" style="stop-color:#E6E7E8"/>
								<stop  offset="0.4494" style="stop-color:#939598"/>
								<stop  offset="1" style="stop-color:#231F20"/>
							</linearGradient>
							<path class="st60" d="M3606.95,3639.47c-73.64-73.64-62.34-168.48-50.38-268.89c8.95-75.14,19.1-160.29-4.42-249.07
								c-10.6-40.02-33.07-75-64.98-101.17c-28.75-23.58-63.58-38.64-98.07-42.4c-48.56-5.3-86.84,11.85-105.01,47.07l-40.87-21.09
								c26.97-52.26,83.37-79.06,150.87-71.69c43.26,4.72,86.67,23.39,122.24,52.56c39.42,32.33,67.18,75.54,80.28,124.96
								c25.77,97.27,15.07,187.06,5.63,266.29c-11.52,96.7-20.62,173.07,37.23,230.92L3606.95,3639.47z"/>
						</g>
						<linearGradient id="SVGID_62_" gradientUnits="userSpaceOnUse" x1="2385.2207" y1="916.5143" x2="3795.2769" y2="3981.8577">
							<stop  offset="0" style="stop-color:#E6E7E8"/>
							<stop  offset="0.4494" style="stop-color:#939598"/>
							<stop  offset="1" style="stop-color:#231F20"/>
						</linearGradient>
						<path class="st61" d="M3474.24,3482.69c-10.2,0-19.52-6.84-22.23-17.17c-12.15-46.4-1.84-97.01,8.12-145.96
							c13.87-68.09,26.97-132.41-18.15-181.21c-27.94-30.23-60.11-41.32-95.63-32.98c-20.42,4.8-39.32,15.69-54.73,29.05
							c7.31,6.4,14.03,13.07,19.85,20.37c22.55,28.31,30.52,63.11,20.82,90.84c-7.61,21.73-25.13,36.73-49.34,42.26
							c-19.78,4.52-38.57-1.4-52.93-16.64c-21.15-22.45-29.32-63.31-19.43-97.14c3.29-11.24,8.42-22.36,15.03-33
							c-28.95-22.16-62.57-50.34-88.36-96.96c-45.9-82.98-55.49-172.15-27.72-257.86c33.76-104.19,122.28-198.49,236.8-252.24
							c11.5-5.4,25.19-0.45,30.59,11.04c5.4,11.5,0.45,25.19-11.04,30.59c-103.21,48.44-182.68,132.48-212.59,224.79
							c-23.75,73.3-15.38,149.86,24.21,221.42c21.77,39.36,50.7,63.34,77.41,83.72c22.86-21.55,51.54-38.11,80.9-45.01
							c51.33-12.06,101.03,4.45,139.92,46.52c61.11,66.1,44.29,148.72,29.45,221.6c-9.33,45.81-18.14,89.08-8.7,125.13
							c3.22,12.28-4.13,24.85-16.42,28.07C3478.13,3482.45,3476.17,3482.69,3474.24,3482.69z M3262.2,3169.78
							c-3.31,5.89-5.84,11.71-7.45,17.24c-5.79,19.81-0.14,43.25,8.76,52.71c3.89,4.13,6.69,3.91,9.21,3.34
							c11.45-2.61,14.71-8.46,16.17-12.63c4.32-12.34-1.18-31.66-13.38-46.98C3271.83,3178.82,3267.33,3174.32,3262.2,3169.78z"/>
						<linearGradient id="SVGID_63_" gradientUnits="userSpaceOnUse" x1="2238.0361" y1="984.2194" x2="3648.092" y2="4049.5627">
							<stop  offset="0" style="stop-color:#E6E7E8"/>
							<stop  offset="0.4494" style="stop-color:#939598"/>
							<stop  offset="1" style="stop-color:#231F20"/>
						</linearGradient>
						<path class="st62" d="M3287.48,3500.64c-11.18,0-20.98-8.17-22.71-19.56c-1.9-12.56,6.74-24.28,19.3-26.18
							c16.42-2.48,33.53-5.97,50.06-9.33c48.94-9.97,99.56-20.27,145.95-8.12c12.29,3.22,19.64,15.79,16.42,28.07
							c-3.22,12.29-15.78,19.64-28.07,16.42c-36.06-9.44-79.32-0.63-125.13,8.7c-17.1,3.48-34.78,7.08-52.36,9.74
							C3289.78,3500.55,3288.62,3500.64,3287.48,3500.64z"/>
						<g>
							
								<linearGradient id="SVGID_64_" gradientUnits="userSpaceOnUse" x1="1842.5853" y1="1166.1266" x2="3252.6414" y2="4231.4697">
								<stop  offset="0" style="stop-color:#E6E7E8"/>
								<stop  offset="0.4494" style="stop-color:#939598"/>
								<stop  offset="1" style="stop-color:#231F20"/>
							</linearGradient>
							<circle class="st63" cx="2979.71" cy="3638.13" r="28.96"/>
							<linearGradient id="SVGID_65_" gradientUnits="userSpaceOnUse" x1="2013.9003" y1="1087.3218" x2="3423.9563" y2="4152.665">
								<stop  offset="0" style="stop-color:#E6E7E8"/>
								<stop  offset="0.4494" style="stop-color:#939598"/>
								<stop  offset="1" style="stop-color:#231F20"/>
							</linearGradient>
							<circle class="st64" cx="3076.79" cy="3397.96" r="28.96"/>
						</g>
					</g>
				</g>
				<g>
					<g>
						<linearGradient id="SVGID_66_" gradientUnits="userSpaceOnUse" x1="2124.3733" y1="1036.5042" x2="3534.4292" y2="4101.8477">
							<stop  offset="0" style="stop-color:#E6E7E8"/>
							<stop  offset="0.4494" style="stop-color:#939598"/>
							<stop  offset="1" style="stop-color:#231F20"/>
						</linearGradient>
						<path class="st65" d="M2704.08,3069.59c-9.5,0-18.39-5.93-21.71-15.41c-14.78-42.25-18.8-82.95-11.97-120.97
							c6.29-35,21.91-66.55,45.18-91.24c5.68-6.03,11.74-11.57,18.1-16.6c-13.38-34.39-23.23-68.72-29.19-102.1
							c-13.64-76.41-7.62-147.04,17.9-209.91c22.52-55.48,59.96-103.63,111.29-143.11c54.54-41.95,125.06-74.18,209.61-95.81
							c12.3-3.15,24.83,4.27,27.98,16.58c3.15,12.3-4.27,24.83-16.58,27.98c-78.47,20.08-143.4,49.58-192.97,87.71
							c-44.77,34.43-77.31,76.14-96.72,123.95c-22.2,54.71-27.33,116.8-15.24,184.54c5.05,28.29,13.19,57.42,24.17,86.72
							c33.47-13.6,71.02-16.03,107.14-5.76c37.45,10.65,71.64,34.45,98.87,68.83c29.87,37.71,51.24,87.27,63.51,147.32
							c1.28,6.29-0.11,12.82-3.86,18.03c-3.75,5.21-9.5,8.62-15.87,9.4c-1.63,0.2-40.53,4.78-88.5-5.52
							c-64.84-13.92-115.74-48.46-147.21-99.88c-13.02-21.28-24.77-42.91-35.16-64.68c-1.29,1.26-2.56,2.54-3.8,3.86
							c-37.61,39.91-46.09,100.23-23.27,165.49c4.19,11.99-2.13,25.1-14.11,29.3C2709.16,3069.17,2706.6,3069.59,2704.08,3069.59z
							 M2791.76,2844.34c10.32,22.17,22.18,44.25,35.48,65.98c24.87,40.63,63.99,67.08,116.28,78.63
							c18.43,4.07,35.43,5.51,48.53,5.87c-22.6-82.62-66.79-138.29-123.55-154.43C2842.65,2833.04,2815.77,2834.71,2791.76,2844.34z
							"/>
					</g>
				</g>
			</g>
		</g>
	</g>
	<g>
		<g>
			<g>
				<g>
					<linearGradient id="SVGID_67_" gradientUnits="userSpaceOnUse" x1="2609.3757" y1="813.403" x2="4019.4316" y2="3878.7463">
						<stop  offset="0" style="stop-color:#E6E7E8"/>
						<stop  offset="0.4494" style="stop-color:#939598"/>
						<stop  offset="1" style="stop-color:#231F20"/>
					</linearGradient>
					<circle class="st66" cx="3242.11" cy="2188.92" r="28.96"/>
					<linearGradient id="SVGID_68_" gradientUnits="userSpaceOnUse" x1="2628.5217" y1="804.5959" x2="4038.5776" y2="3869.9392">
						<stop  offset="0" style="stop-color:#E6E7E8"/>
						<stop  offset="0.4494" style="stop-color:#939598"/>
						<stop  offset="1" style="stop-color:#231F20"/>
					</linearGradient>
					<circle class="st67" cx="3213.24" cy="2075.72" r="28.96"/>
					<linearGradient id="SVGID_69_" gradientUnits="userSpaceOnUse" x1="2634.6807" y1="801.7627" x2="4044.7368" y2="3867.106">
						<stop  offset="0" style="stop-color:#E6E7E8"/>
						<stop  offset="0.4494" style="stop-color:#939598"/>
						<stop  offset="1" style="stop-color:#231F20"/>
					</linearGradient>
					<circle class="st68" cx="3311.95" cy="2274.09" r="28.96"/>
					<g>
						<g>
							<linearGradient id="SVGID_70_" gradientUnits="userSpaceOnUse" x1="2940.6975" y1="660.9951" x2="4350.7534" y2="3726.3384">
								<stop  offset="0" style="stop-color:#E6E7E8"/>
								<stop  offset="0.4494" style="stop-color:#939598"/>
								<stop  offset="1" style="stop-color:#231F20"/>
							</linearGradient>
							<path class="st69" d="M4088.46,2522.99c-104.15,0-163.22-75.05-225.76-154.51c-46.8-59.46-99.84-126.85-179.24-172.99
								c-35.8-20.8-76.42-29.65-117.49-25.59c-37,3.66-72.28,17.64-99.33,39.36c-38.09,30.59-53.02,69.79-40.98,107.54
								c3.86,12.1-2.82,25.04-14.92,28.9c-12.11,3.86-25.04-2.82-28.9-14.91c-17.88-56.03,3.05-114.86,55.99-157.38
								c33.92-27.25,77.82-44.74,123.6-49.27c50.74-5.02,100.92,5.91,145.12,31.59c87,50.55,142.93,121.62,192.28,184.31
								c60.23,76.52,107.8,136.96,189.62,136.96c12.7,0,22.99,10.29,22.99,22.99S4101.16,2522.99,4088.46,2522.99z"/>
						</g>
						<g>
							<linearGradient id="SVGID_71_" gradientUnits="userSpaceOnUse" x1="2837.3096" y1="708.5534" x2="4247.3657" y2="3773.8967">
								<stop  offset="0" style="stop-color:#E6E7E8"/>
								<stop  offset="0.4494" style="stop-color:#939598"/>
								<stop  offset="1" style="stop-color:#231F20"/>
							</linearGradient>
							<path class="st70" d="M3840.29,3712.43c-3.7,0-7.45-0.9-10.93-2.78c-80.84-43.79-137.35-125.51-151.15-218.62
								c-19.32-130.25,11.19-294.87,40.19-410.04c24.07-95.59,27.41-179.56,10.05-250.27c-7.07,4.66-14.35,9.17-21.87,13.54
								c-44.78,26.03-95.89,36.8-147.76,31.16c-46.79-5.09-91.26-23.39-125.21-51.55c-51.55-42.74-70.8-100.81-51.51-155.35
								c15.72-44.43,53.85-78.29,101.99-90.59c56.66-14.47,117.6,2.71,167.18,47.13c32.38,29.02,71.92,69.48,99.74,130.66
								c44.52-38.85,79.58-83.4,111.71-124.22c62.54-79.46,121.61-154.51,225.76-154.51c12.7,0,22.99,10.29,22.99,22.99
								s-10.29,22.99-22.99,22.99c-81.82,0-129.39,60.44-189.62,136.96c-36.61,46.52-76.84,97.63-130.7,141.57
								c24.52,82,22.81,179.64-5.15,290.7c-40.12,159.33-53.7,294.91-39.3,392.06c11.7,78.86,59.38,147.99,127.57,184.93
								c11.17,6.05,15.32,20,9.27,31.17C3856.36,3708.07,3848.45,3712.43,3840.29,3712.43z M3523.91,2618.95
								c-9.6,0-19.13,1.17-28.45,3.55c-33.25,8.49-59.42,31.43-70.02,61.37c-6.04,17.09-14.49,61.49,37.51,104.6
								c49.24,40.82,139.25,63.25,220.52,16.03c10.5-6.1,20.54-12.58,30.16-19.35c-24.45-59.38-62.33-98.3-93.06-125.83
								C3591.13,2632.95,3557.09,2618.95,3523.91,2618.95z"/>
							<linearGradient id="SVGID_72_" gradientUnits="userSpaceOnUse" x1="2934.6936" y1="663.7568" x2="4344.7495" y2="3729.1001">
								<stop  offset="0" style="stop-color:#E6E7E8"/>
								<stop  offset="0.4494" style="stop-color:#939598"/>
								<stop  offset="1" style="stop-color:#231F20"/>
							</linearGradient>
							<path class="st71" d="M4088.46,2522.99c-104.15,0-163.22-75.05-225.76-154.51c-46.8-59.46-99.84-126.85-179.24-172.99
								c-35.8-20.8-76.42-29.65-117.49-25.59c-37,3.66-72.28,17.64-99.33,39.36c-38.09,30.59-53.02,69.79-40.98,107.54l-43.81,13.98
								c-17.88-56.03,3.05-114.86,55.99-157.38c33.92-27.25,77.82-44.74,123.6-49.27c50.74-5.02,100.92,5.91,145.12,31.59
								c87,50.55,142.93,121.62,192.28,184.31c60.23,76.52,107.8,136.96,189.62,136.96V2522.99z"/>
						</g>
						<linearGradient id="SVGID_73_" gradientUnits="userSpaceOnUse" x1="2760.1904" y1="744.0282" x2="4170.2466" y2="3809.3716">
							<stop  offset="0" style="stop-color:#E6E7E8"/>
							<stop  offset="0.4494" style="stop-color:#939598"/>
							<stop  offset="1" style="stop-color:#231F20"/>
						</linearGradient>
						<path class="st72" d="M3563.59,2529.18c-0.67,0-1.34-0.01-2.02-0.03c-30.83-0.92-65.49-24.04-82.42-54.95
							c-5.63-10.27-9.85-21.77-12.71-33.97c-36.14,4.8-79.84,8.65-131.04-6.08c-91.13-26.22-160.96-82.49-201.93-162.73
							c-49.81-97.55-53.89-226.82-10.92-345.8c4.31-11.94,17.5-18.13,29.44-13.82c11.94,4.31,18.13,17.49,13.82,29.44
							c-38.72,107.23-35.5,222.85,8.63,309.27c35.04,68.62,95.1,116.84,173.69,139.45c43.22,12.43,80.63,8.94,113.94,4.46
							c0.93-31.41,9.5-63.39,25.38-89.03c27.77-44.83,74.57-68.27,131.84-66.04c89.96,3.53,136.48,73.84,177.52,135.88
							c25.8,38.99,50.16,75.82,82.33,94.63c10.96,6.41,14.65,20.5,8.24,31.46c-6.41,10.96-20.49,14.65-31.46,8.24
							c-41.4-24.22-69.9-67.29-97.46-108.95c-38.34-57.95-74.56-112.69-140.97-115.3c-41.14-1.62-71.73,13.29-90.93,44.3
							c-11.04,17.83-16.71,38.9-18.16,59.24c9.69-0.65,19.16-0.68,28.44,0.37c35.96,4.07,66.21,23.04,78.95,49.51
							c9.98,20.74,8.21,43.75-5.01,64.77C3600.32,2520.11,3583.62,2529.18,3563.59,2529.18z M3512.56,2434.65
							c1.82,6.5,4.15,12.4,6.92,17.46c9.91,18.1,30.48,30.68,43.47,31.07c5.66,0.19,7.5-1.96,8.87-4.16
							c6.25-9.94,4.42-16.38,2.51-20.36c-5.67-11.79-23.22-21.56-42.68-23.76C3525.77,2434.24,3519.4,2434.23,3512.56,2434.65z"/>
						<linearGradient id="SVGID_74_" gradientUnits="userSpaceOnUse" x1="2934.6201" y1="663.7907" x2="4344.6758" y2="3729.134">
							<stop  offset="0" style="stop-color:#E6E7E8"/>
							<stop  offset="0.4494" style="stop-color:#939598"/>
							<stop  offset="1" style="stop-color:#231F20"/>
						</linearGradient>
						<path class="st73" d="M3748.13,2657.44c-4.74,0-9.52-1.46-13.63-4.49c-10.22-7.54-12.4-21.93-4.86-32.15
							c9.86-13.37,19.48-27.92,28.79-42c27.56-41.66,56.06-84.74,97.46-108.95c10.96-6.41,25.05-2.72,31.46,8.24
							c6.41,10.96,2.72,25.05-8.24,31.46c-32.17,18.82-56.54,55.64-82.33,94.63c-9.63,14.55-19.58,29.6-30.13,43.91
							C3762.15,2654.21,3755.19,2657.44,3748.13,2657.44z"/>
						<g>
							<linearGradient id="SVGID_75_" gradientUnits="userSpaceOnUse" x1="2646.1951" y1="796.4661" x2="4056.251" y2="3861.8093">
								<stop  offset="0" style="stop-color:#E6E7E8"/>
								<stop  offset="0.4494" style="stop-color:#939598"/>
								<stop  offset="1" style="stop-color:#231F20"/>
							</linearGradient>
							<circle class="st74" cx="3643.98" cy="2965.58" r="28.96"/>
							<linearGradient id="SVGID_76_" gradientUnits="userSpaceOnUse" x1="2653.2329" y1="793.2287" x2="4063.2888" y2="3858.572">
								<stop  offset="0" style="stop-color:#E6E7E8"/>
								<stop  offset="0.4494" style="stop-color:#939598"/>
								<stop  offset="1" style="stop-color:#231F20"/>
							</linearGradient>
							<circle class="st75" cx="3542.81" cy="2727.1" r="28.96"/>
						</g>
					</g>
				</g>
				<g>
					<g>
						<linearGradient id="SVGID_77_" gradientUnits="userSpaceOnUse" x1="2289.3816" y1="960.6003" x2="3699.4375" y2="4025.9436">
							<stop  offset="0" style="stop-color:#E6E7E8"/>
							<stop  offset="0.4494" style="stop-color:#939598"/>
							<stop  offset="1" style="stop-color:#231F20"/>
						</linearGradient>
						<path class="st76" d="M3030.79,2765.19c-3.35,0-6.75-0.73-9.96-2.28c-40.32-19.43-71.95-45.36-94-77.07
							c-20.3-29.2-31.57-62.56-32.57-96.47c-0.25-8.28,0.12-16.48,1.06-24.54c-33.78-14.86-65.02-32.17-92.83-51.55
							c-63.68-44.39-109.36-98.59-135.77-161.09c-23.31-55.15-30.88-115.68-22.5-179.89c8.9-68.23,35.98-140.89,80.47-215.96
							c6.47-10.93,20.58-14.54,31.5-8.06c10.93,6.47,14.53,20.58,8.06,31.5c-41.3,69.69-66.34,136.46-74.43,198.47
							c-7.31,56-0.83,108.5,19.26,156.03c22.98,54.39,63.26,101.92,119.71,141.26c23.58,16.44,49.93,31.27,78.41,44.23
							c14.04-33.28,38.88-61.55,71.68-79.83c34.01-18.95,75.02-26.3,118.59-21.24c47.79,5.54,97.94,25.48,149.08,59.26
							c5.35,3.54,8.99,9.15,10.02,15.48c1.03,6.33-0.63,12.81-4.58,17.86c-1.01,1.3-25.28,32.04-66.48,58.68
							c-55.69,36-116.11,47.57-174.72,33.47c-24.26-5.84-47.86-12.83-70.6-20.88c-0.03,1.8-0.01,3.61,0.04,5.42
							c1.63,54.82,38.28,103.47,100.57,133.47c11.44,5.51,16.25,19.25,10.74,30.7C3047.56,2760.39,3039.34,2765.19,3030.79,2765.19z
							 M2949.79,2537.18c22.97,8.38,46.98,15.61,71.75,21.57c46.32,11.14,92.68,2.19,137.82-26.62
							c15.91-10.15,28.94-21.15,38.46-30.17c-74.41-42.44-145.02-50.56-196.56-21.84C2977.78,2493.2,2959.96,2513.4,2949.79,2537.18
							z"/>
					</g>
				</g>
			</g>
		</g>
		<g>
			<g>
				<g>
					<linearGradient id="SVGID_78_" gradientUnits="userSpaceOnUse" x1="2413.0637" y1="903.7066" x2="3823.1196" y2="3969.0498">
						<stop  offset="0" style="stop-color:#E6E7E8"/>
						<stop  offset="0.4494" style="stop-color:#939598"/>
						<stop  offset="1" style="stop-color:#231F20"/>
					</linearGradient>
					<path class="st77" d="M2825.26,1775.76c-11.31,11.31-29.64,11.31-40.95,0c-11.31-11.31-11.31-29.64,0-40.95
						c11.31-11.31,29.64-11.31,40.95,0C2836.57,1746.11,2836.57,1764.45,2825.26,1775.76z"/>
					<linearGradient id="SVGID_79_" gradientUnits="userSpaceOnUse" x1="2352.7874" y1="931.4335" x2="3762.8435" y2="3996.7769">
						<stop  offset="0" style="stop-color:#E6E7E8"/>
						<stop  offset="0.4494" style="stop-color:#939598"/>
						<stop  offset="1" style="stop-color:#231F20"/>
					</linearGradient>
					<circle class="st78" cx="2704.33" cy="1695.65" r="28.96"/>
					<linearGradient id="SVGID_80_" gradientUnits="userSpaceOnUse" x1="2499.4092" y1="863.9876" x2="3909.4651" y2="3929.3311">
						<stop  offset="0" style="stop-color:#E6E7E8"/>
						<stop  offset="0.4494" style="stop-color:#939598"/>
						<stop  offset="1" style="stop-color:#231F20"/>
					</linearGradient>
					<circle class="st79" cx="2914.39" cy="1766.12" r="28.96"/>
					<g>
						<g>
							<linearGradient id="SVGID_81_" gradientUnits="userSpaceOnUse" x1="2902.4063" y1="678.6089" x2="4312.4624" y2="3743.9521">
								<stop  offset="0" style="stop-color:#E6E7E8"/>
								<stop  offset="0.4494" style="stop-color:#939598"/>
								<stop  offset="1" style="stop-color:#231F20"/>
							</linearGradient>
							<path class="st80" d="M3014.44,1759.35c-3.55,0-7.15-0.83-10.53-2.57c-52.26-26.97-79.06-83.37-71.69-150.87
								c4.72-43.26,23.39-86.67,52.56-122.24c32.33-39.42,75.54-67.18,124.95-80.28c97.26-25.77,187.06-15.07,266.29-5.63
								c96.69,11.52,173.07,20.62,230.92-37.23c8.98-8.98,23.54-8.98,32.52,0c8.98,8.98,8.98,23.54,0,32.52
								c-73.64,73.64-168.48,62.34-268.88,50.38c-75.14-8.95-160.3-19.1-249.07,4.42c-40.02,10.6-75.01,33.07-101.17,64.98
								c-23.58,28.75-38.64,63.58-42.4,98.07c-5.3,48.56,11.85,86.84,47.07,105.01c11.29,5.83,15.71,19.7,9.89,30.98
								C3030.81,1754.81,3022.77,1759.35,3014.44,1759.35z"/>
						</g>
						<g>
							<linearGradient id="SVGID_82_" gradientUnits="userSpaceOnUse" x1="3050.0105" y1="610.7111" x2="4460.0664" y2="3676.0544">
								<stop  offset="0" style="stop-color:#E6E7E8"/>
								<stop  offset="0.4494" style="stop-color:#939598"/>
								<stop  offset="1" style="stop-color:#231F20"/>
							</linearGradient>
							<path class="st81" d="M4213.32,2427.21c-63.41,0-126.79-20.5-179.44-59.55c-58.38-43.3-151.14-133.68-261.52-318.36
								c-50.57-84.61-107.58-146.35-169.87-184.07c-1.71,8.29-3.66,16.64-5.89,25.04c-13.27,50.07-41.78,93.82-82.45,126.52
								c-36.68,29.49-81.07,47.99-124.99,52.09c-66.69,6.23-121.35-21.22-146.27-73.42c-20.3-42.53-17.29-93.44,8.06-136.17
								c29.84-50.31,85.07-81.25,151.54-84.89c43.41-2.38,99.98-1.72,162.92,21.86c4.01-58.95-2.7-115.25-8.85-166.83
								c-11.96-100.41-23.26-195.24,50.38-268.89c8.98-8.98,23.54-8.98,32.52,0c8.98,8.98,8.98,23.54,0,32.52
								c-57.85,57.85-48.75,134.23-37.23,230.92c7,58.78,14.7,123.37,7.68,192.53c75.32,40.64,143.16,110.89,201.92,209.2
								c84.3,141.03,170.55,246.5,249.44,305.02c64.03,47.49,146.64,62.66,220.97,40.56c12.17-3.61,24.97,3.32,28.59,15.49
								c3.62,12.17-3.31,24.98-15.49,28.59C4268.6,2423.31,4240.96,2427.21,4213.32,2427.21z M3433.34,1819.47
								c-10,0-19.46,0.35-28.32,0.83c-50.89,2.79-92.62,25.54-114.5,62.43c-17.51,29.51-19.79,64.24-6.11,92.9
								c7.81,16.36,33.24,53.74,100.49,47.44c63.68-5.95,143.19-53.74,167.26-144.59c3.11-11.74,5.63-23.42,7.65-35.01
								C3513.27,1824.09,3469.8,1819.47,3433.34,1819.47z"/>
							<linearGradient id="SVGID_83_" gradientUnits="userSpaceOnUse" x1="2895.5815" y1="681.7483" x2="4305.6377" y2="3747.0916">
								<stop  offset="0" style="stop-color:#E6E7E8"/>
								<stop  offset="0.4494" style="stop-color:#939598"/>
								<stop  offset="1" style="stop-color:#231F20"/>
							</linearGradient>
							<path class="st82" d="M3003.92,1756.78c-52.26-26.97-79.06-83.37-71.69-150.87c4.72-43.26,23.39-86.67,52.56-122.24
								c32.33-39.42,75.54-67.18,124.95-80.28c97.26-25.77,187.06-15.07,266.29-5.63c96.69,11.52,173.07,20.62,230.92-37.23
								l32.52,32.52c-73.64,73.64-168.48,62.34-268.88,50.38c-75.14-8.95-160.3-19.1-249.07,4.42
								c-40.02,10.6-75.01,33.07-101.17,64.98c-23.58,28.75-38.64,63.58-42.4,98.07c-5.3,48.56,11.85,86.84,47.07,105.01
								L3003.92,1756.78z"/>
						</g>
						<linearGradient id="SVGID_84_" gradientUnits="userSpaceOnUse" x1="2644.918" y1="797.0535" x2="4054.9739" y2="3862.397">
							<stop  offset="0" style="stop-color:#E6E7E8"/>
							<stop  offset="0.4494" style="stop-color:#939598"/>
							<stop  offset="1" style="stop-color:#231F20"/>
						</linearGradient>
						<path class="st83" d="M2883.32,1905.98c-32.49,0-65-5.16-97.02-15.54c-104.19-33.76-198.49-122.28-252.24-236.8
							c-5.4-11.5-0.45-25.19,11.04-30.59c11.5-5.4,25.19-0.45,30.59,11.04c48.44,103.21,132.48,182.68,224.79,212.59
							c73.3,23.75,149.86,15.38,221.42-24.21c39.36-21.77,63.34-50.7,83.72-77.41c-21.55-22.86-38.11-51.54-45.01-80.9
							c-12.07-51.33,4.45-101.03,46.52-139.92c66.11-61.11,148.72-44.29,221.61-29.45c45.81,9.33,89.07,18.14,125.13,8.7
							c12.28-3.22,24.85,4.13,28.07,16.42c3.22,12.29-4.13,24.85-16.42,28.07c-46.4,12.15-97.01,1.84-145.96-8.12
							c-68.09-13.87-132.41-26.97-181.21,18.15c-30.23,27.95-41.32,60.12-32.98,95.63c4.8,20.42,15.69,39.32,29.05,54.73
							c6.4-7.31,13.07-14.03,20.37-19.85c28.31-22.55,63.12-30.52,90.84-20.82c21.73,7.61,36.73,25.13,42.26,49.34
							c4.51,19.77-1.4,38.57-16.64,52.93c-22.45,21.15-63.3,29.32-97.14,19.43c-11.24-3.29-22.36-8.42-33-15.04
							c-22.16,28.95-50.33,62.57-96.96,88.36C2992.18,1891.47,2937.78,1905.98,2883.32,1905.98z M3169.78,1737.8
							c5.89,3.31,11.71,5.84,17.24,7.45c19.81,5.79,43.24,0.14,52.7-8.77c4.13-3.89,3.91-6.68,3.34-9.21
							c-2.61-11.45-8.46-14.71-12.63-16.17c-12.34-4.32-31.66,1.18-46.98,13.38C3178.82,1728.17,3174.32,1732.67,3169.78,1737.8z"/>
						<linearGradient id="SVGID_85_" gradientUnits="userSpaceOnUse" x1="3012.6948" y1="627.8762" x2="4422.751" y2="3693.2195">
							<stop  offset="0" style="stop-color:#E6E7E8"/>
							<stop  offset="0.4494" style="stop-color:#939598"/>
							<stop  offset="1" style="stop-color:#231F20"/>
						</linearGradient>
						<path class="st84" d="M3477.61,1735.49c-11.18,0-20.98-8.17-22.71-19.56c-2.48-16.42-5.97-33.52-9.33-50.06
							c-9.97-48.94-20.27-99.56-8.12-145.96c3.22-12.28,15.78-19.64,28.07-16.42c12.29,3.22,19.64,15.78,16.42,28.07
							c-9.44,36.05-0.63,79.32,8.7,125.13c3.48,17.1,7.08,34.78,9.74,52.36c1.9,12.56-6.74,24.28-19.3,26.18
							C3479.92,1735.4,3478.76,1735.49,3477.61,1735.49z"/>
						<g>
							<linearGradient id="SVGID_86_" gradientUnits="userSpaceOnUse" x1="3000.2539" y1="633.5992" x2="4410.3101" y2="3698.9424">
								<stop  offset="0" style="stop-color:#E6E7E8"/>
								<stop  offset="0.4494" style="stop-color:#939598"/>
								<stop  offset="1" style="stop-color:#231F20"/>
							</linearGradient>
							<circle class="st85" cx="3638.13" cy="2020.29" r="28.96"/>
							<linearGradient id="SVGID_87_" gradientUnits="userSpaceOnUse" x1="2838.8921" y1="707.8255" x2="4248.9482" y2="3773.1689">
								<stop  offset="0" style="stop-color:#E6E7E8"/>
								<stop  offset="0.4494" style="stop-color:#939598"/>
								<stop  offset="1" style="stop-color:#231F20"/>
							</linearGradient>
							<circle class="st86" cx="3397.97" cy="1923.2" r="28.96"/>
						</g>
					</g>
				</g>
				<g>
					<g>
						<linearGradient id="SVGID_88_" gradientUnits="userSpaceOnUse" x1="2206.0615" y1="998.9274" x2="3616.1177" y2="4064.2708">
							<stop  offset="0" style="stop-color:#E6E7E8"/>
							<stop  offset="0.4494" style="stop-color:#939598"/>
							<stop  offset="1" style="stop-color:#231F20"/>
						</linearGradient>
						<path class="st87" d="M2969.92,2332.82c-12.48,0-24.72-1.07-36.7-3.23c-35-6.29-66.55-21.91-91.24-45.18
							c-6.03-5.68-11.57-11.73-16.6-18.1c-34.39,13.38-68.72,23.23-102.1,29.19c-76.41,13.64-147.04,7.61-209.91-17.9
							c-55.48-22.52-103.63-59.96-143.11-111.29c-41.95-54.54-74.18-125.06-95.81-209.61c-3.15-12.3,4.28-24.83,16.58-27.98
							c12.3-3.15,24.83,4.27,27.98,16.58c20.08,78.47,49.58,143.4,87.71,192.97c34.43,44.77,76.13,77.31,123.95,96.72
							c54.71,22.2,116.8,27.33,184.54,15.24c28.29-5.05,57.42-13.19,86.72-24.17c-13.6-33.46-16.03-71.02-5.76-107.14
							c10.65-37.45,34.45-71.64,68.83-98.88c37.71-29.87,87.27-51.24,147.32-63.51c6.29-1.28,12.82,0.12,18.03,3.86
							c5.21,3.75,8.61,9.5,9.4,15.87c0.2,1.63,4.78,40.53-5.52,88.5c-13.92,64.83-48.46,115.74-99.88,147.21
							c-21.28,13.02-42.91,24.77-64.68,35.16c1.25,1.29,2.54,2.56,3.86,3.8c39.92,37.61,100.24,46.09,165.49,23.27
							c11.99-4.19,25.1,2.13,29.3,14.11c4.19,11.99-2.13,25.1-14.11,29.3C3025.25,2327.74,2997.03,2332.82,2969.92,2332.82z
							 M2994.82,2007.95c-82.63,22.6-138.29,66.79-154.43,123.55c-7.35,25.85-5.67,52.73,3.95,76.74
							c22.17-10.32,44.25-22.18,65.98-35.48c40.62-24.87,67.08-63.99,78.63-116.28C2993.02,2038.05,2994.46,2021.06,2994.82,2007.95
							z"/>
					</g>
				</g>
			</g>
		</g>
	</g>
</g>
</svg>
